<svg width="802" height="535" viewBox="0 0 802 535" fill="none" xmlns="http://www.w3.org/2000/svg">
<g clip-path="url(#clip0_31_1071)">
<g clip-path="url(#clip1_31_1071)">
<path vector-effect="non-scaling-stroke" d="M514.459 296.601C513.139 280.136 521.054 279.523 519.734 263.059C518.414 246.601 510.498 247.215 509.184 230.757C507.864 214.3 515.78 213.68 514.459 197.215C514.359 195.968 514.217 194.826 514.045 193.762L433.853 259.302C441.79 268.38 438.678 274.04 449.635 284.048C461.911 295.262 467.3 289.51 479.577 300.724C491.854 311.938 486.458 317.689 498.735 328.902H525.009C523.688 312.438 515.773 313.058 514.459 296.601V296.601Z" fill="black" stroke="white" stroke-width="0.943529" stroke-miterlimit="10"/>
<path vector-effect="non-scaling-stroke" d="M525.295 329.166H498.635L498.557 329.096C492.375 323.45 490.612 319.108 488.914 314.908C487.229 310.763 485.495 306.478 479.399 300.91C473.303 295.342 468.842 293.961 464.531 292.629C460.163 291.275 455.645 289.88 449.463 284.234C443.282 278.589 441.519 274.247 439.813 270.046C438.493 266.79 437.122 263.421 433.661 259.467L433.489 259.27L514.238 193.278L514.31 193.729C514.495 194.885 514.631 196.02 514.724 197.204C515.387 205.493 513.703 209.863 512.068 214.084C510.455 218.257 508.792 222.57 509.449 230.739C510.105 238.908 512.439 242.911 514.688 246.781C516.972 250.699 519.335 254.752 519.998 263.041C520.662 271.329 518.978 275.699 517.343 279.921C515.73 284.093 514.067 288.407 514.724 296.583C515.38 304.758 517.714 308.755 519.963 312.624C522.247 316.543 524.609 320.596 525.273 328.884L525.295 329.166V329.166ZM498.842 328.652H524.731C524.045 320.666 521.74 316.712 519.513 312.885C517.229 308.966 514.866 304.914 514.202 296.625C513.539 288.336 515.223 283.966 516.858 279.745C518.471 275.572 520.134 271.259 519.477 263.09C518.821 254.914 516.487 250.918 514.238 247.048C511.954 243.13 509.592 239.077 508.928 230.788C508.264 222.5 509.948 218.13 511.583 213.908C513.196 209.736 514.859 205.422 514.202 197.253C514.124 196.239 514.01 195.259 513.86 194.272L434.232 259.354C437.622 263.294 438.985 266.642 440.299 269.884C441.983 274.029 443.725 278.314 449.82 283.882C455.916 289.45 460.377 290.831 464.688 292.163C469.056 293.517 473.575 294.912 479.756 300.558C485.937 306.203 487.7 310.545 489.399 314.746C491.076 318.876 492.804 323.14 498.842 328.673V328.652Z" fill="white" stroke="white" stroke-width="0.943529" stroke-miterlimit="10"/>
<path vector-effect="non-scaling-stroke" d="M525.016 328.966H498.685V354.966H525.016V328.966Z" fill="#202020" stroke="white" stroke-width="0.943529" stroke-miterlimit="10"/>
<path vector-effect="non-scaling-stroke" d="M531.411 335.84H525.265V328.707H498.413V355.222H525.265V349.006H531.411C535.087 349.006 538.077 346.052 538.077 342.423C538.077 338.793 535.087 335.84 531.411 335.84V335.84ZM524.744 354.701H498.941V329.222H524.744V354.701ZM531.411 348.484H525.265V336.354H531.411C534.801 336.354 537.556 339.075 537.556 342.423C537.556 345.771 534.801 348.491 531.411 348.491V348.484Z" fill="white" stroke="white" stroke-width="0.943529" stroke-miterlimit="10"/>
<path vector-effect="non-scaling-stroke" d="M358.384 474.317C358.384 507.472 385.607 534.353 419.183 534.353C452.758 534.353 479.982 507.472 479.982 474.317H358.384V474.317Z" fill="black" stroke="white" stroke-width="0.943529" stroke-miterlimit="10"/>
<path vector-effect="non-scaling-stroke" d="M419.182 534.616C385.514 534.616 358.119 507.565 358.119 474.319V474.059H480.238V474.319C480.238 507.565 452.844 534.616 419.175 534.616H419.182ZM358.647 474.58C358.79 507.424 385.892 534.102 419.182 534.102C452.473 534.102 479.574 507.424 479.717 474.58H358.647V474.58Z" fill="white" stroke="white" stroke-width="0.943529" stroke-miterlimit="10"/>
<path vector-effect="non-scaling-stroke" d="M362.738 496.667C365.243 494.764 367.905 493.22 370.817 492.819C378.126 491.811 387.448 500.959 395.628 499.817C403.201 498.767 409.582 487.434 417.512 486.32C425.271 485.235 434.593 494.362 442.344 493.263C450.274 492.135 456.62 480.788 464.186 479.695C468.99 479.004 474.207 481.845 479.175 484.1C479.703 480.914 479.982 477.651 479.982 474.317H358.384C358.384 482.211 359.932 489.753 362.738 496.66V496.667Z" fill="black" stroke="white" stroke-width="0.943529" stroke-miterlimit="10"/>
<path vector-effect="non-scaling-stroke" d="M394.172 500.179C390.332 500.179 386.313 498.276 382.416 496.429C378.255 494.456 374.329 492.595 370.853 493.074C368.383 493.413 365.856 494.618 362.894 496.866L362.623 497.078L362.495 496.761C359.597 489.621 358.119 482.072 358.119 474.319V474.059H480.238V474.319C480.238 477.597 479.967 480.895 479.425 484.137L479.367 484.469L479.053 484.328C478.425 484.046 477.797 483.75 477.169 483.461C472.822 481.445 468.333 479.352 464.214 479.951C460.56 480.479 457.226 483.426 453.7 486.541C450.146 489.684 446.47 492.941 442.373 493.518C438.411 494.075 434.036 492.017 429.803 490.03C425.642 488.07 421.345 486.047 417.541 486.583C413.608 487.133 409.982 490.319 406.477 493.399C403.037 496.422 399.475 499.552 395.649 500.08C395.157 500.151 394.657 500.179 394.157 500.179H394.172ZM371.995 492.482C375.292 492.482 378.876 494.181 382.644 495.964C386.977 498.015 391.459 500.144 395.592 499.566C399.254 499.058 402.601 496.119 406.142 493.011C409.703 489.882 413.386 486.647 417.476 486.076C421.438 485.519 425.806 487.577 430.032 489.572C434.2 491.531 438.504 493.554 442.301 493.018C446.241 492.461 449.86 489.261 453.358 486.167C456.784 483.137 460.331 480 464.143 479.45C468.418 478.837 472.979 480.959 477.397 483.01C477.926 483.256 478.447 483.496 478.968 483.736C479.453 480.712 479.703 477.639 479.717 474.594H358.647C358.676 482.072 360.096 489.36 362.851 496.267C365.771 494.096 368.298 492.919 370.781 492.581C371.181 492.525 371.588 492.496 371.995 492.496V492.482Z" fill="white" stroke="white" stroke-width="0.943529" stroke-miterlimit="10"/>
<path vector-effect="non-scaling-stroke" d="M380.305 474.31C367.114 469.038 370.276 445.258 381.939 451.22C365.686 436.849 377.3 412.822 389.405 423.831C369.976 394.067 389.912 368.095 403.252 384.616C398.092 366.953 402.967 336.266 428.634 336.266C454.301 336.266 454.829 366.96 447.163 384.616C462.845 368.095 479.098 394.067 455.457 423.831C469.126 412.829 477.335 436.856 459.048 451.22C471.553 445.265 471.346 469.038 457.413 474.31H380.305V474.31Z" fill="black" stroke="white" stroke-width="0.943529" stroke-miterlimit="10"/>
<path vector-effect="non-scaling-stroke" d="M457.463 474.57L380.212 474.549C375.436 472.639 372.21 468.022 371.568 462.201C371.032 457.345 372.524 452.827 375.279 450.959C376.828 449.909 378.677 449.726 380.69 450.402C374.066 443.869 372.91 435.798 374.109 430.252C375.108 425.635 377.778 422.118 381.075 421.089C382.774 420.553 385.336 420.448 388.327 422.611C381.839 412.089 380.797 403.166 381.09 397.45C381.468 390.239 384.237 384.129 388.506 381.105C393.109 377.842 398.349 378.772 402.688 383.551C399.726 372.168 400.768 355.852 408.555 345.625C413.423 339.239 420.176 335.997 428.627 335.997C437.078 335.997 442.959 339.028 446.956 345.012C453.751 355.182 452.588 371.78 447.906 383.494C452.981 378.702 458.555 377.856 462.652 381.331C470.175 387.702 469.926 405.083 456.771 422.548C460.161 420.356 462.752 420.56 464.415 421.188C467.156 422.231 469.076 425.078 469.69 429.004C470.225 432.437 469.661 436.369 468.098 440.077C466.499 443.876 463.873 447.414 460.468 450.381C462.966 449.606 464.629 450.198 465.629 450.91C467.798 452.46 468.812 455.991 468.262 460.129C467.599 465.154 464.379 471.948 457.499 474.556L457.456 474.57H457.463ZM380.354 474.056H457.363C464.001 471.518 467.106 464.935 467.756 460.065C468.277 456.118 467.349 452.77 465.336 451.333C463.787 450.226 461.653 450.275 459.169 451.459L457.056 452.467L458.891 451.029C464.522 446.603 470.604 438.202 469.183 429.096C468.612 425.417 466.763 422.647 464.237 421.688C461.71 420.73 458.734 421.54 455.629 424.042L453.809 425.508L455.258 423.683C470.782 404.138 468.648 387.103 462.324 381.739C458.141 378.194 452.545 379.343 447.363 384.798L446.342 385.87L446.928 384.516C451.974 372.887 453.459 355.682 446.528 345.308C442.638 339.479 436.614 336.526 428.634 336.526C420.654 336.526 413.745 339.697 408.977 345.949C401.025 356.387 400.204 373.268 403.502 384.552L403.866 385.799L403.045 384.784C398.755 379.47 393.431 378.258 388.805 381.535C384.665 384.467 381.975 390.437 381.603 397.485C381.297 403.37 382.439 412.695 389.612 423.697L390.718 425.395L389.212 424.028C386.571 421.625 383.802 420.786 381.218 421.596C378.106 422.576 375.572 425.938 374.608 430.378C373.374 436.073 374.694 444.489 382.103 451.037L383.638 452.397L381.81 451.459C379.455 450.254 377.292 450.233 375.565 451.403C372.967 453.165 371.561 457.486 372.075 462.158C372.688 467.769 375.779 472.216 380.347 474.063L380.354 474.056Z" fill="white" stroke="white" stroke-width="0.943529" stroke-miterlimit="10"/>
<path vector-effect="non-scaling-stroke" d="M498.941 368.104H498.42V534.362H498.941V368.104Z" fill="black" stroke="white" stroke-width="0.943529" stroke-miterlimit="10"/>
<path vector-effect="non-scaling-stroke" d="M453.765 501.633C451.467 509.731 453.908 522.446 446.249 525.392C438.59 528.338 434.222 530.389 435.079 534.357H466.156L453.772 501.633H453.765Z" fill="black" stroke="white" stroke-width="0.943529" stroke-miterlimit="10"/>
<path vector-effect="non-scaling-stroke" d="M466.527 534.612H434.865L434.822 534.408C433.915 530.179 438.498 528.093 446.156 525.154C451.217 523.208 451.752 516.661 452.273 510.332C452.523 507.308 452.773 504.186 453.515 501.571L453.729 500.81L466.527 534.619V534.612ZM435.293 534.098H465.771L453.808 502.494C453.237 504.89 453.009 507.674 452.787 510.367C452.259 516.858 451.709 523.568 446.342 525.633C439.076 528.424 434.665 530.405 435.293 534.098V534.098Z" fill="white" stroke="white" stroke-width="0.943529" stroke-miterlimit="10"/>
<path vector-effect="non-scaling-stroke" d="M462.274 534.354C462.274 534.354 452.923 527.51 452.923 508.445C452.923 489.38 469.747 482.536 498.74 482.536H540.646C553.408 482.536 564.621 489.422 572.409 504.329C580.196 519.236 592.751 534.347 592.751 534.347H462.274V534.354Z" fill="black" stroke="white" stroke-width="0.943529" stroke-miterlimit="10"/>
<path vector-effect="non-scaling-stroke" d="M593.301 534.619H462.188L462.117 534.57C462.024 534.499 452.66 527.43 452.66 508.457C452.66 490.604 467.299 482.294 498.734 482.294H540.639C554.072 482.294 565.136 489.878 572.637 504.228C580.325 518.937 592.823 534.048 592.951 534.203L593.301 534.626V534.619ZM462.367 534.105H592.202C590.125 531.546 579.169 517.845 572.174 504.467C564.772 490.301 553.865 482.815 540.646 482.815H498.741C483.523 482.815 472.517 484.704 465.086 488.588C457.078 492.774 453.188 499.273 453.188 508.464C453.188 526.345 461.539 533.449 462.367 534.112V534.105Z" fill="white" stroke="white" stroke-width="0.943529" stroke-miterlimit="10"/>
<path vector-effect="non-scaling-stroke" d="M513.515 534.253C512.823 525.95 509.868 521.743 504.722 521.743H488.255L488.283 521.461C489.268 510.888 485.071 504.637 481.374 501.247C477.37 497.575 473.087 496.391 473.044 496.376L473.18 495.876C473.351 495.925 490.575 500.817 488.833 521.221H504.729C510.196 521.221 513.33 525.591 514.043 534.211L513.522 534.253H513.515Z" fill="white" stroke="white" stroke-width="0.943529" stroke-miterlimit="10"/>
<path vector-effect="non-scaling-stroke" d="M558.29 506.037H537.548C528.755 506.037 521.303 510.252 517.762 515.785C514.229 521.317 506.963 523.079 501.803 524.651C496.642 526.223 493.294 530.022 496.735 534.349H564.022C564.022 534.349 571.288 521.148 558.29 506.037V506.037Z" fill="black" stroke="white" stroke-width="0.943529" stroke-miterlimit="10"/>
<path vector-effect="non-scaling-stroke" d="M564.178 534.612H496.606L496.527 534.514C495.199 532.843 494.771 531.102 495.278 529.488C495.97 527.296 498.319 525.443 501.723 524.406C502.152 524.28 502.587 524.146 503.037 524.012C508.076 522.511 514.35 520.643 517.541 515.646C521.373 509.655 529.225 505.778 537.548 505.778H558.411L558.49 505.87C571.452 520.939 564.328 534.337 564.257 534.471L564.186 534.605L564.178 534.612ZM496.863 534.098H563.857C564.557 532.674 570.088 520.248 558.161 506.3H537.54C529.396 506.3 521.716 510.078 517.976 515.928C514.678 521.087 508.304 522.983 503.179 524.512C502.73 524.646 502.294 524.773 501.866 524.907C498.683 525.88 496.406 527.649 495.771 529.65C495.314 531.088 495.678 532.582 496.855 534.105L496.863 534.098Z" fill="white" stroke="white" stroke-width="0.943529" stroke-miterlimit="10"/>
<path vector-effect="non-scaling-stroke" d="M553.415 534.359H564.021C564.021 534.359 571.288 521.158 558.29 506.047H549.589C549.589 506.047 558.19 516.062 553.415 534.359Z" fill="#202020" stroke="white" stroke-width="0.943529" stroke-miterlimit="10"/>
<path vector-effect="non-scaling-stroke" d="M564.178 534.615H553.071L553.157 534.291C557.847 516.332 549.474 506.31 549.388 506.211L549.024 505.788H558.41L558.489 505.88C571.451 520.949 564.328 534.347 564.256 534.481L564.185 534.615H564.178ZM553.75 534.1H563.864C564.563 532.677 570.095 520.251 558.168 506.303H550.116C551.644 508.396 557.797 518.15 553.75 534.1V534.1Z" fill="white" stroke="white" stroke-width="0.943529" stroke-miterlimit="10"/>
<path vector-effect="non-scaling-stroke" d="M503.058 524.001C502.601 524.135 502.159 524.269 501.723 524.403C498.64 525.34 496.363 527.003 495.485 528.956C494.9 530.26 494.935 531.627 495.592 533.016L495.663 533.171H495.835C503.572 533.03 503.929 527.257 504.122 524.156L504.15 523.677L503.058 524.001V524.001Z" fill="white" stroke="white" stroke-width="0.943529" stroke-miterlimit="10"/>
<path vector-effect="non-scaling-stroke" d="M531.273 511.21C534.985 513.198 529.803 525.898 540.26 525.898C547.248 525.898 538.147 508.447 538.147 508.447L531.273 511.21Z" fill="black" stroke="white" stroke-width="0.943529" stroke-miterlimit="10"/>
<path vector-effect="non-scaling-stroke" d="M541.058 506.03C544.399 506.03 548.617 508.532 547.261 513.713C545.912 518.893 544.156 525.885 540.259 525.885C534.213 525.885 534.927 511.197 531.272 511.197" fill="black"/>
<path vector-effect="non-scaling-stroke" d="M541.058 506.03C544.399 506.03 548.617 508.532 547.261 513.713C545.912 518.893 544.156 525.885 540.259 525.885C534.213 525.885 534.927 511.197 531.272 511.197" stroke="white" stroke-width="0.943529" stroke-miterlimit="10"/>
<path vector-effect="non-scaling-stroke" d="M540.266 526.15C536.669 526.15 535.384 521.421 534.249 517.248C533.443 514.274 532.679 511.462 531.28 511.462V510.947C533.078 510.947 533.856 513.802 534.756 517.114C535.841 521.111 537.068 525.636 540.266 525.636C543.892 525.636 545.655 518.876 546.94 513.943L547.011 513.661C547.525 511.701 547.24 509.961 546.198 508.636C545.084 507.219 543.064 506.303 541.058 506.303V505.788C542.779 505.788 545.141 506.458 546.612 508.325C547.754 509.784 548.068 511.673 547.518 513.795L547.447 514.077C546.041 519.461 544.299 526.157 540.266 526.157V526.15Z" fill="white" stroke="white" stroke-width="0.943529" stroke-miterlimit="10"/>
<path vector-effect="non-scaling-stroke" d="M612.5 354.965V348.594H569.253V354.965H612.5Z" fill="#A100FF" stroke="white" stroke-width="0.943529" stroke-miterlimit="10"/>
<path vector-effect="non-scaling-stroke" d="M612.757 355.221H568.988V348.335H612.757V355.221ZM569.509 354.706H612.236V348.857H569.509V354.706Z" fill="white" stroke="white" stroke-width="0.943529" stroke-miterlimit="10"/>
<path vector-effect="non-scaling-stroke" d="M559.603 309.378L553.151 311.45L567.812 354.951H574.257L559.603 309.378Z" fill="#A100FF" stroke="white" stroke-width="0.943529" stroke-miterlimit="10"/>
<path vector-effect="non-scaling-stroke" d="M574.613 355.214H567.618L567.561 355.038L552.822 311.283L559.774 309.056L574.62 355.214H574.613ZM567.997 354.699H573.899L559.431 309.711L553.486 311.621L567.997 354.706V354.699Z" fill="white" stroke="white" stroke-width="0.943529" stroke-miterlimit="10"/>
<path vector-effect="non-scaling-stroke" d="M732.271 304.588L718.488 325.598L718.924 325.88L732.714 304.87L732.271 304.588Z" fill="black" stroke="white" stroke-width="0.943529" stroke-miterlimit="10"/>
<path vector-effect="non-scaling-stroke" d="M707.487 355.003H498.188V368.155H707.487V355.003Z" fill="#202020" stroke="white" stroke-width="0.943529" stroke-miterlimit="10"/>
<path vector-effect="non-scaling-stroke" d="M707.744 368.41H497.924V354.744H707.744V368.41ZM498.445 367.896H707.216V355.266H498.445V367.896Z" fill="white" stroke="white" stroke-width="0.943529" stroke-miterlimit="10"/>
<path vector-effect="non-scaling-stroke" d="M626.133 354.943C616.997 354.943 602.229 347.409 606.076 343.687C608.482 341.354 618.46 350.905 618.46 350.905L626.141 354.943H626.133Z" fill="black" stroke="white" stroke-width="0.943529" stroke-miterlimit="10"/>
<path vector-effect="non-scaling-stroke" d="M627.182 355.211H626.133C618.688 355.211 607.061 350.073 605.398 346.048C604.998 345.082 605.169 344.209 605.89 343.511C608.388 341.086 617.453 349.593 618.61 350.7L627.182 355.211V355.211ZM607.132 343.574C606.775 343.574 606.476 343.666 606.261 343.877C605.69 344.434 605.569 345.075 605.883 345.851C607.411 349.544 617.739 354.203 625.019 354.654L618.274 351.095C615.876 348.797 609.787 343.567 607.125 343.567L607.132 343.574Z" fill="white" stroke="white" stroke-width="0.943529" stroke-miterlimit="10"/>
<path vector-effect="non-scaling-stroke" d="M609.48 331.541C604.091 329.553 597.888 324.021 595.847 322.11C595.404 321.695 594.683 321.73 594.312 322.209C593.099 323.781 592.235 327.939 604.698 336.094L609.487 331.541H609.48Z" fill="black" stroke="white" stroke-width="0.943529" stroke-miterlimit="10"/>
<path vector-effect="non-scaling-stroke" d="M604.719 336.418L604.548 336.305C597.724 331.836 593.991 327.995 593.463 324.894C593.228 323.534 593.684 322.596 594.106 322.054C594.327 321.772 594.648 321.596 595.012 321.567C595.39 321.539 595.762 321.666 596.033 321.92C597.846 323.618 604.177 329.306 609.58 331.294L609.973 331.435L604.734 336.418H604.719ZM595.112 322.075C595.112 322.075 595.069 322.075 595.048 322.075C594.834 322.089 594.641 322.195 594.512 322.357C593.991 323.033 593.813 323.851 593.97 324.802C594.313 326.818 596.454 330.356 604.655 335.755L608.995 331.625C603.749 329.546 597.946 324.429 595.662 322.286C595.512 322.145 595.312 322.068 595.112 322.068V322.075Z" fill="white" stroke="white" stroke-width="0.943529" stroke-miterlimit="10"/>
<path vector-effect="non-scaling-stroke" d="M603.971 332.515L595.121 340.831C594.521 341.395 594.592 342.354 595.256 342.833C596.398 343.665 598.39 344.37 601.073 342.53C605.456 339.52 603.964 332.515 603.964 332.515H603.971Z" fill="black" stroke="white" stroke-width="0.943529" stroke-miterlimit="10"/>
<path vector-effect="non-scaling-stroke" d="M597.812 343.959C596.691 343.959 595.785 343.536 595.107 343.043C594.721 342.768 594.486 342.338 594.457 341.873C594.429 341.415 594.607 340.964 594.942 340.647L604.129 332.013L604.229 332.464C604.293 332.76 605.706 339.667 601.231 342.747C599.939 343.635 598.79 343.959 597.812 343.959V343.959ZM603.793 333.042L595.306 341.02C595.078 341.232 594.964 341.535 594.978 341.838C595 342.148 595.157 342.437 595.414 342.627C596.534 343.445 598.404 344.051 600.931 342.317C604.478 339.878 604.022 334.635 603.793 333.035V333.042Z" fill="white" stroke="white" stroke-width="0.943529" stroke-miterlimit="10"/>
<path vector-effect="non-scaling-stroke" d="M626.133 334.532C619.752 334.532 614.948 333.883 609.48 331.529C606.889 330.416 603.877 331.642 602.778 334.215L598.474 344.314C598.11 345.174 598.695 346.147 599.637 346.217C601.358 346.351 604.206 345.005 607.246 336.963L610.373 338.986C610.373 338.986 611.044 354.943 626.14 354.943V334.532H626.133Z" fill="black" stroke="white" stroke-width="0.943529" stroke-miterlimit="10"/>
<path vector-effect="non-scaling-stroke" d="M626.397 355.211H626.133C611.7 355.211 610.223 340.706 610.109 339.141L607.368 337.365C604.363 345.153 601.493 346.64 599.609 346.485C599.081 346.443 598.617 346.161 598.339 345.717C598.06 345.259 598.017 344.716 598.224 344.23L602.528 334.13C603.092 332.805 604.149 331.783 605.498 331.254C606.825 330.733 608.274 330.747 609.58 331.311C615.326 333.785 620.351 334.292 626.133 334.292H626.397V355.225V355.211ZM607.111 336.576L610.623 338.852V338.986C610.63 339.028 610.822 342.975 612.828 346.873C615.469 351.99 619.859 354.619 625.876 354.689V334.792C620.144 334.778 615.119 334.243 609.373 331.769C608.203 331.261 606.897 331.247 605.698 331.719C604.477 332.199 603.528 333.122 603.021 334.32L598.717 344.42C598.574 344.758 598.603 345.125 598.795 345.442C598.981 345.745 599.302 345.943 599.659 345.971C601.079 346.069 603.92 345.047 607.004 336.886L607.118 336.583L607.111 336.576Z" fill="white" stroke="white" stroke-width="0.943529" stroke-miterlimit="10"/>
<path vector-effect="non-scaling-stroke" d="M648.673 334.546H635.64V354.957H648.673V334.546Z" fill="black" stroke="white" stroke-width="0.943529" stroke-miterlimit="10"/>
<path vector-effect="non-scaling-stroke" d="M648.674 334.287H635.376V355.22H648.93V334.287H648.666H648.674ZM648.409 334.802V339.39H635.897V334.802H648.409ZM635.897 344.493V339.904H648.409V344.493H635.897ZM648.409 345.007V349.596H635.897V345.007H648.409ZM635.897 354.691V350.11H648.409V354.691H635.897Z" fill="white" stroke="white" stroke-width="0.943529" stroke-miterlimit="10"/>
<path vector-effect="non-scaling-stroke" d="M634.035 331.393H627.739C626.852 331.393 626.133 332.101 626.133 332.975C626.133 333.849 626.852 334.557 627.739 334.557H634.035C634.922 334.557 635.641 333.849 635.641 332.975C635.641 332.101 634.922 331.393 634.035 331.393Z" fill="black" stroke="white" stroke-width="0.943529" stroke-miterlimit="10"/>
<path vector-effect="non-scaling-stroke" d="M634.035 334.813H627.733C626.705 334.813 625.87 333.988 625.87 332.973C625.87 331.958 626.705 331.134 627.733 331.134H634.035C635.063 331.134 635.898 331.958 635.898 332.973C635.898 333.988 635.063 334.813 634.035 334.813ZM627.733 331.648C626.99 331.648 626.391 332.24 626.391 332.973C626.391 333.706 626.99 334.298 627.733 334.298H634.035C634.778 334.298 635.377 333.706 635.377 332.973C635.377 332.24 634.778 331.648 634.035 331.648H627.733Z" fill="white" stroke="white" stroke-width="0.943529" stroke-miterlimit="10"/>
<path vector-effect="non-scaling-stroke" d="M630.888 334.813C629.86 334.813 629.025 333.988 629.025 332.973C629.025 331.958 629.86 331.134 630.888 331.134C631.916 331.134 632.751 331.958 632.751 332.973C632.751 333.988 631.916 334.813 630.888 334.813ZM630.888 331.648C630.146 331.648 629.546 332.24 629.546 332.973C629.546 333.706 630.146 334.298 630.888 334.298C631.63 334.298 632.23 333.706 632.23 332.973C632.23 332.24 631.63 331.648 630.888 331.648Z" fill="white" stroke="white" stroke-width="0.943529" stroke-miterlimit="10"/>
<path vector-effect="non-scaling-stroke" d="M635.641 334.544H626.134V354.955H635.641V334.544Z" fill="black" stroke="white" stroke-width="0.943529" stroke-miterlimit="10"/>
<path vector-effect="non-scaling-stroke" d="M635.905 355.218H625.876V334.285H635.905V355.218ZM626.398 354.704H635.377V334.807H626.398V354.704Z" fill="white" stroke="white" stroke-width="0.943529" stroke-miterlimit="10"/>
<path vector-effect="non-scaling-stroke" d="M626.133 334.563H635.641V341.287C635.641 343.874 633.514 345.981 630.887 345.981C628.268 345.981 626.133 343.881 626.133 341.287V334.563V334.563Z" fill="black" stroke="white" stroke-width="0.943529" stroke-miterlimit="10"/>
<path vector-effect="non-scaling-stroke" d="M630.887 346.23C628.124 346.23 625.876 344.01 625.876 341.282V334.305H635.904V341.282C635.904 344.01 633.656 346.23 630.894 346.23H630.887ZM626.397 334.819V341.282C626.397 343.728 628.41 345.716 630.887 345.716C633.363 345.716 635.376 343.728 635.376 341.282V334.819H626.397V334.819Z" fill="white" stroke="white" stroke-width="0.943529" stroke-miterlimit="10"/>
<path vector-effect="non-scaling-stroke" d="M630.887 343.603C630.302 343.603 629.824 343.131 629.824 342.553C629.824 341.974 630.302 341.502 630.887 341.502C631.473 341.502 631.951 341.974 631.951 342.553C631.951 343.131 631.473 343.603 630.887 343.603ZM630.887 342.017C630.588 342.017 630.345 342.256 630.345 342.553C630.345 342.849 630.588 343.089 630.887 343.089C631.187 343.089 631.43 342.849 631.43 342.553C631.43 342.256 631.187 342.017 630.887 342.017Z" fill="black" stroke="white" stroke-width="0.943529" stroke-miterlimit="10"/>
<path vector-effect="non-scaling-stroke" d="M630.887 349.799C630.302 349.799 629.824 349.326 629.824 348.748C629.824 348.17 630.302 347.697 630.887 347.697C631.473 347.697 631.951 348.17 631.951 348.748C631.951 349.326 631.473 349.799 630.887 349.799ZM630.887 348.212C630.588 348.212 630.345 348.452 630.345 348.748C630.345 349.044 630.588 349.284 630.887 349.284C631.187 349.284 631.43 349.044 631.43 348.748C631.43 348.452 631.187 348.212 630.887 348.212Z" fill="black" stroke="white" stroke-width="0.943529" stroke-miterlimit="10"/>
<path vector-effect="non-scaling-stroke" d="M616.553 501.613L607.937 534.338H560.415C560.415 534.338 561.007 525.711 575.118 521.313C585.511 518.071 589.08 511.544 592.491 501.621C595.91 491.697 616.553 501.621 616.553 501.621V501.613Z" fill="#202020" stroke="white" stroke-width="0.943529" stroke-miterlimit="10"/>
<path vector-effect="non-scaling-stroke" d="M608.138 534.595H560.129L560.151 534.32C560.151 534.236 560.922 525.468 575.033 521.063C584.962 517.969 588.616 512.055 592.242 501.532C592.863 499.721 594.091 498.424 595.882 497.691C598.816 496.479 603.213 496.74 608.944 498.452C613.184 499.721 616.624 501.37 616.66 501.384L616.853 501.476L616.796 501.68L608.131 534.595H608.138ZM560.715 534.081H607.738L616.246 501.758C614.569 500.983 602.406 495.57 596.089 498.163C594.44 498.84 593.313 500.031 592.742 501.694C591.243 506.05 589.465 510.575 586.625 514.127C583.819 517.637 580.194 519.998 575.197 521.556C568.002 523.797 564.441 527.159 562.713 529.591C561.243 531.663 560.822 533.418 560.715 534.081V534.081Z" fill="white" stroke="white" stroke-width="0.943529" stroke-miterlimit="10"/>
<path vector-effect="non-scaling-stroke" d="M567.717 524.643C560.779 529.048 560.415 534.341 560.415 534.341H607.938L610.493 524.643H567.724H567.717Z" fill="black" stroke="white" stroke-width="0.943529" stroke-miterlimit="10"/>
<path vector-effect="non-scaling-stroke" d="M608.137 534.604H560.129L560.15 534.329C560.165 534.11 560.607 528.859 567.574 524.426L567.638 524.384H610.828L608.137 534.604V534.604ZM560.714 534.089H607.737L610.157 524.905H567.802C562.02 528.606 560.914 532.961 560.721 534.089H560.714Z" fill="white" stroke="white" stroke-width="0.943529" stroke-miterlimit="10"/>
<path vector-effect="non-scaling-stroke" d="M599.002 506.293H590.694V505.778H599.002V506.293ZM588.31 510.945V511.459H596.618V510.945H588.31ZM592.693 516.111H584.384V516.625H592.693V516.111Z" fill="white" stroke="white" stroke-width="0.943529" stroke-miterlimit="10"/>
<path vector-effect="non-scaling-stroke" d="M668.853 501.63L673.456 534.355H627.161C627.161 534.355 625.17 528.744 639.16 519.772C651.936 511.575 638.318 482.544 638.318 482.544L668.86 501.637L668.853 501.63Z" fill="#202020" stroke="white" stroke-width="0.943529" stroke-miterlimit="10"/>
<path vector-effect="non-scaling-stroke" d="M673.756 534.607H626.976L626.912 534.431C626.826 534.191 625.013 528.524 639.017 519.545C651.458 511.567 638.211 482.93 638.075 482.641L637.704 481.845L669.095 501.467L669.11 501.586L673.756 534.6V534.607ZM627.368 534.092H673.157L668.61 501.784L638.903 483.212C639.824 485.312 642.329 491.374 643.785 498.027C646.176 508.98 644.627 516.571 639.303 519.989C626.997 527.883 627.197 533.099 627.368 534.099V534.092Z" fill="white" stroke="white" stroke-width="0.943529" stroke-miterlimit="10"/>
<path vector-effect="non-scaling-stroke" d="M627.162 534.349H673.457L672.094 524.65H632.636C625.884 530.726 627.162 534.349 627.162 534.349V534.349Z" fill="black" stroke="white" stroke-width="0.943529" stroke-miterlimit="10"/>
<path vector-effect="non-scaling-stroke" d="M673.756 534.611H626.976L626.911 534.435C626.854 534.28 625.655 530.58 632.457 524.462L632.536 524.392H672.322L673.756 534.611ZM627.368 534.097H673.157L671.865 524.913H632.736C627.118 530.002 627.247 533.322 627.375 534.097H627.368Z" fill="white" stroke="white" stroke-width="0.943529" stroke-miterlimit="10"/>
<path vector-effect="non-scaling-stroke" d="M652.914 506.292H644.606V505.777H652.914V506.292ZM644.313 510.944V511.458H652.621V510.944H644.313ZM650.787 516.11H642.479V516.624H650.787V516.11Z" fill="white" stroke="white" stroke-width="0.943529" stroke-miterlimit="10"/>
<path vector-effect="non-scaling-stroke" d="M684.913 534.354C684.913 504.914 722.179 504.914 722.179 483.995C722.179 504.914 759.445 504.914 759.445 534.354H684.913V534.354Z" fill="#202020" stroke="white" stroke-width="0.943529" stroke-miterlimit="10"/>
<path vector-effect="non-scaling-stroke" d="M738.582 504.188C730.281 498.663 722.443 493.44 722.443 484.009V423.847H721.922V484.009C721.922 493.44 714.085 498.663 705.784 504.188C695.884 510.785 684.656 518.256 684.656 534.368V534.629H759.716V534.368C759.716 518.256 748.496 510.785 738.589 504.188H738.582ZM685.177 534.107C685.299 518.447 696.334 511.102 706.069 504.618C713.593 499.607 720.745 494.849 722.179 486.97C723.614 494.849 730.766 499.607 738.289 504.618C748.032 511.102 759.06 518.447 759.181 534.107H685.17H685.177Z" fill="white" stroke="white" stroke-width="0.943529" stroke-miterlimit="10"/>
<path vector-effect="non-scaling-stroke" d="M581.785 501.644L609.029 403.802C614.904 382.721 634.311 368.11 656.459 368.11H675.496L635.425 446.922L623.176 501.644H581.785Z" fill="black" stroke="white" stroke-width="0.943529" stroke-miterlimit="10"/>
<path vector-effect="non-scaling-stroke" d="M623.384 501.9H581.442L581.535 501.576L608.78 403.734C614.661 382.603 634.269 367.852 656.46 367.852H675.917L675.724 368.225L635.668 447.009L623.376 501.9H623.384ZM582.128 501.385H622.962L635.175 446.833L635.189 446.805L675.068 368.366H656.46C634.504 368.366 615.104 382.963 609.287 403.867L582.135 501.378L582.128 501.385Z" fill="white" stroke="white" stroke-width="0.943529" stroke-miterlimit="10"/>
<path vector-effect="non-scaling-stroke" d="M626.61 486.293H586.061L581.785 501.644H623.177L626.61 486.293Z" fill="#202020" stroke="white" stroke-width="0.943529" stroke-miterlimit="10"/>
<path vector-effect="non-scaling-stroke" d="M623.384 501.9H581.442L585.861 486.034H626.938L623.384 501.9ZM582.128 501.385H622.962L626.282 486.549H586.26L582.128 501.385Z" fill="white" stroke="white" stroke-width="0.943529" stroke-miterlimit="10"/>
<path vector-effect="non-scaling-stroke" d="M768.18 368.11H655.468C632.128 368.11 614.484 388.987 618.659 411.668L635.226 501.644H678.023L661.143 413.507H742.006C756.46 413.507 768.18 401.934 768.18 387.662V368.11V368.11Z" fill="black" stroke="white" stroke-width="0.943529" stroke-miterlimit="10"/>
<path vector-effect="non-scaling-stroke" d="M678.343 501.9H635.01L634.968 501.688L618.401 411.712C616.395 400.83 619.365 389.715 626.545 381.215C633.726 372.722 644.268 367.852 655.474 367.852H768.443V387.664C768.443 402.056 756.58 413.77 742.005 413.77H661.456L678.336 501.907L678.343 501.9ZM635.446 501.385H677.715L660.835 413.248H742.012C756.302 413.248 767.922 401.767 767.922 387.664V368.366H655.474C644.425 368.366 634.025 373.173 626.952 381.546C619.871 389.919 616.945 400.879 618.922 411.613L635.453 501.378L635.446 501.385Z" fill="white" stroke="white" stroke-width="0.943529" stroke-miterlimit="10"/>
<path vector-effect="non-scaling-stroke" d="M632.399 486.293H675.082L678.023 501.644H635.225L632.399 486.293Z" fill="#202020" stroke="white" stroke-width="0.943529" stroke-miterlimit="10"/>
<path vector-effect="non-scaling-stroke" d="M678.344 501.9H635.011L632.091 486.034H675.31L678.351 501.9H678.344ZM635.446 501.385H677.716L674.875 486.549H632.719L635.453 501.385H635.446Z" fill="white" stroke="white" stroke-width="0.943529" stroke-miterlimit="10"/>
<path vector-effect="non-scaling-stroke" d="M768.183 354.941H718.183V368.093H768.183V354.941Z" fill="black" stroke="white" stroke-width="0.943529" stroke-miterlimit="10"/>
<path vector-effect="non-scaling-stroke" d="M768.447 368.349H717.926V354.683H768.447V368.349ZM718.447 367.834H767.925V355.204H718.447V367.834Z" fill="white" stroke="white" stroke-width="0.943529" stroke-miterlimit="10"/>
<path vector-effect="non-scaling-stroke" d="M726.263 354.941V368.093H725.742V354.941H726.263V354.941ZM733.551 354.941V368.093H734.072V354.941H733.551V354.941ZM741.367 354.941V368.093H741.888V354.941H741.367V354.941ZM749.182 354.941V368.093H749.704V354.941H749.182V354.941ZM756.998 354.941V368.093H757.519V354.941H756.998V354.941Z" fill="white" stroke="white" stroke-width="0.943529" stroke-miterlimit="10"/>
<path vector-effect="non-scaling-stroke" d="M749.438 298.465C741.95 283.213 724.698 267.227 720.937 259.608C714.577 246.732 717.304 235.469 710.166 232.374C703.15 229.337 697.332 233.671 693.114 236.526C688.896 239.38 681.537 246.901 684.956 256.239C685.055 256.514 685.155 256.796 685.248 257.071C684.82 258.763 684.299 261.117 684.035 263.344C683.871 264.725 685.462 265.635 686.597 264.803L687.033 264.486C688.146 270.653 688.71 275.84 693.114 277.49C699.402 279.844 707.282 268.947 707.282 268.947L712.007 279.583C712.007 279.583 708.853 282.177 700.973 294.623C693.093 307.07 680.223 327.82 680.223 327.82H652.964C648.146 327.82 644.235 331.683 644.235 336.44V354.962H683.557C692.978 354.962 701.793 350.353 707.09 342.649L718.71 325.748C718.71 325.748 707.025 347.09 718.189 354.962H765.069C765.069 334.304 756.932 313.717 749.445 298.465H749.438Z" fill="black" stroke="white" stroke-width="0.943529" stroke-miterlimit="10"/>
<path vector-effect="non-scaling-stroke" d="M765.326 355.225H718.096L718.024 355.175C713.371 351.891 711.979 345.724 713.999 337.344C714.813 333.975 716.033 330.866 716.99 328.696L707.297 342.799C701.95 350.58 693.071 355.225 683.549 355.225H643.971V336.449C643.971 331.55 648.004 327.568 652.964 327.568H680.073C681.151 325.827 693.271 306.304 700.751 294.491C707.725 283.475 710.98 280.176 711.686 279.514L707.218 269.456C705.755 271.38 698.831 279.901 693.014 277.724C688.817 276.152 687.982 271.423 687.018 265.953C686.961 265.615 686.897 265.277 686.84 264.938L686.74 265.009C686.133 265.453 685.348 265.502 684.684 265.129C684.028 264.755 683.671 264.057 683.763 263.317C684.028 261.083 684.556 258.708 684.963 257.08C684.877 256.826 684.791 256.572 684.698 256.325C683.171 252.146 683.585 247.945 685.933 243.822C688.31 239.65 691.908 237.021 692.957 236.309L693.549 235.907C697.725 233.067 703.435 229.183 710.266 232.136C714.441 233.948 715.348 238.508 716.497 244.28C717.404 248.812 718.424 253.957 721.165 259.497C722.707 262.619 726.576 267.208 731.058 272.529C737.382 280.035 745.255 289.374 749.666 298.36C760.201 319.822 765.319 338.337 765.319 354.971V355.232L765.326 355.225ZM718.267 354.71H764.805C764.755 338.225 759.644 319.857 749.202 298.586C744.819 289.663 736.968 280.345 730.665 272.86C726.161 267.518 722.271 262.901 720.701 259.73C717.932 254.126 716.861 248.728 715.99 244.386C714.827 238.543 713.985 234.314 710.059 232.616C703.499 229.775 697.925 233.567 693.856 236.337L693.257 236.739C692.236 237.429 688.71 240.002 686.39 244.076C684.12 248.058 683.721 252.118 685.191 256.149C685.291 256.431 685.391 256.706 685.484 256.988L685.505 257.058L685.484 257.129C685.077 258.736 684.541 261.125 684.277 263.374C684.213 263.909 684.47 264.41 684.941 264.677C685.412 264.945 685.983 264.917 686.419 264.593L687.197 264.022L687.268 264.431C687.354 264.917 687.439 265.389 687.525 265.862C688.503 271.394 689.274 275.771 693.192 277.237C699.217 279.493 706.975 268.892 707.054 268.787L707.325 268.42L712.314 279.648L712.164 279.775C712.164 279.775 708.931 282.523 701.187 294.759C693.399 307.065 680.566 327.751 680.437 327.956L680.359 328.082H652.957C648.289 328.082 644.492 331.832 644.492 336.441V354.703H683.549C692.9 354.703 701.615 350.143 706.861 342.503L718.481 325.601L718.931 325.869C718.902 325.926 716.005 331.254 714.506 337.47C713.142 343.13 712.685 350.707 718.26 354.703L718.267 354.71Z" fill="white" stroke="white" stroke-width="0.943529" stroke-miterlimit="10"/>
<path vector-effect="non-scaling-stroke" d="M686.59 264.803L687.025 264.486C688.139 270.653 688.703 275.84 693.107 277.49C699.395 279.844 707.275 268.947 707.275 268.947L711.015 277.363L726.989 268.059C724.227 264.697 722.022 261.807 720.937 259.608C714.577 246.732 717.304 235.469 710.166 232.374C703.15 229.337 697.332 233.671 693.114 236.526C688.896 239.38 681.537 246.901 684.955 256.239C685.055 256.514 685.155 256.796 685.248 257.071C684.82 258.763 684.299 261.117 684.035 263.344C683.871 264.725 685.462 265.635 686.597 264.803H686.59Z" fill="black" stroke="white" stroke-width="0.943529" stroke-miterlimit="10"/>
<path vector-effect="non-scaling-stroke" d="M694.962 278.069C694.284 278.069 693.635 277.956 693.021 277.724C688.824 276.152 687.989 271.423 687.025 265.953C686.968 265.615 686.904 265.277 686.847 264.938L686.747 265.009C686.14 265.453 685.355 265.502 684.691 265.129C684.034 264.755 683.678 264.057 683.77 263.317C684.034 261.083 684.563 258.708 684.97 257.08C684.884 256.826 684.798 256.572 684.705 256.325C683.178 252.146 683.592 247.945 685.94 243.822C688.317 239.65 691.915 237.021 692.964 236.309L693.556 235.907C697.732 233.067 703.442 229.183 710.273 232.136C714.448 233.948 715.355 238.508 716.504 244.28C717.41 248.812 718.431 253.957 721.172 259.497C722.343 261.865 724.869 265.072 727.196 267.898L727.389 268.131L710.901 277.738L707.218 269.463C706.583 270.288 704.884 272.395 702.728 274.298C699.894 276.8 697.246 278.076 694.962 278.076V278.069ZM687.211 264.022L687.282 264.431C687.368 264.917 687.453 265.389 687.539 265.862C688.517 271.394 689.288 275.771 693.206 277.237C699.231 279.493 706.989 268.892 707.068 268.787L707.339 268.42L711.151 276.983L726.604 267.976C724.32 265.185 721.871 262.056 720.708 259.709C717.939 254.105 716.868 248.706 715.997 244.365C714.834 238.522 713.991 234.293 710.066 232.594C703.506 229.754 697.932 233.546 693.863 236.316L693.264 236.718C692.243 237.408 688.717 239.981 686.397 244.055C684.127 248.037 683.728 252.097 685.198 256.128C685.298 256.41 685.398 256.685 685.491 256.967L685.512 257.037L685.491 257.108C685.084 258.715 684.548 261.104 684.284 263.352C684.22 263.888 684.477 264.388 684.948 264.656C685.419 264.924 685.99 264.896 686.426 264.572L687.204 264.001L687.211 264.022Z" fill="white" stroke="white" stroke-width="0.943529" stroke-miterlimit="10"/>
<path vector-effect="non-scaling-stroke" d="M687.683 268.063L687.568 267.556C692.165 266.534 692.215 262.686 692.215 262.517H692.736C692.736 262.559 692.7 266.943 687.683 268.056V268.063Z" fill="white" stroke="white" stroke-width="0.943529" stroke-miterlimit="10"/>
<path vector-effect="non-scaling-stroke" d="M718.665 253.305C717.056 253.836 715.509 254.067 714.027 254.067C709.334 254.067 705.289 251.748 702.267 249.206C699.25 246.666 697.303 243.944 696.816 243.229L696.598 242.91L696.243 243.06C693.201 244.341 690.421 244.727 688.398 244.791C686.892 244.839 685.817 244.709 685.373 244.642C687.489 239.461 691.901 236.174 693.228 235.28L693.229 235.279L693.821 234.878L693.822 234.877C698.032 232.014 703.53 228.306 710.085 231.149L710.241 230.79L710.085 231.149C712.031 231.993 713.23 233.476 714.09 235.488C714.958 237.522 715.464 240.051 716.041 242.952L716.041 242.953C716.657 246.041 717.361 249.56 718.665 253.305Z" fill="black" stroke="white" stroke-width="0.943529"/>
<path vector-effect="non-scaling-stroke" d="M712.029 279.56C716.497 275.253 723.764 270.517 728.232 269.53L723.635 263.786C723.635 263.786 714.028 267.86 709.146 273.125C707.411 275 706.997 276.642 707.197 277.988C707.525 280.272 710.359 281.167 712.029 279.56Z" fill="black" stroke="white" stroke-width="0.943529" stroke-miterlimit="10"/>
<path vector-effect="non-scaling-stroke" d="M710.016 280.645C709.674 280.645 709.331 280.588 708.996 280.475C707.875 280.102 707.111 279.186 706.94 278.037C706.697 276.373 707.376 274.668 708.953 272.962C713.821 267.718 723.435 263.595 723.535 263.56L723.721 263.482L728.696 269.706L728.289 269.798C723.685 270.812 716.355 275.76 712.215 279.757C711.615 280.334 710.823 280.645 710.016 280.645ZM723.564 264.117C722.215 264.709 713.764 268.55 709.346 273.315C707.875 274.9 707.24 276.465 707.461 277.966C707.597 278.925 708.239 279.679 709.167 279.989C710.109 280.306 711.137 280.074 711.851 279.383C715.934 275.45 723.071 270.601 727.782 269.382L723.564 264.11V264.117Z" fill="white" stroke="white" stroke-width="0.943529" stroke-miterlimit="10"/>
<path vector-effect="non-scaling-stroke" d="M775.532 303.638V389.879C775.532 408.641 760.129 423.851 741.128 423.851H680.729C677.838 423.851 675.497 421.539 675.497 418.684C675.497 415.83 677.838 413.518 680.729 413.518H738.794C753.305 413.518 765.068 401.903 765.068 387.574V303.638C765.068 300.783 767.409 298.472 770.3 298.472C773.191 298.472 775.532 300.783 775.532 303.638V303.638Z" fill="#202020" stroke="white" stroke-width="0.943529" stroke-miterlimit="10"/>
<path vector-effect="non-scaling-stroke" d="M741.129 424.113H680.729C677.696 424.113 675.233 421.682 675.233 418.686C675.233 415.691 677.696 413.259 680.729 413.259H738.795C753.142 413.259 764.805 401.736 764.805 387.576V303.64C764.805 300.645 767.267 298.213 770.301 298.213C773.334 298.213 775.797 300.645 775.797 303.64V389.881C775.797 408.756 760.244 424.113 741.129 424.113V424.113ZM680.729 413.774C677.989 413.774 675.754 415.98 675.754 418.686C675.754 421.393 677.989 423.599 680.729 423.599H741.129C759.958 423.599 775.268 408.474 775.268 389.888V303.647C775.268 300.941 773.034 298.734 770.293 298.734C767.553 298.734 765.319 300.941 765.319 303.647V387.583C765.319 402.032 753.413 413.788 738.78 413.788H680.715L680.729 413.774Z" fill="white" stroke="white" stroke-width="0.943529" stroke-miterlimit="10"/>
<path vector-effect="non-scaling-stroke" d="M700.601 249.854C700.601 249.854 703.014 245.435 706.368 247.049C710.622 249.1 708.089 254.358 706.368 255.288L700.601 249.847V249.854Z" fill="black"/>
<path vector-effect="non-scaling-stroke" d="M706.49 255.514L706.24 255.063C707.168 254.556 708.489 252.533 708.439 250.51C708.41 249.502 708.01 248.128 706.255 247.282C703.164 245.795 700.93 249.805 700.837 249.974L700.373 249.728C700.402 249.678 702.943 245.111 706.483 246.817C708.481 247.775 708.938 249.347 708.967 250.496C709.017 252.575 707.703 254.859 706.497 255.514H706.49Z" fill="white" stroke="white" stroke-width="0.943529" stroke-miterlimit="10"/>
<path vector-effect="non-scaling-stroke" d="M724.44 270.884L724.012 271.173L720.072 265.499L720.5 265.21L724.44 270.884ZM716.718 267.346L716.289 267.635L720.208 273.273L720.636 272.984L716.718 267.346ZM716.924 275.507L712.977 269.826L712.549 270.115L716.496 275.796L716.924 275.507ZM713.484 278.298L709.787 272.568L709.344 272.843L713.042 278.573L713.484 278.298Z" fill="white" stroke="white" stroke-width="0.943529" stroke-miterlimit="10"/>
<path vector-effect="non-scaling-stroke" d="M689.046 162.233L646.256 142.005L671.745 102.465L718.654 104.798L729.91 144.725L689.046 162.233Z" fill="#202020" stroke="white" stroke-width="0.943529" stroke-miterlimit="10"/>
<path vector-effect="non-scaling-stroke" d="M689.039 162.517L688.932 162.467L645.87 142.113L646.027 141.866L671.602 102.206L718.846 104.553L730.216 144.875L730.01 144.967L689.039 162.517V162.517ZM646.627 141.894L689.046 161.946L729.588 144.579L718.446 105.046L671.88 102.728L646.627 141.887V141.894Z" fill="black" stroke="white" stroke-width="0.943529" stroke-miterlimit="10"/>
<path vector-effect="non-scaling-stroke" d="M801.566 179.218C801.566 152.216 782.608 141.327 762.865 132.214C743.122 123.1 729.418 116.969 718.647 104.811C718.647 104.811 711.837 143.963 679.825 147.684C656.906 150.348 655.906 131.607 659.796 122.593L625.186 135.759L639.268 179.218H801.558H801.566Z" fill="black" stroke="white" stroke-width="0.943529" stroke-miterlimit="10"/>
<path vector-effect="non-scaling-stroke" d="M801.822 179.475H639.075L624.857 135.601L660.274 122.132L660.032 122.696C657.747 127.989 657.212 136.235 661.452 141.817C664.978 146.469 671.323 148.407 679.789 147.427C696.213 145.517 705.827 134.036 711.002 124.74C716.627 114.64 718.368 104.864 718.39 104.765L718.482 104.229L718.846 104.638C729.303 116.437 742.793 122.66 761.459 131.273L762.972 131.971C782.629 141.049 801.822 152.171 801.822 179.207V179.468V179.475ZM639.461 178.961H801.301C801.244 166.894 797.361 157.154 789.431 149.189C782.657 142.388 773.871 137.581 762.758 132.45L761.244 131.752C742.722 123.21 729.289 117.008 718.811 105.385C718.368 107.556 716.391 116.148 711.48 124.986C706.248 134.395 696.512 146.018 679.86 147.949C671.195 148.957 664.685 146.948 661.045 142.134C656.834 136.573 657.191 128.489 659.332 123.055L625.514 135.918L639.468 178.968L639.461 178.961Z" fill="white" stroke="white" stroke-width="0.943529" stroke-miterlimit="10"/>
<path vector-effect="non-scaling-stroke" d="M666.927 126.308H666.406V133.454H666.927V126.308Z" fill="white" stroke="white" stroke-width="0.943529" stroke-miterlimit="10"/>
<path vector-effect="non-scaling-stroke" d="M718.654 104.792C708.219 90.1461 709.611 75.7186 710.653 63.0108C711.695 50.303 713.087 32.4431 700.567 25.5782C688.048 18.7063 632.395 46.8706 632.395 46.8706C632.395 46.8706 638.655 98.3853 640.047 108.344C641.438 118.303 648.391 127.924 663.002 126.888C671.41 126.296 678.897 120.354 683.737 115.421" fill="#202020"/>
<path vector-effect="non-scaling-stroke" d="M718.654 104.792C708.219 90.1461 709.611 75.7186 710.653 63.0108C711.695 50.303 713.087 32.4431 700.567 25.5782C688.048 18.7063 632.395 46.8706 632.395 46.8706C632.395 46.8706 638.655 98.3853 640.047 108.344C641.438 118.303 648.391 127.924 663.002 126.888C671.41 126.296 678.897 120.354 683.737 115.421" stroke="white" stroke-width="0.943529" stroke-miterlimit="10"/>
<path vector-effect="non-scaling-stroke" d="M660.867 127.234C647.313 127.234 641.081 117.677 639.782 108.387C638.405 98.5411 632.195 47.4211 632.131 46.9066L632.109 46.7304L632.274 46.6458C634.551 45.4899 688.19 18.4956 700.689 25.3534C713.429 32.3452 711.909 50.8113 710.91 63.0327L710.853 63.6882C709.825 76.1704 708.661 90.323 718.861 104.645L718.433 104.941C708.126 90.471 709.297 76.2197 710.332 63.6459L710.389 62.9904C711.381 50.9029 712.88 32.6271 700.439 25.8045C688.512 19.2639 636.014 45.349 632.673 47.0194C633.08 50.3743 638.969 98.7596 640.304 108.31C641.638 117.846 648.283 127.671 662.98 126.635C671.324 126.043 678.769 120.115 683.544 115.245L683.922 115.605C679.083 120.545 671.524 126.55 663.016 127.157C662.28 127.206 661.56 127.234 660.867 127.234V127.234Z" fill="white" stroke="white" stroke-width="0.943529" stroke-miterlimit="10"/>
<path vector-effect="non-scaling-stroke" d="M644.237 66.8857L640.59 80.2137C639.576 83.9211 642.503 87.5297 646.385 87.3676L652.11 87.1279L644.237 66.8857Z" fill="#202020"/>
<path vector-effect="non-scaling-stroke" d="M646.135 87.6276C644.301 87.6276 642.602 86.8241 641.453 85.4004C640.239 83.9062 639.84 81.9891 640.346 80.1425L643.994 66.8145L644.501 66.9484L640.853 80.2764C640.389 81.9609 640.76 83.7159 641.867 85.0761C642.973 86.4435 644.629 87.1765 646.385 87.106L652.109 86.8664L652.131 87.3809L646.406 87.6205C646.321 87.6205 646.228 87.6205 646.142 87.6205L646.135 87.6276Z" fill="white" stroke="white" stroke-width="0.943529" stroke-miterlimit="10"/>
<path vector-effect="non-scaling-stroke" d="M647.62 95.253C644.829 95.253 643.287 94.9427 643.259 94.9357L643.366 94.428C643.423 94.4421 649.497 95.6691 659.554 93.1445L659.683 93.6452C654.558 94.9286 650.446 95.253 647.613 95.253H647.62Z" fill="white" stroke="white" stroke-width="0.943529" stroke-miterlimit="10"/>
<path vector-effect="non-scaling-stroke" d="M682.774 48.0944L709.148 33.7769C711.199 37.9586 712.005 42.9999 712.202 48.1208C712.401 53.3186 711.972 58.5557 711.608 63.0034L711.608 63.0036L711.608 63.0042L711.558 63.6236L711.558 63.6245L711.555 63.6543C710.867 72.0038 710.081 81.5404 712.923 91.2187C701.552 86.912 694.04 76.3246 689.342 66.6378C684.932 57.5451 683.044 49.3318 682.774 48.0944Z" fill="black" stroke="white" stroke-width="0.943529"/>
<path vector-effect="non-scaling-stroke" d="M684.094 60.7803C688.355 55.896 693.351 53.3868 698.583 58.0879C703.758 62.7397 704.722 76.9416 694.322 80.3107L684.094 60.7874V60.7803Z" fill="#202020"/>
<path vector-effect="non-scaling-stroke" d="M694.408 80.5461L694.244 80.0527C698.162 78.784 700.832 75.7392 701.752 71.4822C702.809 66.6119 701.367 60.9311 698.405 58.2669C696.485 56.5402 694.486 55.7226 692.459 55.8424C689.847 55.9975 687.099 57.7101 684.286 60.9311L683.887 60.5928C686.799 57.2591 689.668 55.49 692.423 55.3208C694.593 55.194 696.72 56.0538 698.747 57.8793C701.838 60.6563 703.344 66.5485 702.252 71.5879C701.288 76.0282 698.498 79.2069 694.393 80.539L694.408 80.5461Z" fill="white" stroke="white" stroke-width="0.943529" stroke-miterlimit="10"/>
<path vector-effect="non-scaling-stroke" d="M717.22 44.9732C717.22 44.9732 681.367 62.523 623.366 56.2783C623.366 56.2783 627.912 49.928 628.698 40.0113C629.483 30.0946 631.053 12.439 653.951 4.69315C676.856 -3.05274 706.706 0.273975 711.631 26.5917C713.893 38.658 717.22 44.9661 717.22 44.9661V44.9732Z" fill="#A100FF" stroke="white" stroke-width="0.943529" stroke-miterlimit="10"/>
<path vector-effect="non-scaling-stroke" d="M647.869 57.8724C640.21 57.8724 632.016 57.4778 623.337 56.5404L622.894 56.491L623.151 56.1316C623.194 56.0681 627.669 49.7178 628.44 39.9984C629.204 30.3213 630.631 12.3204 653.872 4.46179C669.867 -0.944119 686.67 -0.345029 697.719 6.03352C705.406 10.4738 710.174 17.381 711.894 26.5576C714.121 38.4408 717.426 44.7982 717.462 44.8616L717.583 45.0942L717.34 45.214C717.033 45.362 690.888 57.8795 647.876 57.8795L647.869 57.8724ZM623.815 56.0752C678.418 61.8476 713.664 46.3417 716.869 44.8616C716.248 43.593 713.372 37.3342 711.373 26.6563C709.682 17.6277 704.999 10.8403 697.447 6.4846C686.527 0.176532 669.896 -0.401414 654.036 4.95516C631.124 12.701 629.711 30.4905 628.954 40.0478C628.276 48.5971 624.771 54.588 623.815 56.0822V56.0752Z" fill="white" stroke="white" stroke-width="0.943529" stroke-miterlimit="10"/>
<path vector-effect="non-scaling-stroke" d="M636.414 57.5705C636.392 57.3943 634.551 40.1053 634.087 32.2889C633.608 24.2611 634.051 15.1267 645.443 8.24775L645.714 8.69178C634.572 15.4227 634.137 24.388 634.608 32.2607C635.072 40.063 636.913 57.3379 636.935 57.5141L636.414 57.5705ZM658.769 57.2463C658.747 57.063 656.885 38.5053 656.885 27.0099C656.885 18.1292 660.717 10.0521 667.134 5.41441C671.188 2.48239 678.098 -0.358003 688.005 2.74317L688.162 2.2498C678.048 -0.914805 670.974 1.99607 666.82 4.99857C660.268 9.73491 656.356 17.9671 656.356 27.0099C656.356 38.5335 658.226 57.1124 658.248 57.2956L658.769 57.2463V57.2463Z" fill="white" stroke="white" stroke-width="0.943529" stroke-miterlimit="10"/>
<path vector-effect="non-scaling-stroke" d="M588.583 86.4033H557.256C553.901 86.4033 551.517 89.6314 552.545 92.7889L559.247 113.405C559.904 115.427 561.81 116.795 563.958 116.795H596.463C599.818 116.795 602.202 113.567 601.174 110.409L594.829 90.9071C593.958 88.2217 591.431 86.4033 588.576 86.4033H588.583Z" fill="#202020" stroke="white" stroke-width="0.943529" stroke-miterlimit="10"/>
<path vector-effect="non-scaling-stroke" d="M596.47 117.058H563.965C561.695 117.058 559.696 115.62 559.004 113.484L552.301 92.8684C551.788 91.2826 552.059 89.6052 553.051 88.259C554.043 86.9128 555.578 86.1445 557.262 86.1445H588.59C591.566 86.1445 594.178 88.0264 595.092 90.8245L601.437 110.327C601.951 111.912 601.68 113.59 600.688 114.936C599.696 116.282 598.161 117.051 596.477 117.051L596.47 117.058ZM557.255 86.6661C555.742 86.6661 554.357 87.3568 553.465 88.5691C552.573 89.7814 552.323 91.2897 552.787 92.7134L559.489 113.329C560.117 115.253 561.909 116.543 563.95 116.543H596.455C597.969 116.543 599.353 115.852 600.245 114.64C601.138 113.428 601.388 111.92 600.924 110.496L594.578 90.9936C593.736 88.407 591.323 86.6731 588.575 86.6731H557.248L557.255 86.6661Z" fill="white" stroke="white" stroke-width="0.943529" stroke-miterlimit="10"/>
<path vector-effect="non-scaling-stroke" d="M610.724 96.1182H541.274C534.137 96.1182 529.076 102.983 531.253 109.686L556.049 179.201H651.459L625.778 106.958C623.679 100.495 617.591 96.1182 610.717 96.1182H610.724Z" fill="black" stroke="white" stroke-width="0.943529" stroke-miterlimit="10"/>
<path vector-effect="non-scaling-stroke" d="M651.837 179.466H555.871L555.806 179.297L531.01 109.781C529.939 106.497 530.51 103.022 532.559 100.245C534.607 97.4681 537.791 95.8682 541.274 95.8682H610.724C617.733 95.8682 623.886 100.294 626.027 106.891L651.83 179.473L651.837 179.466ZM556.242 178.951H651.102L625.542 107.054C623.465 100.668 617.512 96.3827 610.731 96.3827H541.281C537.962 96.3827 534.943 97.898 532.987 100.548C531.031 103.198 530.496 106.497 531.51 109.619L556.242 178.951V178.951Z" fill="white" stroke="white" stroke-width="0.943529" stroke-miterlimit="10"/>
<path vector-effect="non-scaling-stroke" d="M567.969 105.056C566.52 105.056 565.342 103.893 565.342 102.462C565.342 101.031 566.52 99.8682 567.969 99.8682C569.418 99.8682 570.596 101.031 570.596 102.462C570.596 103.893 569.418 105.056 567.969 105.056ZM567.969 100.39C566.813 100.39 565.87 101.32 565.87 102.462C565.87 103.604 566.813 104.534 567.969 104.534C569.125 104.534 570.067 103.604 570.067 102.462C570.067 101.32 569.125 100.39 567.969 100.39Z" fill="white" stroke="white" stroke-width="0.943529" stroke-miterlimit="10"/>
<path vector-effect="non-scaling-stroke" d="M583.672 105.056C582.223 105.056 581.045 103.893 581.045 102.462C581.045 101.031 582.223 99.8682 583.672 99.8682C585.121 99.8682 586.299 101.031 586.299 102.462C586.299 103.893 585.121 105.056 583.672 105.056ZM583.672 100.39C582.516 100.39 581.574 101.32 581.574 102.462C581.574 103.604 582.516 104.534 583.672 104.534C584.828 104.534 585.771 103.604 585.771 102.462C585.771 101.32 584.828 100.39 583.672 100.39Z" fill="white" stroke="white" stroke-width="0.943529" stroke-miterlimit="10"/>
<path vector-effect="non-scaling-stroke" d="M0.470703 386.539H315.037V447.068L0.470703 447.118V386.539Z" fill="#202020" stroke="white" stroke-width="0.943529" stroke-miterlimit="10"/>
<path vector-effect="non-scaling-stroke" d="M0.228085 447.366V386.315H315.273V447.317H315.03L0.220947 447.366H0.228085ZM0.706312 386.788V446.894L314.794 446.845V386.788H0.706312V386.788Z" fill="white" stroke="white" stroke-width="0.943529" stroke-miterlimit="10"/>
<path vector-effect="non-scaling-stroke" d="M314.973 226.218H0.470703V255.193H314.973V226.218Z" fill="#202020" stroke="white" stroke-width="0.943529" stroke-miterlimit="10"/>
<path vector-effect="non-scaling-stroke" d="M315.23 255.455H0.206787V225.959H315.23V255.455ZM0.72784 254.941H314.709V226.481H0.72784V254.941Z" fill="white" stroke="white" stroke-width="0.943529" stroke-miterlimit="10"/>
<path vector-effect="non-scaling-stroke" d="M203.224 386.539C203.224 372.259 231.19 371.308 231.19 346.435V213.324H239.869C239.869 213.324 239.869 327.842 239.869 346.435C239.869 371.315 267.835 372.259 267.835 386.539H203.232H203.224Z" fill="#202020" stroke="white" stroke-width="0.943529" stroke-miterlimit="10"/>
<path vector-effect="non-scaling-stroke" d="M268.085 386.802H202.96V386.541C202.96 380.254 208.156 376.568 214.181 372.311C222.032 366.757 230.926 360.456 230.926 346.437V213.065H240.126V346.437C240.126 360.456 249.02 366.757 256.871 372.311C262.888 376.575 268.092 380.254 268.092 386.541V386.802H268.085ZM203.481 386.287H267.557C267.414 380.416 262.375 376.85 256.557 372.734C248.606 367.102 239.591 360.724 239.591 346.437V213.58H231.44V346.437C231.44 360.724 222.425 367.102 214.473 372.734C208.656 376.85 203.624 380.416 203.474 386.287H203.481Z" fill="white" stroke="white" stroke-width="0.943529" stroke-miterlimit="10"/>
<path vector-effect="non-scaling-stroke" d="M255.594 159.275H217.664C215.337 159.275 213.296 160.826 212.711 163.053L197.672 219.889C196.822 223.096 199.27 226.225 202.625 226.225H240.555C242.882 226.225 244.923 224.675 245.509 222.448L260.548 165.612C261.397 162.405 258.949 159.275 255.594 159.275V159.275Z" fill="black" stroke="white" stroke-width="0.943529" stroke-miterlimit="10"/>
<path vector-effect="non-scaling-stroke" d="M197.543 220.597C197.208 223.536 199.528 226.207 202.632 226.207H240.562C242.889 226.207 244.931 224.656 245.516 222.429L246.001 220.597H197.543V220.597Z" fill="black" stroke="white" stroke-width="0.943529" stroke-miterlimit="10"/>
<path vector-effect="non-scaling-stroke" d="M212.711 163.051L212.133 165.222H260.627C261.191 162.156 258.814 159.267 255.595 159.267H217.665C215.338 159.267 213.297 160.817 212.711 163.044V163.051Z" fill="black" stroke="white" stroke-width="0.943529" stroke-miterlimit="10"/>
<path vector-effect="non-scaling-stroke" d="M260.876 165.305C261.026 164.516 260.998 163.719 260.791 162.965C260.741 162.789 260.684 162.613 260.619 162.437C260.619 162.422 260.612 162.408 260.605 162.394C260.541 162.232 260.469 162.077 260.391 161.922C260.377 161.894 260.362 161.866 260.341 161.83C260.27 161.696 260.191 161.563 260.098 161.429C260.07 161.386 260.041 161.344 260.013 161.302C259.956 161.224 259.913 161.147 259.856 161.069C259.827 161.027 259.784 160.992 259.756 160.956C259.741 160.942 259.734 160.921 259.72 160.907C259.691 160.879 259.663 160.851 259.634 160.815C259.542 160.71 259.449 160.611 259.349 160.512C259.306 160.47 259.263 160.435 259.22 160.393C259.113 160.301 259.013 160.202 258.899 160.118C258.856 160.09 258.814 160.061 258.771 160.026C258.649 159.942 258.535 159.857 258.407 159.779C258.371 159.758 258.328 159.737 258.292 159.716C258.164 159.638 258.028 159.568 257.893 159.505C257.857 159.483 257.814 159.476 257.779 159.455C257.636 159.392 257.5 159.335 257.35 159.286C257.3 159.272 257.25 159.258 257.208 159.244C257.072 159.201 256.929 159.159 256.786 159.131C256.708 159.117 256.629 159.103 256.544 159.089C256.43 159.068 256.315 159.046 256.201 159.032C256.001 159.011 255.801 158.997 255.594 158.997H217.665C215.216 158.997 213.075 160.632 212.454 162.972L197.415 219.808C197.365 219.984 197.336 220.161 197.308 220.337V220.372C197.294 220.421 197.294 220.478 197.286 220.527V220.562C197.286 220.562 197.286 220.591 197.286 220.605C197.172 221.704 197.401 222.797 197.95 223.762C197.95 223.769 197.965 223.783 197.965 223.79C198.036 223.91 198.114 224.03 198.2 224.15C198.236 224.199 198.264 224.249 198.3 224.298C198.329 224.333 198.343 224.368 198.371 224.404C198.421 224.467 198.478 224.531 198.536 224.594C198.564 224.629 198.593 224.671 198.628 224.707C198.65 224.728 198.671 224.742 198.685 224.763C198.764 224.848 198.85 224.932 198.928 225.01C198.992 225.066 199.057 225.13 199.121 225.186C199.199 225.249 199.271 225.313 199.356 225.376C199.442 225.44 199.528 225.503 199.613 225.56C199.678 225.602 199.749 225.651 199.813 225.686C199.92 225.75 200.034 225.813 200.149 225.87C200.206 225.898 200.263 225.926 200.313 225.954C200.441 226.018 200.577 226.067 200.713 226.116C200.763 226.137 200.805 226.152 200.855 226.173C200.998 226.222 201.148 226.264 201.291 226.3C201.334 226.314 201.384 226.328 201.426 226.335C201.576 226.37 201.733 226.391 201.89 226.412C201.933 226.412 201.976 226.426 202.019 226.434C202.219 226.455 202.418 226.469 202.625 226.469H240.555C243.004 226.469 245.145 224.834 245.766 222.494L246.337 220.337L260.805 165.665C260.819 165.601 260.826 165.538 260.841 165.474L260.876 165.298V165.305ZM216.851 159.596C217.115 159.554 217.386 159.526 217.665 159.526H255.594C255.78 159.526 255.958 159.54 256.137 159.554C256.244 159.568 256.344 159.589 256.444 159.603C256.515 159.617 256.594 159.624 256.665 159.638C256.794 159.667 256.915 159.702 257.043 159.744C257.086 159.758 257.136 159.765 257.179 159.786C257.307 159.829 257.436 159.885 257.564 159.942C257.6 159.956 257.636 159.97 257.672 159.984C257.793 160.04 257.914 160.111 258.036 160.174C258.071 160.195 258.107 160.209 258.135 160.23C258.25 160.301 258.357 160.378 258.464 160.456C258.499 160.484 258.535 160.505 258.571 160.534C258.671 160.611 258.771 160.696 258.871 160.787C258.906 160.823 258.942 160.851 258.978 160.886C259.071 160.978 259.163 161.069 259.249 161.168C259.285 161.203 259.313 161.238 259.349 161.281C259.427 161.379 259.506 161.478 259.577 161.584C259.606 161.619 259.627 161.654 259.649 161.689C259.727 161.802 259.799 161.922 259.863 162.042C259.877 162.063 259.884 162.084 259.898 162.105C259.97 162.239 260.034 162.38 260.091 162.521C260.405 163.282 260.512 164.121 260.398 164.953H212.468L212.961 163.099C213.453 161.252 214.995 159.892 216.851 159.582V159.596ZM240.555 225.961H202.625C202.44 225.961 202.261 225.947 202.076 225.933C202.033 225.933 201.997 225.919 201.962 225.912C201.819 225.891 201.676 225.87 201.541 225.841C201.498 225.834 201.462 225.82 201.419 225.806C201.284 225.771 201.155 225.736 201.027 225.693C200.984 225.679 200.941 225.658 200.898 225.644C200.777 225.602 200.655 225.552 200.541 225.496C200.491 225.475 200.441 225.447 200.391 225.419C200.291 225.369 200.192 225.313 200.092 225.249C200.027 225.214 199.97 225.172 199.906 225.13C199.827 225.073 199.749 225.024 199.67 224.96C199.599 224.904 199.528 224.848 199.456 224.791C199.399 224.742 199.342 224.693 199.285 224.636C199.207 224.566 199.128 224.488 199.057 224.411C199.007 224.361 198.964 224.305 198.921 224.256C198.85 224.178 198.785 224.094 198.721 224.009C198.693 223.967 198.664 223.931 198.636 223.889C198.2 223.269 197.915 222.564 197.815 221.824C197.815 221.817 197.815 221.803 197.815 221.796C197.793 221.655 197.786 221.507 197.779 221.359C197.779 221.338 197.779 221.317 197.779 221.295C197.779 221.154 197.779 221.013 197.779 220.873C197.779 220.873 197.779 220.858 197.779 220.851H245.652L245.252 222.36C244.695 224.474 242.761 225.947 240.548 225.947L240.555 225.961ZM260.291 165.545L245.794 220.351H197.843C197.865 220.217 197.893 220.083 197.922 219.949L212.333 165.481H260.305C260.305 165.481 260.305 165.524 260.291 165.538V165.545Z" fill="white" stroke="white" stroke-width="0.943529" stroke-miterlimit="10"/>
<path vector-effect="non-scaling-stroke" d="M186.809 139.628L174.682 109.61V97.2266H165.859V109.61L153.732 139.628C151.434 145.316 155.681 151.504 161.884 151.504H178.664C184.867 151.504 189.114 145.316 186.816 139.628H186.809Z" fill="black" stroke="white" stroke-width="0.943529" stroke-miterlimit="10"/>
<path vector-effect="non-scaling-stroke" d="M178.657 151.767H161.876C158.878 151.767 156.08 150.301 154.395 147.848C152.711 145.395 152.368 142.287 153.482 139.538L165.595 109.563V96.9678H174.945V109.563L187.058 139.538C188.171 142.287 187.828 145.395 186.144 147.848C184.459 150.301 181.662 151.767 178.664 151.767H178.657ZM166.116 97.4823L166.094 109.704L153.967 139.722C152.918 142.315 153.239 145.24 154.824 147.552C156.408 149.864 159.042 151.245 161.869 151.245H178.649C181.476 151.245 184.11 149.864 185.694 147.552C187.279 145.24 187.6 142.315 186.551 139.722L174.402 109.654V97.4752H166.101L166.116 97.4823Z" fill="white" stroke="white" stroke-width="0.943529" stroke-miterlimit="10"/>
<path vector-effect="non-scaling-stroke" d="M175.123 97.4897H165.395C164.16 97.4897 163.153 96.4959 163.153 95.2766C163.153 94.0573 164.16 93.0635 165.395 93.0635H175.123C176.358 93.0635 177.365 94.0573 177.365 95.2766C177.365 96.4959 176.358 97.4897 175.123 97.4897ZM165.395 93.578C164.445 93.578 163.674 94.3392 163.674 95.2766C163.674 96.214 164.445 96.9752 165.395 96.9752H175.123C176.073 96.9752 176.843 96.214 176.843 95.2766C176.843 94.3392 176.073 93.578 175.123 93.578H165.395Z" fill="white" stroke="white" stroke-width="0.943529" stroke-miterlimit="10"/>
<path vector-effect="non-scaling-stroke" d="M161.875 151.519H178.656C184.859 151.519 189.106 145.331 186.807 139.643L183.545 131.566C175.358 131.763 168.228 128.267 159.234 126.005L153.724 139.643C151.426 145.331 155.673 151.519 161.875 151.519Z" fill="#A100FF" stroke="white" stroke-width="0.943529" stroke-miterlimit="10"/>
<path vector-effect="non-scaling-stroke" d="M178.656 151.778H161.875C158.877 151.778 156.079 150.312 154.395 147.859C152.71 145.407 152.368 142.299 153.481 139.55L159.077 125.7L159.299 125.757C162.104 126.461 164.723 127.286 167.257 128.082C172.753 129.809 177.935 131.444 183.531 131.31H183.71L187.043 139.55C188.156 142.299 187.814 145.407 186.129 147.859C184.445 150.312 181.647 151.778 178.649 151.778H178.656ZM159.391 126.306L153.967 139.74C152.917 142.334 153.239 145.259 154.823 147.571C156.408 149.882 159.042 151.264 161.868 151.264H178.649C181.475 151.264 184.109 149.882 185.694 147.571C187.278 145.259 187.6 142.334 186.55 139.74L183.353 131.825C177.742 131.924 172.56 130.296 167.086 128.569C164.63 127.793 162.089 126.997 159.377 126.306H159.391Z" fill="white" stroke="white" stroke-width="0.943529" stroke-miterlimit="10"/>
<path vector-effect="non-scaling-stroke" d="M110.127 101.149L112.29 89.7305C112.29 89.7305 122.468 98.5759 128.05 94.8757C131.961 92.282 131.319 87.1086 130.99 80.8499L131.49 81.0614C132.782 81.6182 134.124 80.3777 133.653 79.0667C132.889 76.9523 131.833 74.7744 131.033 73.2238C131.062 72.9349 131.09 72.6389 131.126 72.3499C132.311 62.4896 123.417 56.8088 118.649 54.9763C113.881 53.1437 107.222 50.2188 101.083 54.7507C94.8379 59.3602 100.084 69.7209 96.8508 83.6833C96.1798 86.5659 94.481 90.6257 90.0557 95.806L110.134 101.134L110.127 101.149Z" fill="black" stroke="white" stroke-width="0.943529" stroke-miterlimit="10"/>
<path vector-effect="non-scaling-stroke" d="M110.334 101.462L89.585 95.9499L89.8491 95.6397C93.4536 91.425 95.7163 87.3793 96.5871 83.6297C97.9789 77.6177 97.8005 72.388 97.6363 67.7644C97.4293 61.8863 97.2723 57.2416 100.92 54.5422C106.887 50.1371 113.346 52.6392 118.064 54.4717L118.735 54.7325C119.92 55.1906 124.032 56.9456 127.301 60.4767C130.534 63.9655 131.904 67.9688 131.376 72.3739C131.348 72.6417 131.319 72.9025 131.291 73.1703C132.061 74.6645 133.125 76.8565 133.889 78.9709C134.146 79.6758 133.96 80.4299 133.403 80.9444C132.847 81.4589 132.069 81.5858 131.376 81.2898L131.269 81.2404C131.291 81.5858 131.305 81.9312 131.326 82.2695C131.64 87.8163 131.919 92.602 128.193 95.0759C125.823 96.6476 122.283 96.2388 117.95 93.8989C115.409 92.5315 113.275 90.8611 112.461 90.1986L110.327 101.454L110.334 101.462ZM90.5129 95.6609L109.92 100.813L112.119 89.226L112.461 89.529C112.561 89.6136 122.554 98.2053 127.9 94.653C131.383 92.3483 131.126 87.915 130.805 82.3047C130.777 81.8254 130.748 81.3462 130.727 80.8528L130.705 80.437L131.59 80.8176C132.09 81.036 132.654 80.9374 133.054 80.5709C133.453 80.2044 133.589 79.6617 133.403 79.1472C132.633 77.0257 131.562 74.8126 130.798 73.3395L130.762 73.2761V73.1985C130.798 72.9025 130.827 72.6065 130.862 72.3175C131.369 68.0675 130.049 64.1981 126.922 60.8291C123.725 57.3826 119.706 55.6628 118.55 55.2188L117.879 54.958C113.275 53.1748 106.972 50.7291 101.241 54.958C97.8076 57.4953 97.9575 61.7947 98.1645 67.7503C98.3215 72.1695 98.5071 77.6741 97.101 83.7496C96.2302 87.4921 94.0175 91.4955 90.5129 95.6679V95.6609Z" fill="white" stroke="white" stroke-width="0.943529" stroke-miterlimit="10"/>
<path vector-effect="non-scaling-stroke" d="M131.105 84.4863C126.016 84.4863 124.981 80.2644 124.974 80.2221L125.48 80.1094C125.516 80.2644 126.437 83.9717 131.098 83.9717C131.119 83.9717 131.141 83.9717 131.162 83.9717V84.4863C131.162 84.4863 131.119 84.4863 131.098 84.4863H131.105Z" fill="white" stroke="white" stroke-width="0.943529" stroke-miterlimit="10"/>
<path vector-effect="non-scaling-stroke" d="M118.567 55.1829L118.565 55.182L117.894 54.9212C117.894 54.9212 117.894 54.9212 117.894 54.9212C113.137 53.0736 106.932 50.7005 101.2 54.9315M118.567 55.1829L98.1083 67.7574C98.0043 64.8032 97.9156 62.2269 98.2952 60.0522C98.6709 57.8999 99.498 56.1889 101.2 54.9315M118.567 55.1829C120.067 55.7562 125.126 57.9723 128.377 62.5492M118.567 55.1829L128.377 62.5492M101.2 54.9315L100.92 54.5519M101.2 54.9315L100.92 54.5519M100.92 54.5519C97.2663 57.2509 97.4298 61.8946 97.6368 67.7714L97.6369 67.7742L118.065 54.4814C113.347 52.6489 106.887 50.1469 100.92 54.5519ZM128.377 62.5492C127.33 62.971 123.134 64.4372 117.425 63.4401L117.043 63.3733L116.904 63.735C116.559 64.6303 115.025 68.3454 112.136 71.8288C109.248 75.3123 105.053 78.5089 99.3785 78.5089C98.9055 78.5089 98.4224 78.488 97.9291 78.4416C98.3411 74.4931 98.2204 70.9059 98.1083 67.7576L128.377 62.5492Z" fill="black" stroke="white" stroke-width="0.943529"/>
<path vector-effect="non-scaling-stroke" d="M115.116 69.4915C115.116 69.4915 111.754 65.7278 108.856 68.0537C105.18 70.9998 108.856 75.5529 110.747 76.0815L115.116 69.4915Z" fill="black"/>
<path vector-effect="non-scaling-stroke" d="M110.684 76.3197C109.356 75.9532 107.55 74.015 107.129 71.9851C106.894 70.8574 106.972 69.2293 108.699 67.8479C111.754 65.3952 115.288 69.2787 115.323 69.321L114.931 69.6663C114.802 69.5183 111.697 66.1141 109.035 68.2567C107.515 69.476 107.443 70.9068 107.643 71.8935C108.057 73.874 109.806 75.5515 110.826 75.8334L110.684 76.3338V76.3197Z" fill="white" stroke="white" stroke-width="0.943529" stroke-miterlimit="10"/>
<path vector-effect="non-scaling-stroke" d="M132.918 66.7236L132.49 70.7834L113.675 67.9852L113.597 68.4998L132.44 71.2979L131.983 75.6748L132.504 75.7311L133.44 66.78L132.918 66.7236Z" fill="white" stroke="white" stroke-width="0.943529" stroke-miterlimit="10"/>
<path vector-effect="non-scaling-stroke" d="M108.948 44.3404C108.948 49.7457 104.509 54.1377 99.0205 54.1377C93.5318 54.1377 89.0926 49.7457 89.0926 44.3404C89.0926 38.9351 93.5318 34.5431 99.0205 34.5431C104.509 34.5431 108.948 38.9351 108.948 44.3404Z" fill="black" stroke="white" stroke-width="0.943529"/>
<path vector-effect="non-scaling-stroke" d="M41.4843 352.57L27.1304 374.434C27.1304 374.434 36.545 386.549 51.1488 386.549H73.2614C73.2614 386.549 73.6683 379.825 67.3942 375.378C61.1202 370.931 61.6626 366.751 62.0695 362.846C62.4763 358.935 41.4843 352.57 41.4843 352.57V352.57Z" fill="black" stroke="white" stroke-width="0.943529" stroke-miterlimit="10"/>
<path vector-effect="non-scaling-stroke" d="M73.6034 386.904H51.1553C36.5444 386.904 26.9442 374.775 26.8514 374.655L26.6943 374.457L26.83 374.246L41.3266 352.157L41.5836 352.235C41.6336 352.249 46.9083 353.856 52.0618 355.914C62.7041 360.171 62.49 362.208 62.4257 362.877L62.4043 363.061C62.0046 366.881 61.5835 370.828 67.6006 375.092C73.9674 379.603 73.6248 386.503 73.6177 386.573L73.5962 386.904H73.6034ZM27.5723 374.415C28.8571 375.959 37.9077 386.2 51.1553 386.2H72.911C72.8896 384.811 72.4399 379.391 67.1866 375.67C60.834 371.173 61.298 366.831 61.6977 362.997L61.7191 362.814C61.9903 360.206 49.6564 355.442 41.6407 352.989L27.5723 374.415V374.415Z" fill="black" stroke="white" stroke-width="0.943529" stroke-miterlimit="10"/>
<path vector-effect="non-scaling-stroke" d="M68.4358 376.196C46.2019 380.298 32.4832 366.286 32.4832 366.286L27.1299 374.441C27.1299 374.441 36.5445 386.557 51.1483 386.557H73.2609C73.2609 386.557 73.6249 380.601 68.4358 376.196V376.196Z" fill="black" stroke="white" stroke-width="0.943529" stroke-miterlimit="10"/>
<path vector-effect="non-scaling-stroke" d="M73.6034 386.902H51.1553C36.5444 386.902 26.9442 374.772 26.8514 374.653L26.6943 374.455L32.4259 365.723L32.74 366.04C32.8756 366.181 46.5515 379.868 68.3714 375.851L68.5428 375.823L68.6712 375.935C73.9317 380.404 73.6391 386.331 73.6177 386.585L73.5963 386.916L73.6034 386.902ZM27.5723 374.413C28.8571 375.957 37.9077 386.197 51.1553 386.197H72.911C72.8896 384.922 72.5113 380.207 68.3358 376.563C50.5985 379.77 38.3074 371.615 33.8392 367.95C33.1968 367.428 32.7971 367.076 32.5473 366.829L27.5723 374.406V374.413Z" fill="white" stroke="white" stroke-width="0.943529" stroke-miterlimit="10"/>
<path vector-effect="non-scaling-stroke" d="M108.265 179.168L124.853 274.6C126.773 285.644 124.011 296.985 117.223 305.964L68.5791 370.278L31.363 345.948L84.696 268.56L108.265 179.161V179.168Z" fill="black" stroke="white" stroke-width="0.943529" stroke-miterlimit="10"/>
<path vector-effect="non-scaling-stroke" d="M68.6644 370.756L30.863 346.045L31.0629 345.749L84.3602 268.417L108.329 177.496L125.195 274.542C127.122 285.628 124.317 297.159 117.501 306.174L68.6572 370.756H68.6644ZM31.8623 345.855L68.5002 369.804L116.944 305.758C123.646 296.898 126.401 285.565 124.51 274.661L108.207 180.844L85.0383 268.713L85.0026 268.762L31.8695 345.855H31.8623Z" fill="white" stroke="white" stroke-width="0.943529" stroke-miterlimit="10"/>
<path vector-effect="non-scaling-stroke" d="M80.1279 358.741V386.546H121.734C121.734 386.546 122.811 380.09 114.339 374.071C107.187 368.989 103.554 364.718 102.319 358.741C101.084 352.771 80.1279 358.741 80.1279 358.741V358.741Z" fill="black" stroke="white" stroke-width="0.943529" stroke-miterlimit="10"/>
<path vector-effect="non-scaling-stroke" d="M121.955 386.807H79.8713V358.551L80.0569 358.494C80.7207 358.304 96.3024 353.913 101.163 356.817C101.941 357.282 102.412 357.909 102.576 358.692C103.74 364.344 107.087 368.594 114.489 373.859C122.997 379.907 122.034 386.32 121.991 386.588L121.955 386.807V386.807ZM80.3924 386.292H121.498C121.577 385.129 121.556 379.519 114.189 374.282C106.659 368.933 103.262 364.591 102.07 358.797C101.934 358.156 101.556 357.656 100.899 357.261C96.5165 354.639 82.2125 358.445 80.3995 358.938V386.292H80.3924Z" fill="black" stroke="white" stroke-width="0.943529" stroke-miterlimit="10"/>
<path vector-effect="non-scaling-stroke" d="M80.1279 386.547H121.734C121.734 386.547 122.597 381.338 116.63 375.911H80.1279V386.547V386.547Z" fill="black" stroke="white" stroke-width="0.943529" stroke-miterlimit="10"/>
<path vector-effect="non-scaling-stroke" d="M121.955 386.81H79.8713V375.66H116.738L116.816 375.731C122.812 381.186 122.034 386.38 121.998 386.599L121.962 386.817L121.955 386.81ZM80.3924 386.296H121.498C121.57 385.274 121.563 380.798 116.531 376.182H80.3924V386.296Z" fill="white" stroke="white" stroke-width="0.943529" stroke-miterlimit="10"/>
<path vector-effect="non-scaling-stroke" d="M112.99 255.2H68.5793V358.744H112.99V255.2Z" fill="black" stroke="white" stroke-width="0.943529" stroke-miterlimit="10"/>
<path vector-effect="non-scaling-stroke" d="M113.247 359H68.3152V254.941H113.247V359ZM68.8362 358.485H112.719V255.463H68.8362V358.485Z" fill="white" stroke="white" stroke-width="0.943529" stroke-miterlimit="10"/>
<path vector-effect="non-scaling-stroke" d="M146.943 120.924C150.198 115.659 154.095 109.866 156.872 105.82C159.113 102.557 162.846 100.604 166.836 100.604H183.117C185.494 100.604 187.414 102.507 187.414 104.847C187.414 106.856 185.986 108.59 184.002 108.999L183.188 109.168C183.188 109.168 182.475 124.11 170.262 124.547L163.388 137.628L146.943 120.917V120.924Z" fill="black" stroke="white" stroke-width="0.943529" stroke-miterlimit="10"/>
<path vector-effect="non-scaling-stroke" d="M163.453 138.066L146.608 120.953L146.715 120.784C149.991 115.484 153.924 109.641 156.65 105.673C158.942 102.332 162.746 100.345 166.836 100.345H183.117C185.63 100.345 187.678 102.368 187.678 104.848C187.678 106.963 186.158 108.817 184.059 109.254L183.438 109.38C183.288 111.171 181.818 124.273 170.426 124.802L163.453 138.073V138.066ZM147.271 120.883L163.324 137.192L170.105 124.294H170.255C182.089 123.864 182.924 109.303 182.932 109.155V108.958L183.952 108.746C185.808 108.358 187.157 106.716 187.157 104.841C187.157 102.642 185.344 100.852 183.117 100.852H166.836C162.924 100.852 159.277 102.762 157.086 105.955C154.395 109.874 150.519 115.632 147.271 120.876V120.883Z" fill="white" stroke="white" stroke-width="0.943529" stroke-miterlimit="10"/>
<path vector-effect="non-scaling-stroke" d="M112.989 255.196H133.981L110.498 137.626L98.4927 163.648L112.989 255.196Z" fill="black" stroke="white" stroke-width="0.943529" stroke-miterlimit="10"/>
<path vector-effect="non-scaling-stroke" d="M134.302 255.445H112.761L112.725 255.226L98.2212 163.601L110.598 136.775L134.302 255.445ZM113.21 254.93H133.667L110.398 138.453L98.7637 163.678L113.21 254.93Z" fill="white" stroke="white" stroke-width="0.943529" stroke-miterlimit="10"/>
<path vector-effect="non-scaling-stroke" d="M96.2014 94.0127H115.116L113.903 105.283L96.2014 94.0127Z" fill="black" stroke="white" stroke-width="0.943529" stroke-miterlimit="10"/>
<path vector-effect="non-scaling-stroke" d="M114.117 105.729L95.3167 93.7539H115.409L114.117 105.729ZM97.0939 94.2684L113.689 104.841L114.831 94.2684H97.0939Z" fill="white" stroke="white" stroke-width="0.943529" stroke-miterlimit="10"/>
<path vector-effect="non-scaling-stroke" d="M112.989 166.806V255.197H39.2424L76.2372 109.068C80.8053 91.0176 105.737 88.5155 113.896 105.283L132.532 143.597L146.936 120.909L170.262 135.47L150.933 171.035C144.36 183.137 127.386 184.652 118.721 173.911L112.982 166.799L112.989 166.806Z" fill="black" stroke="white" stroke-width="0.943529" stroke-miterlimit="10"/>
<path vector-effect="non-scaling-stroke" d="M113.246 255.452H38.9138L75.9942 109.006C78.1356 100.548 84.9235 94.7476 93.7029 93.8666C102.489 92.9855 110.32 97.3201 114.138 105.179L132.568 143.069L146.857 120.558L170.605 135.387L151.162 171.17C148.035 176.929 142.225 180.721 135.637 181.306C129.042 181.898 122.646 179.191 118.521 174.081L113.246 167.548V255.459V255.452ZM39.5776 254.937H112.718V166.06L118.92 173.75C122.932 178.726 129.17 181.355 135.58 180.784C141.997 180.213 147.65 176.52 150.69 170.917L169.905 135.563L147.007 121.27L132.489 144.141L113.646 105.404C109.92 97.7501 102.297 93.5212 93.7315 94.3811C85.1733 95.2409 78.5638 100.894 76.4725 109.133L39.5562 254.937H39.5776Z" fill="white" stroke="white" stroke-width="0.943529" stroke-miterlimit="10"/>
<path vector-effect="non-scaling-stroke" d="M90.2147 136.323L89.7976 136.632L112.777 166.942L113.194 166.633L90.2147 136.323Z" fill="white" stroke="white" stroke-width="0.943529" stroke-miterlimit="10"/>
<path vector-effect="non-scaling-stroke" d="M112.982 178.901H58.4929V179.416H112.982V178.901Z" fill="white" stroke="white" stroke-width="0.943529" stroke-miterlimit="10"/>
<path vector-effect="non-scaling-stroke" d="M112.99 196.431H95.4951V221.444C95.4951 228.204 101.048 233.687 107.893 233.687H112.99V196.431Z" fill="black" stroke="white" stroke-width="0.943529" stroke-miterlimit="10"/>
<path vector-effect="non-scaling-stroke" d="M113.246 233.951H107.885C100.905 233.951 95.2302 228.34 95.2302 221.454V196.18H113.246V233.951V233.951ZM95.7513 196.694V221.447C95.7513 228.051 101.197 233.429 107.885 233.429H112.718V196.694H95.7513Z" fill="white" stroke="white" stroke-width="0.943529" stroke-miterlimit="10"/>
<path vector-effect="non-scaling-stroke" d="M209.099 469.427H95.4952C86.8229 469.427 79.7922 462.485 79.7922 453.921C79.7922 445.358 86.8229 438.416 95.4952 438.416H209.099C227.636 438.416 245.059 431.29 258.171 418.343L486.521 192.859C495.928 183.57 506.934 176.31 519.226 171.285C531.517 166.259 544.493 163.708 557.798 163.708H785.862C794.534 163.708 801.565 170.65 801.565 179.214C801.565 187.777 794.534 194.72 785.862 194.72H557.798C539.261 194.72 521.831 201.845 508.726 214.793L280.376 440.276C270.969 449.566 259.962 456.825 247.671 461.851C235.38 466.876 222.404 469.427 209.099 469.427Z" fill="#404040" stroke="white" stroke-width="0.943529" stroke-miterlimit="10"/>
<path vector-effect="non-scaling-stroke" d="M209.099 469.68H95.4949C86.6941 469.68 79.5278 462.611 79.5278 453.914C79.5278 445.216 86.687 438.147 95.4949 438.147H209.099C227.564 438.147 244.923 431.05 257.985 418.152L486.335 192.668C495.764 183.357 506.799 176.077 519.125 171.037C531.452 165.998 544.464 163.439 557.805 163.439H785.869C794.67 163.439 801.836 170.509 801.836 179.206C801.836 187.903 794.677 194.973 785.869 194.973H557.805C539.339 194.973 521.973 202.077 508.918 214.968L280.569 440.452C271.14 449.762 260.105 457.043 247.778 462.082C235.451 467.122 222.439 469.68 209.106 469.68H209.099ZM95.4949 438.669C86.9796 438.669 80.056 445.505 80.056 453.914C80.056 462.322 86.9796 469.159 95.4949 469.159H209.099C222.368 469.159 235.316 466.614 247.571 461.603C259.834 456.585 270.804 449.347 280.19 440.085L508.54 214.602C521.695 201.612 539.189 194.458 557.797 194.458H785.862C794.377 194.458 801.301 187.622 801.301 179.213C801.301 170.805 794.377 163.968 785.862 163.968H557.797C544.528 163.968 531.581 166.512 519.325 171.524C507.063 176.535 496.092 183.78 486.706 193.042L258.356 418.525C245.201 431.515 227.707 438.669 209.099 438.669H95.4949V438.669Z" fill="white" stroke="white" stroke-width="0.943529" stroke-miterlimit="10"/>
<path vector-effect="non-scaling-stroke" d="M208.457 469.426C217.129 469.426 224.16 462.484 224.16 453.92C224.16 445.356 217.129 438.414 208.457 438.414C199.784 438.414 192.754 445.356 192.754 453.92C192.754 462.484 199.784 469.426 208.457 469.426Z" fill="#202020" stroke="white" stroke-width="0.943529" stroke-miterlimit="10"/>
<path vector-effect="non-scaling-stroke" d="M208.457 469.679C199.656 469.679 192.49 462.61 192.49 453.912C192.49 445.215 199.649 438.146 208.457 438.146C217.265 438.146 224.424 445.215 224.424 453.912C224.424 462.61 217.265 469.679 208.457 469.679ZM208.457 438.667C199.942 438.667 193.018 445.504 193.018 453.912C193.018 462.321 199.942 469.157 208.457 469.157C216.972 469.157 223.896 462.321 223.896 453.912C223.896 445.504 216.972 438.667 208.457 438.667Z" fill="white" stroke="white" stroke-width="0.943529" stroke-miterlimit="10"/>
<path vector-effect="non-scaling-stroke" d="M393.502 322.074C402.143 322.074 409.148 315.157 409.148 306.624C409.148 298.092 402.143 291.175 393.502 291.175C384.861 291.175 377.856 298.092 377.856 306.624C377.856 315.157 384.861 322.074 393.502 322.074Z" fill="#202020" stroke="white" stroke-width="0.943529" stroke-miterlimit="10"/>
<path vector-effect="non-scaling-stroke" d="M393.502 322.337C384.729 322.337 377.592 315.288 377.592 306.626C377.592 297.964 384.729 290.916 393.502 290.916C402.274 290.916 409.412 297.964 409.412 306.626C409.412 315.288 402.274 322.337 393.502 322.337ZM393.502 291.438C385.022 291.438 378.12 298.253 378.12 306.626C378.12 314.999 385.022 321.815 393.502 321.815C401.981 321.815 408.883 314.999 408.883 306.626C408.883 298.253 401.981 291.438 393.502 291.438Z" fill="white" stroke="white" stroke-width="0.943529" stroke-miterlimit="10"/>
<path vector-effect="non-scaling-stroke" d="M574.257 179.204C574.257 170.64 567.227 163.698 558.555 163.698C549.882 163.698 542.852 170.64 542.852 179.204C542.852 187.768 549.882 194.71 558.555 194.71C567.227 194.71 574.257 187.768 574.257 179.204Z" fill="#202020" stroke="white" stroke-width="0.943529" stroke-miterlimit="10"/>
<path vector-effect="non-scaling-stroke" d="M558.555 194.973C549.754 194.973 542.588 187.903 542.588 179.206C542.588 170.509 549.747 163.439 558.555 163.439C567.363 163.439 574.522 170.509 574.522 179.206C574.522 187.903 567.363 194.973 558.555 194.973ZM558.555 163.961C550.04 163.961 543.116 170.798 543.116 179.206C543.116 187.615 550.04 194.451 558.555 194.451C567.07 194.451 573.994 187.615 573.994 179.206C573.994 170.798 567.07 163.961 558.555 163.961Z" fill="white" stroke="white" stroke-width="0.943529" stroke-miterlimit="10"/>
<path vector-effect="non-scaling-stroke" d="M801.565 179.204C801.565 170.64 794.535 163.698 785.862 163.698C777.19 163.698 770.159 170.64 770.159 179.204C770.159 187.768 777.19 194.71 785.862 194.71C794.535 194.71 801.565 187.768 801.565 179.204Z" fill="#202020" stroke="white" stroke-width="0.943529" stroke-miterlimit="10"/>
<path vector-effect="non-scaling-stroke" d="M785.862 194.973C777.061 194.973 769.895 187.903 769.895 179.206C769.895 170.509 777.054 163.439 785.862 163.439C794.67 163.439 801.829 170.509 801.829 179.206C801.829 187.903 794.67 194.973 785.862 194.973ZM785.862 163.961C777.346 163.961 770.423 170.798 770.423 179.206C770.423 187.615 777.346 194.451 785.862 194.451C794.377 194.451 801.3 187.615 801.3 179.206C801.3 170.798 794.377 163.961 785.862 163.961Z" fill="white" stroke="white" stroke-width="0.943529" stroke-miterlimit="10"/>
<path vector-effect="non-scaling-stroke" d="M114.146 414.846H0.470947V534.347H114.146V414.846Z" fill="#202020" stroke="white" stroke-width="0.943529" stroke-miterlimit="10"/>
<path vector-effect="non-scaling-stroke" d="M114.41 534.602H0.206787V414.587H114.41V534.602ZM0.734978 534.088H113.882V415.108H0.72784V534.088H0.734978Z" fill="white" stroke="white" stroke-width="0.943529" stroke-miterlimit="10"/>
<path vector-effect="non-scaling-stroke" d="M767.754 138.037H715.499V163.706H767.754V138.037Z" fill="black" stroke="white" stroke-width="0.943529" stroke-miterlimit="10"/>
<path vector-effect="non-scaling-stroke" d="M715.234 137.778V163.969H768.018V137.778H715.234ZM767.49 138.293V150.613H715.755V138.293H767.49ZM715.755 163.448V151.127H767.49V163.448H715.755Z" fill="white" stroke="white" stroke-width="0.943529" stroke-miterlimit="10"/>
<path vector-effect="non-scaling-stroke" d="M610.502 138.037H558.247V163.706H610.502V138.037Z" fill="black" stroke="white" stroke-width="0.943529" stroke-miterlimit="10"/>
<path vector-effect="non-scaling-stroke" d="M557.991 137.778V163.969H610.774V137.778H557.991ZM610.246 138.293V150.613H558.512V138.293H610.246ZM558.512 163.448V151.127H610.246V163.448H558.512Z" fill="black" stroke="white" stroke-width="0.943529" stroke-miterlimit="10"/>
<path vector-effect="non-scaling-stroke" d="M450.074 193.002L412.97 229.335L431.274 247.562L468.379 211.229L450.074 193.002Z" fill="black" stroke="white" stroke-width="0.943529" stroke-miterlimit="10"/>
<path vector-effect="non-scaling-stroke" d="M450.082 192.645L412.788 229.161L412.602 229.344L431.274 247.937L468.569 211.421L468.754 211.237L450.082 192.645ZM450.082 193.378L458.869 202.124L422.131 238.098L413.344 229.351L450.082 193.378ZM431.289 247.211L422.502 238.464L459.24 202.491L468.026 211.237L431.289 247.211Z" fill="white" stroke="white" stroke-width="0.943529" stroke-miterlimit="10"/>
<path vector-effect="non-scaling-stroke" d="M342.922 298.982L305.817 335.315L324.122 353.542L361.226 317.209L342.922 298.982Z" fill="black" stroke="white" stroke-width="0.943529" stroke-miterlimit="10"/>
<path vector-effect="non-scaling-stroke" d="M342.924 298.615L305.629 335.132L305.444 335.315L324.116 353.908L361.41 317.391L361.596 317.208L342.924 298.615ZM342.924 299.348L351.71 308.095L314.972 344.069L306.186 335.322L342.924 299.348ZM324.13 353.182L315.344 344.435L352.081 308.461L360.868 317.208L324.13 353.182V353.182Z" fill="black" stroke="white" stroke-width="0.943529" stroke-miterlimit="10"/>
<path vector-effect="non-scaling-stroke" d="M203.989 412.741H151.733V438.41H203.989V412.741Z" fill="#A100FF" stroke="white" stroke-width="0.943529" stroke-miterlimit="10"/>
<path vector-effect="non-scaling-stroke" d="M151.469 412.482V438.673H204.253V412.482H151.469V412.482ZM203.725 412.997V425.317H151.991V412.997H203.725ZM151.991 438.152V425.832H203.725V438.152H151.991Z" fill="white" stroke="white" stroke-width="0.943529" stroke-miterlimit="10"/>
<path vector-effect="non-scaling-stroke" d="M219.048 522.269H342.802V534.342H206.821C206.821 527.682 212.296 522.269 219.048 522.269Z" fill="#202020" stroke="white" stroke-width="0.943529" stroke-miterlimit="10"/>
<path vector-effect="non-scaling-stroke" d="M343.066 534.598H206.565V534.337C206.565 527.535 212.168 522.01 219.049 522.01H343.066V534.598ZM207.086 534.083H342.538V522.531H219.041C212.532 522.531 207.221 527.691 207.079 534.083H207.086Z" fill="white" stroke="white" stroke-width="0.943529" stroke-miterlimit="10"/>
<path vector-effect="non-scaling-stroke" d="M208.457 274.7L320.098 321.295L296.85 369.533L197.5 311.35L208.457 274.7Z" fill="#202020" stroke="white" stroke-width="0.943529" stroke-miterlimit="10"/>
<path vector-effect="non-scaling-stroke" d="M296.964 369.901L296.714 369.753L197.193 311.465L208.285 274.343L320.447 321.156L296.957 369.894L296.964 369.901ZM197.814 311.226L296.736 369.161L319.748 321.424L208.628 275.048L197.814 311.226V311.226Z" fill="white" stroke="white" stroke-width="0.943529" stroke-miterlimit="10"/>
<path vector-effect="non-scaling-stroke" d="M165.322 386.534L184.473 291.793L223.337 296.057L192.624 388.359L165.322 386.534Z" fill="#202020" stroke="white" stroke-width="0.943529" stroke-miterlimit="10"/>
<path vector-effect="non-scaling-stroke" d="M192.809 388.622L165.008 386.768L184.258 291.506L223.68 295.833L223.58 296.136L192.809 388.629V388.622ZM165.636 386.289L192.438 388.079L222.981 296.27L184.672 292.07L165.629 386.289H165.636Z" fill="white" stroke="white" stroke-width="0.943529" stroke-miterlimit="10"/>
<path vector-effect="non-scaling-stroke" d="M258.8 522.274L279.221 344.429H333.524L330.027 522.274H258.8Z" fill="#202020" stroke="white" stroke-width="0.943529" stroke-miterlimit="10"/>
<path vector-effect="non-scaling-stroke" d="M330.283 522.53H258.506L258.542 522.241L278.984 344.17H333.788V344.431L330.283 522.523V522.53ZM259.091 522.015H329.769L333.252 344.691H279.455L259.099 522.015H259.091Z" fill="white" stroke="white" stroke-width="0.943529" stroke-miterlimit="10"/>
<path vector-effect="non-scaling-stroke" d="M294.23 474.306C267.406 474.306 245.658 495.781 245.658 522.268H342.809C342.809 495.781 321.061 474.306 294.237 474.306H294.23Z" fill="black" stroke="white" stroke-width="0.943529" stroke-miterlimit="10"/>
<path vector-effect="non-scaling-stroke" d="M343.066 522.531H245.394V522.27C245.394 495.678 267.299 474.047 294.23 474.047C321.16 474.047 343.066 495.678 343.066 522.27V522.531ZM245.915 522.016H342.538C342.395 495.833 320.775 474.568 294.223 474.568C267.67 474.568 246.05 495.833 245.907 522.016H245.915Z" fill="white" stroke="white" stroke-width="0.943529" stroke-miterlimit="10"/>
<path vector-effect="non-scaling-stroke" d="M294.23 508.447C286.493 508.447 280.219 514.643 280.219 522.283H308.241C308.241 514.643 301.967 508.447 294.23 508.447Z" fill="#202020" stroke="white" stroke-width="0.943529" stroke-miterlimit="10"/>
<path vector-effect="non-scaling-stroke" d="M308.505 522.535H279.962V522.274C279.962 514.5 286.364 508.178 294.237 508.178C302.11 508.178 308.513 514.5 308.513 522.274V522.535H308.505ZM280.483 522.02H307.977C307.834 514.655 301.725 508.699 294.23 508.699C286.735 508.699 280.625 514.648 280.483 522.02Z" fill="white" stroke="white" stroke-width="0.943529" stroke-miterlimit="10"/>
<path vector-effect="non-scaling-stroke" d="M306.37 371.236C321.366 371.236 333.522 359.233 333.522 344.425C333.522 329.618 321.366 317.614 306.37 317.614C291.375 317.614 279.219 329.618 279.219 344.425C279.219 359.233 291.375 371.236 306.37 371.236Z" fill="black" stroke="white" stroke-width="0.943529" stroke-miterlimit="10"/>
<path vector-effect="non-scaling-stroke" d="M306.371 371.502C291.253 371.502 278.962 359.358 278.962 344.437C278.962 329.516 291.26 317.372 306.371 317.372C321.482 317.372 333.78 329.516 333.78 344.437C333.78 359.358 321.482 371.502 306.371 371.502ZM306.371 317.887C291.546 317.887 279.483 329.798 279.483 344.437C279.483 359.076 291.546 370.987 306.371 370.987C321.196 370.987 333.259 359.076 333.259 344.437C333.259 329.798 321.196 317.887 306.371 317.887V317.887Z" fill="white" stroke="white" stroke-width="0.943529" stroke-miterlimit="10"/>
<path vector-effect="non-scaling-stroke" d="M306.37 352.564C310.931 352.564 314.629 348.913 314.629 344.41C314.629 339.906 310.931 336.255 306.37 336.255C301.809 336.255 298.112 339.906 298.112 344.41C298.112 348.913 301.809 352.564 306.37 352.564Z" fill="#202020" stroke="white" stroke-width="0.943529" stroke-miterlimit="10"/>
<path vector-effect="non-scaling-stroke" d="M306.371 352.813C301.674 352.813 297.856 349.042 297.856 344.405C297.856 339.767 301.674 335.996 306.371 335.996C311.068 335.996 314.886 339.767 314.886 344.405C314.886 349.042 311.068 352.813 306.371 352.813ZM306.371 336.511C301.967 336.511 298.377 340.049 298.377 344.405C298.377 348.76 301.96 352.298 306.371 352.298C310.782 352.298 314.365 348.76 314.365 344.405C314.365 340.049 310.782 336.511 306.371 336.511Z" fill="white" stroke="white" stroke-width="0.943529" stroke-miterlimit="10"/>
<path vector-effect="non-scaling-stroke" d="M203.987 312.447C214.796 312.447 223.559 303.794 223.559 293.121C223.559 282.447 214.796 273.795 203.987 273.795C193.178 273.795 184.416 282.447 184.416 293.121C184.416 303.794 193.178 312.447 203.987 312.447Z" fill="black" stroke="white" stroke-width="0.943529" stroke-miterlimit="10"/>
<path vector-effect="non-scaling-stroke" d="M203.988 312.696C193.053 312.696 184.159 303.914 184.159 293.116C184.159 282.318 193.053 273.536 203.988 273.536C214.923 273.536 223.816 282.318 223.816 293.116C223.816 303.914 214.923 312.696 203.988 312.696V312.696ZM203.988 274.051C193.338 274.051 184.68 282.607 184.68 293.116C184.68 303.625 193.338 312.181 203.988 312.181C214.637 312.181 223.295 303.632 223.295 293.116C223.295 282.6 214.637 274.051 203.988 274.051Z" fill="white" stroke="white" stroke-width="0.943529" stroke-miterlimit="10"/>
<path vector-effect="non-scaling-stroke" d="M203.988 298.993C207.275 298.993 209.941 296.361 209.941 293.114C209.941 289.868 207.275 287.236 203.988 287.236C200.7 287.236 198.035 289.868 198.035 293.114C198.035 296.361 200.7 298.993 203.988 298.993Z" fill="#202020" stroke="white" stroke-width="0.943529" stroke-miterlimit="10"/>
<path vector-effect="non-scaling-stroke" d="M203.988 299.241C200.562 299.241 197.778 296.493 197.778 293.109C197.778 289.726 200.562 286.978 203.988 286.978C207.414 286.978 210.198 289.726 210.198 293.109C210.198 296.493 207.414 299.241 203.988 299.241ZM203.988 287.492C200.854 287.492 198.299 290.015 198.299 293.109C198.299 296.204 200.847 298.727 203.988 298.727C207.128 298.727 209.677 296.204 209.677 293.109C209.677 290.015 207.121 287.492 203.988 287.492Z" fill="white" stroke="white" stroke-width="0.943529" stroke-miterlimit="10"/>
<path vector-effect="non-scaling-stroke" d="M179.041 400.069C186.614 400.069 192.752 394.007 192.752 386.53C192.752 379.052 186.614 372.99 179.041 372.99C171.468 372.99 165.329 379.052 165.329 386.53C165.329 394.007 171.468 400.069 179.041 400.069Z" fill="black" stroke="white" stroke-width="0.943529" stroke-miterlimit="10"/>
<path vector-effect="non-scaling-stroke" d="M179.041 400.332C171.332 400.332 165.065 394.144 165.065 386.532C165.065 378.92 171.332 372.731 179.041 372.731C186.749 372.731 193.016 378.92 193.016 386.532C193.016 394.144 186.749 400.332 179.041 400.332ZM179.041 373.246C171.624 373.246 165.586 379.209 165.586 386.532C165.586 393.855 171.624 399.817 179.041 399.817C186.457 399.817 192.495 393.855 192.495 386.532C192.495 379.209 186.457 373.246 179.041 373.246V373.246Z" fill="white" stroke="white" stroke-width="0.943529" stroke-miterlimit="10"/>
<path vector-effect="non-scaling-stroke" d="M179.041 390.631C181.343 390.631 183.209 388.788 183.209 386.515C183.209 384.241 181.343 382.398 179.041 382.398C176.739 382.398 174.872 384.241 174.872 386.515C174.872 388.788 176.739 390.631 179.041 390.631Z" fill="#202020" stroke="white" stroke-width="0.943529" stroke-miterlimit="10"/>
<path vector-effect="non-scaling-stroke" d="M179.041 390.893C176.6 390.893 174.608 388.927 174.608 386.517C174.608 384.106 176.6 382.14 179.041 382.14C181.482 382.14 183.473 384.106 183.473 386.517C183.473 388.927 181.482 390.893 179.041 390.893V390.893ZM179.041 382.661C176.885 382.661 175.129 384.395 175.129 386.524C175.129 388.652 176.885 390.379 179.041 390.379C181.197 390.379 182.952 388.645 182.952 386.524C182.952 384.402 181.197 382.661 179.041 382.661V382.661Z" fill="white" stroke="white" stroke-width="0.943529" stroke-miterlimit="10"/>
<path vector-effect="non-scaling-stroke" d="M210.919 399.797H147.165C139.891 399.797 133.981 405.64 133.981 412.815C133.981 419.99 139.899 425.833 147.165 425.833H148.621V425.276H147.165C140.206 425.276 134.538 419.687 134.538 412.808C134.538 405.929 140.198 400.34 147.165 400.34H210.919C217.878 400.34 223.545 405.929 223.545 412.808C223.545 419.687 217.885 425.276 210.919 425.276H209.463V425.833H210.919C218.192 425.833 224.102 419.99 224.102 412.815C224.102 405.64 218.185 399.797 210.919 399.797V399.797Z" fill="white" stroke="white" stroke-width="0.943529" stroke-miterlimit="10"/>
</g>
</g>
<defs>
<clipPath id="clip0_31_1071">
<rect width="802" height="535" fill="white"/>
</clipPath>
<clipPath id="clip1_31_1071">
<rect width="802" height="534.671" fill="white"/>
</clipPath>
</defs>
</svg>
