<svg width="576" height="324" viewBox="0 0 576 324" fill="none" xmlns="http://www.w3.org/2000/svg">
<g clip-path="url(#clip0_77_3)">
<g filter="url(#filter0_d_77_3)">
<g clip-path="url(#clip1_77_3)">
<path vector-effect="non-scaling-stroke" d="M250.399 85.542V98.7843C250.399 111.143 240.378 121.155 228.028 121.155H153.961C145.898 121.155 139.359 127.694 139.359 135.757C139.359 145.362 131.573 153.157 121.959 153.157C113.047 153.157 105.815 160.388 105.815 169.3V287.667" stroke="white" stroke-width="0.85213"/>
<path vector-effect="non-scaling-stroke" d="M514.421 62.2725V99.8949" stroke="white" stroke-width="0.85213"/>
<path vector-effect="non-scaling-stroke" d="M533.233 81.0825H495.61" stroke="white" stroke-width="0.85213"/>
<path vector-effect="non-scaling-stroke" d="M521.897 63.2076C524.789 67.3388 526.651 73.8084 526.651 81.0835C526.651 88.3585 524.798 94.7848 521.923 98.916M506.922 98.916C504.047 94.7848 502.193 88.3326 502.193 81.0835C502.193 73.8344 504.064 67.3042 506.974 63.1816" stroke="white" stroke-width="0.85213"/>
<path vector-effect="non-scaling-stroke" d="M529.474 69.7891H499.378" stroke="white" stroke-width="0.85213"/>
<path vector-effect="non-scaling-stroke" d="M529.474 92.3672H499.378" stroke="white" stroke-width="0.85213"/>
<path vector-effect="non-scaling-stroke" d="M537 81.0831C537 93.5546 526.893 103.662 514.421 103.662C501.95 103.662 491.843 93.5546 491.843 81.0831C491.843 68.6115 501.95 58.5044 514.421 58.5044C526.893 58.5044 537 68.6115 537 81.0831Z" stroke="white" stroke-width="0.85213"/>
<path vector-effect="non-scaling-stroke" d="M518.19 52.1902C516.943 52.017 515.687 51.9304 514.432 51.9131C513.176 51.9217 511.92 52.017 510.673 52.1902" fill="#020202"/>
<path vector-effect="non-scaling-stroke" d="M518.19 52.1902C516.943 52.017 515.687 51.9304 514.432 51.9131C513.176 51.9217 511.92 52.017 510.673 52.1902" stroke="white" stroke-width="0.85213"/>
<path vector-effect="non-scaling-stroke" d="M518.19 109.965C516.943 110.139 515.687 110.225 514.432 110.242C513.176 110.234 511.92 110.139 510.673 109.965" fill="#020202"/>
<path vector-effect="non-scaling-stroke" d="M518.19 109.965C516.943 110.139 515.687 110.225 514.432 110.242C513.176 110.234 511.92 110.139 510.673 109.965" stroke="white" stroke-width="0.85213"/>
<path vector-effect="non-scaling-stroke" d="M532.125 57.9409C531.129 57.1701 530.09 56.4599 529.007 55.819C527.907 55.2041 526.773 54.6498 525.612 54.1821" fill="#020202"/>
<path vector-effect="non-scaling-stroke" d="M532.125 57.9409C531.129 57.1701 530.09 56.4599 529.007 55.819C527.907 55.2041 526.773 54.6498 525.612 54.1821" stroke="white" stroke-width="0.85213"/>
<path vector-effect="non-scaling-stroke" d="M503.241 107.974C502.072 107.498 500.938 106.952 499.846 106.328C498.764 105.688 497.725 104.977 496.729 104.207" fill="#020202"/>
<path vector-effect="non-scaling-stroke" d="M503.241 107.974C502.072 107.498 500.938 106.952 499.846 106.328C498.764 105.688 497.725 104.977 496.729 104.207" stroke="white" stroke-width="0.85213"/>
<path vector-effect="non-scaling-stroke" d="M541.323 69.8923C540.847 68.7231 540.301 67.5885 539.678 66.4973C539.037 65.4147 538.326 64.3754 537.556 63.3794" fill="#020202"/>
<path vector-effect="non-scaling-stroke" d="M541.323 69.8923C540.847 68.7231 540.301 67.5885 539.678 66.4973C539.037 65.4147 538.326 64.3754 537.556 63.3794" stroke="white" stroke-width="0.85213"/>
<path vector-effect="non-scaling-stroke" d="M491.29 98.7849C490.519 97.7889 489.809 96.7496 489.168 95.667C488.553 94.5671 487.999 93.4325 487.531 92.272" fill="#020202"/>
<path vector-effect="non-scaling-stroke" d="M491.29 98.7849C490.519 97.7889 489.809 96.7496 489.168 95.667C488.553 94.5671 487.999 93.4325 487.531 92.272" stroke="white" stroke-width="0.85213"/>
<path vector-effect="non-scaling-stroke" d="M543.315 84.8418C543.489 83.5946 543.575 82.3388 543.593 81.083C543.584 79.8272 543.489 78.5714 543.315 77.3242" fill="#020202"/>
<path vector-effect="non-scaling-stroke" d="M543.315 84.8418C543.489 83.5946 543.575 82.3388 543.593 81.083C543.584 79.8272 543.489 78.5714 543.315 77.3242" stroke="white" stroke-width="0.85213"/>
<path vector-effect="non-scaling-stroke" d="M485.539 84.8418C485.366 83.5946 485.279 82.3388 485.262 81.083C485.27 79.8272 485.366 78.5714 485.539 77.3242" fill="#020202"/>
<path vector-effect="non-scaling-stroke" d="M485.539 84.8418C485.366 83.5946 485.279 82.3388 485.262 81.083C485.27 79.8272 485.366 78.5714 485.539 77.3242" stroke="white" stroke-width="0.85213"/>
<path vector-effect="non-scaling-stroke" d="M537.564 98.7766C538.335 97.7806 539.045 96.7413 539.686 95.6587C540.301 94.5588 540.856 93.4242 541.323 92.2637" fill="#020202"/>
<path vector-effect="non-scaling-stroke" d="M537.564 98.7766C538.335 97.7806 539.045 96.7413 539.686 95.6587C540.301 94.5588 540.856 93.4242 541.323 92.2637" stroke="white" stroke-width="0.85213"/>
<path vector-effect="non-scaling-stroke" d="M487.531 69.8928C488.008 68.7236 488.553 67.589 489.177 66.4978C489.818 65.4152 490.528 64.3759 491.299 63.3799" fill="#020202"/>
<path vector-effect="non-scaling-stroke" d="M487.531 69.8928C488.008 68.7236 488.553 67.589 489.177 66.4978C489.818 65.4152 490.528 64.3759 491.299 63.3799" stroke="white" stroke-width="0.85213"/>
<path vector-effect="non-scaling-stroke" d="M525.612 107.974C526.782 107.498 527.916 106.952 529.007 106.328C530.09 105.688 531.138 104.977 532.125 104.207" fill="#020202"/>
<path vector-effect="non-scaling-stroke" d="M525.612 107.974C526.782 107.498 527.916 106.952 529.007 106.328C530.09 105.688 531.138 104.977 532.125 104.207" stroke="white" stroke-width="0.85213"/>
<path vector-effect="non-scaling-stroke" d="M496.729 57.9409C497.725 57.1701 498.764 56.4599 499.846 55.819C500.946 55.2041 502.081 54.6498 503.241 54.1821" fill="#020202"/>
<path vector-effect="non-scaling-stroke" d="M496.729 57.9409C497.725 57.1701 498.764 56.4599 499.846 55.819C500.946 55.2041 502.081 54.6498 503.241 54.1821" stroke="white" stroke-width="0.85213"/>
<path vector-effect="non-scaling-stroke" d="M107.323 185.808L107.696 192.971C104.431 194.322 101.46 196.296 98.9484 198.773L92.4961 195.664L87.6374 202.905L92.9551 207.694C91.5953 210.959 90.8852 214.458 90.8678 217.992L84.1211 220.347L85.8013 228.904L92.9638 228.532C94.3148 231.797 96.2895 234.768 98.7665 237.279L95.6573 243.731L102.898 248.59L107.687 243.272C110.952 244.632 114.451 245.342 117.985 245.36L120.34 252.106L128.897 250.426L128.525 243.264C131.79 241.913 134.761 239.938 137.272 237.461L143.725 240.57L148.583 233.33L143.266 228.54C144.625 225.275 145.336 221.776 145.353 218.243L152.1 215.887L150.419 207.33L143.257 207.703C141.906 204.437 139.931 201.467 137.454 198.955L140.563 192.503L133.323 187.644L128.534 192.962C125.268 191.602 121.77 190.892 118.236 190.875L115.88 184.128L107.323 185.808Z" fill="#020202" stroke="white" stroke-width="0.85213"/>
<path vector-effect="non-scaling-stroke" d="M137.36 214.329C139.447 224.955 132.527 235.27 121.9 237.358C111.274 239.445 100.959 232.525 98.8715 221.898C96.7842 211.271 103.704 200.956 114.331 198.869C124.958 196.782 135.273 203.702 137.36 214.329Z" fill="#404040" stroke="white" stroke-width="0.85213" stroke-miterlimit="10"/>
<path vector-effect="non-scaling-stroke" d="M110.44 212.959L105.287 220.633L112.961 225.786" fill="#404040"/>
<path vector-effect="non-scaling-stroke" d="M110.44 212.959L105.287 220.633L112.961 225.786" stroke="white" stroke-width="0.85213" stroke-miterlimit="10"/>
<path vector-effect="non-scaling-stroke" d="M123.269 210.439L130.942 215.593L125.789 223.266" fill="#404040"/>
<path vector-effect="non-scaling-stroke" d="M123.269 210.439L130.942 215.593L125.789 223.266" stroke="white" stroke-width="0.85213" stroke-miterlimit="10"/>
<path vector-effect="non-scaling-stroke" d="M118.356 208.075L117.862 228.159L118.356 208.075Z" fill="#404040"/>
<path vector-effect="non-scaling-stroke" d="M118.356 208.075L117.862 228.159" stroke="white" stroke-width="0.85213" stroke-miterlimit="10"/>
<path vector-effect="non-scaling-stroke" d="M297.47 95.9784C301.41 84.0785 312.609 75.487 325.816 75.487C327.679 75.487 329.506 75.6688 331.273 75.998C334.096 72.6202 337.846 70.0393 342.133 68.6709C344.74 54.0775 357.472 42.9917 372.801 42.9917C387.767 42.9917 400.265 53.5492 403.27 67.6316C403.902 67.5797 404.543 67.545 405.193 67.545C413.195 67.545 420.262 71.555 424.497 77.6695C428.299 74.3264 433.271 72.2998 438.727 72.2998C450.636 72.2998 460.292 81.9652 460.292 93.8911C460.292 94.6013 460.258 95.2942 460.188 95.987H297.47V95.9784Z" fill="#404040" stroke="white" stroke-width="0.85213" stroke-miterlimit="10"/>
<path vector-effect="non-scaling-stroke" d="M340.792 85.5427C334.469 66.4283 316.481 52.6317 295.262 52.6317C292.265 52.6317 289.347 52.9175 286.506 53.4458C281.976 48.0155 275.949 43.8843 269.063 41.6758C264.88 18.231 244.423 0.433105 219.809 0.433105C195.195 0.433105 175.709 17.3909 170.876 40.0042C169.863 39.9176 168.832 39.8657 167.793 39.8657C154.94 39.8657 143.595 46.3006 136.787 56.1306C130.69 50.7609 122.696 47.5045 113.931 47.5045C94.7997 47.5045 79.2969 63.0246 79.2969 82.1736C79.2969 83.3082 79.3575 84.4341 79.4614 85.5427H340.8H340.792Z" fill="#020202" stroke="white" stroke-width="0.85213"/>
<path vector-effect="non-scaling-stroke" d="M197.204 275.145C232.791 275.145 261.64 246.296 261.64 210.709C261.64 175.122 232.791 146.272 197.204 146.272C161.617 146.272 132.768 175.122 132.768 210.709C132.768 246.296 161.617 275.145 197.204 275.145Z" fill="#020202" stroke="white" stroke-width="0.85213"/>
<path vector-effect="non-scaling-stroke" d="M292.708 156.518C290.144 153.357 288.066 150.654 287.113 148.671C282.237 138.521 284.333 129.635 278.859 127.201C273.481 124.802 269.029 128.223 265.79 130.475C262.56 132.727 256.921 138.659 259.537 146.021C259.615 146.237 259.693 146.463 259.762 146.679C259.433 148.013 259.035 149.866 258.836 151.624C258.714 152.716 259.935 153.426 260.802 152.776L261.139 152.525C261.997 157.393 262.43 161.48 265.799 162.78C270.614 164.633 276.651 156.05 276.651 156.05L280.271 164.434L292.708 156.535V156.518Z" fill="#202020" stroke="white" stroke-width="0.85213" stroke-miterlimit="10"/>
<path vector-effect="non-scaling-stroke" d="M231.744 207.764H221.758V223.855H231.744V207.764Z" fill="#020202" stroke="white" stroke-width="0.85213" stroke-miterlimit="10"/>
<path vector-effect="non-scaling-stroke" d="M295.964 184.258L285.397 200.826" stroke="white" stroke-width="0.85213" stroke-miterlimit="10"/>
<path vector-effect="non-scaling-stroke" d="M265.503 150.975C265.503 150.975 265.477 154.465 261.632 155.348" stroke="white" stroke-width="0.85213" stroke-miterlimit="10"/>
<path vector-effect="non-scaling-stroke" d="M260.08 138.739L260.161 138.349C260.08 138.739 260.08 138.739 260.08 138.739L260.081 138.739L260.082 138.739L260.085 138.74L260.096 138.742L260.134 138.749C260.166 138.755 260.212 138.763 260.272 138.772C260.392 138.791 260.566 138.815 260.787 138.838C261.23 138.883 261.865 138.921 262.644 138.896C264.129 138.848 266.141 138.571 268.342 137.672C268.91 138.488 270.278 140.311 272.262 142.031C274.535 144.002 277.663 145.875 281.351 145.875C282.566 145.875 283.835 145.677 285.145 145.211L285.322 145.152L285.727 145.017L285.592 144.613L285.531 144.431L285.434 144.14H285.424C284.519 141.43 284.023 138.88 283.579 136.586L283.579 136.586L283.575 136.566C283.159 134.417 282.776 132.435 282.105 130.822C281.425 129.187 280.432 127.887 278.779 127.15C273.571 124.826 269.214 127.88 266.209 129.986L266.158 130.022L266.158 130.022L265.726 130.324C265.726 130.324 265.726 130.325 265.726 130.325C264.708 131.033 261.235 133.683 259.63 137.91L259.629 137.912L259.551 138.12L259.382 138.571L259.851 138.684L260.067 138.736L260.067 138.736L260.08 138.739Z" fill="#404040" stroke="white" stroke-width="0.85213" stroke-miterlimit="10"/>
<path vector-effect="non-scaling-stroke" d="M320.923 223.855C320.923 207.564 314.688 191.334 308.946 179.313C305.1 171.25 297.903 162.935 292.698 156.518C292.698 156.518 283.57 156.518 280.261 164.416C280.261 164.416 277.845 166.46 271.808 176.281C265.772 186.094 255.907 202.454 255.907 202.454H235.017C231.319 202.454 228.331 205.494 228.331 209.253V223.855H258.462C265.685 223.855 272.44 220.218 276.494 214.146L285.397 200.817" fill="#404040"/>
<path vector-effect="non-scaling-stroke" d="M320.923 223.855C320.923 207.564 314.688 191.334 308.946 179.313C305.1 171.25 297.903 162.935 292.698 156.518C292.698 156.518 283.57 156.518 280.261 164.416C280.261 164.416 277.845 166.46 271.808 176.281C265.772 186.094 255.907 202.454 255.907 202.454H235.017C231.319 202.454 228.331 205.494 228.331 209.253V223.855H258.462C265.685 223.855 272.44 220.218 276.494 214.146L285.397 200.817" stroke="white" stroke-width="0.85213" stroke-miterlimit="10"/>
<path vector-effect="non-scaling-stroke" d="M321.002 223.544C321.002 207.253 314.766 191.022 309.024 179.001C305.178 170.938 297.981 162.624 292.776 156.206C292.776 156.206 283.648 156.206 280.339 164.105C280.339 164.105 277.923 166.149 271.886 175.97C265.85 185.783 255.985 202.143 255.985 202.143H235.095C231.397 202.143 228.409 205.183 228.409 208.942V223.544H258.54C265.763 223.544 272.519 219.906 276.572 213.835L285.475 200.506" stroke="white" stroke-width="0.85213" stroke-miterlimit="10"/>
<path vector-effect="non-scaling-stroke" d="M200.952 205.55L197.996 208.437C193.438 205.33 191.359 203.014 190.515 201.368C190.087 200.535 189.983 199.886 190.02 199.397C190.056 198.909 190.235 198.548 190.427 198.293C190.549 198.129 190.802 198.104 190.966 198.264L190.967 198.266C191.753 199.025 193.344 200.505 195.26 201.993C196.99 203.336 199.008 204.705 200.952 205.55Z" fill="#202020" stroke="white" stroke-width="0.85213" stroke-miterlimit="10"/>
<path vector-effect="non-scaling-stroke" d="M197.188 207.056C197.19 207.071 197.192 207.088 197.193 207.104C197.246 207.641 197.282 208.38 197.218 209.187C197.087 210.818 196.554 212.634 195.028 213.712C194.062 214.394 193.259 214.579 192.622 214.545C191.98 214.511 191.459 214.251 191.068 213.961C190.765 213.735 190.738 213.29 191.005 213.034L191.006 213.033L197.188 207.056Z" fill="#202020" stroke="white" stroke-width="0.85213" stroke-miterlimit="10"/>
<path vector-effect="non-scaling-stroke" d="M214.474 223.856C207.476 223.856 196.156 217.915 199.101 214.979C200.946 213.143 208.584 220.669 208.584 220.669L214.465 223.856H214.474Z" fill="#202020" stroke="white" stroke-width="0.85213" stroke-miterlimit="10"/>
<path vector-effect="non-scaling-stroke" d="M214.474 207.764C209.58 207.764 205.908 207.253 201.708 205.399C199.724 204.516 197.412 205.486 196.572 207.521L193.272 215.489C192.995 216.164 193.437 216.935 194.164 216.987C195.481 217.091 197.663 216.035 199.993 209.695L202.392 211.288C202.392 211.288 202.903 223.864 214.474 223.864V207.772V207.764Z" fill="#202020" stroke="white" stroke-width="0.85213" stroke-miterlimit="10"/>
<path vector-effect="non-scaling-stroke" d="M220.519 205.269H215.712C215.028 205.269 214.474 205.823 214.474 206.508V206.525C214.474 207.209 215.028 207.763 215.712 207.763H220.519C221.203 207.763 221.757 207.209 221.757 206.525V206.508C221.757 205.823 221.203 205.269 220.519 205.269Z" fill="#404040" stroke="white" stroke-width="0.85213" stroke-miterlimit="10"/>
<path vector-effect="non-scaling-stroke" d="M218.112 205.269C217.436 205.269 216.882 205.832 216.882 206.516C216.882 207.2 217.436 207.763 218.112 207.763C218.787 207.763 219.341 207.2 219.341 206.516C219.341 205.832 218.787 205.269 218.112 205.269Z" fill="black" stroke="white" stroke-width="0.85213" stroke-miterlimit="10"/>
<path vector-effect="non-scaling-stroke" d="M221.757 207.764H214.474V223.855H221.757V207.764Z" fill="#404040" stroke="white" stroke-width="0.85213" stroke-miterlimit="10"/>
<path vector-effect="non-scaling-stroke" d="M277.983 159.211L280.348 164.113" stroke="white" stroke-width="0.85213" stroke-miterlimit="10"/>
<path vector-effect="non-scaling-stroke" d="M214.474 207.764H221.757V213.125C221.757 215.134 220.129 216.771 218.12 216.771C216.111 216.771 214.482 215.143 214.482 213.125V207.764H214.474Z" fill="#404040" stroke="white" stroke-width="0.85213" stroke-miterlimit="10"/>
<path vector-effect="non-scaling-stroke" d="M165.116 218.841L155.459 187.93L150.514 189.558L161.747 223.864H204.029V218.841H165.124H165.116Z" fill="#A100FF" stroke="white" stroke-width="0.85213"/>
<path vector-effect="non-scaling-stroke" d="M391.881 319.531C444.738 319.531 487.583 276.695 487.583 223.855C487.583 171.016 444.738 128.18 391.881 128.18C339.025 128.18 296.18 171.016 296.18 223.855C296.18 276.695 339.025 319.531 391.881 319.531Z" fill="#020202" stroke="white" stroke-width="0.85213"/>
<path vector-effect="non-scaling-stroke" d="M285.12 201.225L296.111 207.218" stroke="white" stroke-width="0.85213"/>
<path vector-effect="non-scaling-stroke" d="M167.488 129.522V109.455H154.116L180.869 69.3291L207.623 109.455H194.25V132.865H180.878L207.631 172.99L234.384 132.865H221.012V112.798" fill="#020202"/>
<path vector-effect="non-scaling-stroke" d="M167.488 129.522V109.455H154.116L180.869 69.3291L207.623 109.455H194.25V132.865H180.878L207.631 172.99L234.384 132.865H221.012V112.798" stroke="white" stroke-width="0.85213" stroke-miterlimit="10"/>
<path vector-effect="non-scaling-stroke" d="M360.061 180.794H413.048C415.222 180.794 416.971 182.544 416.971 184.718V222.002C416.971 224.176 415.222 225.926 413.048 225.926H360.061C357.887 225.926 356.138 224.176 356.138 222.002V184.718C356.138 182.544 357.887 180.794 360.061 180.794Z" stroke="white" stroke-width="0.85213"/>
<path vector-effect="non-scaling-stroke" d="M413.047 184.718H412.068" stroke="white" stroke-width="0.85213"/>
<path vector-effect="non-scaling-stroke" d="M408.147 184.718H407.168" stroke="white" stroke-width="0.85213"/>
<path vector-effect="non-scaling-stroke" d="M403.235 184.718H402.256" stroke="white" stroke-width="0.85213"/>
<path vector-effect="non-scaling-stroke" d="M416.971 188.641H356.138" stroke="white" stroke-width="0.85213"/>
<path vector-effect="non-scaling-stroke" d="M466.901 323.567C457.946 294.406 432.483 273.36 402.448 273.36C398.212 273.36 394.064 273.802 390.045 274.599C383.628 266.311 375.097 260.005 365.345 256.636C359.421 220.876 330.468 193.716 295.617 193.716C260.766 193.716 233.173 219.594 226.331 254.09C224.893 253.96 223.438 253.882 221.965 253.882C203.769 253.882 187.712 263.704 178.064 278.695C169.429 270.502 158.11 265.531 145.707 265.531C118.625 265.531 96.6699 289.21 96.6699 318.431C96.6699 320.163 96.7479 321.878 96.9038 323.567H466.901Z" fill="#020202" stroke="white" stroke-width="0.85213" stroke-miterlimit="10"/>
<path vector-effect="non-scaling-stroke" d="M276.494 223.734L274.572 230.463C272.095 231.07 269.721 232.048 267.539 233.373L261.424 229.978L255.778 235.625L259.181 241.748C257.856 243.931 256.878 246.295 256.271 248.772L249.533 250.695V258.689L256.263 260.612C256.869 263.089 257.848 265.462 259.173 267.644L255.778 273.759L261.424 279.405L267.548 276.002C269.73 277.327 272.095 278.306 274.572 278.912L276.494 285.65H284.488L286.411 278.92C288.888 278.314 291.261 277.335 293.443 276.01L299.558 279.405L305.205 273.759L301.801 267.635C303.126 265.453 304.105 263.089 304.711 260.612L311.449 258.689V250.695L304.72 248.772C304.113 246.295 303.135 243.922 301.81 241.74L305.205 235.625L299.558 229.978L293.435 233.382C291.252 232.057 288.888 231.078 286.411 230.472L284.488 223.734H276.494Z" stroke="white" stroke-width="0.85213" stroke-linecap="round" stroke-linejoin="round"/>
<path vector-effect="non-scaling-stroke" d="M268.5 251.7L276.494 259.694L292.482 243.706L297.479 248.703L276.503 269.68L263.512 256.689L268.509 251.691L268.5 251.7Z" fill="#A2A2A0" stroke="white" stroke-width="0.85213"/>
<path vector-effect="non-scaling-stroke" d="M257.397 145.665L273.221 138.503" stroke="white" stroke-width="0.85213" stroke-miterlimit="10"/>
<path vector-effect="non-scaling-stroke" d="M255.942 141.959L258.965 149.58" stroke="white" stroke-width="0.85213" stroke-miterlimit="10"/>
<path vector-effect="non-scaling-stroke" d="M280.486 128.5C284.542 128.5 287.83 125.212 287.83 121.155C287.83 117.099 284.542 113.811 280.486 113.811C276.43 113.811 273.142 117.099 273.142 121.155C273.142 125.212 276.43 128.5 280.486 128.5Z" fill="#404040" stroke="white" stroke-width="0.85213" stroke-miterlimit="10"/>
<path vector-effect="non-scaling-stroke" d="M370.973 193.335V220.487H402.143" stroke="white" stroke-width="0.85213" stroke-linecap="round" stroke-linejoin="round"/>
<path vector-effect="non-scaling-stroke" d="M374.489 218.478V215.464L381.53 208.925V218.478" stroke="white" stroke-width="0.85213" stroke-linecap="round" stroke-linejoin="round"/>
<path vector-effect="non-scaling-stroke" d="M383.54 218.478V208.925L390.581 211.436V218.478" stroke="white" stroke-width="0.85213" stroke-linecap="round" stroke-linejoin="round"/>
<path vector-effect="non-scaling-stroke" d="M392.591 218.477V211.436L399.632 202.386V218.477" stroke="white" stroke-width="0.85213" stroke-linecap="round" stroke-linejoin="round"/>
<path vector-effect="non-scaling-stroke" d="M373.985 212.441L382.031 205.399L391.082 208.916L400.635 197.354" stroke="white" stroke-width="0.85213" stroke-linecap="round" stroke-linejoin="round"/>
<path vector-effect="non-scaling-stroke" d="M398.123 197.354H400.635V199.865" stroke="white" stroke-width="0.85213" stroke-linecap="round" stroke-linejoin="round"/>
<path vector-effect="non-scaling-stroke" d="M325.851 257.589L325.582 263.098C322.984 263.877 320.559 265.159 318.446 266.865L313.752 263.99L309.473 269.152L313.172 273.231C311.881 275.621 311.067 278.245 310.781 280.948L305.438 282.229L306.061 288.907L311.569 289.175C312.349 291.774 313.631 294.199 315.337 296.312L312.461 301.006L317.623 305.284L321.702 301.586C324.093 302.877 326.717 303.691 329.419 303.977L330.701 309.32L337.378 308.697L337.647 303.188C340.245 302.409 342.67 301.127 344.783 299.421L349.478 302.296L353.756 297.135L350.058 293.055C351.348 290.665 352.162 288.041 352.448 285.339L357.792 284.057L357.168 277.379L351.66 277.111C350.881 274.513 349.599 272.088 347.893 269.974L350.768 265.28L345.606 261.002L341.527 264.7C339.137 263.409 336.512 262.595 333.81 262.31L332.528 256.966L325.851 257.589Z" fill="#A2A2A0" stroke="white" stroke-width="0.85213"/>
<path vector-effect="non-scaling-stroke" d="M376.906 152.387V101.643H369.666L386.555 77.4795L403.443 101.643H396.203V152.387" fill="#020202"/>
<path vector-effect="non-scaling-stroke" d="M376.906 152.387V101.643H369.666L386.555 77.4795L403.443 101.643H396.203V152.387" stroke="white" stroke-width="0.85213" stroke-miterlimit="10"/>
<path vector-effect="non-scaling-stroke" d="M386.556 173.51C396.594 173.51 404.735 165.378 404.735 155.34C404.735 145.302 396.594 137.169 386.556 137.169C376.518 137.169 368.377 145.302 368.377 155.34C368.377 165.378 376.518 173.51 386.556 173.51Z" fill="#A100FF" stroke="white" stroke-width="0.85213"/>
<path vector-effect="non-scaling-stroke" d="M386.556 144.489C384.598 146.186 381.61 147.295 378.241 147.373V156.215C378.241 158.303 379.081 160.295 380.58 161.75L386.547 166.201L392.523 161.75C394.021 160.295 394.861 158.294 394.861 156.207V147.373C391.492 147.295 388.504 146.186 386.547 144.489H386.556ZM387.439 154.795V158.718H385.672V154.795C385.378 154.544 385.187 154.172 385.187 153.756C385.187 153.002 385.802 152.387 386.556 152.387C387.309 152.387 387.924 153.002 387.924 153.756C387.924 154.172 387.733 154.544 387.439 154.795Z" fill="#A100FF" stroke="white" stroke-width="0.85213"/>
<path vector-effect="non-scaling-stroke" d="M437.393 239.539H457.174V204.497H431.175V233.329L437.393 239.547V239.539Z" fill="#404040" stroke="white" stroke-width="0.85213" stroke-miterlimit="10"/>
<path vector-effect="non-scaling-stroke" d="M437.393 239.539V233.32H431.175" fill="#E3E3DF"/>
<path vector-effect="non-scaling-stroke" d="M437.393 239.539V233.32H431.175" stroke="white" stroke-width="0.85213" stroke-miterlimit="10"/>
<path vector-effect="non-scaling-stroke" d="M444.748 210.483H424.967V245.525H450.966V216.693L444.748 210.475V210.483Z" fill="#020202" stroke="white" stroke-width="0.85213"/>
<path vector-effect="non-scaling-stroke" d="M444.748 210.483V216.701H450.966" fill="#020202"/>
<path vector-effect="non-scaling-stroke" d="M444.748 210.483V216.701H450.966" stroke="white" stroke-width="0.85213"/>
<path vector-effect="non-scaling-stroke" d="M335.665 279.379C335.665 277.171 333.872 275.387 331.672 275.387C329.472 275.387 327.68 277.179 327.68 279.379C327.68 281.579 329.472 283.372 331.672 283.372C333.872 283.372 335.665 285.165 335.665 287.365C335.665 289.564 333.872 291.357 331.672 291.357C329.472 291.357 327.68 289.564 327.68 287.365" fill="#404040"/>
<path vector-effect="non-scaling-stroke" d="M335.665 279.379C335.665 277.171 333.872 275.387 331.672 275.387C329.472 275.387 327.68 277.179 327.68 279.379C327.68 281.579 329.472 283.372 331.672 283.372C333.872 283.372 335.665 285.165 335.665 287.365C335.665 289.564 333.872 291.357 331.672 291.357C329.472 291.357 327.68 289.564 327.68 287.365" stroke="white" stroke-width="0.85213" stroke-miterlimit="10"/>
<path vector-effect="non-scaling-stroke" d="M331.663 275.387V272.39V275.387Z" fill="#404040"/>
<path vector-effect="non-scaling-stroke" d="M331.663 275.387V272.39" stroke="white" stroke-width="0.85213" stroke-miterlimit="10"/>
<path vector-effect="non-scaling-stroke" d="M331.663 294.362V291.366V294.362Z" fill="#404040"/>
<path vector-effect="non-scaling-stroke" d="M331.663 294.362V291.366" stroke="white" stroke-width="0.85213" stroke-miterlimit="10"/>
<path vector-effect="non-scaling-stroke" d="M347.65 283.372C347.65 292.197 340.497 299.359 331.663 299.359C322.829 299.359 315.675 292.206 315.675 283.372C315.675 274.538 322.829 267.384 331.663 267.384C340.497 267.384 347.65 274.538 347.65 283.372Z" fill="#404040" stroke="white" stroke-width="0.85213" stroke-miterlimit="10"/>
<path vector-effect="non-scaling-stroke" d="M197.032 279.111H130.326V300.2H197.032V279.111Z" fill="#202020" stroke="white" stroke-width="0.85213" stroke-miterlimit="10"/>
<path vector-effect="non-scaling-stroke" d="M197.032 258.03H130.326V279.119H197.032V258.03Z" fill="#020202" stroke="white" stroke-width="0.85213" stroke-miterlimit="10"/>
<path vector-effect="non-scaling-stroke" d="M197.032 239.721H130.326V260.81H197.032V239.721Z" fill="#202020" stroke="white" stroke-width="0.85213" stroke-miterlimit="10"/>
<path vector-effect="non-scaling-stroke" d="M185.946 252.625C187.011 252.625 187.869 251.569 187.869 250.261C187.869 248.953 187.011 247.896 185.946 247.896C184.881 247.896 184.023 248.953 184.023 250.261C184.023 251.569 184.881 252.625 185.946 252.625Z" fill="#020202" stroke="white" stroke-width="0.85213" stroke-miterlimit="10"/>
<path vector-effect="non-scaling-stroke" d="M185.946 272.32C187.011 272.32 187.869 271.263 187.869 269.956C187.869 268.648 187.011 267.591 185.946 267.591C184.881 267.591 184.023 268.648 184.023 269.956C184.023 271.263 184.881 272.32 185.946 272.32Z" fill="#020202" stroke="white" stroke-width="0.85213" stroke-miterlimit="10"/>
<path vector-effect="non-scaling-stroke" d="M185.946 292.023C187.011 292.023 187.869 290.967 187.869 289.659C187.869 288.351 187.011 287.294 185.946 287.294C184.881 287.294 184.023 288.351 184.023 289.659C184.023 290.967 184.881 292.023 185.946 292.023Z" fill="#020202" stroke="white" stroke-width="0.85213" stroke-miterlimit="10"/>
<path vector-effect="non-scaling-stroke" d="M139.359 250.26H174.895" stroke="white" stroke-width="0.85213" stroke-miterlimit="10"/>
<path vector-effect="non-scaling-stroke" d="M139.359 269.965H174.895" stroke="white" stroke-width="0.85213" stroke-miterlimit="10"/>
<path vector-effect="non-scaling-stroke" d="M139.359 289.668H174.895" stroke="white" stroke-width="0.85213" stroke-miterlimit="10"/>
<path vector-effect="non-scaling-stroke" d="M61.8551 104.726L60.8418 111.828C57.3775 112.521 54.0864 113.881 51.1417 115.838L45.4083 111.542L39.2418 117.709L43.5376 123.442C41.5716 126.387 40.2032 129.678 39.5016 133.151L32.4258 134.164V142.885L39.5276 143.899C40.2205 147.363 41.5802 150.654 43.5376 153.599L39.2418 159.332L45.4083 165.499L51.1417 161.203C54.0864 163.169 57.3775 164.537 60.8505 165.239L61.8638 172.315H70.5852L71.5985 165.213C75.0628 164.52 78.3539 163.16 81.2986 161.203L87.032 165.499L93.1985 159.332L88.9027 153.599C90.8687 150.654 92.2372 147.363 92.9387 143.89L100.015 142.877V134.155L92.9127 133.142C92.2198 129.678 90.8601 126.387 88.9027 123.442L93.1985 117.709L87.032 111.542L81.2986 115.838C78.3539 113.872 75.0628 112.503 71.5898 111.802L70.5765 104.726H61.8551Z" stroke="white" stroke-width="0.85213"/>
<path vector-effect="non-scaling-stroke" d="M85.8281 138.503C85.8281 149.338 77.046 158.12 66.2114 158.12C55.3768 158.12 46.5947 149.338 46.5947 138.503C46.5947 127.668 55.3768 118.886 66.2114 118.886C77.046 118.886 85.8281 127.668 85.8281 138.503Z" stroke="white" stroke-width="0.85213"/>
<path vector-effect="non-scaling-stroke" d="M59.6717 131.964L53.1328 138.503L59.6717 145.042" stroke="white" stroke-width="0.85213"/>
<path vector-effect="non-scaling-stroke" d="M72.75 131.964L79.2889 138.503L72.75 145.042" stroke="white" stroke-width="0.85213"/>
<path vector-effect="non-scaling-stroke" d="M68.3925 128.699L64.0361 148.315" stroke="white" stroke-width="0.85213"/>
<path vector-effect="non-scaling-stroke" d="M515.092 109.94V115.136" stroke="white" stroke-width="0.85213"/>
<path vector-effect="non-scaling-stroke" d="M515.091 125.478V192.27C515.091 203.39 508.267 212.917 498.584 216.901" stroke="white" stroke-width="0.85213"/>
<path vector-effect="non-scaling-stroke" d="M493.638 218.39C491.967 218.719 490.235 218.892 488.468 218.892" stroke="white" stroke-width="0.85213"/>
<path vector-effect="non-scaling-stroke" d="M98.5385 303.992C96.7717 303.992 95.0482 303.854 93.3594 303.577" stroke="white" stroke-width="0.85213"/>
<path vector-effect="non-scaling-stroke" d="M83.2178 300.139C73.0933 294.683 66.208 283.978 66.208 271.662V182.854" stroke="white" stroke-width="0.85213"/>
<path vector-effect="non-scaling-stroke" d="M66.208 177.476V172.279" stroke="white" stroke-width="0.85213"/>
<path vector-effect="non-scaling-stroke" d="M144.919 173.042C143.118 173.042 141.394 172.904 139.74 172.635" stroke="white" stroke-width="0.85213"/>
<path vector-effect="non-scaling-stroke" d="M130.075 169.111C121.414 163.802 116.607 153.617 116.607 141.509V95.9272" stroke="white" stroke-width="0.85213"/>
<path vector-effect="non-scaling-stroke" d="M116.607 90.7385V85.542" stroke="white" stroke-width="0.85213"/>
<path vector-effect="non-scaling-stroke" d="M434.285 95.979V100.509C434.285 109.031 441.188 115.933 449.71 115.933H460.242C467.664 115.933 473.683 121.953 473.683 129.375V144.878C473.683 152.525 479.876 158.718 487.523 158.718C494.408 158.718 499.986 164.295 499.986 171.181V295.896C499.986 304.981 492.624 312.343 483.539 312.343H463.429" stroke="white" stroke-width="0.85213"/>
<path vector-effect="non-scaling-stroke" d="M325.609 95.979V154.361" stroke="white" stroke-width="0.85213"/>
<path vector-effect="non-scaling-stroke" d="M269.306 141.061C269.306 141.061 271.15 137.579 273.723 138.852C276.988 140.463 275.039 144.612 273.723 145.348" fill="#202020"/>
<path vector-effect="non-scaling-stroke" d="M269.306 141.061C269.306 141.061 271.15 137.579 273.723 138.852C276.988 140.463 275.039 144.612 273.723 145.348" stroke="white" stroke-width="0.85213" stroke-miterlimit="10"/>
</g>
</g>
</g>
<defs>
<filter id="filter0_d_77_3" x="31.3452" y="0" width="513.326" height="325.31" filterUnits="userSpaceOnUse" color-interpolation-filters="sRGB">
<feFlood flood-opacity="0" result="BackgroundImageFix"/>
<feColorMatrix in="SourceAlpha" type="matrix" values="0 0 0 0 0 0 0 0 0 0 0 0 0 0 0 0 0 0 127 0" result="hardAlpha"/>
<feOffset dy="0.654843"/>
<feGaussianBlur stdDeviation="0.327422"/>
<feComposite in2="hardAlpha" operator="out"/>
<feColorMatrix type="matrix" values="0 0 0 0 0 0 0 0 0 0 0 0 0 0 0 0 0 0 0.25 0"/>
<feBlend mode="normal" in2="BackgroundImageFix" result="effect1_dropShadow_77_3"/>
<feBlend mode="normal" in="SourceGraphic" in2="effect1_dropShadow_77_3" result="shape"/>
</filter>
<clipPath id="clip0_77_3">
<rect width="576" height="324" fill="white"/>
</clipPath>
<clipPath id="clip1_77_3">
<rect width="512.017" height="324" fill="white" transform="translate(32)"/>
</clipPath>
</defs>
</svg>
