<svg width="576" height="324" viewBox="0 0 576 324" fill="none" xmlns="http://www.w3.org/2000/svg">
<g clip-path="url(#clip0_77_269)">
<path vector-effect="non-scaling-stroke" d="M468.24 259.413C468.24 236.293 449.525 217.544 426.438 217.544H165.571C142.485 217.544 123.77 236.293 123.77 259.413C123.77 282.533 142.485 301.281 165.571 301.281H426.43C449.516 301.281 468.232 282.541 468.232 259.413H468.24Z" fill="#020202" stroke="white" stroke-width="0.83587" stroke-miterlimit="10"/>
<path vector-effect="non-scaling-stroke" d="M295.775 217.544H213.232V301.273H295.775V217.544Z" fill="#202020" stroke="white" stroke-width="0.83587" stroke-miterlimit="10"/>
<path vector-effect="non-scaling-stroke" d="M378.193 217.544H295.65V301.273H378.193V217.544Z" fill="#020202" stroke="white" stroke-width="0.83587" stroke-miterlimit="10"/>
<path vector-effect="non-scaling-stroke" d="M249.279 231.66L233.693 274.181C232.907 276.327 234.009 278.703 236.154 279.49L257.085 287.162C259.231 287.948 261.608 286.847 262.394 284.701L277.98 242.18C278.766 240.035 277.664 237.658 275.519 236.871L254.588 229.199C252.442 228.413 250.066 229.515 249.279 231.66Z" stroke="white" stroke-width="0.83587" stroke-linecap="round" stroke-linejoin="round"/>
<path vector-effect="non-scaling-stroke" d="M276.926 245.077L248.23 234.553" stroke="white" stroke-width="0.83587" stroke-linecap="round" stroke-linejoin="round"/>
<path vector-effect="non-scaling-stroke" d="M263.477 281.755L234.781 271.24" stroke="white" stroke-width="0.83587" stroke-linecap="round" stroke-linejoin="round"/>
<path vector-effect="non-scaling-stroke" d="M245.439 279.021L250.313 280.81" stroke="white" stroke-width="0.83587" stroke-linecap="round" stroke-linejoin="round"/>
<path vector-effect="non-scaling-stroke" d="M254.342 251.655L256.105 246.857" stroke="white" stroke-width="0.83587" stroke-linecap="round" stroke-linejoin="round"/>
<path vector-effect="non-scaling-stroke" d="M263.553 255.032L265.308 250.234" stroke="white" stroke-width="0.83587" stroke-linecap="round" stroke-linejoin="round"/>
<path vector-effect="non-scaling-stroke" d="M267.271 256.395L269.027 251.597" stroke="white" stroke-width="0.83587" stroke-linecap="round" stroke-linejoin="round"/>
<path vector-effect="non-scaling-stroke" d="M252.076 248.103C251.591 249.424 250.546 250.26 249.735 249.967C248.924 249.675 248.674 248.362 249.158 247.033C249.643 245.713 250.688 244.877 251.499 245.169C252.31 245.462 252.56 246.774 252.076 248.103Z" stroke="white" stroke-width="0.83587" stroke-linecap="round" stroke-linejoin="round"/>
<path vector-effect="non-scaling-stroke" d="M261.28 251.465C261.766 250.139 261.507 248.824 260.701 248.529C259.895 248.233 258.847 249.069 258.361 250.395C257.875 251.722 258.134 253.036 258.94 253.332C259.746 253.627 260.794 252.792 261.28 251.465Z" stroke="white" stroke-width="0.83587" stroke-linecap="round" stroke-linejoin="round"/>
<path vector-effect="non-scaling-stroke" d="M258.395 261.853L260.15 257.055" stroke="white" stroke-width="0.83587" stroke-linecap="round" stroke-linejoin="round"/>
<path vector-effect="non-scaling-stroke" d="M254.676 260.483L256.431 255.693" stroke="white" stroke-width="0.83587" stroke-linecap="round" stroke-linejoin="round"/>
<path vector-effect="non-scaling-stroke" d="M245.465 257.114L247.229 252.316" stroke="white" stroke-width="0.83587" stroke-linecap="round" stroke-linejoin="round"/>
<path vector-effect="non-scaling-stroke" d="M252.409 256.922C252.895 255.596 252.636 254.281 251.83 253.986C251.023 253.69 249.976 254.526 249.49 255.852C249.003 257.179 249.263 258.493 250.069 258.789C250.875 259.084 251.923 258.249 252.409 256.922Z" stroke="white" stroke-width="0.83587" stroke-linecap="round" stroke-linejoin="round"/>
<path vector-effect="non-scaling-stroke" d="M265.339 261.659C265.825 260.332 265.566 259.018 264.759 258.722C263.953 258.427 262.905 259.262 262.419 260.589C261.933 261.915 262.193 263.23 262.999 263.525C263.805 263.821 264.853 262.985 265.339 261.659Z" stroke="white" stroke-width="0.83587" stroke-linecap="round" stroke-linejoin="round"/>
<path vector-effect="non-scaling-stroke" d="M248.717 267.01L250.472 262.212" stroke="white" stroke-width="0.83587" stroke-linecap="round" stroke-linejoin="round"/>
<path vector-effect="non-scaling-stroke" d="M252.436 268.373L254.191 263.575" stroke="white" stroke-width="0.83587" stroke-linecap="round" stroke-linejoin="round"/>
<path vector-effect="non-scaling-stroke" d="M261.639 271.75L263.402 266.952" stroke="white" stroke-width="0.83587" stroke-linecap="round" stroke-linejoin="round"/>
<path vector-effect="non-scaling-stroke" d="M246.451 263.458C245.966 264.779 244.921 265.615 244.11 265.322C243.308 265.029 243.049 263.717 243.533 262.388C244.018 261.059 245.063 260.232 245.874 260.524C246.685 260.817 246.935 262.129 246.451 263.458Z" stroke="white" stroke-width="0.83587" stroke-linecap="round" stroke-linejoin="round"/>
<path vector-effect="non-scaling-stroke" d="M259.37 268.186C259.856 266.859 259.597 265.545 258.791 265.249C257.984 264.954 256.937 265.789 256.451 267.116C255.964 268.442 256.224 269.757 257.03 270.052C257.836 270.348 258.884 269.512 259.37 268.186Z" stroke="white" stroke-width="0.83587" stroke-linecap="round" stroke-linejoin="round"/>
<path vector-effect="non-scaling-stroke" d="M398.795 283.602V272.276H394.674L402.907 259.922L411.14 272.276H407.02V283.602" stroke="white" stroke-width="0.83587" stroke-linecap="round" stroke-linejoin="round"/>
<path vector-effect="non-scaling-stroke" d="M389.523 287.715H442.1" stroke="white" stroke-width="0.83587" stroke-linecap="round" stroke-linejoin="round"/>
<path vector-effect="non-scaling-stroke" d="M389.523 287.715V231.093" stroke="white" stroke-width="0.83587" stroke-linecap="round" stroke-linejoin="round"/>
<path vector-effect="non-scaling-stroke" d="M416.297 283.603V257.866H412.176L420.409 245.512L428.642 257.866H424.522V283.603" stroke="white" stroke-width="0.83587" stroke-linecap="round" stroke-linejoin="round"/>
<path vector-effect="non-scaling-stroke" d="M433.793 283.603V243.456H429.672L437.905 231.102L446.139 243.456H442.018V283.603" stroke="white" stroke-width="0.83587" stroke-linecap="round" stroke-linejoin="round"/>
<path vector-effect="non-scaling-stroke" d="M83.4453 284.664L82.6512 160.387C82.6011 153.014 84.7493 145.776 88.8701 139.523C109.608 108.078 178.969 19.7013 257.189 105.169C257.189 105.169 322.011 179.553 393.185 130.228C394.464 129.342 395.776 128.498 397.156 127.746C426.996 111.421 476.053 83.6454 502.233 139.816C504.498 144.672 505.585 149.938 505.585 155.238V284.421C505.585 306.045 487.02 323.574 464.117 323.574H124.913C102.11 323.574 83.5874 306.187 83.4537 284.655L83.4453 284.664Z" stroke="white" stroke-width="0.83587" stroke-linecap="round" stroke-linejoin="round"/>
<path vector-effect="non-scaling-stroke" d="M470.362 101.558H463.909C458.827 101.558 454.715 97.4375 454.715 92.3638V42.9973C454.715 37.9152 458.836 33.8027 463.909 33.8027H524.828C529.91 33.8027 534.022 37.9236 534.022 42.9973V92.3638C534.022 97.4459 529.901 101.558 524.828 101.558H494.761L470.362 120.115V101.542" fill="#202020"/>
<path vector-effect="non-scaling-stroke" d="M470.362 101.558H463.909C458.827 101.558 454.715 97.4375 454.715 92.3638V42.9973C454.715 37.9152 458.836 33.8027 463.909 33.8027H524.828C529.91 33.8027 534.022 37.9236 534.022 42.9973V92.3638C534.022 97.4459 529.901 101.558 524.828 101.558H494.761L470.362 120.115V101.542" stroke="white" stroke-width="0.83587" stroke-miterlimit="10"/>
<path vector-effect="non-scaling-stroke" d="M486.08 54.9332V43.3647" stroke="white" stroke-width="0.83587" stroke-miterlimit="10"/>
<path vector-effect="non-scaling-stroke" d="M508.297 54.9332V43.3647" stroke="white" stroke-width="0.83587" stroke-miterlimit="10"/>
<path vector-effect="non-scaling-stroke" d="M517.273 54.9332V43.3647" stroke="white" stroke-width="0.83587" stroke-miterlimit="10"/>
<path vector-effect="non-scaling-stroke" d="M478.489 49.149C478.489 52.342 476.918 54.9332 474.97 54.9332C473.023 54.9332 471.451 52.342 471.451 49.149C471.451 45.9559 473.023 43.3647 474.97 43.3647C476.918 43.3647 478.489 45.9559 478.489 49.149Z" fill="#202020" stroke="white" stroke-width="0.83587" stroke-miterlimit="10"/>
<path vector-effect="non-scaling-stroke" d="M500.708 49.149C500.708 52.342 499.137 54.9332 497.189 54.9332C495.241 54.9332 493.67 52.342 493.67 49.149C493.67 45.9559 495.241 43.3647 497.189 43.3647C499.137 43.3647 500.708 45.9559 500.708 49.149Z" fill="#202020" stroke="white" stroke-width="0.83587" stroke-miterlimit="10"/>
<path vector-effect="non-scaling-stroke" d="M502.654 73.4645V61.8877" stroke="white" stroke-width="0.83587" stroke-miterlimit="10"/>
<path vector-effect="non-scaling-stroke" d="M493.67 73.4645V61.8877" stroke="white" stroke-width="0.83587" stroke-miterlimit="10"/>
<path vector-effect="non-scaling-stroke" d="M471.451 73.4645V61.8877" stroke="white" stroke-width="0.83587" stroke-miterlimit="10"/>
<path vector-effect="non-scaling-stroke" d="M486.079 67.6802C486.079 70.8732 484.508 73.4644 482.56 73.4644C480.612 73.4644 479.041 70.8732 479.041 67.6802C479.041 64.4872 480.612 61.896 482.56 61.896C484.508 61.896 486.079 64.4872 486.079 67.6802Z" fill="#202020" stroke="white" stroke-width="0.83587" stroke-miterlimit="10"/>
<path vector-effect="non-scaling-stroke" d="M517.274 67.6802C517.274 70.8732 515.703 73.4644 513.755 73.4644C511.808 73.4644 510.236 70.8732 510.236 67.6802C510.236 64.4872 511.808 61.896 513.755 61.896C515.703 61.896 517.274 64.4872 517.274 67.6802Z" fill="#202020" stroke="white" stroke-width="0.83587" stroke-miterlimit="10"/>
<path vector-effect="non-scaling-stroke" d="M486.08 91.9957V80.4189" stroke="white" stroke-width="0.83587" stroke-miterlimit="10"/>
<path vector-effect="non-scaling-stroke" d="M495.064 91.9957V80.4189" stroke="white" stroke-width="0.83587" stroke-miterlimit="10"/>
<path vector-effect="non-scaling-stroke" d="M517.273 91.9957V80.4189" stroke="white" stroke-width="0.83587" stroke-miterlimit="10"/>
<path vector-effect="non-scaling-stroke" d="M478.489 86.2032C478.489 89.3962 476.918 91.9874 474.97 91.9874C473.023 91.9874 471.451 89.3962 471.451 86.2032C471.451 83.0101 473.023 80.4189 474.97 80.4189C476.918 80.4189 478.489 83.0101 478.489 86.2032Z" fill="#202020" stroke="white" stroke-width="0.83587" stroke-miterlimit="10"/>
<path vector-effect="non-scaling-stroke" d="M509.685 86.2032C509.685 89.3962 508.113 91.9874 506.166 91.9874C504.218 91.9874 502.646 89.3962 502.646 86.2032C502.646 83.0101 504.218 80.4189 506.166 80.4189C508.113 80.4189 509.685 83.0101 509.685 86.2032Z" fill="#202020" stroke="white" stroke-width="0.83587" stroke-miterlimit="10"/>
<path vector-effect="non-scaling-stroke" d="M225.342 21.415C264.352 21.415 295.981 53.0444 295.981 92.0544" stroke="white" stroke-width="0.83587" stroke-miterlimit="10"/>
<path vector-effect="non-scaling-stroke" d="M405.858 187.594C368.235 197.917 329.367 175.784 319.053 138.161" stroke="white" stroke-width="0.83587" stroke-miterlimit="10"/>
<path vector-effect="non-scaling-stroke" d="M386.909 176.778C420.526 176.778 447.777 149.526 447.777 115.91C447.777 82.2931 420.526 55.0415 386.909 55.0415C353.293 55.0415 326.041 82.2931 326.041 115.91C326.041 149.526 353.293 176.778 386.909 176.778Z" fill="#020202"/>
<mask id="mask0_77_269" style="mask-type:luminance" maskUnits="userSpaceOnUse" x="326" y="55" width="122" height="122">
<path vector-effect="non-scaling-stroke" d="M386.911 176.777C420.527 176.777 447.779 149.526 447.779 115.909C447.779 82.2926 420.527 55.041 386.911 55.041C353.295 55.041 326.043 82.2926 326.043 115.909C326.043 149.526 353.295 176.777 386.911 176.777Z" fill="white"/>
</mask>
<g mask="url(#mask0_77_269)">
<path vector-effect="non-scaling-stroke" d="M366.809 136.923H345.703V133.555H366.809V136.923ZM345.954 136.672H366.558V133.814H345.954V136.672Z" fill="#020202" stroke="white" stroke-width="0.83587" stroke-linejoin="round"/>
<path vector-effect="non-scaling-stroke" d="M366.683 133.68V136.798H348.235H345.134L338.062 115.542L341.172 114.539L347.249 133.68H366.683Z" fill="#020202" stroke="white" stroke-width="0.83587" stroke-miterlimit="10"/>
<path vector-effect="non-scaling-stroke" d="M424.442 112.19L417.797 122.455L418.006 122.589L424.659 112.324L424.442 112.19Z" fill="#020202" stroke="white" stroke-width="0.83587" stroke-linejoin="round"/>
<path vector-effect="non-scaling-stroke" d="M412.73 136.798H311.799V143.226H412.73V136.798Z" fill="black" stroke="white" stroke-width="0.83587" stroke-miterlimit="10"/>
<path vector-effect="non-scaling-stroke" d="M373.26 136.789C368.855 136.789 361.734 133.112 363.589 131.289C364.751 130.153 369.557 134.817 369.557 134.817L373.26 136.789Z" fill="#404040" stroke="white" stroke-width="0.83587" stroke-miterlimit="10"/>
<path vector-effect="non-scaling-stroke" d="M364.091 131.231C363.915 131.231 363.773 131.273 363.673 131.381C363.397 131.657 363.339 131.967 363.489 132.343C364.225 134.148 369.206 136.422 372.717 136.647L369.466 134.909C368.312 133.789 365.37 131.231 364.091 131.231Z" fill="#404040" stroke="white" stroke-width="0.83587" stroke-miterlimit="10"/>
<path vector-effect="non-scaling-stroke" d="M362.217 127.303C359.668 125.548 358.222 123.767 357.929 122.02C357.879 121.686 357.929 121.419 358.079 121.185C359.091 122.154 361.59 124.394 364.022 125.556L362.209 127.303H362.217Z" fill="#404040"/>
<path vector-effect="non-scaling-stroke" d="M358.357 122.02C359.493 123.048 361.391 124.636 363.313 125.664L362.177 126.759C359.928 125.163 358.649 123.566 358.357 122.02ZM358.072 120.758C358.072 120.758 358.056 120.758 358.039 120.758C357.939 120.758 357.847 120.816 357.78 120.892C357.529 121.226 357.446 121.619 357.521 122.087C357.688 123.073 358.306 125.196 362.26 127.829L364.759 125.414C362.227 124.394 359.435 121.895 358.332 120.85C358.256 120.783 358.164 120.741 358.064 120.741L358.072 120.758Z" fill="white"/>
<path vector-effect="non-scaling-stroke" d="M359.226 130.696C358.875 130.696 358.549 130.579 358.248 130.362C358.173 130.303 358.156 130.237 358.156 130.195C358.156 130.153 358.156 130.086 358.223 130.019L361.884 126.534C361.943 127.562 361.834 129.317 360.572 130.203C360.104 130.529 359.652 130.696 359.235 130.696H359.226Z" fill="#404040"/>
<path vector-effect="non-scaling-stroke" d="M361.458 127.52C361.383 128.364 361.116 129.317 360.33 129.869C359.929 130.144 359.561 130.286 359.227 130.286C359.043 130.286 358.867 130.245 358.692 130.153L361.458 127.52ZM362.202 125.656L357.939 129.718C357.647 129.994 357.689 130.462 358.006 130.696C358.299 130.913 358.717 131.114 359.235 131.114C359.686 131.114 360.213 130.964 360.815 130.546C362.896 129.1 362.227 125.756 362.211 125.656H362.202Z" fill="white"/>
<path vector-effect="non-scaling-stroke" d="M373.26 126.818C370.184 126.818 367.869 126.5 365.227 125.346C363.982 124.803 362.528 125.405 361.993 126.659L359.92 131.59C359.744 132.008 360.028 132.485 360.48 132.518C361.307 132.585 362.686 131.925 364.149 127.996L365.654 128.983C365.654 128.983 365.98 136.781 373.26 136.781V126.809V126.818Z" fill="#404040" stroke="white" stroke-width="0.83587" stroke-miterlimit="10"/>
<path vector-effect="non-scaling-stroke" d="M381.536 126.575H372.609V136.806H381.704V126.575H381.528H381.536Z" fill="#020202" stroke="white" stroke-width="0.83587" stroke-miterlimit="10"/>
<path vector-effect="non-scaling-stroke" d="M427.484 209.711C423.481 207.011 419.702 204.462 419.702 199.848V170.45H419.452V199.848C419.452 204.453 415.674 207.011 411.67 209.711C406.897 212.937 401.48 216.582 401.48 224.456V224.581H437.682V224.456C437.682 216.582 432.274 212.929 427.493 209.711H427.484ZM401.731 224.33C401.79 216.674 407.114 213.088 411.803 209.92C415.431 207.471 418.883 205.147 419.577 201.294C420.271 205.147 423.715 207.471 427.342 209.92C432.04 213.088 437.356 216.674 437.415 224.33H401.723H401.731Z" fill="#020202" stroke="white" stroke-width="0.83587" stroke-linejoin="round"/>
<path vector-effect="non-scaling-stroke" d="M351.87 208.465L365.01 160.662C367.843 150.364 377.205 143.226 387.879 143.226H397.057L377.732 181.734L371.822 208.474H351.861L351.87 208.465Z" fill="#020202" stroke="white" stroke-width="0.83587" stroke-miterlimit="10"/>
<path vector-effect="non-scaling-stroke" d="M441.76 143.217H387.404C376.145 143.217 367.635 153.415 369.65 164.499L377.641 208.465H398.278L390.137 165.401H429.13C436.102 165.401 441.752 159.742 441.752 152.771V143.217H441.76Z" fill="#020202" stroke="white" stroke-width="0.83587" stroke-miterlimit="10"/>
<path vector-effect="non-scaling-stroke" d="M441.761 136.798H417.646V143.226H441.761V136.798Z" fill="#020202" stroke="white" stroke-width="0.83587" stroke-linejoin="round"/>
<path vector-effect="non-scaling-stroke" d="M421.289 136.798H421.54V143.226H421.289M425.059 143.226H425.31V136.798H425.059M428.829 143.226H429.079V136.798H428.829M432.598 143.226H432.849V136.798H432.598M436.368 143.226H436.619V136.798H436.368" fill="#020202"/>
<path vector-effect="non-scaling-stroke" d="M421.289 136.798H421.54V143.226H421.289M425.059 143.226H425.31V136.798H425.059M428.829 143.226H429.079V136.798H428.829M432.598 143.226H432.849V136.798H432.598M436.368 143.226H436.619V136.798H436.368" stroke="white" stroke-width="0.83587" stroke-linejoin="round"/>
<path vector-effect="non-scaling-stroke" d="M432.724 109.197C429.113 101.741 420.796 93.9343 418.982 90.2147C415.914 83.9206 417.227 78.4206 413.791 76.9076C410.406 75.4198 407.606 77.5429 405.566 78.9388C403.535 80.3347 399.983 84.0042 401.629 88.568C401.679 88.7018 401.73 88.8439 401.771 88.9776C401.562 89.8051 401.312 90.9503 401.186 92.0453C401.111 92.7223 401.872 93.1653 402.423 92.7557L402.632 92.5969C403.167 95.6144 403.443 98.1471 405.566 98.9495C408.6 100.103 412.395 94.7785 412.395 94.7785L414.677 99.9777C414.677 99.9777 413.156 101.248 409.353 107.325C405.549 113.41 399.347 123.549 399.347 123.549H386.199C383.875 123.549 381.986 125.438 381.986 127.762V136.814H400.952C405.499 136.814 409.746 134.566 412.303 130.796L417.904 122.538C417.904 122.538 412.27 132.969 417.653 136.814H440.263C440.263 126.717 436.343 116.662 432.732 109.206L432.724 109.197Z" fill="#404040" stroke="white" stroke-width="0.83587" stroke-miterlimit="10"/>
<path vector-effect="non-scaling-stroke" d="M432.724 108.671C430.5 104.09 426.404 98.6905 423.237 94.8706C420.127 95.6396 417.043 96.9436 414.075 98.072L414.677 99.4512C414.677 99.4512 413.156 100.722 409.353 106.798C405.549 112.884 399.347 123.023 399.347 123.023H386.199C383.875 123.023 381.986 124.912 381.986 127.236V136.288H400.952C405.499 136.288 409.746 134.039 412.303 130.27L417.904 122.011C417.904 122.011 412.27 132.443 417.653 136.288H440.263C440.263 126.191 436.343 116.135 432.732 108.679L432.724 108.671Z" fill="#202020" stroke="white" stroke-width="0.83587" stroke-miterlimit="10"/>
<path vector-effect="non-scaling-stroke" d="M405.601 92.0366C405.601 92.0366 405.701 94.1932 403.311 94.8702Z" fill="#404040"/>
<path vector-effect="non-scaling-stroke" d="M405.601 92.0366C405.601 92.0366 405.701 94.1932 403.311 94.8702" stroke="white" stroke-width="0.83587" stroke-miterlimit="10"/>
<path vector-effect="non-scaling-stroke" d="M418.515 87.8495C417.855 85.9939 417.504 84.2552 417.195 82.7172C416.626 79.9004 416.183 77.6686 414.119 76.7826C410.75 75.3365 407.933 77.2339 405.869 78.6215L405.576 78.8137C404.899 79.2651 402.617 80.9452 401.564 83.62L401.514 83.7537L401.656 83.7872C401.656 83.7872 404.222 84.297 407.281 83.0265C407.774 83.7454 411.176 88.4262 415.966 88.4262C416.752 88.4262 417.579 88.3009 418.432 88.0083L418.557 87.9665L418.515 87.8495Z" fill="#E3E3DF" stroke="white" stroke-width="0.83587" stroke-miterlimit="10"/>
<path vector-effect="non-scaling-stroke" d="M414.678 99.9694C416.834 97.863 420.336 95.5477 422.493 95.0712L420.278 92.2627C420.278 92.2627 415.647 94.2521 413.29 96.8265C412.454 97.746 412.253 98.5484 412.354 99.2004C412.513 100.312 413.875 100.755 414.686 99.9694H414.678Z" fill="#020202" stroke="white" stroke-width="0.83587" stroke-linejoin="round"/>
<path vector-effect="non-scaling-stroke" d="M445.303 111.714V153.85C445.303 163.02 437.872 170.45 428.711 170.45H399.581C398.185 170.45 397.057 169.322 397.057 167.926C397.057 166.53 398.185 165.402 399.581 165.402H427.583C434.579 165.402 440.254 159.726 440.254 152.722V111.705C440.254 110.31 441.383 109.181 442.779 109.181C444.175 109.181 445.303 110.31 445.303 111.705V111.714Z" fill="#020202" stroke="white" stroke-width="0.83587" stroke-miterlimit="10"/>
<path vector-effect="non-scaling-stroke" d="M408.377 85.9601C408.377 85.9601 409.99 83.2937 411.612 84.0794C413.66 85.0825 412.439 87.6486 411.612 88.1083" fill="#404040"/>
<path vector-effect="non-scaling-stroke" d="M408.377 85.9601C408.377 85.9601 409.99 83.2937 411.612 84.0794C413.66 85.0825 412.439 87.6486 411.612 88.1083" stroke="white" stroke-width="0.83587" stroke-miterlimit="10"/>
</g>
<path vector-effect="non-scaling-stroke" d="M386.909 176.778C420.526 176.778 447.777 149.526 447.777 115.91C447.777 82.2931 420.526 55.0415 386.909 55.0415C353.293 55.0415 326.041 82.2931 326.041 115.91C326.041 149.526 353.293 176.778 386.909 176.778Z" stroke="white" stroke-width="0.83587" stroke-miterlimit="10"/>
<path vector-effect="non-scaling-stroke" d="M225.342 151C257.897 151 284.288 124.609 284.288 92.0545C284.288 59.4997 257.897 33.1089 225.342 33.1089C192.787 33.1089 166.396 59.4997 166.396 92.0545C166.396 124.609 192.787 151 225.342 151Z" stroke="white" stroke-width="0.83587" stroke-miterlimit="10"/>
<mask id="mask1_77_269" style="mask-type:luminance" maskUnits="userSpaceOnUse" x="166" y="32" width="119" height="119">
<path vector-effect="non-scaling-stroke" d="M225.342 150.047C257.897 150.047 284.288 123.656 284.288 91.1013C284.288 58.5466 257.897 32.1558 225.342 32.1558C192.787 32.1558 166.396 58.5466 166.396 91.1013C166.396 123.656 192.787 150.047 225.342 150.047Z" fill="white"/>
</mask>
<g mask="url(#mask1_77_269)">
<path vector-effect="non-scaling-stroke" d="M230.835 95.3818L232.481 86.5884C232.481 86.5884 240.213 93.4007 244.451 90.5504C247.418 88.5527 246.934 84.5656 246.683 79.751L247.059 79.9182C248.037 80.3444 249.065 79.3916 248.697 78.3802C248.112 76.7502 247.318 75.0785 246.708 73.8832C246.725 73.6575 246.75 73.4318 246.775 73.2061C247.669 65.6164 240.915 61.2365 237.296 59.8238C233.677 58.4112 228.611 56.1627 223.955 59.6483C219.216 63.2008 223.195 71.175 220.737 81.9326C220.228 84.156 218.932 87.2822 215.58 91.2693L230.835 95.3734V95.3818Z" fill="#404040" stroke="white" stroke-width="0.83587" stroke-miterlimit="10"/>
<path vector-effect="non-scaling-stroke" d="M245.103 65.6163C242.578 61.8883 238.55 60.0996 237.371 59.6399L236.861 59.4392C233.275 58.0266 228.369 56.0958 223.838 59.4894C221.063 61.5624 221.189 65.1399 221.347 69.6703C221.431 72.1361 221.531 74.9363 221.197 78.0123L221.172 78.2129L221.372 78.238C221.815 78.2881 222.25 78.3048 222.676 78.3048C231.595 78.3048 235.783 68.1072 236.326 66.6946C241.442 67.5973 245.003 65.9172 245.036 65.9005L245.237 65.8002L245.111 65.6163H245.103Z" fill="#020202" stroke="white" stroke-width="0.83587" stroke-miterlimit="10"/>
<path vector-effect="non-scaling-stroke" d="M222.393 59.531C226.756 59.531 230.292 55.9952 230.292 51.6236C230.292 47.252 226.756 43.7163 222.393 43.7163C218.03 43.7163 214.494 47.252 214.494 51.6236C214.494 55.9952 218.03 59.531 222.393 59.531Z" fill="#020202" stroke="white" stroke-width="0.83587" stroke-miterlimit="10"/>
<path vector-effect="non-scaling-stroke" d="M234.621 70.9991C234.621 70.9991 232.072 68.0986 229.865 69.8874C227.073 72.1609 229.865 75.6632 231.303 76.0728" fill="#404040"/>
<path vector-effect="non-scaling-stroke" d="M234.621 70.9991C234.621 70.9991 232.072 68.0986 229.865 69.8874C227.073 72.1609 229.865 75.6632 231.303 76.0728" stroke="white" stroke-width="0.83587" stroke-miterlimit="10"/>
<path vector-effect="non-scaling-stroke" d="M234.621 70.9991C234.621 70.9991 232.072 68.0986 229.865 69.8874C227.073 72.1609 229.865 75.6632 231.303 76.0728" stroke="white" stroke-width="0.83587" stroke-miterlimit="10"/>
<path vector-effect="non-scaling-stroke" d="M246.776 82.3587C243.073 82.3587 242.321 79.241 242.312 79.2075" stroke="white" stroke-width="0.83587" stroke-miterlimit="10"/>
<path vector-effect="non-scaling-stroke" d="M186.258 153.416C186.258 153.416 184.385 100.179 215.58 91.269L230.835 95.3732C230.835 95.3732 255.769 107.075 256.504 151.193" fill="#202020"/>
<path vector-effect="non-scaling-stroke" d="M186.258 153.416C186.258 153.416 184.385 100.179 215.58 91.269L230.835 95.3732C230.835 95.3732 255.769 107.075 256.504 151.193" stroke="white" stroke-width="0.83587" stroke-miterlimit="10"/>
<path vector-effect="non-scaling-stroke" d="M204.99 113.98L217.804 153.416" stroke="white" stroke-width="0.83587" stroke-miterlimit="10"/>
</g>
<path vector-effect="non-scaling-stroke" d="M225.342 150.047C257.897 150.047 284.288 123.656 284.288 91.1013C284.288 58.5466 257.897 32.1558 225.342 32.1558C192.787 32.1558 166.396 58.5466 166.396 91.1013C166.396 123.656 192.787 150.047 225.342 150.047Z" stroke="white" stroke-width="0.83587" stroke-miterlimit="10"/>
<path vector-effect="non-scaling-stroke" d="M250.785 69.2349H233.75V74.8352H250.785V69.2349Z" fill="#A100FF" stroke="white" stroke-width="0.83587" stroke-linecap="round" stroke-linejoin="round"/>
<path vector-effect="non-scaling-stroke" d="M173.427 248.513C173.427 245.179 170.725 242.478 167.392 242.478L148.671 251.949L143.441 247.95H120.89C118.947 247.95 117.246 249.25 116.734 251.124L115.754 254.718V258.102H112.986C109.909 259.025 109.602 259.332 107.756 262.409V300.555C107.756 303.888 133.458 303.016 136.791 303.016H168.667C172 303.016 173.427 302.148 173.427 298.815V248.513Z" fill="#020202"/>
<path vector-effect="non-scaling-stroke" d="M107.803 268.632V299.935C107.803 301.824 109.048 303.354 110.595 303.354H170.242C171.78 303.354 173.034 301.824 173.034 299.935V268.172L107.811 268.632H107.803Z" stroke="white" stroke-width="0.83587" stroke-miterlimit="10"/>
<path vector-effect="non-scaling-stroke" d="M107.812 265.03C107.812 265.03 107.394 257.866 114.064 258.184H130.38C130.38 258.184 132.637 258.242 134.459 257.039L137.669 254.531C137.669 254.531 140.411 251.873 144.348 251.681H169.767C169.767 251.681 172.458 251.681 173.026 254.447V264.779" stroke="white" stroke-width="0.83587" stroke-miterlimit="10"/>
<path vector-effect="non-scaling-stroke" d="M147.624 256.938H145.133V259.429H147.624V256.938Z" fill="#A2A2A0" stroke="white" stroke-width="0.83587" stroke-miterlimit="10"/>
<path vector-effect="non-scaling-stroke" d="M153.34 256.938H150.85V259.429H153.34V256.938Z" fill="#A2A2A0" stroke="white" stroke-width="0.83587" stroke-miterlimit="10"/>
<path vector-effect="non-scaling-stroke" d="M159.059 256.938H156.568V259.429H159.059V256.938Z" fill="#A2A2A0" stroke="white" stroke-width="0.83587" stroke-miterlimit="10"/>
<path vector-effect="non-scaling-stroke" d="M164.776 256.938H162.285V259.429H164.776V256.938Z" fill="#A2A2A0" stroke="white" stroke-width="0.83587" stroke-miterlimit="10"/>
<path vector-effect="non-scaling-stroke" d="M154.954 246.448H152.463V248.939H154.954V246.448Z" fill="#A2A2A0" stroke="white" stroke-width="0.83587" stroke-miterlimit="10"/>
<path vector-effect="non-scaling-stroke" d="M160.671 246.448H158.18V248.939H160.671V246.448Z" fill="#A2A2A0" stroke="white" stroke-width="0.83587" stroke-miterlimit="10"/>
<path vector-effect="non-scaling-stroke" d="M166.389 246.448H163.898V248.939H166.389V246.448Z" fill="#A2A2A0" stroke="white" stroke-width="0.83587" stroke-miterlimit="10"/>
<path vector-effect="non-scaling-stroke" d="M172.114 246.448H169.623V248.939H172.114V246.448Z" fill="#A2A2A0" stroke="white" stroke-width="0.83587" stroke-miterlimit="10"/>
<path vector-effect="non-scaling-stroke" d="M164.774 236.267H162.283V238.758H164.774V236.267Z" fill="#A2A2A0" stroke="white" stroke-width="0.83587" stroke-miterlimit="10"/>
<path vector-effect="non-scaling-stroke" d="M170.501 236.267H168.01V238.758H170.501V236.267Z" fill="#A2A2A0" stroke="white" stroke-width="0.83587" stroke-miterlimit="10"/>
<path vector-effect="non-scaling-stroke" d="M176.217 236.267H173.727V238.758H176.217V236.267Z" fill="#A2A2A0" stroke="white" stroke-width="0.83587" stroke-miterlimit="10"/>
<path vector-effect="non-scaling-stroke" d="M181.934 236.267H179.443V238.758H181.934V236.267Z" fill="#A2A2A0" stroke="white" stroke-width="0.83587" stroke-miterlimit="10"/>
<path vector-effect="non-scaling-stroke" d="M115.861 254.924C115.861 254.924 115.443 247.76 122.113 248.078H138.429C138.429 248.078 140.686 248.136 142.508 246.933L145.718 244.425C145.718 244.425 148.46 241.767 152.397 241.575H177.815C177.815 241.575 180.507 241.575 181.075 244.341V289.671C181.075 289.671 180.891 293.365 176.929 293.231H173.435" stroke="white" stroke-width="0.83587" stroke-miterlimit="10"/>
<path vector-effect="non-scaling-stroke" d="M125.206 245.32C125.206 245.32 124.788 238.156 131.459 238.474H147.775C147.775 238.474 150.032 238.532 151.854 237.329L155.064 234.821C155.064 234.821 157.805 232.163 161.742 231.971H187.161C187.161 231.971 189.853 231.971 190.421 234.737V280.067C190.421 280.067 190.237 283.761 186.275 283.627H181.118" stroke="white" stroke-width="0.83587" stroke-miterlimit="10"/>
<path vector-effect="non-scaling-stroke" d="M347.715 253.402H320.089C317.287 253.402 315.016 255.674 315.016 258.476V276.999C315.016 279.801 317.287 282.073 320.089 282.073H347.715C350.517 282.073 352.789 279.801 352.789 276.999V258.476C352.789 255.674 350.517 253.402 347.715 253.402Z" fill="#A100FF" stroke="white" stroke-width="0.83587" stroke-miterlimit="10"/>
<path vector-effect="non-scaling-stroke" d="M315.015 273.764C312.089 273.764 309.707 271.39 309.707 268.456C309.707 265.522 312.081 263.148 315.015 263.148" fill="#A100FF"/>
<path vector-effect="non-scaling-stroke" d="M315.015 273.764C312.089 273.764 309.707 271.39 309.707 268.456C309.707 265.522 312.081 263.148 315.015 263.148" stroke="white" stroke-width="0.83587" stroke-miterlimit="10"/>
<path vector-effect="non-scaling-stroke" d="M339.205 271.307C339.205 274.232 336.832 276.614 333.898 276.614C330.964 276.614 328.59 274.241 328.59 271.307H339.197H339.205Z" fill="#202020" stroke="white" stroke-width="0.83587" stroke-miterlimit="10"/>
<path vector-effect="non-scaling-stroke" d="M352.779 263.157C355.705 263.157 358.087 265.531 358.087 268.465C358.087 271.398 355.713 273.772 352.779 273.772" fill="#A100FF"/>
<path vector-effect="non-scaling-stroke" d="M352.779 263.157C355.705 263.157 358.087 265.531 358.087 268.465C358.087 271.398 355.713 273.772 352.779 273.772" stroke="white" stroke-width="0.83587" stroke-miterlimit="10"/>
<path vector-effect="non-scaling-stroke" d="M333.913 248.538C335.238 248.538 336.312 247.464 336.312 246.139C336.312 244.814 335.238 243.74 333.913 243.74C332.588 243.74 331.514 244.814 331.514 246.139C331.514 247.464 332.588 248.538 333.913 248.538Z" fill="#A100FF" stroke="white" stroke-width="0.83587" stroke-miterlimit="10"/>
<path vector-effect="non-scaling-stroke" d="M333.912 248.538V253.369" stroke="white" stroke-width="0.83587" stroke-miterlimit="10"/>
<path vector-effect="non-scaling-stroke" d="M326.985 267.002C328.015 267.002 328.849 266.167 328.849 265.138C328.849 264.108 328.015 263.274 326.985 263.274C325.956 263.274 325.121 264.108 325.121 265.138C325.121 266.167 325.956 267.002 326.985 267.002Z" fill="#202020" stroke="white" stroke-width="0.83587" stroke-miterlimit="10"/>
<path vector-effect="non-scaling-stroke" d="M340.811 267.002C341.841 267.002 342.675 266.167 342.675 265.138C342.675 264.108 341.841 263.274 340.811 263.274C339.782 263.274 338.947 264.108 338.947 265.138C338.947 266.167 339.782 267.002 340.811 267.002Z" fill="#202020" stroke="white" stroke-width="0.83587" stroke-miterlimit="10"/>
<path vector-effect="non-scaling-stroke" d="M366.079 242.461H351.668L348.166 246.573L346.879 242.461H344.789C343.351 242.461 342.189 241.299 342.189 239.861V233.701C342.189 232.263 343.351 231.101 344.789 231.101H366.07C367.508 231.101 368.67 232.263 368.67 233.701V239.861C368.67 241.299 367.508 242.461 366.07 242.461H366.079Z" stroke="white" stroke-width="0.83587" stroke-miterlimit="10"/>
<path vector-effect="non-scaling-stroke" d="M349.226 238.073C349.919 238.073 350.48 237.511 350.48 236.819C350.48 236.126 349.919 235.565 349.226 235.565C348.534 235.565 347.973 236.126 347.973 236.819C347.973 237.511 348.534 238.073 349.226 238.073Z" stroke="white" stroke-width="0.83587" stroke-miterlimit="10"/>
<path vector-effect="non-scaling-stroke" d="M355.496 238.073C356.188 238.073 356.75 237.511 356.75 236.819C356.75 236.126 356.188 235.565 355.496 235.565C354.804 235.565 354.242 236.126 354.242 236.819C354.242 237.511 354.804 238.073 355.496 238.073Z" stroke="white" stroke-width="0.83587" stroke-miterlimit="10"/>
<path vector-effect="non-scaling-stroke" d="M361.766 238.073C362.458 238.073 363.019 237.511 363.019 236.819C363.019 236.126 362.458 235.565 361.766 235.565C361.073 235.565 360.512 236.126 360.512 236.819C360.512 237.511 361.073 238.073 361.766 238.073Z" stroke="white" stroke-width="0.83587" stroke-miterlimit="10"/>
<path vector-effect="non-scaling-stroke" d="M73.5745 150.557H45.4141V165.854H73.5745V150.557Z" fill="#020202" stroke="white" stroke-width="0.83587" stroke-miterlimit="10"/>
<path vector-effect="non-scaling-stroke" d="M160.989 158.205H129.543C124.225 158.205 119.914 162.516 119.914 167.834V170.534C119.914 175.852 124.225 180.163 129.543 180.163H160.989C166.307 180.163 170.618 175.852 170.618 170.534V167.834C170.618 162.516 166.307 158.205 160.989 158.205Z" stroke="white" stroke-width="0.83587" stroke-miterlimit="10"/>
<path vector-effect="non-scaling-stroke" d="M144.072 135.469H59.4902V151" stroke="white" stroke-width="0.83587" stroke-miterlimit="10"/>
<path vector-effect="non-scaling-stroke" d="M62.0215 88.243V70.79H107.869H144.07V158.205" stroke="white" stroke-width="0.83587" stroke-miterlimit="10"/>
<path vector-effect="non-scaling-stroke" d="M107.869 53.1616V70.7901" stroke="white" stroke-width="0.83587" stroke-miterlimit="10"/>
<path vector-effect="non-scaling-stroke" d="M107.736 18.1299V35.7584" stroke="white" stroke-width="0.83587" stroke-miterlimit="10"/>
<path vector-effect="non-scaling-stroke" d="M128.474 35.9175H87.2656V53.1615H128.474V35.9175Z" stroke="white" stroke-width="0.83587" stroke-miterlimit="10"/>
<path vector-effect="non-scaling-stroke" d="M74.0085 88.2427H50.0358C45.2763 88.2427 41.418 92.101 41.418 96.8605V96.8689C41.418 101.628 45.2763 105.487 50.0358 105.487H74.0085C78.768 105.487 82.6264 101.628 82.6264 96.8689V96.8605C82.6264 92.101 78.768 88.2427 74.0085 88.2427Z" stroke="white" stroke-width="0.83587" stroke-miterlimit="10"/>
<path vector-effect="non-scaling-stroke" d="M115.853 0.417969H99.6204C94.7732 0.417969 90.8438 4.3474 90.8438 9.19461C90.8438 14.0418 94.7732 17.9712 99.6204 17.9712H115.853C120.7 17.9712 124.63 14.0418 124.63 9.19461C124.63 4.3474 120.7 0.417969 115.853 0.417969Z" stroke="white" stroke-width="0.83587" stroke-miterlimit="10"/>
<path vector-effect="non-scaling-stroke" d="M118.067 51.0883C117.983 50.6704 117.874 50.2524 117.732 49.8512L120.19 48.0792C119.747 47.0092 119.153 45.9811 118.426 45.0282L115.668 46.2737C115.526 46.1149 115.383 45.956 115.233 45.8056C115.083 45.6551 114.924 45.5047 114.765 45.3709L116.01 42.6126C115.057 41.877 114.038 41.2919 112.959 40.8489L111.187 43.3063C110.778 43.1726 110.368 43.0556 109.942 42.972L109.641 39.9629C108.471 39.804 107.284 39.804 106.114 39.9629L105.813 42.972C105.395 43.0556 104.977 43.1642 104.576 43.3063L102.804 40.8489C101.734 41.2919 100.706 41.877 99.7527 42.6126L100.998 45.3709C100.839 45.513 100.681 45.6551 100.53 45.8056C100.38 45.956 100.229 46.1149 100.095 46.2737L97.337 45.0282C96.6015 45.9811 96.0164 47.0009 95.5734 48.0792L98.0308 49.8512C97.8971 50.2608 97.7801 50.6704 97.6965 51.0883L94.6873 51.3892C94.6121 51.9743 94.5703 52.5594 94.5703 53.1529H101.767C101.767 51.5815 102.369 50.0184 103.564 48.8231C105.955 46.4325 109.833 46.4325 112.232 48.8231C113.428 50.0184 114.029 51.5898 114.029 53.1529H121.226C121.226 52.5678 121.184 51.9743 121.109 51.3892L118.1 51.0883H118.067Z" stroke="white" stroke-width="0.83587" stroke-miterlimit="10"/>
<path vector-effect="non-scaling-stroke" d="M87.717 68.558C87.6334 68.1401 87.5248 67.7222 87.3827 67.3209L89.8401 65.5489C89.3971 64.479 88.8036 63.4509 88.0764 62.498L85.3181 63.7434C85.176 63.5846 85.0339 63.4258 84.8834 63.2753C84.733 63.1249 84.5741 62.9744 84.4153 62.8407L85.6608 60.0823C84.7079 59.3467 83.6881 58.7616 82.6098 58.3186L80.8378 60.7761C80.4282 60.6423 80.0186 60.5253 79.5923 60.4417L79.2914 57.4326C78.1212 57.2738 76.9343 57.2738 75.7641 57.4326L75.4632 60.4417C75.0452 60.5253 74.6273 60.634 74.2261 60.7761L72.454 58.3186C71.3841 58.7616 70.356 59.3467 69.4031 60.0823L70.6485 62.8407C70.4897 62.9828 70.3309 63.1249 70.1805 63.2753C70.03 63.4258 69.8795 63.5846 69.7458 63.7434L66.9874 62.498C66.2519 63.4509 65.6668 64.4706 65.2237 65.5489L67.6812 67.3209C67.5475 67.7305 67.4304 68.1401 67.3469 68.558L64.3377 68.8589C64.2625 69.444 64.2207 70.0292 64.2207 70.6226H71.4175C71.4175 69.0512 72.0194 67.4881 73.2147 66.2928C75.6053 63.9022 79.4837 63.9022 81.8826 66.2928C83.0779 67.4881 83.6798 69.0595 83.6798 70.6226H90.8766C90.8766 70.0375 90.8348 69.444 90.7596 68.8589L87.7504 68.558H87.717Z" stroke="white" stroke-width="0.83587" stroke-miterlimit="10"/>
<path vector-effect="non-scaling-stroke" d="M155.465 178.099C155.381 177.681 155.273 177.263 155.131 176.861L157.588 175.089C157.145 174.02 156.552 172.991 155.824 172.038L153.066 173.284C152.924 173.125 152.782 172.966 152.631 172.816C152.481 172.665 152.322 172.515 152.163 172.381L153.409 169.623C152.456 168.887 151.436 168.302 150.358 167.859L148.586 170.317C148.176 170.183 147.767 170.066 147.34 169.982L147.039 166.973C145.869 166.814 144.682 166.814 143.512 166.973L143.211 169.982C142.793 170.066 142.375 170.174 141.974 170.317L140.202 167.859C139.132 168.302 138.104 168.887 137.151 169.623L138.397 172.381C138.238 172.523 138.079 172.665 137.929 172.816C137.778 172.966 137.628 173.125 137.494 173.284L134.735 172.038C134 172.991 133.415 174.011 132.972 175.089L135.429 176.861C135.296 177.271 135.178 177.681 135.095 178.099L132.086 178.399C132.011 178.985 131.969 179.57 131.969 180.163H139.166C139.166 178.592 139.767 177.029 140.963 175.833C143.353 173.443 147.232 173.443 149.631 175.833C150.826 177.029 151.428 178.6 151.428 180.163H158.625C158.625 179.578 158.583 178.985 158.508 178.399L155.498 178.099H155.465Z" stroke="white" stroke-width="0.83587" stroke-miterlimit="10"/>
<path vector-effect="non-scaling-stroke" d="M370.707 76.3647L371.1 82.4582L376.959 80.7363" stroke="white" stroke-width="0.83587" stroke-linecap="round" stroke-linejoin="round"/>
<path vector-effect="non-scaling-stroke" d="M319 47.1848L324.859 45.4629L325.252 51.5564" stroke="white" stroke-width="0.83587" stroke-linecap="round" stroke-linejoin="round"/>
<path vector-effect="non-scaling-stroke" d="M366.996 86.5871C357.008 94.996 342.246 96.0157 331.037 88.1753C317.663 78.8219 314.404 60.3993 323.757 47.0254" stroke="white" stroke-width="0.83587" stroke-linecap="round" stroke-linejoin="round"/>
<path vector-effect="non-scaling-stroke" d="M328.965 41.3336C338.953 32.9331 353.707 31.9133 364.916 39.7454C378.29 49.0988 381.549 67.5214 372.196 80.8953" stroke="white" stroke-width="0.83587" stroke-linecap="round" stroke-linejoin="round"/>
</g>
<defs>
<clipPath id="clip0_77_269">
<rect width="493.439" height="324" fill="white" transform="translate(41)"/>
</clipPath>
</defs>
</svg>
