<svg width="576" height="324" viewBox="0 0 576 324" fill="none" xmlns="http://www.w3.org/2000/svg">
<g clip-path="url(#clip0_77_6221)">
<g clip-path="url(#clip1_77_6221)">
<path vector-effect="non-scaling-stroke" d="M478.697 232.091V258.577C478.697 281.057 463.869 299.279 445.577 299.279H119.264C100.972 299.279 86.1436 281.057 86.1436 258.577V147.899" stroke="white" stroke-width="0.794643" stroke-miterlimit="10"/>
<path vector-effect="non-scaling-stroke" d="M233.757 47.0347H450.377C466.023 47.0347 478.706 59.7172 478.706 75.3637L478.618 175.56" fill="#020202"/>
<path vector-effect="non-scaling-stroke" d="M233.757 47.0347H450.377C466.023 47.0347 478.706 59.7172 478.706 75.3637L478.618 175.56" stroke="white" stroke-width="0.794643" stroke-miterlimit="10"/>
<path vector-effect="non-scaling-stroke" d="M76.9739 134.78L212.421 134.78C218.982 134.78 224.301 129.461 224.301 122.9V41.9972C224.301 35.4361 218.982 30.1173 212.421 30.1173L76.9739 30.1173C70.4128 30.1173 65.0939 35.4361 65.0939 41.9972V122.9C65.0939 129.461 70.4128 134.78 76.9739 134.78Z" fill="#020202" stroke="white" stroke-width="0.794643" stroke-miterlimit="10"/>
<path vector-effect="non-scaling-stroke" d="M224.301 42.6411L65.0939 42.6411V41.0995C65.0939 35.0364 70.0128 30.1175 76.0759 30.1175L213.311 30.1175C219.374 30.1175 224.293 35.0364 224.293 41.0995V42.6411H224.301Z" fill="#202020" stroke="white" stroke-width="0.794643" stroke-miterlimit="10"/>
<path vector-effect="non-scaling-stroke" d="M217.999 38.9141C219.048 38.9141 219.898 38.0638 219.898 37.0149C219.898 35.966 219.048 35.1157 217.999 35.1157C216.95 35.1157 216.1 35.966 216.1 37.0149C216.1 38.0638 216.95 38.9141 217.999 38.9141Z" stroke="white" stroke-width="0.794643" stroke-miterlimit="10"/>
<path vector-effect="non-scaling-stroke" d="M211.619 38.9141C212.668 38.9141 213.518 38.0638 213.518 37.0149C213.518 35.966 212.668 35.1157 211.619 35.1157C210.57 35.1157 209.72 35.966 209.72 37.0149C209.72 38.0638 210.57 38.9141 211.619 38.9141Z" stroke="white" stroke-width="0.794643" stroke-miterlimit="10"/>
<path vector-effect="non-scaling-stroke" d="M205.246 38.9141C206.295 38.9141 207.145 38.0638 207.145 37.0149C207.145 35.966 206.295 35.1157 205.246 35.1157C204.197 35.1157 203.347 35.966 203.347 37.0149C203.347 38.0638 204.197 38.9141 205.246 38.9141Z" stroke="white" stroke-width="0.794643" stroke-miterlimit="10"/>
<path vector-effect="non-scaling-stroke" d="M113.106 38.9136H107.527V46.8918H113.106V38.9136Z" fill="#020202" stroke="white" stroke-width="0.794643" stroke-miterlimit="10"/>
<path vector-effect="non-scaling-stroke" d="M116.459 68.5698H104.174V93.7123H116.459V68.5698Z" fill="#020202" stroke="white" stroke-width="0.794643" stroke-miterlimit="10"/>
<path vector-effect="non-scaling-stroke" d="M95.0351 89.1592H78.1807V130.783H95.0351V89.1592Z" fill="#202020" stroke="white" stroke-width="0.794643" stroke-miterlimit="10"/>
<path vector-effect="non-scaling-stroke" d="M170.733 92.9574L183.622 82.9528V80.3226C183.622 78.9796 184.297 77.732 185.418 77.001L189.725 74.1879C190.988 73.3615 192.148 72.4079 193.205 71.3352L195.804 68.681C196.407 68.0612 197.361 67.9579 198.084 68.4347L198.124 68.4585C199.014 69.0386 199.244 70.2306 198.64 71.0968C196.797 73.735 193.292 78.7571 193.292 78.7571L195.017 76.2858C196.487 77.6605 198.402 78.479 200.412 78.5903L203.305 78.7571C201.461 81.1252 199.006 82.9449 196.201 84.0177C198.998 82.937 201.453 81.1252 203.305 78.7571L206.348 74.2833C206.913 73.4489 208.033 73.2026 208.899 73.7111L208.939 73.735C209.901 74.2992 210.202 75.5309 209.622 76.4686C207.691 79.5836 203.814 85.893 203.814 85.893L209.932 75.9441C210.417 75.1574 211.037 74.4661 211.768 73.9019L212.777 73.1231C213.159 72.8291 213.643 72.686 214.128 72.7337C214.907 72.8052 215.606 73.2185 216.043 73.8621L216.258 74.1879C216.607 74.7044 216.687 75.356 216.472 75.9361C216.385 76.1666 216.258 76.3811 216.091 76.5639L209.201 84.0892L214.573 78.2168L217.656 78.2803C218.157 78.2883 218.642 78.4711 219.031 78.7889C219.428 79.1147 219.698 79.5597 219.802 80.0524L219.842 80.2272C219.945 80.7119 219.889 81.2126 219.683 81.6576L219.587 81.8562C219.357 82.3489 218.959 82.7383 218.467 82.9608L217.489 83.3978C216.576 83.8031 215.638 84.1686 214.684 84.4706L211.649 85.4401L200.071 89.2146C196.964 90.2318 194.063 91.7972 191.512 93.8554L182.231 101.341L170.725 92.9495L170.733 92.9574Z" fill="#020202"/>
<path vector-effect="non-scaling-stroke" d="M203.305 78.7571L200.412 78.5903C198.402 78.479 196.487 77.6605 195.017 76.2858L193.292 78.7571C193.292 78.7571 196.797 73.735 198.64 71.0968C199.244 70.2306 199.014 69.0386 198.124 68.4585L198.084 68.4347C197.361 67.9579 196.407 68.0612 195.804 68.681L193.205 71.3352C192.148 72.4079 190.988 73.3615 189.725 74.1879L185.418 77.001C184.297 77.732 183.622 78.9796 183.622 80.3226V82.9528L170.733 92.9574L170.725 92.9495L182.231 101.341L191.512 93.8554C194.063 91.7972 196.964 90.2318 200.071 89.2146L211.649 85.4401L214.684 84.4706C215.638 84.1686 216.576 83.8031 217.489 83.3978L218.467 82.9608C218.959 82.7383 219.357 82.3489 219.587 81.8562L219.683 81.6576C219.889 81.2126 219.945 80.7119 219.842 80.2272L219.802 80.0524C219.698 79.5597 219.428 79.1147 219.031 78.7889C218.642 78.4711 218.157 78.2883 217.656 78.2803L214.573 78.2168L209.201 84.0892L216.091 76.5639C216.258 76.3811 216.385 76.1666 216.472 75.9361C216.687 75.356 216.607 74.7044 216.258 74.1879L216.043 73.8621C215.606 73.2185 214.907 72.8052 214.128 72.7337C213.643 72.686 213.159 72.8291 212.777 73.1231L211.768 73.9019C211.037 74.4661 210.417 75.1574 209.932 75.9441L203.814 85.893C203.814 85.893 207.691 79.5836 209.622 76.4686C210.202 75.5309 209.901 74.2992 208.939 73.735L208.899 73.7111C208.033 73.2026 206.913 73.4489 206.348 74.2833L203.305 78.7571ZM203.305 78.7571C201.461 81.1252 199.006 82.9449 196.201 84.0177M203.305 78.7571C201.453 81.1252 198.998 82.937 196.201 84.0177M196.201 84.0177L194.763 84.566" stroke="white" stroke-width="0.794643" stroke-linecap="round" stroke-linejoin="round"/>
<path vector-effect="non-scaling-stroke" d="M82.4399 134.78H92.1583V131.196V139.325L91.761 139.953C91.0061 141.137 91.2763 142.702 92.3729 143.568C93.0166 144.085 93.9225 144.117 94.6058 143.648L94.4946 143.823L95.5674 142.051C96.0918 141.184 96.37 140.191 96.37 139.182V133.643V139.166C96.37 140.191 96.0918 141.192 95.5594 142.066L94.5979 143.648V144.522C94.5979 145.118 94.884 145.674 95.3687 146.016C95.6786 146.238 96.0521 146.35 96.4256 146.35H96.5527C97.0057 146.35 97.4348 146.183 97.7685 145.889L98.1817 145.515L99.3022 143.084C99.7949 142.011 100.057 140.843 100.057 139.659C100.057 140.843 99.8028 142.011 99.3022 143.084L98.1817 145.515L98.6585 146.262C98.9764 146.771 99.5406 147.073 100.137 147.073C100.764 147.073 101.344 146.739 101.654 146.191L102.513 144.681C103.291 143.314 103.697 141.772 103.697 140.199V135.566V140.286C103.697 141.804 103.299 143.29 102.552 144.609L101.885 145.785L102.505 147.081C102.64 147.351 102.846 147.581 103.109 147.732C103.482 147.947 103.927 147.994 104.34 147.859L104.968 147.653C105.357 147.526 105.675 147.24 105.85 146.874L107.304 143.854C107.4 143.648 107.455 143.425 107.455 143.203V131.871V140.112L114.075 142.209C114.48 142.337 114.917 142.352 115.33 142.249L115.672 142.162C116.244 142.019 116.745 141.661 117.062 141.161L117.086 141.121C117.452 140.549 117.547 139.849 117.349 139.206C117.182 138.657 116.816 138.189 116.316 137.895L110.443 135.455C109.41 135.026 108.536 134.287 107.948 133.341L107.694 124.076H82.7021L82.416 134.795L82.4399 134.78Z" fill="#020202"/>
<path vector-effect="non-scaling-stroke" d="M98.1817 145.515L97.7685 145.889C97.4348 146.183 97.0057 146.35 96.5527 146.35H96.4256C96.0521 146.35 95.6786 146.238 95.3687 146.016C94.884 145.674 94.5979 145.118 94.5979 144.522V143.648L95.5594 142.066C96.0918 141.192 96.37 140.191 96.37 139.166V133.643V139.182C96.37 140.191 96.0918 141.184 95.5674 142.051L94.4946 143.823L94.6058 143.648C93.9225 144.117 93.0166 144.085 92.3729 143.568C91.2763 142.702 91.0061 141.137 91.761 139.953L92.1583 139.325V131.196V134.78H82.4399L82.416 134.795L82.7021 124.076H107.694L107.948 133.341C108.536 134.287 109.41 135.026 110.443 135.455L116.316 137.895C116.816 138.189 117.182 138.657 117.349 139.206C117.547 139.849 117.452 140.549 117.086 141.121L117.062 141.161C116.745 141.661 116.244 142.019 115.672 142.162L115.33 142.249C114.917 142.352 114.48 142.337 114.075 142.209L107.455 140.112V131.871V143.203C107.455 143.425 107.4 143.648 107.304 143.854L105.85 146.874C105.675 147.24 105.357 147.526 104.968 147.653L104.34 147.859C103.927 147.994 103.482 147.947 103.109 147.732C102.846 147.581 102.64 147.351 102.505 147.081L101.885 145.785L102.552 144.609C103.299 143.29 103.697 141.804 103.697 140.286V135.566V140.199C103.697 141.772 103.291 143.314 102.513 144.681L101.654 146.191C101.344 146.739 100.764 147.073 100.137 147.073C99.5406 147.073 98.9764 146.771 98.6585 146.262L98.1817 145.515ZM98.1817 145.515L99.3022 143.084M99.3022 143.084C99.7949 142.011 100.057 140.843 100.057 139.659M99.3022 143.084C99.8028 142.011 100.057 140.843 100.057 139.659M100.057 139.659V134.422" stroke="white" stroke-width="0.794643" stroke-linecap="round" stroke-linejoin="round"/>
<path vector-effect="non-scaling-stroke" d="M94.209 125.983H95.7426C102.497 125.983 104.102 126.197 105.374 127.445C106.232 128.287 107.265 130.679 107.472 131.863L108.33 133.635C108.664 134.327 109.387 134.756 110.157 134.716L137.763 134.78V88.571V124.807L142.118 129.328C143.215 130.473 144.542 131.371 146.012 131.967C147.426 132.539 148.936 132.817 150.462 132.793L151.304 132.777C153.481 132.737 155.603 132.07 157.407 130.854L159.513 129.44C159.886 129.185 160.244 128.915 160.586 128.621L184.131 108.286C185.243 107.325 185.887 105.918 185.887 104.448C185.887 100.912 184.6 97.4949 182.263 94.8487L177.837 89.8266C176.677 88.5075 175 87.7526 173.244 87.7526C169.104 87.7526 165.115 89.318 162.079 92.131L142.372 110.416L153.577 100.022L138.574 79.8459C138.065 79.1625 137.271 78.7651 136.42 78.7651H116.467L113.773 87.7923C113.773 88.4121 112.994 88.6823 112.613 88.1976L104.182 78.7651H87.3591C83.6482 78.7651 80.1835 80.6325 78.1492 83.7396L56.2965 117.035C51.2982 124.656 56.7654 134.78 65.8799 134.78H82.4483L82.933 133.405C83.815 130.902 85.5633 128.804 87.8598 127.477C89.5524 126.499 91.4675 125.991 93.4143 125.991H94.2169V125.26C94.2169 122.073 92.4846 119.133 89.6954 117.591L85.2931 115.152C83.2985 114.047 82.0589 111.949 82.0589 109.669V91.9959" fill="#202020"/>
<path vector-effect="non-scaling-stroke" d="M94.209 125.983H95.7426C102.497 125.983 104.102 126.197 105.374 127.445C106.232 128.287 107.265 130.679 107.472 131.863L108.33 133.635C108.664 134.327 109.387 134.756 110.157 134.716L137.763 134.78V88.571V124.807L142.118 129.328C143.215 130.473 144.542 131.371 146.012 131.967C147.426 132.539 148.936 132.817 150.462 132.793L151.304 132.777C153.481 132.737 155.603 132.07 157.407 130.854L159.513 129.44C159.886 129.185 160.244 128.915 160.586 128.621L184.131 108.286C185.243 107.325 185.887 105.918 185.887 104.448C185.887 100.912 184.6 97.4949 182.263 94.8487L177.837 89.8266C176.677 88.5075 175 87.7526 173.244 87.7526C169.104 87.7526 165.115 89.318 162.079 92.131L142.372 110.416L153.577 100.022L138.574 79.8459C138.065 79.1625 137.271 78.7651 136.42 78.7651H116.467L113.773 87.7923C113.773 88.4121 112.994 88.6823 112.613 88.1976L104.182 78.7651H87.3591C83.6482 78.7651 80.1835 80.6325 78.1492 83.7396L56.2965 117.035C51.2982 124.656 56.7654 134.78 65.8799 134.78H82.4483L82.933 133.405C83.815 130.902 85.5633 128.804 87.8598 127.477C89.5524 126.499 91.4675 125.991 93.4143 125.991H94.2169V125.26C94.2169 122.073 92.4846 119.133 89.6954 117.591L85.2931 115.152C83.2985 114.047 82.0589 111.949 82.0589 109.669V91.9959" stroke="white" stroke-width="0.794643" stroke-miterlimit="10"/>
<path vector-effect="non-scaling-stroke" d="M110.317 76.0474C117.233 76.0474 122.84 69.2308 122.84 60.822C122.84 52.4133 117.233 45.5967 110.317 45.5967C103.4 45.5967 97.793 52.4133 97.793 60.822C97.793 69.2308 103.4 76.0474 110.317 76.0474Z" fill="#020202" stroke="white" stroke-width="0.794643" stroke-miterlimit="10"/>
<path vector-effect="non-scaling-stroke" d="M110.563 50.6982L110.587 50.6187C111.413 54.0436 113.797 56.8725 117.023 58.287L122.848 60.8299C122.848 52.4225 117.238 45.6045 110.324 45.6045C103.411 45.6045 97.8008 52.4225 97.8008 60.8299L103.999 58.2552C107.249 56.9043 109.689 54.1072 110.571 50.6982H110.563Z" fill="#404040" stroke="white" stroke-width="0.794643" stroke-miterlimit="10"/>
<path vector-effect="non-scaling-stroke" d="M108.266 35.4331H112.367C115.132 35.4331 117.373 37.674 117.373 40.4394V41.4644C117.373 42.7359 116.348 43.761 115.076 43.761H105.548C104.277 43.761 103.252 42.7359 103.252 41.4644V40.4394C103.252 37.674 105.493 35.4331 108.258 35.4331H108.266Z" fill="#404040" stroke="white" stroke-width="0.794643" stroke-miterlimit="10"/>
<path vector-effect="non-scaling-stroke" d="M291.209 56.4038L291.36 63.6986C291.368 64.3185 291.98 64.7555 292.56 64.5648C293.617 64.1913 294.944 62.6338 294.594 56.9283" fill="#202020"/>
<path vector-effect="non-scaling-stroke" d="M291.209 56.4038L291.36 63.6986C291.368 64.3185 291.98 64.7555 292.56 64.5648C293.617 64.1913 294.944 62.6338 294.594 56.9283" stroke="white" stroke-width="0.794643" stroke-miterlimit="10"/>
<path vector-effect="non-scaling-stroke" d="M294.586 54.918L294.737 62.2128C294.745 62.8326 295.357 63.2697 295.937 63.079C296.994 62.7055 298.321 61.148 297.971 55.4424" fill="#202020"/>
<path vector-effect="non-scaling-stroke" d="M294.586 54.918L294.737 62.2128C294.745 62.8326 295.357 63.2697 295.937 63.079C296.994 62.7055 298.321 61.148 297.971 55.4424" stroke="white" stroke-width="0.794643" stroke-miterlimit="10"/>
<path vector-effect="non-scaling-stroke" d="M315.588 64.565C315.414 64.9385 314.134 67.2111 312.982 69.2613C311.973 71.0413 311.059 72.6306 311.059 72.6306C307.888 70.8903 304.352 69.8335 300.752 69.5156C299.028 69.3646 292.345 70.1116 293.243 66.782C294.109 63.5876 298.36 66.8218 299.727 64.851C300.705 63.4286 299.219 61.0288 298.066 60.4408L295.587 58.3906C285.797 56.3245 283.699 54.5366 284.645 52.9552C284.82 52.6533 285.257 52.4705 285.551 52.5341C287.132 53.2175 295.047 53.9327 298.813 54.33C300.872 54.3777 302.095 55.6809 303.2 56.2927C305.512 57.588 307.745 59.0343 309.962 60.4964C311.782 61.6963 313.657 63.6909 315.596 64.5491L315.588 64.565Z" fill="#202020" stroke="white" stroke-width="0.794643" stroke-miterlimit="10"/>
<path vector-effect="non-scaling-stroke" d="M448.221 10.9741H356.814C351.195 10.9741 346.293 15.3606 344.87 21.6462L308.634 182.132C306.592 191.183 312.496 200.028 320.578 200.028H411.986C417.604 200.028 422.515 195.641 423.929 189.356L460.165 28.8695C462.207 19.8185 456.303 10.9741 448.221 10.9741Z" fill="#202020" stroke="white" stroke-width="0.794643" stroke-miterlimit="10"/>
<path vector-effect="non-scaling-stroke" d="M344.863 21.6462L343.48 27.7888H460.349C461.715 19.1272 455.978 10.9741 448.214 10.9741H356.807C351.189 10.9741 346.286 15.3606 344.863 21.6462Z" fill="#020202" stroke="white" stroke-width="0.794643" stroke-miterlimit="10"/>
<path vector-effect="non-scaling-stroke" d="M308.308 184.182C307.506 192.478 313.092 200.035 320.57 200.035H411.977C417.596 200.035 422.498 195.649 423.921 189.363L425.097 184.182H308.308Z" fill="#020202" stroke="white" stroke-width="0.794643" stroke-miterlimit="10"/>
<path vector-effect="non-scaling-stroke" d="M412.407 167.01H428.777" stroke="white" stroke-width="0.794643" stroke-miterlimit="10"/>
<mask id="mask0_77_6221" style="mask-type:luminance" maskUnits="userSpaceOnUse" x="268" y="0" width="184" height="183">
<path vector-effect="non-scaling-stroke" d="M451.463 0H268.83V182.816H451.463V0Z" fill="white"/>
</mask>
<g mask="url(#mask0_77_6221)">
<path vector-effect="non-scaling-stroke" d="M363.853 71.5969L362.224 62.8717C362.224 62.8717 354.54 69.6341 350.328 66.8052C347.38 64.8265 347.865 60.8692 348.111 56.0854L347.738 56.2523C346.76 56.6814 345.751 55.7278 346.109 54.7266C346.689 53.1135 347.484 51.4447 348.087 50.2607C348.064 50.0382 348.048 49.8157 348.016 49.5932C347.126 42.06 353.833 37.7133 357.432 36.3147C361.032 34.9161 366.062 32.6832 370.687 36.1399C375.399 39.6681 371.442 47.5827 373.882 58.2548C374.382 60.456 375.67 63.563 379.007 67.5203L363.853 71.5969Z" fill="#404040" stroke="white" stroke-width="0.794643" stroke-miterlimit="10"/>
<path vector-effect="non-scaling-stroke" d="M349.963 43.5701C349.311 41.21 354.349 36.4103 357.011 35.1469C359.173 34.1218 363.519 32.2464 369.09 32.5961C371.355 32.7391 375.487 34.5032 378.522 36.6249C379.563 37.356 383.489 41.21 383.831 45.0958C384.061 47.6784 383.592 47.7022 385.324 50.1259C386.938 52.3827 389.433 52.6608 391.92 53.225C395.552 54.0435 395.933 57.1426 395.933 60.4642C395.933 61.6005 396.06 63.0388 397.522 63.1342C398.222 63.1819 398.897 62.8879 399.564 62.6733C401.249 62.133 403.125 62.0535 404.769 62.6972C406.208 63.2614 407.36 64.4215 407.956 65.8439C408.639 67.4968 407.733 69.1973 408.282 70.8343C408.814 72.4077 410.419 73.5679 411.961 74.0049C414.051 74.6089 416.284 74.2592 418.437 73.9414C420.591 73.6235 422.848 73.3454 424.898 74.0685C430.293 75.9598 435.506 83.9459 434.124 89.5482C433.289 92.9174 431.128 95.0232 430.357 95.4206C429.236 95.9927 425.661 96.096 425.589 97.9158C425.557 98.6707 426.344 99.1554 426.853 99.7196C428.426 101.46 427.027 103.446 425.78 104.821C423.459 107.38 418.986 109.764 416.419 106.029C416.141 105.624 415.918 105.163 415.553 104.829C415.187 104.495 414.599 104.329 414.194 104.607C413.987 104.75 413.86 104.98 413.749 105.211C413.272 106.188 413.113 107.475 412.454 108.349C410.896 110.392 408.496 110.98 407.217 111.298C407.217 111.298 402.521 112.45 397.236 109.581C390.14 105.719 386.667 96.549 382.265 80.1475C377.759 63.3647 373.373 57.7068 364.584 53.225C355.907 48.7988 350.726 46.3354 349.971 43.586L349.963 43.5701Z" fill="#404040" stroke="white" stroke-width="0.794643" stroke-miterlimit="10"/>
<path vector-effect="non-scaling-stroke" d="M348.334 58.1277C348.334 58.1277 348.366 58.1277 348.382 58.1277C352.22 58.1277 352.999 54.9014 353.006 54.8696" stroke="white" stroke-width="0.794643" stroke-miterlimit="10"/>
<path vector-effect="non-scaling-stroke" d="M357.393 50.4593C357.393 50.4593 359.991 47.0105 362.534 48.9177C365.768 51.3334 362.677 54.8855 361.056 55.2589" fill="#404040"/>
<path vector-effect="non-scaling-stroke" d="M357.393 50.4593C357.393 50.4593 359.991 47.0105 362.534 48.9177C365.768 51.3334 362.677 54.8855 361.056 55.2589" stroke="white" stroke-width="0.794643" stroke-miterlimit="10"/>
<path vector-effect="non-scaling-stroke" d="M365.768 134.843L352.792 213.886C351.29 223.025 353.451 232.425 358.759 239.855L396.807 293.12L425.915 272.968L384.196 208.872L365.76 134.827L365.768 134.843Z" fill="#020202" stroke="white" stroke-width="0.794643" stroke-miterlimit="10"/>
<path vector-effect="non-scaling-stroke" d="M396.751 293.525L358.545 240.038C353.212 232.576 351.019 223.016 352.529 213.838L365.72 133.46L384.466 208.768L426.161 272.825L426.32 273.071L396.751 293.533V293.525ZM425.525 272.904L383.965 209.054L383.933 209.015L365.808 136.241L353.054 213.941C351.576 222.977 353.729 232.361 358.974 239.704L396.87 292.746L425.533 272.912L425.525 272.904Z" fill="white"/>
<path vector-effect="non-scaling-stroke" d="M365.72 133.46L352.529 213.838C351.019 223.024 353.212 232.576 358.545 240.038L396.751 293.525L426.32 273.063L426.161 272.817L384.466 208.761L365.72 133.452V133.46ZM396.878 292.738L358.982 239.696C353.737 232.353 351.583 222.977 353.062 213.934L365.816 136.233L383.941 209.007L383.973 209.047L425.533 272.896L396.87 292.73L396.878 292.738Z" fill="white"/>
<path vector-effect="non-scaling-stroke" d="M362.074 197.81H345.656L364.028 100.435L373.421 121.985L362.082 197.802L362.074 197.81Z" fill="#020202" stroke="white" stroke-width="0.794643" stroke-miterlimit="10"/>
<path vector-effect="non-scaling-stroke" d="M363.948 99.7275L373.627 121.946L362.28 197.834L362.256 198.017H345.401L363.94 99.7275H363.948ZM373.206 122.009L364.107 101.118L345.902 197.596H361.906L373.206 122.009Z" fill="white"/>
<path vector-effect="non-scaling-stroke" d="M363.948 99.7275L345.409 198.017H362.264L362.287 197.834L373.635 121.946L363.956 99.7275H363.948ZM345.902 197.596L364.107 101.118L373.206 122.009L361.906 197.596H345.902Z" fill="white"/>
<path vector-effect="non-scaling-stroke" d="M347.126 104.647L361.366 73.6475C367.747 59.7571 387.248 61.8311 390.823 76.7784L419.764 197.811H362.073L363.376 115.891L357.051 121.159C354.302 124.767 351.465 127.119 347.563 127.485L347.126 104.639V104.647Z" fill="#020202" stroke="white" stroke-width="0.794643" stroke-miterlimit="10"/>
<path vector-effect="non-scaling-stroke" d="M362.073 149.138H375.757V169.855C375.757 175.457 371.41 179.994 366.062 179.994H362.073V149.13V149.138Z" fill="#404040" stroke="white" stroke-width="0.794643" stroke-miterlimit="10"/>
<path vector-effect="non-scaling-stroke" d="M361.874 148.939H375.963V169.87C375.963 175.576 371.521 180.225 366.062 180.225H361.866V148.939H361.874ZM362.287 149.361V179.788H366.07C371.299 179.788 375.558 175.33 375.558 169.854V149.361H362.287Z" fill="white"/>
<path vector-effect="non-scaling-stroke" d="M375.971 148.939H361.882V180.225H366.078C371.537 180.225 375.979 175.576 375.979 169.87V148.939H375.971ZM362.295 179.788V149.361H375.566V169.854C375.566 175.33 371.306 179.788 366.078 179.788H362.295Z" fill="white"/>
<path vector-effect="non-scaling-stroke" d="M316.939 59.9878L308.69 75.1814C308.69 75.1814 321.278 100.793 354.382 98.5677L363.41 84.5264C365.007 82.0471 363.267 78.7891 360.318 78.7096C352.428 78.5109 338.156 75.2847 316.939 59.9878Z" fill="#020202" stroke="white" stroke-width="0.794643" stroke-miterlimit="10"/>
<path vector-effect="non-scaling-stroke" d="M284.215 132.626L302.937 135.518C304.844 135.812 306.552 134.318 306.512 132.387L305.901 102.413C305.869 100.935 304.796 99.6798 303.334 99.4176L286.162 96.39L284.31 96.0642C282.371 95.7225 280.607 97.2482 280.671 99.211L281.592 129.646C281.64 131.14 282.745 132.387 284.223 132.618L284.215 132.626Z" fill="#A100FF" stroke="white" stroke-width="0.794643" stroke-miterlimit="10"/>
<path vector-effect="non-scaling-stroke" d="M288.911 118.91C289.578 118.203 290.73 118.386 291.676 118.616C293.154 118.982 294.624 119.347 296.102 119.713C295.451 119.467 292.089 117.925 291.517 117.536C289.252 115.978 290.238 113.976 293.377 114.564C294.211 114.722 295.57 115.35 296.349 115.676C296.627 115.787 298.693 116.836 300.441 117.536C302.896 118.513 306.21 118.712 306.21 118.712L306.282 114.484C306.282 114.484 317.113 119.101 319.576 119.808C320.236 120.062 320.291 128.645 319.918 129.423C316.453 129.558 312.766 129.519 309.293 129.368C305.733 129.217 302.197 128.843 298.669 128.351C297.342 128.168 296.015 127.914 294.743 127.5C293.647 127.143 292.272 126.769 291.303 126.134C290.556 125.641 289.976 124.807 290.039 123.917C290.079 123.297 290.532 122.669 291.144 122.629C290.349 122.311 289.586 122.025 289.022 121.334C288.458 120.643 288.299 119.546 288.911 118.902V118.91Z" fill="#404040" stroke="white" stroke-width="0.794643" stroke-miterlimit="10"/>
<path vector-effect="non-scaling-stroke" d="M291.518 122.749L297.811 124.481" stroke="white" stroke-width="0.794643" stroke-miterlimit="10"/>
<path vector-effect="non-scaling-stroke" d="M295.236 119.403L299.885 121.128" stroke="white" stroke-width="0.794643" stroke-miterlimit="10"/>
<path vector-effect="non-scaling-stroke" d="M362.194 72.1616C362.194 72.1616 346.476 105.537 341.318 108.564C336.161 111.592 312.354 112.339 312.354 112.339L313.839 134.66C313.839 134.66 343.376 133.437 351.108 129.583C358.84 125.729 380.415 99.696 380.415 99.696" fill="#020202"/>
<path vector-effect="non-scaling-stroke" d="M362.194 72.1616C362.194 72.1616 346.476 105.537 341.318 108.564C336.161 111.592 312.354 112.339 312.354 112.339L313.839 134.66C313.839 134.66 343.376 133.437 351.108 129.583C358.84 125.729 380.415 99.696 380.415 99.696" stroke="white" stroke-width="0.794643" stroke-miterlimit="10"/>
</g>
<path vector-effect="non-scaling-stroke" d="M338.617 142.345H434.682Z" fill="#020202"/>
<path vector-effect="non-scaling-stroke" d="M338.617 142.345H434.682" stroke="white" stroke-width="0.794643" stroke-miterlimit="10"/>
<path vector-effect="non-scaling-stroke" d="M337.234 139.468C335.645 139.468 334.35 140.756 334.35 142.345C334.35 143.934 335.637 145.221 337.234 145.221C338.831 145.221 340.119 143.934 340.119 142.345C340.119 140.756 338.831 139.468 337.234 139.468Z" fill="#020202" stroke="white" stroke-width="0.794643" stroke-miterlimit="10"/>
<path vector-effect="non-scaling-stroke" d="M381.369 139.468C379.78 139.468 378.484 140.756 378.484 142.345C378.484 143.934 379.772 145.221 381.369 145.221C382.966 145.221 384.253 143.934 384.253 142.345C384.253 140.756 382.966 139.468 381.369 139.468Z" fill="#020202" stroke="white" stroke-width="0.794643" stroke-miterlimit="10"/>
<path vector-effect="non-scaling-stroke" d="M401.474 82.3413H447.929Z" fill="#020202"/>
<path vector-effect="non-scaling-stroke" d="M401.474 82.3413H447.929" stroke="white" stroke-width="0.794643" stroke-miterlimit="10"/>
<path vector-effect="non-scaling-stroke" d="M410.73 47.9414H454.992Z" fill="#020202"/>
<path vector-effect="non-scaling-stroke" d="M410.73 47.9414H454.992" stroke="white" stroke-width="0.794643" stroke-miterlimit="10"/>
<path vector-effect="non-scaling-stroke" d="M299.926 166.963L351.593 167.011Z" fill="#020202"/>
<path vector-effect="non-scaling-stroke" d="M299.926 166.963L351.593 167.011" stroke="white" stroke-width="0.794643" stroke-miterlimit="10"/>
<path vector-effect="non-scaling-stroke" d="M400.194 79.4409C398.605 79.4409 397.31 80.7282 397.31 82.3175C397.31 83.9068 398.597 85.1941 400.194 85.1941C401.791 85.1941 403.079 83.9068 403.079 82.3175C403.079 80.7282 401.791 79.4409 400.194 79.4409Z" fill="#020202" stroke="white" stroke-width="0.794643" stroke-miterlimit="10"/>
<path vector-effect="non-scaling-stroke" d="M407.839 45.1997C406.249 45.1997 404.954 46.487 404.954 48.0763C404.954 49.6656 406.241 50.9529 407.839 50.9529C409.436 50.9529 410.723 49.6656 410.723 48.0763C410.723 46.487 409.436 45.1997 407.839 45.1997Z" fill="#020202" stroke="white" stroke-width="0.794643" stroke-miterlimit="10"/>
<path vector-effect="non-scaling-stroke" d="M492.414 163.545L503.705 219.409L460.461 186.018L465.69 162.099L492.414 163.545Z" fill="#404040" stroke="white" stroke-width="0.794643" stroke-miterlimit="10"/>
<path vector-effect="non-scaling-stroke" d="M498.127 162.703V102.215C498.127 96.9485 493.858 92.6792 488.591 92.6792H466.254C460.987 92.6792 456.718 96.9485 456.718 102.215V162.703C456.718 167.97 460.987 172.239 466.254 172.239H488.591C493.858 172.239 498.127 167.97 498.127 162.703Z" fill="#404040" stroke="white" stroke-width="0.794643" stroke-miterlimit="10"/>
<path vector-effect="non-scaling-stroke" d="M497.61 165.119V100.292H457.123V165.119H497.61Z" fill="#202020" stroke="white" stroke-width="0.794643" stroke-miterlimit="10"/>
<path vector-effect="non-scaling-stroke" d="M500.526 168.424C500.526 168.424 502.505 169.942 502.354 172.429C502.203 174.909 499.771 177.388 497.944 179.192C497.03 180.09 495.52 181.361 494.24 182.394C492.794 183.562 490.641 183.086 489.846 181.385C488.757 179.073 488.352 175.568 492.262 171.722C499.167 164.928 500.526 168.424 500.526 168.424Z" fill="#404040" stroke="white" stroke-width="0.794643" stroke-miterlimit="10"/>
<path vector-effect="non-scaling-stroke" d="M501.925 140.588C501.79 136.774 499.398 134.207 496.164 134.867C492.93 135.526 490.427 137.346 490.983 141.335C491.563 145.483 495.64 146.166 498.294 146.174C501.011 146.19 502.044 144.14 501.917 140.588H501.925Z" fill="#404040" stroke="white" stroke-width="0.794643" stroke-miterlimit="10"/>
<path vector-effect="non-scaling-stroke" d="M497.857 136.583C498.207 137.775 498.811 140.414 498.62 144.093C498.604 144.427 498.985 144.609 499.224 144.379C499.867 143.767 500.734 142.48 500.527 140.064C500.32 137.617 499.16 136.583 498.366 136.162C498.079 136.011 497.754 136.282 497.849 136.583H497.857Z" fill="#020202" stroke="white" stroke-width="0.794643" stroke-miterlimit="10"/>
<path vector-effect="non-scaling-stroke" d="M500.622 158.205C500.622 158.205 503.427 159.485 503.475 163.545C503.522 167.598 501.21 168.87 498.937 170.141C496.665 171.412 492.914 173.685 490.864 171.571C488.821 169.45 489.576 164.292 492.397 161.829C495.218 159.366 497.491 157.172 497.491 157.172L500.614 158.213L500.622 158.205Z" fill="#404040" stroke="white" stroke-width="0.794643" stroke-miterlimit="10"/>
<path vector-effect="non-scaling-stroke" d="M503.426 152.516C503.132 148.249 500.637 145.468 497.435 146.326C494.232 147.184 491.809 149.33 492.532 153.764C493.287 158.381 497.379 158.993 500.041 158.905C502.759 158.818 503.705 156.481 503.426 152.508V152.516Z" fill="#404040" stroke="white" stroke-width="0.794643" stroke-miterlimit="10"/>
<path vector-effect="non-scaling-stroke" d="M499.191 148.193C499.597 149.512 500.304 152.445 500.264 156.569C500.264 156.942 500.653 157.133 500.884 156.871C501.504 156.163 502.314 154.685 502.004 151.984C501.695 149.25 500.495 148.145 499.684 147.7C499.39 147.542 499.08 147.851 499.183 148.201L499.191 148.193Z" fill="#020202" stroke="white" stroke-width="0.794643" stroke-miterlimit="10"/>
<path vector-effect="non-scaling-stroke" d="M494.32 178.318C495.735 177.444 497.602 176.784 498.739 178.397C498.468 178.675 498.198 178.938 497.944 179.192C497.03 180.098 495.52 181.361 494.241 182.394C494.241 182.394 494.082 181.973 493.669 181.33C493.009 180.32 493.303 178.954 494.32 178.318Z" fill="#020202" stroke="white" stroke-width="0.794643" stroke-miterlimit="10"/>
<path vector-effect="non-scaling-stroke" d="M495.727 170.101C495.615 168.925 495.234 167.24 494.137 165.325C493.82 164.769 493.939 164.022 494.415 163.657C495.695 162.679 498.087 161.543 499.318 165.333C500.256 168.234 498.627 170.038 497.268 170.999C496.625 171.452 495.814 170.959 495.735 170.093L495.727 170.101Z" fill="#020202" stroke="white" stroke-width="0.794643" stroke-miterlimit="10"/>
<path vector-effect="non-scaling-stroke" d="M475.082 178.31C475.082 178.31 475.376 168.608 471.26 162.036C471.26 162.036 477.943 150.275 478.404 146.485C478.944 142.082 475.67 140.231 472.507 143.219C469.345 146.215 457.679 157.34 454.803 161.734C445.33 176.212 451.394 194.783 451.394 194.783L458.728 219.465L500.217 219.401" fill="#404040"/>
<path vector-effect="non-scaling-stroke" d="M475.082 178.31C475.082 178.31 475.376 168.608 471.26 162.036C471.26 162.036 477.943 150.275 478.404 146.485C478.944 142.082 475.67 140.231 472.507 143.219C469.345 146.215 457.679 157.34 454.803 161.734C445.33 176.212 451.394 194.783 451.394 194.783L458.728 219.465L500.217 219.401" stroke="white" stroke-width="0.794643" stroke-miterlimit="10"/>
<path vector-effect="non-scaling-stroke" d="M475.082 178.31C475.082 178.31 475.376 168.608 471.26 162.036C471.26 162.036 477.943 150.275 478.404 146.485C478.944 142.082 475.67 140.231 472.507 143.219C469.345 146.215 457.679 157.34 454.803 161.734C445.33 176.212 451.394 194.783 451.394 194.783L458.728 219.465L500.217 219.401" stroke="white" stroke-width="0.794643" stroke-miterlimit="10"/>
<path vector-effect="non-scaling-stroke" d="M472.507 143.226C473.119 142.646 473.739 142.249 474.327 142.019C474.327 142.019 474.74 142.273 475.217 142.583C475.678 142.877 475.885 143.457 475.71 143.981C475.177 145.579 473.874 148.749 471.896 148.924C470.1 149.083 468.892 148.106 468.304 147.462C470.1 145.602 471.617 144.069 472.515 143.226H472.507Z" fill="#020202" stroke="white" stroke-width="0.794643" stroke-miterlimit="10"/>
<path vector-effect="non-scaling-stroke" d="M469.36 146.493C469.829 146.675 471.395 147.383 471.951 148.821" stroke="white" stroke-width="0.794643" stroke-miterlimit="10"/>
<path vector-effect="non-scaling-stroke" d="M454.5 210.755L451.401 194.791H498.73L502.163 210.755H454.5Z" fill="#202020" stroke="white" stroke-width="0.794643" stroke-miterlimit="10"/>
<path vector-effect="non-scaling-stroke" d="M472.714 303.689L454.676 210.867H502.203L522.165 303.649L472.714 303.689Z" fill="#020202" stroke="white" stroke-width="0.794643" stroke-miterlimit="10"/>
<path vector-effect="non-scaling-stroke" d="M125.653 221.316H64.8232C64.6643 221.316 64.5371 221.173 64.5371 220.991V171.349C64.5371 171.174 64.6643 171.023 64.8232 171.023H125.653C125.812 171.023 125.939 171.166 125.939 171.349V220.991C125.939 221.173 125.812 221.316 125.653 221.316Z" fill="#020202" stroke="white" stroke-width="0.794643" stroke-miterlimit="10"/>
<path vector-effect="non-scaling-stroke" d="M92.8106 204.899H86.4932V213.394H92.8106V204.899Z" fill="#A2A2A0" stroke="white" stroke-width="0.794643" stroke-miterlimit="10"/>
<path vector-effect="non-scaling-stroke" d="M103.983 198.605H97.666V213.386H103.983V198.605Z" fill="#020202" stroke="white" stroke-width="0.794643" stroke-linejoin="round"/>
<path vector-effect="non-scaling-stroke" d="M115.148 191.573H108.831V213.386H115.148V191.573Z" fill="#404040" stroke="white" stroke-width="0.794643" stroke-miterlimit="10"/>
<path vector-effect="non-scaling-stroke" d="M115.903 180.988C115.864 180.814 115.705 180.718 115.554 180.758C111.978 181.815 109.967 184.262 107.846 186.861C107.202 187.648 106.534 188.458 105.811 189.253C105.327 189.785 104.548 190.445 103.594 190.604C102.776 190.739 101.957 190.5 101.091 190.246C100.829 190.167 100.559 190.087 100.296 190.024C98.7072 189.626 97.2133 190.031 95.9895 191.208C95.0757 192.09 94.5115 193.289 93.9711 194.45C93.5738 195.308 93.1527 196.198 92.6043 196.921C91.3965 198.494 90.1489 198.105 88.5676 197.612C88.1543 197.485 87.7252 197.35 87.2882 197.255C85.8817 196.945 84.2606 197.43 82.8382 198.606C81.8608 199.408 81.0582 200.425 80.2794 201.403C78.7696 203.302 77.3472 205.098 74.8282 205.249C74.6692 205.257 74.55 205.408 74.558 205.591C74.558 205.765 74.6931 205.9 74.8441 205.9C74.8441 205.9 74.852 205.9 74.86 205.9C77.6174 205.742 79.1908 203.755 80.7085 201.84C81.4634 200.886 82.2501 199.901 83.1799 199.13C84.4672 198.065 85.9293 197.612 87.1769 197.898C87.5981 197.994 88.0113 198.121 88.4166 198.248C89.982 198.733 91.5952 199.241 93.0414 197.35C93.6374 196.571 94.0665 195.65 94.4797 194.76C95.0201 193.607 95.5286 192.519 96.363 191.716C97.4437 190.675 98.7549 190.318 100.169 190.667C100.424 190.731 100.686 190.81 100.94 190.882C101.822 191.144 102.736 191.406 103.674 191.255C104.556 191.112 105.43 190.58 106.209 189.722C106.948 188.911 107.615 188.093 108.267 187.306C110.428 184.668 112.288 182.395 115.697 181.386C115.848 181.338 115.943 181.163 115.903 180.988Z" stroke="white" stroke-width="0.794643" stroke-miterlimit="10"/>
<path vector-effect="non-scaling-stroke" d="M339.118 215.643C336.027 213.402 332.26 212.138 328.343 212.138V230.471L339.118 215.643Z" fill="#A2A2A0" stroke="white" stroke-width="0.794643" stroke-miterlimit="10"/>
<path vector-effect="non-scaling-stroke" d="M323.011 212.932C321.001 213.544 319.181 214.474 317.568 215.642C314.413 217.939 312.101 221.165 310.917 224.804C309.796 228.253 309.677 232.067 310.813 235.802C310.845 235.914 310.885 236.017 310.925 236.128C312.164 239.95 314.548 243.097 317.576 245.29L328.351 230.462V212.13C326.587 212.13 324.791 212.384 323.019 212.925L323.011 212.932Z" fill="#404040" stroke="white" stroke-width="0.794643" stroke-miterlimit="10"/>
<path vector-effect="non-scaling-stroke" d="M345.881 225.138C345.849 225.027 345.809 224.923 345.769 224.812C344.53 220.99 342.146 217.843 339.118 215.65L328.343 230.478L345.769 236.144C346.89 232.695 347.009 228.881 345.873 225.146L345.881 225.138Z" fill="#020202" stroke="white" stroke-width="0.794643" stroke-linejoin="round"/>
<path vector-effect="non-scaling-stroke" d="M328.343 230.47L317.567 245.298C320.659 247.539 324.425 248.803 328.343 248.803C330.107 248.803 331.903 248.548 333.675 248.008C335.685 247.396 337.505 246.466 339.118 245.298C342.273 243.002 344.585 239.775 345.769 236.136L328.343 230.47Z" fill="#404040" stroke="white" stroke-width="0.794643" stroke-miterlimit="10"/>
<path vector-effect="non-scaling-stroke" d="M126.336 271.228H64.4893V290.776H126.328V271.228H126.336Z" fill="#202020" stroke="white" stroke-width="0.794643" stroke-miterlimit="10"/>
<path vector-effect="non-scaling-stroke" d="M126.336 251.68H64.4893V271.228H126.328V251.68H126.336Z" fill="#020202" stroke="white" stroke-width="0.794643" stroke-miterlimit="10"/>
<path vector-effect="non-scaling-stroke" d="M126.336 234.706H64.4893V254.254H126.328V234.706H126.336Z" fill="#202020" stroke="white" stroke-width="0.794643" stroke-miterlimit="10"/>
<path vector-effect="non-scaling-stroke" d="M116.053 246.674C117.039 246.674 117.833 245.696 117.833 244.48C117.833 243.265 117.039 242.287 116.053 242.287C115.068 242.287 114.273 243.265 114.273 244.48C114.273 245.696 115.068 246.674 116.053 246.674Z" fill="#020202" stroke="white" stroke-width="0.794643" stroke-miterlimit="10"/>
<path vector-effect="non-scaling-stroke" d="M116.053 264.926C117.039 264.926 117.833 263.948 117.833 262.732C117.833 261.516 117.039 260.539 116.053 260.539C115.068 260.539 114.273 261.516 114.273 262.732C114.273 263.948 115.068 264.926 116.053 264.926Z" fill="#020202" stroke="white" stroke-width="0.794643" stroke-miterlimit="10"/>
<path vector-effect="non-scaling-stroke" d="M116.053 283.187C117.039 283.187 117.833 282.21 117.833 280.994C117.833 279.778 117.039 278.801 116.053 278.801C115.068 278.801 114.273 279.778 114.273 280.994C114.273 282.21 115.068 283.187 116.053 283.187Z" fill="#020202" stroke="white" stroke-width="0.794643" stroke-miterlimit="10"/>
<path vector-effect="non-scaling-stroke" d="M72.8652 244.48H105.811" stroke="white" stroke-width="0.794643" stroke-miterlimit="10"/>
<path vector-effect="non-scaling-stroke" d="M72.8652 262.741H105.811" stroke="white" stroke-width="0.794643" stroke-miterlimit="10"/>
<path vector-effect="non-scaling-stroke" d="M72.8652 281.01H105.811" stroke="white" stroke-width="0.794643" stroke-miterlimit="10"/>
<path vector-effect="non-scaling-stroke" d="M480.747 105.155H473.977V108.54H480.747V105.155Z" stroke="white" stroke-width="0.794643" stroke-miterlimit="10"/>
<path vector-effect="non-scaling-stroke" d="M480.747 132.785H473.977V136.17H480.747V132.785Z" stroke="white" stroke-width="0.794643" stroke-miterlimit="10"/>
<path vector-effect="non-scaling-stroke" d="M492.865 124.044V117.273H489.48V124.044H492.865Z" stroke="white" stroke-width="0.794643" stroke-miterlimit="10"/>
<path vector-effect="non-scaling-stroke" d="M465.236 124.044V117.273H461.851V124.044H465.236Z" stroke="white" stroke-width="0.794643" stroke-miterlimit="10"/>
<path vector-effect="non-scaling-stroke" d="M477.362 108.533V110.519" stroke="white" stroke-width="0.794643" stroke-miterlimit="10"/>
<path vector-effect="non-scaling-stroke" d="M477.362 130.806V132.785" stroke="white" stroke-width="0.794643" stroke-miterlimit="10"/>
<path vector-effect="non-scaling-stroke" d="M487.51 120.659H489.488" stroke="white" stroke-width="0.794643" stroke-miterlimit="10"/>
<path vector-effect="non-scaling-stroke" d="M465.236 120.659H467.215" stroke="white" stroke-width="0.794643" stroke-miterlimit="10"/>
<path vector-effect="non-scaling-stroke" d="M470.194 113.491L468.295 111.592" stroke="white" stroke-width="0.794643" stroke-miterlimit="10"/>
<path vector-effect="non-scaling-stroke" d="M486.428 129.734L484.537 127.834" stroke="white" stroke-width="0.794643" stroke-miterlimit="10"/>
<path vector-effect="non-scaling-stroke" d="M470.194 127.834L468.295 129.734" stroke="white" stroke-width="0.794643" stroke-miterlimit="10"/>
<path vector-effect="non-scaling-stroke" d="M484.529 113.491L486.429 111.592" stroke="white" stroke-width="0.794643" stroke-miterlimit="10"/>
<path vector-effect="non-scaling-stroke" d="M488.908 110.567C488.908 111.369 488.257 112.013 487.462 112.013C486.667 112.013 486.016 111.361 486.016 110.567C486.016 109.772 486.667 109.121 487.462 109.121C488.257 109.121 488.908 109.772 488.908 110.567Z" stroke="white" stroke-width="0.794643" stroke-miterlimit="10"/>
<path vector-effect="non-scaling-stroke" d="M468.716 110.567C468.716 111.369 468.064 112.013 467.269 112.013C466.475 112.013 465.823 111.361 465.823 110.567C465.823 109.772 466.475 109.121 467.269 109.121C468.064 109.121 468.716 109.772 468.716 110.567Z" stroke="white" stroke-width="0.794643" stroke-miterlimit="10"/>
<path vector-effect="non-scaling-stroke" d="M488.908 130.759C488.908 131.561 488.257 132.205 487.462 132.205C486.667 132.205 486.016 131.553 486.016 130.759C486.016 129.964 486.667 129.312 487.462 129.312C488.257 129.312 488.908 129.964 488.908 130.759Z" stroke="white" stroke-width="0.794643" stroke-miterlimit="10"/>
<path vector-effect="non-scaling-stroke" d="M468.716 130.759C468.716 131.561 468.064 132.205 467.269 132.205C466.475 132.205 465.823 131.553 465.823 130.759C465.823 129.964 466.475 129.312 467.269 129.312C468.064 129.312 468.716 129.964 468.716 130.759Z" stroke="white" stroke-width="0.794643" stroke-miterlimit="10"/>
<path vector-effect="non-scaling-stroke" d="M469.328 122.494L470.536 121.739C470.806 121.588 471.132 121.636 471.347 121.866L472.785 123.44C472.888 123.543 473.015 123.615 473.158 123.638L473.921 123.774C474.366 123.853 474.605 124.338 474.398 124.735C474.35 124.838 474.319 124.942 474.319 125.053C474.319 125.196 474.366 125.339 474.462 125.458L474.613 125.657C474.827 125.935 474.795 126.34 474.533 126.563L474.35 126.73C474.168 126.881 474.08 127.135 474.136 127.365L474.35 128.335" stroke="white" stroke-width="0.794643" stroke-miterlimit="10"/>
<path vector-effect="non-scaling-stroke" d="M473.278 113.499L474.661 115.708C474.836 116.447 473.024 117.059 472.579 117.4C472.102 117.774 472.38 118.791 472.189 119.244C471.848 120.031 470.322 119.26 469.353 118.68" stroke="white" stroke-width="0.794643" stroke-miterlimit="10"/>
<path vector-effect="non-scaling-stroke" d="M477.394 125.354C476.782 124.226 477.649 124.449 477.037 122.819C476.623 121.723 474.955 121.469 475.241 120.475C475.567 119.673 476.345 118.068 477.283 118.87C477.815 119.323 478.292 119.212 478.864 119.021C479.874 118.671 479.889 120.714 480.899 120.976C481.9 121.23 480.557 122.136 480.549 122.7C480.549 123.479 479.516 125.919 479.444 126.173C478.698 127.54 477.784 126.085 477.394 125.37V125.354Z" stroke="white" stroke-width="0.794643" stroke-miterlimit="10"/>
<path vector-effect="non-scaling-stroke" d="M478.292 112.474C477.18 114.182 475.551 117.106 478.324 116.471C480.295 116.018 481.725 116.947 482.774 118.386C483.012 118.704 484.061 118.457 484.49 118.418C484.745 118.386 485.007 118.37 485.261 118.346" stroke="white" stroke-width="0.794643" stroke-miterlimit="10"/>
<path vector-effect="non-scaling-stroke" d="M477.363 128.899C481.914 128.899 485.603 125.209 485.603 120.658C485.603 116.107 481.914 112.418 477.363 112.418C472.811 112.418 469.122 116.107 469.122 120.658C469.122 125.209 472.811 128.899 477.363 128.899Z" stroke="white" stroke-width="0.794643" stroke-miterlimit="10"/>
<path vector-effect="non-scaling-stroke" d="M198.331 273.961H149.588C148.565 273.961 147.736 274.79 147.736 275.812V288.924C147.736 289.947 148.565 290.776 149.588 290.776H198.331C199.354 290.776 200.183 289.947 200.183 288.924V275.812C200.183 274.79 199.354 273.961 198.331 273.961Z" stroke="white" stroke-width="0.794643" stroke-linecap="round" stroke-linejoin="round"/>
<path vector-effect="non-scaling-stroke" d="M147.244 249.986H173.626" stroke="white" stroke-width="0.794643" stroke-linecap="round" stroke-linejoin="round"/>
<path vector-effect="non-scaling-stroke" d="M147.244 256.161H200.024" stroke="white" stroke-width="0.794643" stroke-linecap="round" stroke-linejoin="round"/>
<path vector-effect="non-scaling-stroke" d="M147.244 262.335H200.024" stroke="white" stroke-width="0.794643" stroke-linecap="round" stroke-linejoin="round"/>
<path vector-effect="non-scaling-stroke" d="M147.244 268.51H200.024" stroke="white" stroke-width="0.794643" stroke-linecap="round" stroke-linejoin="round"/>
<path vector-effect="non-scaling-stroke" d="M242.609 249.581H211.269C208.548 249.581 206.342 251.787 206.342 254.508V285.849C206.342 288.57 208.548 290.775 211.269 290.775H242.609C245.33 290.775 247.536 288.57 247.536 285.849V254.508C247.536 251.787 245.33 249.581 242.609 249.581Z" stroke="white" stroke-width="0.794643" stroke-linecap="round" stroke-linejoin="round"/>
<path vector-effect="non-scaling-stroke" d="M236.499 268.844C236.499 269.964 237.405 270.87 238.525 270.87C239.646 270.87 240.552 269.964 240.552 268.844C240.552 267.723 239.646 266.817 238.525 266.817C237.405 266.817 236.499 267.723 236.499 268.844Z" stroke="white" stroke-width="0.794643" stroke-linecap="round" stroke-linejoin="round"/>
<path vector-effect="non-scaling-stroke" d="M229.387 257.004L232.47 259.73L229.84 262.701" stroke="white" stroke-width="0.794643" stroke-linecap="round" stroke-linejoin="round"/>
<path vector-effect="non-scaling-stroke" d="M219.645 255.398L215.926 259.117" stroke="white" stroke-width="0.794643" stroke-linecap="round" stroke-linejoin="round"/>
<path vector-effect="non-scaling-stroke" d="M215.926 255.398L219.645 259.117" stroke="white" stroke-width="0.794643" stroke-linecap="round" stroke-linejoin="round"/>
<path vector-effect="non-scaling-stroke" d="M231.246 275.392L227.52 279.118" stroke="white" stroke-width="0.794643" stroke-linecap="round" stroke-linejoin="round"/>
<path vector-effect="non-scaling-stroke" d="M227.52 275.392L231.246 279.118" stroke="white" stroke-width="0.794643" stroke-linecap="round" stroke-linejoin="round"/>
<path vector-effect="non-scaling-stroke" d="M232.47 259.729C227.575 259.729 224.111 261.136 221.298 263.377C220.336 264.14 219.446 265.046 218.93 266.158C218.413 267.271 218.326 268.637 218.93 269.702C219.311 270.386 219.931 270.886 220.463 271.466C220.988 272.039 221.457 272.762 221.393 273.54C221.306 274.764 220.05 275.503 219.319 276.489C218.246 277.943 218.381 280.072 219.375 281.59C220.368 283.108 222.06 284.054 223.817 284.491C225.573 284.928 228.632 285.015 230.444 284.936" stroke="white" stroke-width="0.794643" stroke-linecap="round" stroke-linejoin="round"/>
<path vector-effect="non-scaling-stroke" d="M157.169 207.497L171.425 216.85L201.367 210.167L188.534 200.814L157.169 207.497Z" fill="#202020" stroke="white" stroke-width="0.794643" stroke-miterlimit="10"/>
<path vector-effect="non-scaling-stroke" d="M198.514 180.781L185.68 171.428L155.746 179.438L157.169 207.497L188.533 200.822" fill="#020202"/>
<path vector-effect="non-scaling-stroke" d="M198.514 180.781L185.68 171.428L155.746 179.438L157.169 207.497L188.533 200.822" stroke="white" stroke-width="0.794643" stroke-miterlimit="10"/>
<path vector-effect="non-scaling-stroke" d="M201.367 210.175L198.514 180.781L185.68 171.428L155.746 179.438L157.169 207.497L171.424 216.85L201.367 210.175Z" stroke="white" stroke-width="0.794643" stroke-miterlimit="10"/>
<path vector-effect="non-scaling-stroke" d="M201.367 210.175L188.533 200.822L185.681 171.428" stroke="white" stroke-width="0.794643" stroke-miterlimit="10"/>
<path vector-effect="non-scaling-stroke" d="M206.659 228.77L218.054 232.52L220.208 218.304L209.123 215.229L206.659 228.77Z" fill="#202020" stroke="white" stroke-width="0.794643" stroke-miterlimit="10"/>
<path vector-effect="non-scaling-stroke" d="M229.331 217.82L218.572 214.879L209.64 215.356L207.177 228.897L218.572 232.648L226.868 231.352L229.331 217.82Z" stroke="white" stroke-width="0.794643" stroke-miterlimit="10"/>
<path vector-effect="non-scaling-stroke" d="M229.331 217.819L220.717 218.431L209.64 215.356" stroke="white" stroke-width="0.794643" stroke-miterlimit="10"/>
<path vector-effect="non-scaling-stroke" d="M220.718 218.432L218.572 232.648" stroke="white" stroke-width="0.794643" stroke-miterlimit="10"/>
<path vector-effect="non-scaling-stroke" d="M440.212 320.003C469.568 320.003 493.366 296.205 493.366 266.849C493.366 237.494 469.568 213.696 440.212 213.696C410.856 213.696 387.059 237.494 387.059 266.849C387.059 296.205 410.856 320.003 440.212 320.003Z" fill="#020202" stroke="white" stroke-width="0.794643" stroke-miterlimit="10"/>
<mask id="mask1_77_6221" style="mask-type:luminance" maskUnits="userSpaceOnUse" x="387" y="214" width="107" height="106">
<path vector-effect="non-scaling-stroke" d="M440.298 319.526C469.435 319.526 493.055 295.906 493.055 266.77C493.055 237.633 469.435 214.013 440.298 214.013C411.162 214.013 387.542 237.633 387.542 266.77C387.542 295.906 411.162 319.526 440.298 319.526Z" fill="white"/>
</mask>
<g mask="url(#mask1_77_6221)">
<path vector-effect="non-scaling-stroke" d="M422.77 284.871V282.169H404.691V284.871H422.77Z" fill="#404040" stroke="white" stroke-width="0.794643" stroke-miterlimit="10"/>
<path vector-effect="non-scaling-stroke" d="M400.654 265.577L397.96 266.451L404.087 284.879H406.781L400.654 265.577Z" fill="#404040" stroke="white" stroke-width="0.794643" stroke-miterlimit="10"/>
<path vector-effect="non-scaling-stroke" d="M472.831 263.543L467.07 272.443L467.253 272.562L473.014 263.662L472.831 263.543Z" fill="#020202" stroke="white" stroke-width="0.794643" stroke-linejoin="round"/>
<path vector-effect="non-scaling-stroke" d="M375.298 290.338H462.566V284.99H375.298V290.338Z" fill="#020202" stroke="white" stroke-width="0.794643" stroke-linejoin="round"/>
<path vector-effect="non-scaling-stroke" d="M428.467 284.871C424.645 284.871 418.478 281.676 420.083 280.103C421.085 279.118 425.257 283.162 425.257 283.162L428.467 284.871Z" fill="#404040" stroke="white" stroke-width="0.794643" stroke-miterlimit="10"/>
<path vector-effect="non-scaling-stroke" d="M419.082 276.606C415.92 274.421 415.324 272.705 415.212 272.061C415.173 271.799 415.212 271.576 415.324 271.394C416.182 272.236 418.335 274.159 420.433 275.16L419.082 276.614V276.606Z" fill="#404040"/>
<path vector-effect="non-scaling-stroke" d="M415.673 272.276C416.667 273.166 418.208 274.43 419.782 275.272L419.027 276.083C416.603 274.342 415.88 272.976 415.673 272.268M415.3 270.965C415.3 270.965 415.284 270.965 415.276 270.965C415.189 270.965 415.109 271.013 415.053 271.084C414.839 271.37 414.759 271.72 414.823 272.117C414.966 272.968 415.713 274.827 419.138 277.116L421.101 275.002C418.908 274.12 416.484 271.95 415.53 271.045C415.467 270.981 415.387 270.949 415.3 270.949V270.965Z" fill="white"/>
<path vector-effect="non-scaling-stroke" d="M416.349 279.572C416.055 279.572 415.777 279.476 415.523 279.285C415.467 279.246 415.459 279.198 415.459 279.166C415.459 279.142 415.459 279.087 415.507 279.047L418.622 276.083C418.661 276.973 418.55 278.419 417.493 279.158C417.096 279.436 416.707 279.579 416.357 279.579L416.349 279.572Z" fill="#404040"/>
<path vector-effect="non-scaling-stroke" d="M418.201 277.036C418.113 277.704 417.875 278.411 417.271 278.832C416.937 279.062 416.627 279.182 416.357 279.182C416.246 279.182 416.127 279.158 416.023 279.118L418.208 277.036M418.94 275.24L415.244 278.76C414.99 278.999 415.022 279.404 415.3 279.611C415.554 279.801 415.912 279.976 416.365 279.976C416.754 279.976 417.215 279.849 417.732 279.484C419.536 278.228 418.955 275.336 418.94 275.248V275.24Z" fill="white"/>
<path vector-effect="non-scaling-stroke" d="M428.467 276.226C425.797 276.226 423.795 275.948 421.506 274.955C420.425 274.486 419.162 275.002 418.709 276.091L416.913 280.366C416.762 280.732 417.008 281.145 417.398 281.169C418.121 281.224 419.305 280.652 420.576 277.251L421.88 278.109C421.88 278.109 423.223 286.239 432.44 284.872L432.329 276.123L428.467 276.226Z" fill="#404040" stroke="white" stroke-width="0.794643" stroke-miterlimit="10"/>
<path vector-effect="non-scaling-stroke" d="M437.884 276.122H430.597L430.644 284.99H437.987V276.122H437.876H437.884ZM432.544 278.284V278.498Z" fill="#020202"/>
<path vector-effect="non-scaling-stroke" d="M432.544 278.284V278.498M437.884 276.122H430.597L430.644 284.99H437.987V276.122H437.876H437.884Z" stroke="white" stroke-width="0.794643" stroke-linejoin="round"/>
<path vector-effect="non-scaling-stroke" d="M468.723 314.051H468.509Z" fill="#020202"/>
<path vector-effect="non-scaling-stroke" d="M468.723 314.051H468.509" stroke="white" stroke-width="0.794643" stroke-linejoin="round"/>
<path vector-effect="non-scaling-stroke" d="M416.81 314.026C415.523 302.623 431.884 290.441 441.142 290.441H449.096L432.345 323.816" fill="#020202"/>
<path vector-effect="non-scaling-stroke" d="M416.81 314.026C415.523 302.623 431.884 290.441 441.142 290.441H449.096L432.345 323.816" stroke="white" stroke-width="0.794643" stroke-miterlimit="10"/>
<path vector-effect="non-scaling-stroke" d="M440.728 290.441C430.97 290.441 421.331 307.049 423.079 316.657L428.927 318.492C431.121 319.184 433.401 319.581 435.698 319.692L442.563 320.002L442.953 312.381C443.032 310.864 444.288 309.672 445.806 309.672H476.892C482.931 309.672 487.834 304.777 487.834 298.73V290.441H440.72H440.728Z" fill="#020202" stroke="white" stroke-width="0.794643" stroke-miterlimit="10"/>
<path vector-effect="non-scaling-stroke" d="M467.055 290.338H487.739V284.99H467.055V290.338Z" fill="#020202" stroke="white" stroke-width="0.794643" stroke-linejoin="round"/>
<path vector-effect="non-scaling-stroke" d="M473.579 284.871H473.364ZM473.364 290.442H473.579Z" fill="#020202"/>
<path vector-effect="non-scaling-stroke" d="M473.579 284.871H473.364M473.364 290.442H473.579" stroke="white" stroke-width="0.794643" stroke-linejoin="round"/>
<path vector-effect="non-scaling-stroke" d="M480.008 260.953C476.877 254.492 469.669 247.722 468.096 244.496C465.434 239.044 466.578 234.269 463.59 232.965C460.658 231.678 458.227 233.514 456.463 234.722C454.698 235.929 451.623 239.116 453.053 243.073C453.093 243.193 453.141 243.312 453.173 243.423C452.99 244.138 452.775 245.139 452.664 246.077C452.593 246.665 453.26 247.047 453.737 246.697L453.92 246.562C454.388 249.176 454.619 251.369 456.463 252.069C459.093 253.062 462.383 248.453 462.383 248.453L464.361 252.959C464.361 252.959 463.042 254.055 459.744 259.332C456.455 264.6 451.075 273.389 451.075 273.389H439.68C437.669 273.389 436.032 275.026 436.032 277.036V284.88H452.465C456.407 284.88 460.086 282.925 462.303 279.667L467.158 272.507C467.158 272.507 462.271 281.542 466.944 284.88H486.54C486.54 276.13 483.139 267.413 480.008 260.953Z" fill="#404040" stroke="white" stroke-width="0.794643" stroke-miterlimit="10"/>
<path vector-effect="non-scaling-stroke" d="M456.502 246.076C456.502 246.076 456.59 247.952 454.516 248.532Z" fill="#404040"/>
<path vector-effect="non-scaling-stroke" d="M456.502 246.076C456.502 246.076 456.59 247.952 454.516 248.532" stroke="white" stroke-width="0.794643" stroke-miterlimit="10"/>
<path vector-effect="non-scaling-stroke" d="M467.691 242.445C467.118 240.84 466.808 239.33 466.546 237.995C466.054 235.548 465.664 233.617 463.884 232.854C460.968 231.598 458.52 233.251 456.74 234.451L456.486 234.618C455.898 235.007 453.919 236.469 453.013 238.782L452.966 238.901L453.093 238.925C453.093 238.925 455.318 239.37 457.972 238.265C458.401 238.885 461.349 242.946 465.497 242.946C466.181 242.946 466.896 242.834 467.635 242.58L467.738 242.54L467.698 242.437L467.691 242.445Z" fill="#404040" stroke="white" stroke-width="0.794643" stroke-miterlimit="10"/>
<path vector-effect="non-scaling-stroke" d="M464.703 252.95C466.571 251.122 469.606 249.119 471.473 248.698L469.55 246.267C469.55 246.267 465.538 247.991 463.495 250.224C462.772 251.019 462.597 251.71 462.685 252.282C462.82 253.252 464.004 253.625 464.703 252.95Z" fill="#020202" stroke="white" stroke-width="0.794643" stroke-linejoin="round"/>
<path vector-effect="non-scaling-stroke" d="M490.91 263.13V299.651C490.91 307.598 484.473 314.042 476.527 314.042H451.281C450.073 314.042 449.096 313.065 449.096 311.857C449.096 310.649 450.073 309.672 451.281 309.672H475.549C481.613 309.672 486.531 304.753 486.531 298.682V263.13C486.531 261.922 487.509 260.944 488.717 260.944C489.924 260.944 490.902 261.922 490.902 263.13H490.91Z" fill="#404040" stroke="white" stroke-width="0.794643" stroke-miterlimit="10"/>
<path vector-effect="non-scaling-stroke" d="M458.902 240.808C458.902 240.808 460.301 238.496 461.699 239.179C463.479 240.045 462.423 242.278 461.699 242.668" fill="#404040"/>
<path vector-effect="non-scaling-stroke" d="M458.902 240.808C458.902 240.808 460.301 238.496 461.699 239.179C463.479 240.045 462.423 242.278 461.699 242.668" stroke="white" stroke-width="0.794643" stroke-miterlimit="10"/>
</g>
<path vector-effect="non-scaling-stroke" d="M440.299 319.526C469.436 319.526 493.056 295.907 493.056 266.77C493.056 237.633 469.436 214.014 440.299 214.014C411.163 214.014 387.543 237.633 387.543 266.77C387.543 295.907 411.163 319.526 440.299 319.526Z" stroke="white" stroke-width="0.794643" stroke-miterlimit="10"/>
<path vector-effect="non-scaling-stroke" d="M327.135 262.248V288.996H366.819" stroke="white" stroke-width="0.794643" stroke-linecap="round" stroke-linejoin="round"/>
<path vector-effect="non-scaling-stroke" d="M360.112 236.485V286.087H366.811V236.485H360.112Z" stroke="white" stroke-width="0.794643" stroke-linecap="round" stroke-linejoin="round"/>
<path vector-effect="non-scaling-stroke" d="M349.949 244.448V286.087H357.395V244.448H349.949Z" stroke="white" stroke-width="0.794643" stroke-linecap="round" stroke-linejoin="round"/>
<path vector-effect="non-scaling-stroke" d="M340.509 254.969V286.087H347.279V254.969H340.509Z" stroke="white" stroke-width="0.794643" stroke-linecap="round" stroke-linejoin="round"/>
<path vector-effect="non-scaling-stroke" d="M330.878 262.24V286.087H337.323V262.24H330.878Z" stroke="white" stroke-width="0.794643" stroke-linecap="round" stroke-linejoin="round"/>
<path vector-effect="non-scaling-stroke" d="M281.57 76.2939C281.57 77.7163 280.426 78.8685 279.003 78.8685C277.581 78.8685 276.437 77.7163 276.437 76.2939C276.437 74.8715 277.581 73.7192 279.003 73.7192C280.426 73.7192 281.57 74.8715 281.57 76.2939Z" stroke="white" stroke-width="0.794643" stroke-miterlimit="10"/>
<path vector-effect="non-scaling-stroke" d="M245.684 76.2939C245.684 77.7163 244.54 78.8685 243.117 78.8685C241.695 78.8685 240.551 77.7163 240.551 76.2939C240.551 74.8715 241.695 73.7192 243.117 73.7192C244.54 73.7192 245.684 74.8715 245.684 76.2939Z" stroke="white" stroke-width="0.794643" stroke-miterlimit="10"/>
<path vector-effect="non-scaling-stroke" d="M276.452 76.3652H273.552" stroke="white" stroke-width="0.794643" stroke-miterlimit="10"/>
<path vector-effect="non-scaling-stroke" d="M248.577 76.3652H245.685" stroke="white" stroke-width="0.794643" stroke-miterlimit="10"/>
<path vector-effect="non-scaling-stroke" d="M261.061 96.8749C259.646 96.8749 258.494 95.7226 258.494 94.3002C258.494 92.8778 259.638 91.7256 261.061 91.7256C262.483 91.7256 263.628 92.8778 263.628 94.3002C263.628 95.7226 262.483 96.8749 261.061 96.8749Z" stroke="white" stroke-width="0.794643" stroke-miterlimit="10"/>
<path vector-effect="non-scaling-stroke" d="M261.061 60.8617C262.478 60.8617 263.628 59.709 263.628 58.287C263.628 56.8651 262.478 55.7124 261.061 55.7124C259.643 55.7124 258.494 56.8651 258.494 58.287C258.494 59.709 259.643 60.8617 261.061 60.8617Z" stroke="white" stroke-width="0.794643" stroke-miterlimit="10"/>
<path vector-effect="non-scaling-stroke" d="M260.989 91.7338V88.7856" stroke="white" stroke-width="0.794643" stroke-miterlimit="10"/>
<path vector-effect="non-scaling-stroke" d="M260.989 63.7066V60.8618" stroke="white" stroke-width="0.794643" stroke-miterlimit="10"/>
<path vector-effect="non-scaling-stroke" d="M275.563 90.8435C274.562 91.8448 272.941 91.8448 271.939 90.8435C270.938 89.8423 270.938 88.2133 271.939 87.2041C272.941 86.2028 274.562 86.2028 275.563 87.2041C276.564 88.2053 276.564 89.8343 275.563 90.8435Z" stroke="white" stroke-width="0.794643" stroke-miterlimit="10"/>
<path vector-effect="non-scaling-stroke" d="M250.189 65.3831C249.188 66.3843 247.567 66.3843 246.565 65.3831C245.564 64.3818 245.564 62.7528 246.565 61.7436C247.567 60.7424 249.188 60.7424 250.189 61.7436C251.19 62.7449 251.19 64.3739 250.189 65.3831Z" stroke="white" stroke-width="0.794643" stroke-miterlimit="10"/>
<path vector-effect="non-scaling-stroke" d="M271.891 87.2675L269.825 85.1855" stroke="white" stroke-width="0.794643" stroke-miterlimit="10"/>
<path vector-effect="non-scaling-stroke" d="M252.152 67.4575L250.134 65.4312" stroke="white" stroke-width="0.794643" stroke-miterlimit="10"/>
<path vector-effect="non-scaling-stroke" d="M246.565 90.8435C245.564 89.8423 245.564 88.2133 246.565 87.2041C247.567 86.2028 249.188 86.2028 250.189 87.2041C251.19 88.2053 251.19 89.8343 250.189 90.8435C249.188 91.8448 247.567 91.8448 246.565 90.8435Z" stroke="white" stroke-width="0.794643" stroke-miterlimit="10"/>
<path vector-effect="non-scaling-stroke" d="M271.939 65.3831C270.938 64.3818 270.938 62.7528 271.939 61.7436C272.941 60.7424 274.562 60.7424 275.563 61.7436C276.564 62.7449 276.564 64.3739 275.563 65.3831C274.562 66.3923 272.941 66.3843 271.939 65.3831Z" stroke="white" stroke-width="0.794643" stroke-miterlimit="10"/>
<path vector-effect="non-scaling-stroke" d="M252.2 85.0825L250.134 87.1565" stroke="white" stroke-width="0.794643" stroke-miterlimit="10"/>
<path vector-effect="non-scaling-stroke" d="M271.884 65.3276L269.865 67.354" stroke="white" stroke-width="0.794643" stroke-miterlimit="10"/>
<path vector-effect="non-scaling-stroke" d="M261.061 86.7592C266.757 86.7592 271.375 82.1235 271.375 76.405C271.375 70.6865 266.757 66.0508 261.061 66.0508C255.364 66.0508 250.746 70.6865 250.746 76.405C250.746 82.1235 255.364 86.7592 261.061 86.7592Z" stroke="white" stroke-width="0.794643" stroke-miterlimit="10"/>
<path vector-effect="non-scaling-stroke" d="M257.715 78.7173C257.715 80.0126 258.764 81.0694 260.051 81.0694H261.926C263.222 81.0694 264.271 80.0205 264.271 78.7173V78.4551C264.271 77.3028 263.341 76.3731 262.197 76.3731H259.797C258.653 76.3731 257.723 75.4434 257.723 74.2911V74.0289C257.723 72.7336 258.772 71.6768 260.059 71.6768H261.934C263.23 71.6768 264.279 72.7257 264.279 74.0289" stroke="white" stroke-width="0.794643" stroke-miterlimit="10"/>
<path vector-effect="non-scaling-stroke" d="M260.989 69.897V71.669" stroke="white" stroke-width="0.794643" stroke-miterlimit="10"/>
<path vector-effect="non-scaling-stroke" d="M260.989 81.0698V82.8419" stroke="white" stroke-width="0.794643" stroke-miterlimit="10"/>
<path vector-effect="non-scaling-stroke" d="M275.236 288.639L277.151 304.42H250.84C250.84 304.42 249.744 300.471 257.158 297.626C263.308 296.363 262.832 292.326 263.571 289.211C264.31 286.096 275.236 288.631 275.236 288.631V288.639Z" fill="#202020" stroke="white" stroke-width="0.794643" stroke-miterlimit="10"/>
<path vector-effect="non-scaling-stroke" d="M260.733 296.045H265.517" stroke="white" stroke-width="0.794643" stroke-miterlimit="10"/>
<path vector-effect="non-scaling-stroke" d="M262.283 294.226H266.399" stroke="white" stroke-width="0.794643" stroke-miterlimit="10"/>
<path vector-effect="non-scaling-stroke" d="M296.699 289.37L299.981 304.429H324.925C324.925 304.429 326.022 300.479 318.608 297.634C312.457 296.371 310.796 292.93 310.057 289.823C309.318 286.708 296.707 289.37 296.707 289.37H296.699Z" fill="#202020" stroke="white" stroke-width="0.794643" stroke-miterlimit="10"/>
<path vector-effect="non-scaling-stroke" d="M308.444 295.377H313.228" stroke="white" stroke-width="0.794643" stroke-miterlimit="10"/>
<path vector-effect="non-scaling-stroke" d="M307.252 293.104H311.368" stroke="white" stroke-width="0.794643" stroke-miterlimit="10"/>
<path vector-effect="non-scaling-stroke" d="M299.179 300.765H323.55" stroke="white" stroke-width="0.794643" stroke-miterlimit="10"/>
<path vector-effect="non-scaling-stroke" d="M269.664 177L270.244 171.803C270.244 171.803 264.761 174.298 262.878 171.985C261.559 170.356 262.512 168.211 263.466 165.557L263.227 165.581C262.608 165.652 262.194 164.945 262.568 164.444C263.172 163.634 263.903 162.831 264.451 162.267C264.475 162.14 264.507 162.005 264.523 161.878C265.317 157.475 269.831 156.18 272.096 156.005C274.36 155.83 277.571 155.433 279.581 158.174C281.631 160.972 278.04 164.754 277.587 171.191C277.491 172.518 277.682 174.489 278.882 177.286L269.656 176.992L269.664 177Z" fill="#202020" stroke="white" stroke-width="0.794643" stroke-miterlimit="10"/>
<path vector-effect="non-scaling-stroke" d="M255.107 213.005L257.896 189.34L257.34 194.084L252.167 196.603L246.517 184.938C246.517 184.938 255.568 178.97 258.683 177.643C261.392 176.491 269.148 174.917 269.148 174.917H280.464C280.464 174.917 288.776 175.394 291.795 177.254C299.36 181.918 304.104 189.078 304.104 189.078L291.414 195.308L286.686 189.094L289.729 193.099L288.426 200.847L287.186 208.181L286.376 213.005" fill="#202020"/>
<path vector-effect="non-scaling-stroke" d="M255.107 213.005L257.896 189.34L257.34 194.084L252.167 196.603L246.517 184.938C246.517 184.938 255.568 178.97 258.683 177.643C261.392 176.491 269.148 174.917 269.148 174.917H280.464C280.464 174.917 288.776 175.394 291.795 177.254C299.36 181.918 304.104 189.078 304.104 189.078L291.414 195.308L286.686 189.094L289.729 193.099L288.426 200.847L287.186 208.181L286.376 213.005" stroke="white" stroke-width="0.794643" stroke-miterlimit="10"/>
<path vector-effect="non-scaling-stroke" d="M255.456 213.005L256.743 292.954L281.322 292.803L274.265 233.086C285.74 253.214 291.906 269.178 295.57 292.803L318.606 293.105C311.947 264.371 301.267 237.591 286.042 213.005H255.464H255.456Z" fill="#020202" stroke="white" stroke-width="0.794643"/>
<path vector-effect="non-scaling-stroke" d="M210.201 168.442C210.201 168.442 210.201 168.442 210.217 168.442C212.171 169.65 219.085 169.626 221.222 170.46C222.534 170.969 223.94 172.598 224.488 173.893C229.518 184.287 234.334 198.686 241.939 198.686C242.567 198.686 243.218 198.614 243.886 198.463C246.023 197.971 248.725 196.691 251.459 195.15L247.144 186.234C245.189 187.378 243.425 188.276 242.185 188.681C239.634 186.965 230.257 174.394 228.072 169.888C226.999 167.806 226.992 166.511 226.88 165.66C226.761 164.81 226.952 163.888 227.54 163.261C227.81 162.982 228.144 162.776 228.414 162.49C228.684 162.212 228.899 161.822 228.803 161.449C228.732 161.147 228.477 160.908 228.191 160.797C227.905 160.694 227.58 160.694 227.278 160.75C226.3 160.94 225.49 161.64 224.949 162.466C224.409 163.292 224.099 164.254 223.797 165.184C222.192 164.453 217.639 163.507 215.906 163.197C215.382 163.102 214.841 163.022 214.333 163.181C213.824 163.34 213.371 163.785 213.387 164.317L213.292 164.397H213.181C212.799 164.397 212.402 164.429 212.076 164.619C211.75 164.81 211.567 165.327 211.679 165.676C211.448 165.716 211.226 165.78 211.027 165.899C210.685 166.113 210.439 166.535 210.574 166.924L216.439 167.615C214.444 167.369 212.99 167.242 210.995 166.995C210.892 166.98 210.781 166.972 210.67 166.972C209.859 166.924 209.517 167.997 210.201 168.418V168.442Z" fill="#202020" stroke="white" stroke-width="0.794643" stroke-miterlimit="10"/>
<path vector-effect="non-scaling-stroke" d="M213.204 164.412H213.284L213.387 164.333L213.204 164.412Z" fill="#202020" stroke="white" stroke-width="0.794643" stroke-miterlimit="10"/>
<path vector-effect="non-scaling-stroke" d="M210.844 167.401C211.353 167.401 211.353 166.606 210.844 166.606C210.336 166.606 210.336 167.401 210.844 167.401Z" fill="white"/>
<path vector-effect="non-scaling-stroke" d="M211.829 165.811C214.126 165.811 215.604 165.898 217.845 166.407Z" fill="#202020"/>
<path vector-effect="non-scaling-stroke" d="M211.83 166.209C213.832 166.209 215.779 166.352 217.742 166.797C218.242 166.908 218.449 166.145 217.956 166.034C215.93 165.573 213.912 165.422 211.837 165.422C211.329 165.422 211.329 166.217 211.837 166.217L211.83 166.209Z" fill="white"/>
<path vector-effect="non-scaling-stroke" d="M213.364 164.523C214.954 164.642 216.535 164.865 218.1 165.183Z" fill="#202020"/>
<path vector-effect="non-scaling-stroke" d="M213.364 164.921C214.921 165.04 216.463 165.263 217.996 165.573C218.497 165.676 218.712 164.905 218.211 164.81C216.614 164.484 214.993 164.261 213.372 164.134C212.863 164.095 212.863 164.889 213.372 164.929L213.364 164.921Z" fill="white"/>
<path vector-effect="non-scaling-stroke" d="M241.828 188.983C242.09 189.5 242.439 189.969 242.853 190.366C243.004 190.509 243.266 190.525 243.417 190.366C243.568 190.207 243.576 189.961 243.417 189.802C243.322 189.714 243.226 189.619 243.139 189.516C243.091 189.468 243.051 189.412 243.004 189.365C242.98 189.341 242.964 189.309 242.94 189.285C242.948 189.293 242.996 189.357 242.964 189.309C242.956 189.293 242.94 189.277 242.932 189.261C242.773 189.047 242.63 188.816 242.511 188.578C242.416 188.395 242.137 188.324 241.971 188.435C241.78 188.554 241.724 188.777 241.828 188.975V188.983Z" fill="white"/>
<path vector-effect="non-scaling-stroke" d="M241.844 188.602C241.518 188.935 241.288 189.373 241.208 189.833C241.192 189.945 241.192 190.04 241.248 190.143C241.296 190.223 241.391 190.302 241.486 190.326C241.59 190.35 241.701 190.342 241.796 190.286C241.876 190.231 241.963 190.151 241.979 190.048C242.003 189.889 242.051 189.746 242.114 189.595L242.075 189.69C242.146 189.531 242.233 189.38 242.337 189.237L242.273 189.317C242.313 189.261 242.361 189.206 242.408 189.158C242.551 189.007 242.567 188.745 242.408 188.594C242.249 188.443 242.003 188.435 241.844 188.594V188.602Z" fill="white"/>
<path vector-effect="non-scaling-stroke" d="M295.857 200.012C296.588 199.98 297.279 199.686 297.811 199.186C297.962 199.043 297.962 198.765 297.811 198.622C297.645 198.471 297.414 198.471 297.247 198.622C297.223 198.645 297.192 198.669 297.168 198.693C297.144 198.717 297.104 198.733 297.08 198.765C297.088 198.749 297.136 198.725 297.096 198.749C297.08 198.757 297.064 198.773 297.049 198.78C297.017 198.804 296.985 198.82 296.961 198.844C296.898 198.884 296.834 198.924 296.77 198.955C296.739 198.971 296.707 198.987 296.675 199.003C296.659 199.011 296.643 199.019 296.627 199.027C296.611 199.027 296.54 199.067 296.604 199.043C296.659 199.019 296.604 199.043 296.588 199.043C296.572 199.043 296.556 199.059 296.54 199.059C296.508 199.074 296.468 199.082 296.437 199.098C296.365 199.122 296.294 199.138 296.222 199.154C296.151 199.17 296.079 199.186 296.008 199.194C295.952 199.202 296.087 199.194 296.031 199.194C296.015 199.194 295.992 199.194 295.976 199.194C295.936 199.194 295.896 199.194 295.857 199.202C295.65 199.21 295.451 199.376 295.459 199.599C295.467 199.806 295.634 200.004 295.857 199.996V200.012Z" fill="white"/>
<path vector-effect="non-scaling-stroke" d="M295.515 199.981C295.84 200.346 296.238 200.648 296.675 200.863C296.77 200.91 296.873 200.934 296.985 200.903C297.08 200.879 297.175 200.807 297.223 200.72C297.271 200.624 297.295 200.513 297.263 200.41C297.231 200.314 297.175 200.219 297.08 200.171C296.865 200.068 296.667 199.941 296.476 199.798L296.556 199.862C296.381 199.726 296.222 199.575 296.079 199.417C295.936 199.258 295.658 199.266 295.515 199.417C295.364 199.583 295.364 199.814 295.515 199.981Z" fill="white"/>
<path vector-effect="non-scaling-stroke" d="M278.032 169.474C277.444 169.625 276.681 163.308 275.513 163.53C274.162 163.784 274.766 159.438 272.342 159.08C271.19 158.905 270.022 159.263 268.87 159.47C267.717 159.676 266.518 159.811 265.397 159.47C264.277 159.128 263.18 158.754 262.87 154.392C271.095 153.685 276.49 151.253 280.519 153.939C280.893 154.185 281.274 154.479 281.433 154.9C281.703 155.616 282.267 158.746 281.87 159.398" fill="#A2A2A0"/>
<path vector-effect="non-scaling-stroke" d="M278.032 169.474C277.444 169.625 276.681 163.308 275.513 163.53C274.162 163.784 274.766 159.438 272.342 159.08C271.19 158.905 270.022 159.263 268.87 159.47C267.717 159.676 266.518 159.811 265.397 159.47C264.277 159.128 263.18 158.754 262.87 154.392C271.095 153.685 276.49 151.253 280.519 153.939C280.893 154.185 281.274 154.479 281.433 154.9C281.703 155.616 282.267 158.746 281.87 159.398" stroke="white" stroke-width="0.794643" stroke-miterlimit="10"/>
<path vector-effect="non-scaling-stroke" d="M248.138 209.207L248.242 209.532C248.488 210.327 248.043 211.161 247.248 211.408C246.454 211.654 245.619 211.209 245.373 210.414L244.952 209.048L242.83 202.166L240.295 193.933C240.176 193.536 240.224 193.131 240.399 192.789C240.573 192.455 240.883 192.177 241.281 192.058C242.075 191.812 242.91 192.257 243.156 193.051L248.13 209.199L248.138 209.207Z" fill="#202020" stroke="white" stroke-width="0.794643" stroke-miterlimit="10"/>
<path vector-effect="non-scaling-stroke" d="M252.159 194.379C248.846 194.887 246.255 194.323 243.228 193.258" stroke="white" stroke-width="0.794643"/>
<path vector-effect="non-scaling-stroke" d="M262.601 198.454L261.211 198.882L259.887 194.584L261.277 194.156C261.695 194.027 262.142 194.264 262.27 194.681L263.126 197.461C263.255 197.878 263.019 198.325 262.601 198.454Z" fill="#202020" stroke="white" stroke-width="0.794643" stroke-miterlimit="10"/>
<path vector-effect="non-scaling-stroke" d="M252.136 194.323L254.941 203.446C255.004 203.66 255.235 203.763 255.441 203.684C256.069 203.43 257.428 202.977 258.087 202.77L259.971 202.19C261.107 201.84 261.743 200.633 261.393 199.496L259.685 193.958C259.335 192.813 258.127 192.185 256.991 192.535L255.108 193.115C254.448 193.322 253.065 193.711 252.406 193.854C252.191 193.902 252.056 194.116 252.128 194.331L252.136 194.323Z" fill="#202020" stroke="white" stroke-width="0.794643" stroke-miterlimit="10"/>
<path vector-effect="non-scaling-stroke" d="M241.845 198.956C240.168 199.568 239.246 201.396 239.779 203.12C240.311 204.844 242.099 205.838 243.831 205.401" fill="#202020"/>
<path vector-effect="non-scaling-stroke" d="M241.845 198.956C240.168 199.568 239.246 201.396 239.779 203.12C240.311 204.844 242.099 205.838 243.831 205.401" stroke="white" stroke-width="0.794643" stroke-miterlimit="10"/>
<path vector-effect="non-scaling-stroke" d="M257.936 195.865L255.227 196.699" stroke="white" stroke-width="0.794643" stroke-miterlimit="10"/>
<path vector-effect="non-scaling-stroke" d="M258.874 198.908L256.164 199.743" stroke="white" stroke-width="0.794643" stroke-miterlimit="10"/>
<path vector-effect="non-scaling-stroke" d="M256.935 203.144L259.986 209.056H262.878C264.738 208.484 263.363 208.396 263.324 206.457L260.065 202.087" fill="#020202"/>
<path vector-effect="non-scaling-stroke" d="M256.935 203.144L259.986 209.056H262.878C264.738 208.484 263.363 208.396 263.324 206.457L260.065 202.087" stroke="white" stroke-width="0.794643"/>
<path vector-effect="non-scaling-stroke" d="M243.164 193.06L248.178 209.334C250.085 206.751 251.905 204.836 254.933 203.39L252.136 194.323C252.136 194.323 247.789 195.253 243.164 193.06Z" fill="#202020" stroke="white" stroke-width="0.794643" stroke-miterlimit="10"/>
<path vector-effect="non-scaling-stroke" d="M292.518 194.768L295.816 199.655C284.914 201.761 270.904 202.134 270.904 202.134C267.249 202.301 263.911 202.253 260.367 203.143C257.252 203.93 256.926 204.788 254.201 206.497C253.978 206.64 253.748 206.783 253.581 206.989C253.422 207.196 253.343 207.49 253.446 207.728C253.557 207.983 253.851 208.118 254.129 208.126C254.407 208.126 254.678 208.03 254.94 207.935C256.823 207.244 257.109 206.632 258.992 205.933L260.939 204.852C260.097 205.647 259.469 206.664 259.136 207.776C259.048 208.07 258.977 208.38 259.056 208.674C259.159 209.048 259.485 209.318 259.843 209.461C260.2 209.604 260.542 209.556 260.908 209.493H260.931C260.931 209.493 260.955 209.54 260.963 209.572C261.225 210.104 261.647 210.327 262.29 210.438L262.338 210.478C262.481 210.772 262.727 210.955 262.974 211.01C262.974 211.01 262.997 211.018 263.013 211.026C263.299 211.106 263.792 211.074 264.078 211.026C264.897 210.883 265.699 210.7 266.494 210.478C266.844 210.375 267.217 210.247 267.432 209.953C267.678 209.596 267.606 209.095 267.368 208.73C267.13 208.364 266.478 208.253 266.112 208.015C266.391 207.864 266.693 207.752 266.979 207.713C267.559 207.689 269.291 207.689 271.77 207.665C276.403 207.832 278.406 207.832 287.178 208.189C294.958 208.507 302.761 207.109 307.354 205.71C311.804 204.351 301.522 190.35 301.522 190.35" fill="#202020"/>
<path vector-effect="non-scaling-stroke" d="M292.518 194.768L295.816 199.655C284.914 201.761 270.904 202.134 270.904 202.134C267.249 202.301 263.911 202.253 260.367 203.143C257.252 203.93 256.926 204.788 254.201 206.497C253.978 206.64 253.748 206.783 253.581 206.989C253.422 207.196 253.343 207.49 253.446 207.728C253.557 207.983 253.851 208.118 254.129 208.126C254.407 208.126 254.678 208.03 254.94 207.935C256.823 207.244 257.109 206.632 258.992 205.933L260.939 204.852C260.097 205.647 259.469 206.664 259.136 207.776C259.048 208.07 258.977 208.38 259.056 208.674C259.159 209.048 259.485 209.318 259.843 209.461C260.2 209.604 260.542 209.556 260.908 209.493H260.931C260.931 209.493 260.955 209.54 260.963 209.572C261.225 210.104 261.647 210.327 262.29 210.438L262.338 210.478C262.481 210.772 262.727 210.955 262.974 211.01C262.974 211.01 262.997 211.018 263.013 211.026C263.299 211.106 263.792 211.074 264.078 211.026C264.897 210.883 265.699 210.7 266.494 210.478C266.844 210.375 267.217 210.247 267.432 209.953C267.678 209.596 267.606 209.095 267.368 208.73C267.13 208.364 266.478 208.253 266.112 208.015C266.391 207.864 266.693 207.752 266.979 207.713C267.559 207.689 269.291 207.689 271.77 207.665C276.403 207.832 278.406 207.832 287.178 208.189C294.958 208.507 302.761 207.109 307.354 205.71C311.804 204.351 301.522 190.35 301.522 190.35" stroke="white" stroke-width="0.794643" stroke-miterlimit="10"/>
<path vector-effect="non-scaling-stroke" d="M262.307 210.438C261.663 210.327 261.242 210.113 260.98 209.572C260.781 209.175 260.773 208.706 260.861 208.277C260.98 207.665 261.274 207.109 261.639 206.608C262.005 206.108 262.442 205.671 262.879 205.226C262.855 205.234 262.839 205.249 262.816 205.257" fill="#202020"/>
<path vector-effect="non-scaling-stroke" d="M262.41 210.049C262.061 209.986 261.687 209.898 261.457 209.604C261.139 209.199 261.163 208.635 261.282 208.166C261.568 207.085 262.394 206.275 263.157 205.504C263.483 205.178 263.07 204.669 262.672 204.876L262.609 204.908C262.156 205.154 262.561 205.838 263.006 205.591L263.07 205.559L262.585 204.932C261.647 205.869 260.646 206.918 260.44 208.285C260.344 208.921 260.432 209.564 260.837 210.081C261.171 210.51 261.671 210.709 262.196 210.804C262.72 210.899 262.911 210.129 262.41 210.041V210.049Z" fill="white"/>
<path vector-effect="non-scaling-stroke" d="M260.917 209.494C260.552 209.549 260.202 209.597 259.844 209.454C259.487 209.311 259.161 209.041 259.066 208.675C258.986 208.381 259.05 208.063 259.137 207.777C259.471 206.665 260.107 205.648 260.949 204.853" fill="#202020"/>
<path vector-effect="non-scaling-stroke" d="M260.806 209.112C260.361 209.176 259.876 209.176 259.566 208.794C259.256 208.413 259.502 207.872 259.653 207.483C259.987 206.585 260.535 205.782 261.227 205.131C261.6 204.781 261.036 204.217 260.663 204.567C259.765 205.425 259.081 206.514 258.74 207.705C258.557 208.341 258.597 209.017 259.121 209.478C259.645 209.938 260.321 209.986 261.012 209.875C261.227 209.843 261.338 209.573 261.29 209.382C261.227 209.152 261.012 209.072 260.798 209.104L260.806 209.112Z" fill="white"/>
<path vector-effect="non-scaling-stroke" d="M266.996 207.713C266.296 207.824 265.541 208.309 265.057 208.826C264.564 209.358 264.119 209.938 263.714 210.661C263.372 211.281 262.633 211.082 262.323 210.447C262.108 210.018 262.259 209.501 262.442 209.056C262.943 207.816 263.658 206.664 264.556 205.671" fill="#202020"/>
<path vector-effect="non-scaling-stroke" d="M266.996 207.713C266.296 207.824 265.541 208.309 265.057 208.826C264.564 209.358 264.119 209.938 263.714 210.661C263.372 211.281 262.633 211.082 262.323 210.447C262.108 210.018 262.259 209.501 262.442 209.056C262.943 207.816 263.658 206.664 264.556 205.671" stroke="white" stroke-width="0.794643" stroke-miterlimit="10"/>
<path vector-effect="non-scaling-stroke" d="M252.128 300.766H276.706" stroke="white" stroke-width="0.794643" stroke-miterlimit="10"/>
<path vector-effect="non-scaling-stroke" d="M274.418 162.425C274.418 162.425 276.142 160.955 277.247 162.179C278.653 163.737 276.73 165.54 275.872 165.66" fill="#202020"/>
<path vector-effect="non-scaling-stroke" d="M274.418 162.425C274.418 162.425 276.142 160.955 277.247 162.179C278.653 163.737 276.73 165.54 275.872 165.66" stroke="white" stroke-width="0.794643" stroke-miterlimit="10"/>
<path vector-effect="non-scaling-stroke" d="M262.879 166.971C262.879 166.971 264.357 167.805 265.891 165.66Z" fill="#202020"/>
<path vector-effect="non-scaling-stroke" d="M262.879 166.971C262.879 166.971 264.357 167.805 265.891 165.66" stroke="white" stroke-width="0.794643" stroke-miterlimit="10"/>
<path vector-effect="non-scaling-stroke" d="M217.338 115.406C217.275 116.113 217.307 116.837 217.434 117.536Z" fill="#404040"/>
<path vector-effect="non-scaling-stroke" d="M216.942 115.406C216.878 116.153 216.918 116.9 217.053 117.639C217.093 117.845 217.347 117.981 217.546 117.917C217.768 117.845 217.863 117.647 217.824 117.424C217.808 117.337 217.792 117.249 217.776 117.162C217.776 117.138 217.776 117.122 217.768 117.098C217.768 117.138 217.768 117.13 217.768 117.083C217.768 117.043 217.76 117.003 217.752 116.963C217.736 116.796 217.72 116.622 217.712 116.455C217.697 116.105 217.712 115.755 217.736 115.406C217.752 115.199 217.538 115.001 217.339 115.009C217.109 115.016 216.966 115.183 216.942 115.406Z" fill="white"/>
<path vector-effect="non-scaling-stroke" d="M232.955 136.608C232.955 128.232 225.851 121.509 217.34 122.145C210.379 122.662 204.697 128.192 204.014 135.138C203.569 139.699 205.23 143.879 208.146 146.811C210.927 149.616 212.58 152.31 212.58 156.267V157.705H224.301V156.299C224.301 152.421 225.787 149.695 228.56 146.994C231.262 144.363 232.939 140.684 232.939 136.608H232.955Z" fill="#020202" stroke="white" stroke-width="0.794643" stroke-miterlimit="10"/>
<path vector-effect="non-scaling-stroke" d="M212.62 159.231H224.301" stroke="white" stroke-width="0.794643" stroke-miterlimit="10"/>
<path vector-effect="non-scaling-stroke" d="M220.186 147.184L220.217 144.816L220.352 134.168L218.437 132.054L216.538 134.136L216.673 147.168" fill="#020202"/>
<path vector-effect="non-scaling-stroke" d="M220.186 147.184L220.217 144.816L220.352 134.168L218.437 132.054L216.538 134.136L216.673 147.168" stroke="white" stroke-width="0.794643" stroke-miterlimit="10"/>
<path vector-effect="non-scaling-stroke" d="M215.687 146.93H221.178C221.647 146.93 222.029 147.312 222.029 147.78V154.122H214.829V147.78C214.829 147.312 215.211 146.93 215.679 146.93H215.687Z" fill="#202020" stroke="white" stroke-width="0.794643" stroke-miterlimit="10"/>
<path vector-effect="non-scaling-stroke" d="M201.835 126.07C202.169 126.317 202.502 126.571 202.828 126.817Z" fill="#404040"/>
<path vector-effect="non-scaling-stroke" d="M201.637 126.412C201.97 126.658 202.304 126.912 202.63 127.159C202.709 127.214 202.845 127.222 202.94 127.198C203.035 127.175 203.131 127.103 203.178 127.016C203.226 126.92 203.25 126.809 203.218 126.706L203.178 126.61C203.147 126.547 203.099 126.507 203.035 126.467C202.702 126.221 202.368 125.967 202.042 125.72C201.963 125.665 201.827 125.657 201.732 125.681C201.637 125.704 201.541 125.776 201.494 125.863C201.446 125.959 201.422 126.07 201.454 126.173L201.494 126.269C201.525 126.332 201.573 126.372 201.637 126.412Z" fill="white"/>
<path vector-effect="non-scaling-stroke" d="M235.131 137.322C235.735 137.291 236.347 137.259 236.951 137.227Z" fill="#404040"/>
<path vector-effect="non-scaling-stroke" d="M235.131 137.72C235.735 137.688 236.347 137.656 236.951 137.624C237.157 137.617 237.356 137.45 237.348 137.227C237.34 137.021 237.173 136.822 236.951 136.83C236.347 136.862 235.735 136.893 235.131 136.925C234.924 136.933 234.726 137.1 234.734 137.322C234.742 137.529 234.908 137.728 235.131 137.72Z" fill="white"/>
<path vector-effect="non-scaling-stroke" d="M231.341 149.878C231.643 150.132 231.953 150.379 232.255 150.633Z" fill="#404040"/>
<path vector-effect="non-scaling-stroke" d="M231.055 150.156C231.357 150.41 231.667 150.657 231.969 150.911C232.056 150.982 232.135 151.03 232.247 151.03C232.342 151.03 232.461 150.99 232.525 150.911C232.588 150.831 232.644 150.736 232.644 150.633C232.644 150.537 232.604 150.418 232.525 150.355C232.223 150.1 231.913 149.854 231.611 149.6C231.524 149.528 231.444 149.48 231.333 149.48C231.238 149.48 231.118 149.52 231.055 149.6C230.991 149.679 230.936 149.774 230.936 149.878C230.936 149.973 230.975 150.092 231.055 150.156Z" fill="white"/>
<path vector-effect="non-scaling-stroke" d="M231.635 119.117C231.246 119.562 230.856 120.007 230.467 120.452Z" fill="#404040"/>
<path vector-effect="non-scaling-stroke" d="M231.349 118.839C230.959 119.284 230.57 119.729 230.181 120.174C230.109 120.254 230.062 120.349 230.062 120.452C230.062 120.548 230.101 120.667 230.181 120.73C230.332 120.865 230.594 120.897 230.745 120.73C231.134 120.285 231.524 119.84 231.913 119.395C231.985 119.316 232.032 119.221 232.032 119.117C232.032 119.022 231.993 118.903 231.913 118.839C231.762 118.704 231.5 118.672 231.349 118.839Z" fill="white"/>
<path vector-effect="non-scaling-stroke" d="M198.744 138.737C199.412 138.681 200.079 138.625 200.747 138.57Z" fill="#404040"/>
<path vector-effect="non-scaling-stroke" d="M198.744 139.134C199.412 139.079 200.079 139.023 200.747 138.967C200.953 138.951 201.152 138.8 201.144 138.57C201.136 138.371 200.969 138.157 200.747 138.173C200.079 138.228 199.412 138.284 198.744 138.34C198.538 138.355 198.339 138.506 198.347 138.737C198.355 138.936 198.522 139.15 198.744 139.134Z" fill="white"/>
<path vector-effect="non-scaling-stroke" d="M205.42 149.584C205.054 149.973 204.697 150.363 204.331 150.752Z" fill="#404040"/>
<path vector-effect="non-scaling-stroke" d="M205.141 149.306C204.776 149.695 204.418 150.084 204.053 150.474C203.91 150.625 203.894 150.887 204.053 151.038C204.204 151.181 204.466 151.197 204.617 151.038C204.982 150.649 205.34 150.259 205.706 149.87C205.849 149.719 205.865 149.457 205.706 149.306C205.555 149.163 205.292 149.147 205.141 149.306Z" fill="white"/>
<path vector-effect="non-scaling-stroke" d="M224.3 154.129V163.752C224.3 164.03 224.078 164.253 223.799 164.253H213.08C212.802 164.253 212.579 164.03 212.579 163.752V154.129H224.308H224.3Z" fill="#404040" stroke="white" stroke-width="0.794643" stroke-miterlimit="10"/>
<path vector-effect="non-scaling-stroke" d="M221.567 164.245C221.296 165.731 219.993 166.852 218.428 166.852C216.862 166.852 215.567 165.731 215.297 164.245H221.567Z" fill="#404040" stroke="white" stroke-width="0.794643" stroke-miterlimit="10"/>
<path vector-effect="non-scaling-stroke" d="M216.536 134.136L217.529 135.463L218.451 134.382L219.309 135.518L220.35 134.168" fill="#020202"/>
<path vector-effect="non-scaling-stroke" d="M216.536 134.136L217.529 135.463L218.451 134.382L219.309 135.518L220.35 134.168" stroke="white" stroke-width="0.794643" stroke-miterlimit="10"/>
<path vector-effect="non-scaling-stroke" d="M217.45 133.039H219.333" stroke="white" stroke-width="0.794643" stroke-miterlimit="10"/>
<path vector-effect="non-scaling-stroke" d="M217.53 135.463L217.737 144.689" stroke="white" stroke-width="0.794643" stroke-miterlimit="10"/>
<path vector-effect="non-scaling-stroke" d="M219.309 135.519L219.031 144.689" stroke="white" stroke-width="0.794643" stroke-miterlimit="10"/>
<path vector-effect="non-scaling-stroke" d="M216.647 144.689L220.215 144.816" stroke="white" stroke-width="0.794643" stroke-miterlimit="10"/>
</g>
</g>
<defs>
<clipPath id="clip0_77_6221">
<rect width="576" height="324" fill="white"/>
</clipPath>
<clipPath id="clip1_77_6221">
<rect width="468.657" height="324" fill="white" transform="translate(54)"/>
</clipPath>
</defs>
</svg>
