<svg width="576" height="324" viewBox="0 0 576 324" fill="none" xmlns="http://www.w3.org/2000/svg">
<g clip-path="url(#clip0_77_6936)">
<path vector-effect="non-scaling-stroke" d="M146.673 11.3885C146.673 13.5951 145.454 15.3869 143.944 15.3869C142.434 15.3869 141.215 13.5951 141.215 11.3885C141.215 9.18193 142.434 7.39014 143.944 7.39014C145.454 7.39014 146.673 9.18193 146.673 11.3885Z" fill="#020202" stroke="white" stroke-width="0.829535" stroke-miterlimit="10"/>
<path vector-effect="non-scaling-stroke" d="M150.082 7.39014V15.3869Z" fill="#020202"/>
<path vector-effect="non-scaling-stroke" d="M150.082 7.39014V15.3869" stroke="white" stroke-width="0.829535" stroke-miterlimit="10"/>
<path vector-effect="non-scaling-stroke" d="M146.673 22.0472C146.673 24.2538 145.454 26.0456 143.944 26.0456C142.434 26.0456 141.215 24.2538 141.215 22.0472C141.215 19.8406 142.434 18.0488 143.944 18.0488C145.454 18.0488 146.673 19.8406 146.673 22.0472Z" fill="#020202" stroke="white" stroke-width="0.829535" stroke-miterlimit="10"/>
<path vector-effect="non-scaling-stroke" d="M150.082 18.0488V26.0456Z" fill="#020202"/>
<path vector-effect="non-scaling-stroke" d="M150.082 18.0488V26.0456" stroke="white" stroke-width="0.829535" stroke-miterlimit="10"/>
<path vector-effect="non-scaling-stroke" d="M146.673 34.0521C146.673 36.2586 145.454 38.0504 143.944 38.0504C142.434 38.0504 141.215 36.2586 141.215 34.0521C141.215 31.8455 142.434 30.0537 143.944 30.0537C145.454 30.0537 146.673 31.8455 146.673 34.0521Z" fill="#020202" stroke="white" stroke-width="0.829535" stroke-miterlimit="10"/>
<path vector-effect="non-scaling-stroke" d="M150.082 30.0537V38.0504Z" fill="#020202"/>
<path vector-effect="non-scaling-stroke" d="M150.082 30.0537V38.0504" stroke="white" stroke-width="0.829535" stroke-miterlimit="10"/>
<path vector-effect="non-scaling-stroke" d="M146.673 44.7186C146.673 46.9251 145.454 48.7169 143.944 48.7169C142.434 48.7169 141.215 46.9251 141.215 44.7186C141.215 42.512 142.434 40.7202 143.944 40.7202C145.454 40.7202 146.673 42.512 146.673 44.7186Z" fill="#020202" stroke="white" stroke-width="0.829535" stroke-miterlimit="10"/>
<path vector-effect="non-scaling-stroke" d="M150.082 40.7202V48.7169Z" fill="#020202"/>
<path vector-effect="non-scaling-stroke" d="M150.082 40.7202V48.7169" stroke="white" stroke-width="0.829535" stroke-miterlimit="10"/>
<path vector-effect="non-scaling-stroke" d="M154.18 7.39014V15.3869Z" fill="#020202"/>
<path vector-effect="non-scaling-stroke" d="M154.18 7.39014V15.3869" stroke="white" stroke-width="0.829535" stroke-miterlimit="10"/>
<path vector-effect="non-scaling-stroke" d="M163.058 11.3885C163.058 13.5951 161.839 15.3869 160.329 15.3869C158.819 15.3869 157.6 13.5951 157.6 11.3885C157.6 9.18193 158.819 7.39014 160.329 7.39014C161.839 7.39014 163.058 9.18193 163.058 11.3885Z" fill="#020202" stroke="white" stroke-width="0.829535" stroke-miterlimit="10"/>
<path vector-effect="non-scaling-stroke" d="M166.477 7.39014V15.3869Z" fill="#020202"/>
<path vector-effect="non-scaling-stroke" d="M166.477 7.39014V15.3869" stroke="white" stroke-width="0.829535" stroke-miterlimit="10"/>
<path vector-effect="non-scaling-stroke" d="M175.355 11.3885C175.355 13.5951 174.135 15.3869 172.626 15.3869C171.116 15.3869 169.896 13.5951 169.896 11.3885C169.896 9.18193 171.116 7.39014 172.626 7.39014C174.135 7.39014 175.355 9.18193 175.355 11.3885Z" fill="#020202" stroke="white" stroke-width="0.829535" stroke-miterlimit="10"/>
<path vector-effect="non-scaling-stroke" d="M178.758 7.39014V15.3869Z" fill="#020202"/>
<path vector-effect="non-scaling-stroke" d="M178.758 7.39014V15.3869" stroke="white" stroke-width="0.829535" stroke-miterlimit="10"/>
<path vector-effect="non-scaling-stroke" d="M182.859 7.39014V15.3869Z" fill="#020202"/>
<path vector-effect="non-scaling-stroke" d="M182.859 7.39014V15.3869" stroke="white" stroke-width="0.829535" stroke-miterlimit="10"/>
<path vector-effect="non-scaling-stroke" d="M158.962 22.0472C158.962 24.2538 157.743 26.0456 156.233 26.0456C154.723 26.0456 153.504 24.2538 153.504 22.0472C153.504 19.8406 154.723 18.0488 156.233 18.0488C157.743 18.0488 158.962 19.8406 158.962 22.0472Z" fill="#020202" stroke="white" stroke-width="0.829535" stroke-miterlimit="10"/>
<path vector-effect="non-scaling-stroke" d="M162.379 18.0488V26.0456Z" fill="#020202"/>
<path vector-effect="non-scaling-stroke" d="M162.379 18.0488V26.0456" stroke="white" stroke-width="0.829535" stroke-miterlimit="10"/>
<path vector-effect="non-scaling-stroke" d="M171.253 22.0472C171.253 24.2538 170.034 26.0456 168.524 26.0456C167.014 26.0456 165.795 24.2538 165.795 22.0472C165.795 19.8406 167.014 18.0488 168.524 18.0488C170.034 18.0488 171.253 19.8406 171.253 22.0472Z" fill="#020202" stroke="white" stroke-width="0.829535" stroke-miterlimit="10"/>
<path vector-effect="non-scaling-stroke" d="M174.662 18.0488V26.0456Z" fill="#020202"/>
<path vector-effect="non-scaling-stroke" d="M174.662 18.0488V26.0456" stroke="white" stroke-width="0.829535" stroke-miterlimit="10"/>
<path vector-effect="non-scaling-stroke" d="M183.54 22.0472C183.54 24.2538 182.321 26.0456 180.811 26.0456C179.301 26.0456 178.082 24.2538 178.082 22.0472C178.082 19.8406 179.301 18.0488 180.811 18.0488C182.321 18.0488 183.54 19.8406 183.54 22.0472Z" fill="#020202" stroke="white" stroke-width="0.829535" stroke-miterlimit="10"/>
<path vector-effect="non-scaling-stroke" d="M154.18 30.0537V38.0504Z" fill="#020202"/>
<path vector-effect="non-scaling-stroke" d="M154.18 30.0537V38.0504" stroke="white" stroke-width="0.829535" stroke-miterlimit="10"/>
<path vector-effect="non-scaling-stroke" d="M163.058 34.0521C163.058 36.2586 161.839 38.0504 160.329 38.0504C158.819 38.0504 157.6 36.2586 157.6 34.0521C157.6 31.8455 158.819 30.0537 160.329 30.0537C161.839 30.0537 163.058 31.8455 163.058 34.0521Z" fill="#020202" stroke="white" stroke-width="0.829535" stroke-miterlimit="10"/>
<path vector-effect="non-scaling-stroke" d="M166.477 30.0537V38.0504Z" fill="#020202"/>
<path vector-effect="non-scaling-stroke" d="M166.477 30.0537V38.0504" stroke="white" stroke-width="0.829535" stroke-miterlimit="10"/>
<path vector-effect="non-scaling-stroke" d="M175.355 34.0521C175.355 36.2586 174.135 38.0504 172.626 38.0504C171.116 38.0504 169.896 36.2586 169.896 34.0521C169.896 31.8455 171.116 30.0537 172.626 30.0537C174.135 30.0537 175.355 31.8455 175.355 34.0521Z" fill="#020202" stroke="white" stroke-width="0.829535" stroke-miterlimit="10"/>
<path vector-effect="non-scaling-stroke" d="M178.758 30.0537V38.0504Z" fill="#020202"/>
<path vector-effect="non-scaling-stroke" d="M178.758 30.0537V38.0504" stroke="white" stroke-width="0.829535" stroke-miterlimit="10"/>
<path vector-effect="non-scaling-stroke" d="M182.859 30.0537V38.0504Z" fill="#020202"/>
<path vector-effect="non-scaling-stroke" d="M182.859 30.0537V38.0504" stroke="white" stroke-width="0.829535" stroke-miterlimit="10"/>
<path vector-effect="non-scaling-stroke" d="M158.962 44.7186C158.962 46.9251 157.743 48.7169 156.233 48.7169C154.723 48.7169 153.504 46.9251 153.504 44.7186C153.504 42.512 154.723 40.7202 156.233 40.7202C157.743 40.7202 158.962 42.512 158.962 44.7186Z" fill="#020202" stroke="white" stroke-width="0.829535" stroke-miterlimit="10"/>
<path vector-effect="non-scaling-stroke" d="M162.379 40.7202V48.7169Z" fill="#020202"/>
<path vector-effect="non-scaling-stroke" d="M162.379 40.7202V48.7169" stroke="white" stroke-width="0.829535" stroke-miterlimit="10"/>
<path vector-effect="non-scaling-stroke" d="M174.662 40.7202V48.7169Z" fill="#020202"/>
<path vector-effect="non-scaling-stroke" d="M174.662 40.7202V48.7169" stroke="white" stroke-width="0.829535" stroke-miterlimit="10"/>
<path vector-effect="non-scaling-stroke" d="M183.54 44.7186C183.54 46.9251 182.321 48.7169 180.811 48.7169C179.301 48.7169 178.082 46.9251 178.082 44.7186C178.082 42.512 179.301 40.7202 180.811 40.7202C182.321 40.7202 183.54 42.512 183.54 44.7186Z" fill="#020202" stroke="white" stroke-width="0.829535" stroke-miterlimit="10"/>
<path vector-effect="non-scaling-stroke" d="M170.564 40.7202V48.7169Z" fill="#020202"/>
<path vector-effect="non-scaling-stroke" d="M170.564 40.7202V48.7169" stroke="white" stroke-width="0.829535" stroke-miterlimit="10"/>
<path vector-effect="non-scaling-stroke" d="M166.477 40.7202V48.7169Z" fill="#020202"/>
<path vector-effect="non-scaling-stroke" d="M166.477 40.7202V48.7169" stroke="white" stroke-width="0.829535" stroke-miterlimit="10"/>
<path vector-effect="non-scaling-stroke" d="M191.972 11.3885C191.972 13.5951 190.753 15.3869 189.243 15.3869C187.733 15.3869 186.514 13.5951 186.514 11.3885C186.514 9.18193 187.733 7.39014 189.243 7.39014C190.753 7.39014 191.972 9.18193 191.972 11.3885Z" fill="#020202" stroke="white" stroke-width="0.829535" stroke-miterlimit="10"/>
<path vector-effect="non-scaling-stroke" d="M195.391 7.39014V15.3869Z" fill="#020202"/>
<path vector-effect="non-scaling-stroke" d="M195.391 7.39014V15.3869" stroke="white" stroke-width="0.829535" stroke-miterlimit="10"/>
<path vector-effect="non-scaling-stroke" d="M191.972 22.0472C191.972 24.2538 190.753 26.0456 189.243 26.0456C187.733 26.0456 186.514 24.2538 186.514 22.0472C186.514 19.8406 187.733 18.0488 189.243 18.0488C190.753 18.0488 191.972 19.8406 191.972 22.0472Z" fill="#020202" stroke="white" stroke-width="0.829535" stroke-miterlimit="10"/>
<path vector-effect="non-scaling-stroke" d="M195.391 18.0488V26.0456Z" fill="#020202"/>
<path vector-effect="non-scaling-stroke" d="M195.391 18.0488V26.0456" stroke="white" stroke-width="0.829535" stroke-miterlimit="10"/>
<path vector-effect="non-scaling-stroke" d="M191.972 34.0521C191.972 36.2586 190.753 38.0504 189.243 38.0504C187.733 38.0504 186.514 36.2586 186.514 34.0521C186.514 31.8455 187.733 30.0537 189.243 30.0537C190.753 30.0537 191.972 31.8455 191.972 34.0521Z" fill="#020202" stroke="white" stroke-width="0.829535" stroke-miterlimit="10"/>
<path vector-effect="non-scaling-stroke" d="M195.391 30.0537V38.0504Z" fill="#020202"/>
<path vector-effect="non-scaling-stroke" d="M195.391 30.0537V38.0504" stroke="white" stroke-width="0.829535" stroke-miterlimit="10"/>
<path vector-effect="non-scaling-stroke" d="M191.972 44.7186C191.972 46.9251 190.753 48.7169 189.243 48.7169C187.733 48.7169 186.514 46.9251 186.514 44.7186C186.514 42.512 187.733 40.7202 189.243 40.7202C190.753 40.7202 191.972 42.512 191.972 44.7186Z" fill="#020202" stroke="white" stroke-width="0.829535" stroke-miterlimit="10"/>
<path vector-effect="non-scaling-stroke" d="M195.391 40.7202V48.7169Z" fill="#020202"/>
<path vector-effect="non-scaling-stroke" d="M195.391 40.7202V48.7169" stroke="white" stroke-width="0.829535" stroke-miterlimit="10"/>
<path vector-effect="non-scaling-stroke" d="M199.479 7.39014V15.3869Z" fill="#020202"/>
<path vector-effect="non-scaling-stroke" d="M199.479 7.39014V15.3869" stroke="white" stroke-width="0.829535" stroke-miterlimit="10"/>
<path vector-effect="non-scaling-stroke" d="M208.367 11.3885C208.367 13.5951 207.147 15.3869 205.637 15.3869C204.128 15.3869 202.908 13.5951 202.908 11.3885C202.908 9.18193 204.128 7.39014 205.637 7.39014C207.147 7.39014 208.367 9.18193 208.367 11.3885Z" fill="#020202" stroke="white" stroke-width="0.829535" stroke-miterlimit="10"/>
<path vector-effect="non-scaling-stroke" d="M211.773 7.39014V15.3869Z" fill="#020202"/>
<path vector-effect="non-scaling-stroke" d="M211.773 7.39014V15.3869" stroke="white" stroke-width="0.829535" stroke-miterlimit="10"/>
<path vector-effect="non-scaling-stroke" d="M220.65 11.3885C220.65 13.5951 219.43 15.3869 217.921 15.3869C216.411 15.3869 215.191 13.5951 215.191 11.3885C215.191 9.18193 216.411 7.39014 217.921 7.39014C219.43 7.39014 220.65 9.18193 220.65 11.3885Z" fill="#020202" stroke="white" stroke-width="0.829535" stroke-miterlimit="10"/>
<path vector-effect="non-scaling-stroke" d="M224.066 7.39014V15.3869Z" fill="#020202"/>
<path vector-effect="non-scaling-stroke" d="M224.066 7.39014V15.3869" stroke="white" stroke-width="0.829535" stroke-miterlimit="10"/>
<path vector-effect="non-scaling-stroke" d="M228.166 7.39014V15.3869Z" fill="#020202"/>
<path vector-effect="non-scaling-stroke" d="M228.166 7.39014V15.3869" stroke="white" stroke-width="0.829535" stroke-miterlimit="10"/>
<path vector-effect="non-scaling-stroke" d="M204.267 22.0472C204.267 24.2538 203.048 26.0456 201.538 26.0456C200.028 26.0456 198.809 24.2538 198.809 22.0472C198.809 19.8406 200.028 18.0488 201.538 18.0488C203.048 18.0488 204.267 19.8406 204.267 22.0472Z" fill="#020202" stroke="white" stroke-width="0.829535" stroke-miterlimit="10"/>
<path vector-effect="non-scaling-stroke" d="M207.676 18.0488V26.0456Z" fill="#020202"/>
<path vector-effect="non-scaling-stroke" d="M207.676 18.0488V26.0456" stroke="white" stroke-width="0.829535" stroke-miterlimit="10"/>
<path vector-effect="non-scaling-stroke" d="M216.552 22.0472C216.552 24.2538 215.333 26.0456 213.823 26.0456C212.313 26.0456 211.094 24.2538 211.094 22.0472C211.094 19.8406 212.313 18.0488 213.823 18.0488C215.333 18.0488 216.552 19.8406 216.552 22.0472Z" fill="#020202" stroke="white" stroke-width="0.829535" stroke-miterlimit="10"/>
<path vector-effect="non-scaling-stroke" d="M219.973 18.0488V26.0456Z" fill="#020202"/>
<path vector-effect="non-scaling-stroke" d="M219.973 18.0488V26.0456" stroke="white" stroke-width="0.829535" stroke-miterlimit="10"/>
<path vector-effect="non-scaling-stroke" d="M228.847 22.0472C228.847 24.2538 227.628 26.0456 226.118 26.0456C224.608 26.0456 223.389 24.2538 223.389 22.0472C223.389 19.8406 224.608 18.0488 226.118 18.0488C227.628 18.0488 228.847 19.8406 228.847 22.0472Z" fill="#020202" stroke="white" stroke-width="0.829535" stroke-miterlimit="10"/>
<path vector-effect="non-scaling-stroke" d="M199.479 30.0537V38.0504Z" fill="#020202"/>
<path vector-effect="non-scaling-stroke" d="M199.479 30.0537V38.0504" stroke="white" stroke-width="0.829535" stroke-miterlimit="10"/>
<path vector-effect="non-scaling-stroke" d="M208.367 34.0521C208.367 36.2586 207.147 38.0504 205.637 38.0504C204.128 38.0504 202.908 36.2586 202.908 34.0521C202.908 31.8455 204.128 30.0537 205.637 30.0537C207.147 30.0537 208.367 31.8455 208.367 34.0521Z" fill="#020202" stroke="white" stroke-width="0.829535" stroke-miterlimit="10"/>
<path vector-effect="non-scaling-stroke" d="M211.773 30.0537V38.0504Z" fill="#020202"/>
<path vector-effect="non-scaling-stroke" d="M211.773 30.0537V38.0504" stroke="white" stroke-width="0.829535" stroke-miterlimit="10"/>
<path vector-effect="non-scaling-stroke" d="M220.65 34.0521C220.65 36.2586 219.43 38.0504 217.921 38.0504C216.411 38.0504 215.191 36.2586 215.191 34.0521C215.191 31.8455 216.411 30.0537 217.921 30.0537C219.43 30.0537 220.65 31.8455 220.65 34.0521Z" fill="#020202" stroke="white" stroke-width="0.829535" stroke-miterlimit="10"/>
<path vector-effect="non-scaling-stroke" d="M224.066 30.0537V38.0504Z" fill="#020202"/>
<path vector-effect="non-scaling-stroke" d="M224.066 30.0537V38.0504" stroke="white" stroke-width="0.829535" stroke-miterlimit="10"/>
<path vector-effect="non-scaling-stroke" d="M228.166 30.0537V38.0504Z" fill="#020202"/>
<path vector-effect="non-scaling-stroke" d="M228.166 30.0537V38.0504" stroke="white" stroke-width="0.829535" stroke-miterlimit="10"/>
<path vector-effect="non-scaling-stroke" d="M204.267 44.7186C204.267 46.9251 203.048 48.7169 201.538 48.7169C200.028 48.7169 198.809 46.9251 198.809 44.7186C198.809 42.512 200.028 40.7202 201.538 40.7202C203.048 40.7202 204.267 42.512 204.267 44.7186Z" fill="#020202" stroke="white" stroke-width="0.829535" stroke-miterlimit="10"/>
<path vector-effect="non-scaling-stroke" d="M207.676 40.7202V48.7169Z" fill="#020202"/>
<path vector-effect="non-scaling-stroke" d="M207.676 40.7202V48.7169" stroke="white" stroke-width="0.829535" stroke-miterlimit="10"/>
<path vector-effect="non-scaling-stroke" d="M219.973 40.7202V48.7169Z" fill="#020202"/>
<path vector-effect="non-scaling-stroke" d="M219.973 40.7202V48.7169" stroke="white" stroke-width="0.829535" stroke-miterlimit="10"/>
<path vector-effect="non-scaling-stroke" d="M228.847 44.7186C228.847 46.9251 227.628 48.7169 226.118 48.7169C224.608 48.7169 223.389 46.9251 223.389 44.7186C223.389 42.512 224.608 40.7202 226.118 40.7202C227.628 40.7202 228.847 42.512 228.847 44.7186Z" fill="#020202" stroke="white" stroke-width="0.829535" stroke-miterlimit="10"/>
<path vector-effect="non-scaling-stroke" d="M215.873 40.7202V48.7169Z" fill="#020202"/>
<path vector-effect="non-scaling-stroke" d="M215.873 40.7202V48.7169" stroke="white" stroke-width="0.829535" stroke-miterlimit="10"/>
<path vector-effect="non-scaling-stroke" d="M211.773 40.7202V48.7169Z" fill="#020202"/>
<path vector-effect="non-scaling-stroke" d="M211.773 40.7202V48.7169" stroke="white" stroke-width="0.829535" stroke-miterlimit="10"/>
<path vector-effect="non-scaling-stroke" d="M175.458 273.19C175.458 275.396 174.239 277.188 172.729 277.188C171.219 277.188 170 275.396 170 273.19C170 270.983 171.219 269.191 172.729 269.191C174.239 269.191 175.458 270.983 175.458 273.19Z" fill="#020202" stroke="white" stroke-width="0.829535" stroke-miterlimit="10"/>
<path vector-effect="non-scaling-stroke" d="M178.877 269.191V277.188Z" fill="#020202"/>
<path vector-effect="non-scaling-stroke" d="M178.877 269.191V277.188" stroke="white" stroke-width="0.829535" stroke-miterlimit="10"/>
<path vector-effect="non-scaling-stroke" d="M175.458 283.858C175.458 286.065 174.239 287.857 172.729 287.857C171.219 287.857 170 286.065 170 283.858C170 281.652 171.219 279.86 172.729 279.86C174.239 279.86 175.458 281.652 175.458 283.858Z" fill="#020202" stroke="white" stroke-width="0.829535" stroke-miterlimit="10"/>
<path vector-effect="non-scaling-stroke" d="M178.877 279.86V287.857Z" fill="#020202"/>
<path vector-effect="non-scaling-stroke" d="M178.877 279.86V287.857" stroke="white" stroke-width="0.829535" stroke-miterlimit="10"/>
<path vector-effect="non-scaling-stroke" d="M175.458 295.853C175.458 298.059 174.239 299.851 172.729 299.851C171.219 299.851 170 298.059 170 295.853C170 293.646 171.219 291.854 172.729 291.854C174.239 291.854 175.458 293.646 175.458 295.853Z" fill="#020202" stroke="white" stroke-width="0.829535" stroke-miterlimit="10"/>
<path vector-effect="non-scaling-stroke" d="M178.877 291.854V299.851Z" fill="#020202"/>
<path vector-effect="non-scaling-stroke" d="M178.877 291.854V299.851" stroke="white" stroke-width="0.829535" stroke-miterlimit="10"/>
<path vector-effect="non-scaling-stroke" d="M175.458 306.52C175.458 308.727 174.239 310.519 172.729 310.519C171.219 310.519 170 308.727 170 306.52C170 304.314 171.219 302.522 172.729 302.522C174.239 302.522 175.458 304.314 175.458 306.52Z" fill="#020202" stroke="white" stroke-width="0.829535" stroke-miterlimit="10"/>
<path vector-effect="non-scaling-stroke" d="M178.877 302.522V310.519Z" fill="#020202"/>
<path vector-effect="non-scaling-stroke" d="M178.877 302.522V310.519" stroke="white" stroke-width="0.829535" stroke-miterlimit="10"/>
<path vector-effect="non-scaling-stroke" d="M182.973 269.191V277.188Z" fill="#020202"/>
<path vector-effect="non-scaling-stroke" d="M182.973 269.191V277.188" stroke="white" stroke-width="0.829535" stroke-miterlimit="10"/>
<path vector-effect="non-scaling-stroke" d="M191.853 273.19C191.853 275.396 190.633 277.188 189.124 277.188C187.614 277.188 186.395 275.396 186.395 273.19C186.395 270.983 187.614 269.191 189.124 269.191C190.633 269.191 191.853 270.983 191.853 273.19Z" fill="#020202" stroke="white" stroke-width="0.829535" stroke-miterlimit="10"/>
<path vector-effect="non-scaling-stroke" d="M195.26 269.191V277.188Z" fill="#020202"/>
<path vector-effect="non-scaling-stroke" d="M195.26 269.191V277.188" stroke="white" stroke-width="0.829535" stroke-miterlimit="10"/>
<path vector-effect="non-scaling-stroke" d="M204.136 273.19C204.136 275.396 202.917 277.188 201.407 277.188C199.897 277.188 198.678 275.396 198.678 273.19C198.678 270.983 199.897 269.191 201.407 269.191C202.917 269.191 204.136 270.983 204.136 273.19Z" fill="#020202" stroke="white" stroke-width="0.829535" stroke-miterlimit="10"/>
<path vector-effect="non-scaling-stroke" d="M207.553 269.191V277.188Z" fill="#020202"/>
<path vector-effect="non-scaling-stroke" d="M207.553 269.191V277.188" stroke="white" stroke-width="0.829535" stroke-miterlimit="10"/>
<path vector-effect="non-scaling-stroke" d="M211.652 269.191V277.188Z" fill="#020202"/>
<path vector-effect="non-scaling-stroke" d="M211.652 269.191V277.188" stroke="white" stroke-width="0.829535" stroke-miterlimit="10"/>
<path vector-effect="non-scaling-stroke" d="M187.751 283.858C187.751 286.065 186.532 287.857 185.022 287.857C183.512 287.857 182.293 286.065 182.293 283.858C182.293 281.652 183.512 279.86 185.022 279.86C186.532 279.86 187.751 281.652 187.751 283.858Z" fill="#020202" stroke="white" stroke-width="0.829535" stroke-miterlimit="10"/>
<path vector-effect="non-scaling-stroke" d="M191.162 279.86V287.857Z" fill="#020202"/>
<path vector-effect="non-scaling-stroke" d="M191.162 279.86V287.857" stroke="white" stroke-width="0.829535" stroke-miterlimit="10"/>
<path vector-effect="non-scaling-stroke" d="M200.036 283.858C200.036 286.065 198.817 287.857 197.307 287.857C195.798 287.857 194.578 286.065 194.578 283.858C194.578 281.652 195.798 279.86 197.307 279.86C198.817 279.86 200.036 281.652 200.036 283.858Z" fill="#020202" stroke="white" stroke-width="0.829535" stroke-miterlimit="10"/>
<path vector-effect="non-scaling-stroke" d="M203.459 279.86V287.857Z" fill="#020202"/>
<path vector-effect="non-scaling-stroke" d="M203.459 279.86V287.857" stroke="white" stroke-width="0.829535" stroke-miterlimit="10"/>
<path vector-effect="non-scaling-stroke" d="M212.333 283.858C212.333 286.065 211.114 287.857 209.604 287.857C208.094 287.857 206.875 286.065 206.875 283.858C206.875 281.652 208.094 279.86 209.604 279.86C211.114 279.86 212.333 281.652 212.333 283.858Z" fill="#020202" stroke="white" stroke-width="0.829535" stroke-miterlimit="10"/>
<path vector-effect="non-scaling-stroke" d="M182.973 291.854V299.851Z" fill="#020202"/>
<path vector-effect="non-scaling-stroke" d="M182.973 291.854V299.851" stroke="white" stroke-width="0.829535" stroke-miterlimit="10"/>
<path vector-effect="non-scaling-stroke" d="M191.853 295.853C191.853 298.059 190.633 299.851 189.124 299.851C187.614 299.851 186.395 298.059 186.395 295.853C186.395 293.646 187.614 291.854 189.124 291.854C190.633 291.854 191.853 293.646 191.853 295.853Z" fill="#020202" stroke="white" stroke-width="0.829535" stroke-miterlimit="10"/>
<path vector-effect="non-scaling-stroke" d="M195.26 291.854V299.851Z" fill="#020202"/>
<path vector-effect="non-scaling-stroke" d="M195.26 291.854V299.851" stroke="white" stroke-width="0.829535" stroke-miterlimit="10"/>
<path vector-effect="non-scaling-stroke" d="M204.136 295.853C204.136 298.059 202.917 299.851 201.407 299.851C199.897 299.851 198.678 298.059 198.678 295.853C198.678 293.646 199.897 291.854 201.407 291.854C202.917 291.854 204.136 293.646 204.136 295.853Z" fill="#020202" stroke="white" stroke-width="0.829535" stroke-miterlimit="10"/>
<path vector-effect="non-scaling-stroke" d="M207.553 291.854V299.851Z" fill="#020202"/>
<path vector-effect="non-scaling-stroke" d="M207.553 291.854V299.851" stroke="white" stroke-width="0.829535" stroke-miterlimit="10"/>
<path vector-effect="non-scaling-stroke" d="M211.652 291.854V299.851Z" fill="#020202"/>
<path vector-effect="non-scaling-stroke" d="M211.652 291.854V299.851" stroke="white" stroke-width="0.829535" stroke-miterlimit="10"/>
<path vector-effect="non-scaling-stroke" d="M187.751 306.52C187.751 308.727 186.532 310.519 185.022 310.519C183.512 310.519 182.293 308.727 182.293 306.52C182.293 304.314 183.512 302.522 185.022 302.522C186.532 302.522 187.751 304.314 187.751 306.52Z" fill="#020202" stroke="white" stroke-width="0.829535" stroke-miterlimit="10"/>
<path vector-effect="non-scaling-stroke" d="M191.162 302.522V310.519Z" fill="#020202"/>
<path vector-effect="non-scaling-stroke" d="M191.162 302.522V310.519" stroke="white" stroke-width="0.829535" stroke-miterlimit="10"/>
<path vector-effect="non-scaling-stroke" d="M203.459 302.522V310.519Z" fill="#020202"/>
<path vector-effect="non-scaling-stroke" d="M203.459 302.522V310.519" stroke="white" stroke-width="0.829535" stroke-miterlimit="10"/>
<path vector-effect="non-scaling-stroke" d="M212.333 306.52C212.333 308.727 211.114 310.519 209.604 310.519C208.094 310.519 206.875 308.727 206.875 306.52C206.875 304.314 208.094 302.522 209.604 302.522C211.114 302.522 212.333 304.314 212.333 306.52Z" fill="#020202" stroke="white" stroke-width="0.829535" stroke-miterlimit="10"/>
<path vector-effect="non-scaling-stroke" d="M199.359 302.522V310.519Z" fill="#020202"/>
<path vector-effect="non-scaling-stroke" d="M199.359 302.522V310.519" stroke="white" stroke-width="0.829535" stroke-miterlimit="10"/>
<path vector-effect="non-scaling-stroke" d="M195.26 302.522V310.519Z" fill="#020202"/>
<path vector-effect="non-scaling-stroke" d="M195.26 302.522V310.519" stroke="white" stroke-width="0.829535" stroke-miterlimit="10"/>
<path vector-effect="non-scaling-stroke" d="M220.767 273.19C220.767 275.396 219.548 277.188 218.038 277.188C216.528 277.188 215.309 275.396 215.309 273.19C215.309 270.983 216.528 269.191 218.038 269.191C219.548 269.191 220.767 270.983 220.767 273.19Z" fill="#020202" stroke="white" stroke-width="0.829535" stroke-miterlimit="10"/>
<path vector-effect="non-scaling-stroke" d="M224.18 269.191V277.188Z" fill="#020202"/>
<path vector-effect="non-scaling-stroke" d="M224.18 269.191V277.188" stroke="white" stroke-width="0.829535" stroke-miterlimit="10"/>
<path vector-effect="non-scaling-stroke" d="M220.767 283.858C220.767 286.065 219.548 287.857 218.038 287.857C216.528 287.857 215.309 286.065 215.309 283.858C215.309 281.652 216.528 279.86 218.038 279.86C219.548 279.86 220.767 281.652 220.767 283.858Z" fill="#020202" stroke="white" stroke-width="0.829535" stroke-miterlimit="10"/>
<path vector-effect="non-scaling-stroke" d="M224.18 279.86V287.857Z" fill="#020202"/>
<path vector-effect="non-scaling-stroke" d="M224.18 279.86V287.857" stroke="white" stroke-width="0.829535" stroke-miterlimit="10"/>
<path vector-effect="non-scaling-stroke" d="M220.767 295.853C220.767 298.06 219.548 299.852 218.038 299.852C216.528 299.852 215.309 298.06 215.309 295.853C215.309 293.647 216.528 291.855 218.038 291.855C219.548 291.855 220.767 293.647 220.767 295.853Z" fill="#020202" stroke="white" stroke-width="0.829535" stroke-miterlimit="10"/>
<path vector-effect="non-scaling-stroke" d="M224.18 291.855V299.852Z" fill="#020202"/>
<path vector-effect="non-scaling-stroke" d="M224.18 291.855V299.852" stroke="white" stroke-width="0.829535" stroke-miterlimit="10"/>
<path vector-effect="non-scaling-stroke" d="M220.767 306.52C220.767 308.727 219.548 310.519 218.038 310.519C216.528 310.519 215.309 308.727 215.309 306.52C215.309 304.314 216.528 302.522 218.038 302.522C219.548 302.522 220.767 304.314 220.767 306.52Z" fill="#020202" stroke="white" stroke-width="0.829535" stroke-miterlimit="10"/>
<path vector-effect="non-scaling-stroke" d="M224.18 302.522V310.519Z" fill="#020202"/>
<path vector-effect="non-scaling-stroke" d="M224.18 302.522V310.519" stroke="white" stroke-width="0.829535" stroke-miterlimit="10"/>
<path vector-effect="non-scaling-stroke" d="M228.271 269.191V277.188Z" fill="#020202"/>
<path vector-effect="non-scaling-stroke" d="M228.271 269.191V277.188" stroke="white" stroke-width="0.829535" stroke-miterlimit="10"/>
<path vector-effect="non-scaling-stroke" d="M237.152 273.19C237.152 275.396 235.932 277.188 234.423 277.188C232.913 277.188 231.693 275.396 231.693 273.19C231.693 270.983 232.913 269.191 234.423 269.191C235.932 269.191 237.152 270.983 237.152 273.19Z" fill="#020202" stroke="white" stroke-width="0.829535" stroke-miterlimit="10"/>
<path vector-effect="non-scaling-stroke" d="M240.568 269.191V277.188Z" fill="#020202"/>
<path vector-effect="non-scaling-stroke" d="M240.568 269.191V277.188" stroke="white" stroke-width="0.829535" stroke-miterlimit="10"/>
<path vector-effect="non-scaling-stroke" d="M249.447 273.19C249.447 275.396 248.227 277.188 246.717 277.188C245.208 277.188 243.988 275.396 243.988 273.19C243.988 270.983 245.208 269.191 246.717 269.191C248.227 269.191 249.447 270.983 249.447 273.19Z" fill="#020202" stroke="white" stroke-width="0.829535" stroke-miterlimit="10"/>
<path vector-effect="non-scaling-stroke" d="M252.852 269.191V277.188Z" fill="#020202"/>
<path vector-effect="non-scaling-stroke" d="M252.852 269.191V277.188" stroke="white" stroke-width="0.829535" stroke-miterlimit="10"/>
<path vector-effect="non-scaling-stroke" d="M256.953 269.191V277.188Z" fill="#020202"/>
<path vector-effect="non-scaling-stroke" d="M256.953 269.191V277.188" stroke="white" stroke-width="0.829535" stroke-miterlimit="10"/>
<path vector-effect="non-scaling-stroke" d="M233.052 283.858C233.052 286.065 231.833 287.857 230.323 287.857C228.813 287.857 227.594 286.065 227.594 283.858C227.594 281.652 228.813 279.86 230.323 279.86C231.833 279.86 233.052 281.652 233.052 283.858Z" fill="#020202" stroke="white" stroke-width="0.829535" stroke-miterlimit="10"/>
<path vector-effect="non-scaling-stroke" d="M236.471 279.86V287.857Z" fill="#020202"/>
<path vector-effect="non-scaling-stroke" d="M236.471 279.86V287.857" stroke="white" stroke-width="0.829535" stroke-miterlimit="10"/>
<path vector-effect="non-scaling-stroke" d="M245.345 283.858C245.345 286.065 244.126 287.857 242.616 287.857C241.106 287.857 239.887 286.065 239.887 283.858C239.887 281.652 241.106 279.86 242.616 279.86C244.126 279.86 245.345 281.652 245.345 283.858Z" fill="#020202" stroke="white" stroke-width="0.829535" stroke-miterlimit="10"/>
<path vector-effect="non-scaling-stroke" d="M248.758 279.86V287.857Z" fill="#020202"/>
<path vector-effect="non-scaling-stroke" d="M248.758 279.86V287.857" stroke="white" stroke-width="0.829535" stroke-miterlimit="10"/>
<path vector-effect="non-scaling-stroke" d="M257.634 283.858C257.634 286.065 256.415 287.857 254.905 287.857C253.395 287.857 252.176 286.065 252.176 283.858C252.176 281.652 253.395 279.86 254.905 279.86C256.415 279.86 257.634 281.652 257.634 283.858Z" fill="#020202" stroke="white" stroke-width="0.829535" stroke-miterlimit="10"/>
<path vector-effect="non-scaling-stroke" d="M228.271 291.855V299.852Z" fill="#020202"/>
<path vector-effect="non-scaling-stroke" d="M228.271 291.855V299.852" stroke="white" stroke-width="0.829535" stroke-miterlimit="10"/>
<path vector-effect="non-scaling-stroke" d="M237.152 295.853C237.152 298.06 235.932 299.852 234.423 299.852C232.913 299.852 231.693 298.06 231.693 295.853C231.693 293.647 232.913 291.855 234.423 291.855C235.932 291.855 237.152 293.647 237.152 295.853Z" fill="#020202" stroke="white" stroke-width="0.829535" stroke-miterlimit="10"/>
<path vector-effect="non-scaling-stroke" d="M240.568 291.855V299.852Z" fill="#020202"/>
<path vector-effect="non-scaling-stroke" d="M240.568 291.855V299.852" stroke="white" stroke-width="0.829535" stroke-miterlimit="10"/>
<path vector-effect="non-scaling-stroke" d="M249.447 295.853C249.447 298.06 248.227 299.852 246.717 299.852C245.208 299.852 243.988 298.06 243.988 295.853C243.988 293.647 245.208 291.855 246.717 291.855C248.227 291.855 249.447 293.647 249.447 295.853Z" fill="#020202" stroke="white" stroke-width="0.829535" stroke-miterlimit="10"/>
<path vector-effect="non-scaling-stroke" d="M252.852 291.855V299.852Z" fill="#020202"/>
<path vector-effect="non-scaling-stroke" d="M252.852 291.855V299.852" stroke="white" stroke-width="0.829535" stroke-miterlimit="10"/>
<path vector-effect="non-scaling-stroke" d="M256.953 291.855V299.852Z" fill="#020202"/>
<path vector-effect="non-scaling-stroke" d="M256.953 291.855V299.852" stroke="white" stroke-width="0.829535" stroke-miterlimit="10"/>
<path vector-effect="non-scaling-stroke" d="M233.052 306.52C233.052 308.727 231.833 310.519 230.323 310.519C228.813 310.519 227.594 308.727 227.594 306.52C227.594 304.314 228.813 302.522 230.323 302.522C231.833 302.522 233.052 304.314 233.052 306.52Z" fill="#020202" stroke="white" stroke-width="0.829535" stroke-miterlimit="10"/>
<path vector-effect="non-scaling-stroke" d="M236.471 302.522V310.519Z" fill="#020202"/>
<path vector-effect="non-scaling-stroke" d="M236.471 302.522V310.519" stroke="white" stroke-width="0.829535" stroke-miterlimit="10"/>
<path vector-effect="non-scaling-stroke" d="M248.758 302.522V310.519Z" fill="#020202"/>
<path vector-effect="non-scaling-stroke" d="M248.758 302.522V310.519" stroke="white" stroke-width="0.829535" stroke-miterlimit="10"/>
<path vector-effect="non-scaling-stroke" d="M257.634 306.52C257.634 308.727 256.415 310.519 254.905 310.519C253.395 310.519 252.176 308.727 252.176 306.52C252.176 304.314 253.395 302.522 254.905 302.522C256.415 302.522 257.634 304.314 257.634 306.52Z" fill="#020202" stroke="white" stroke-width="0.829535" stroke-miterlimit="10"/>
<path vector-effect="non-scaling-stroke" d="M244.666 302.522V310.519Z" fill="#020202"/>
<path vector-effect="non-scaling-stroke" d="M244.666 302.522V310.519" stroke="white" stroke-width="0.829535" stroke-miterlimit="10"/>
<path vector-effect="non-scaling-stroke" d="M240.568 302.522V310.519Z" fill="#020202"/>
<path vector-effect="non-scaling-stroke" d="M240.568 302.522V310.519" stroke="white" stroke-width="0.829535" stroke-miterlimit="10"/>
<path vector-effect="non-scaling-stroke" d="M84.7708 273.19C84.7708 275.397 83.5514 277.189 82.0417 277.189C80.5319 277.189 79.3125 275.397 79.3125 273.19C79.3125 270.984 80.5319 269.192 82.0417 269.192C83.5514 269.192 84.7708 270.984 84.7708 273.19Z" fill="#020202" stroke="white" stroke-width="0.829535" stroke-miterlimit="10"/>
<path vector-effect="non-scaling-stroke" d="M88.1885 269.192V277.189Z" fill="#020202"/>
<path vector-effect="non-scaling-stroke" d="M88.1885 269.192V277.189" stroke="white" stroke-width="0.829535" stroke-miterlimit="10"/>
<path vector-effect="non-scaling-stroke" d="M84.7708 283.858C84.7708 286.065 83.5514 287.857 82.0417 287.857C80.5319 287.857 79.3125 286.065 79.3125 283.858C79.3125 281.652 80.5319 279.86 82.0417 279.86C83.5514 279.86 84.7708 281.652 84.7708 283.858Z" fill="#020202" stroke="white" stroke-width="0.829535" stroke-miterlimit="10"/>
<path vector-effect="non-scaling-stroke" d="M88.1885 279.86V287.857Z" fill="#020202"/>
<path vector-effect="non-scaling-stroke" d="M88.1885 279.86V287.857" stroke="white" stroke-width="0.829535" stroke-miterlimit="10"/>
<path vector-effect="non-scaling-stroke" d="M84.7708 295.853C84.7708 298.059 83.5514 299.851 82.0417 299.851C80.5319 299.851 79.3125 298.059 79.3125 295.853C79.3125 293.646 80.5319 291.854 82.0417 291.854C83.5514 291.854 84.7708 293.646 84.7708 295.853Z" fill="#020202" stroke="white" stroke-width="0.829535" stroke-miterlimit="10"/>
<path vector-effect="non-scaling-stroke" d="M88.1885 291.854V299.851Z" fill="#020202"/>
<path vector-effect="non-scaling-stroke" d="M88.1885 291.854V299.851" stroke="white" stroke-width="0.829535" stroke-miterlimit="10"/>
<path vector-effect="non-scaling-stroke" d="M84.7708 306.521C84.7708 308.727 83.5514 310.519 82.0417 310.519C80.5319 310.519 79.3125 308.727 79.3125 306.521C79.3125 304.314 80.5319 302.522 82.0417 302.522C83.5514 302.522 84.7708 304.314 84.7708 306.521Z" fill="#020202" stroke="white" stroke-width="0.829535" stroke-miterlimit="10"/>
<path vector-effect="non-scaling-stroke" d="M88.1885 302.522V310.519Z" fill="#020202"/>
<path vector-effect="non-scaling-stroke" d="M88.1885 302.522V310.519" stroke="white" stroke-width="0.829535" stroke-miterlimit="10"/>
<path vector-effect="non-scaling-stroke" d="M92.2881 269.192V277.189Z" fill="#020202"/>
<path vector-effect="non-scaling-stroke" d="M92.2881 269.192V277.189" stroke="white" stroke-width="0.829535" stroke-miterlimit="10"/>
<path vector-effect="non-scaling-stroke" d="M101.161 273.19C101.161 275.397 99.9421 277.189 98.4323 277.189C96.9225 277.189 95.7031 275.397 95.7031 273.19C95.7031 270.984 96.9225 269.192 98.4323 269.192C99.9421 269.192 101.161 270.984 101.161 273.19Z" fill="#020202" stroke="white" stroke-width="0.829535" stroke-miterlimit="10"/>
<path vector-effect="non-scaling-stroke" d="M104.579 269.192V277.189Z" fill="#020202"/>
<path vector-effect="non-scaling-stroke" d="M104.579 269.192V277.189" stroke="white" stroke-width="0.829535" stroke-miterlimit="10"/>
<path vector-effect="non-scaling-stroke" d="M113.456 273.19C113.456 275.397 112.237 277.189 110.727 277.189C109.217 277.189 107.998 275.397 107.998 273.19C107.998 270.984 109.217 269.192 110.727 269.192C112.237 269.192 113.456 270.984 113.456 273.19Z" fill="#020202" stroke="white" stroke-width="0.829535" stroke-miterlimit="10"/>
<path vector-effect="non-scaling-stroke" d="M116.865 269.192V277.189Z" fill="#020202"/>
<path vector-effect="non-scaling-stroke" d="M116.865 269.192V277.189" stroke="white" stroke-width="0.829535" stroke-miterlimit="10"/>
<path vector-effect="non-scaling-stroke" d="M120.965 269.192V277.189Z" fill="#020202"/>
<path vector-effect="non-scaling-stroke" d="M120.965 269.192V277.189" stroke="white" stroke-width="0.829535" stroke-miterlimit="10"/>
<path vector-effect="non-scaling-stroke" d="M97.0648 283.858C97.0648 286.065 95.8454 287.857 94.3356 287.857C92.8259 287.857 91.6064 286.065 91.6064 283.858C91.6064 281.652 92.8259 279.86 94.3356 279.86C95.8454 279.86 97.0648 281.652 97.0648 283.858Z" fill="#020202" stroke="white" stroke-width="0.829535" stroke-miterlimit="10"/>
<path vector-effect="non-scaling-stroke" d="M100.482 279.86V287.857Z" fill="#020202"/>
<path vector-effect="non-scaling-stroke" d="M100.482 279.86V287.857" stroke="white" stroke-width="0.829535" stroke-miterlimit="10"/>
<path vector-effect="non-scaling-stroke" d="M109.359 283.858C109.359 286.065 108.139 287.857 106.63 287.857C105.12 287.857 103.9 286.065 103.9 283.858C103.9 281.652 105.12 279.86 106.63 279.86C108.139 279.86 109.359 281.652 109.359 283.858Z" fill="#020202" stroke="white" stroke-width="0.829535" stroke-miterlimit="10"/>
<path vector-effect="non-scaling-stroke" d="M112.768 279.86V287.857Z" fill="#020202"/>
<path vector-effect="non-scaling-stroke" d="M112.768 279.86V287.857" stroke="white" stroke-width="0.829535" stroke-miterlimit="10"/>
<path vector-effect="non-scaling-stroke" d="M121.644 283.858C121.644 286.065 120.424 287.857 118.915 287.857C117.405 287.857 116.186 286.065 116.186 283.858C116.186 281.652 117.405 279.86 118.915 279.86C120.424 279.86 121.644 281.652 121.644 283.858Z" fill="#020202" stroke="white" stroke-width="0.829535" stroke-miterlimit="10"/>
<path vector-effect="non-scaling-stroke" d="M92.2881 291.854V299.851Z" fill="#020202"/>
<path vector-effect="non-scaling-stroke" d="M92.2881 291.854V299.851" stroke="white" stroke-width="0.829535" stroke-miterlimit="10"/>
<path vector-effect="non-scaling-stroke" d="M101.161 295.853C101.161 298.059 99.9421 299.851 98.4323 299.851C96.9225 299.851 95.7031 298.059 95.7031 295.853C95.7031 293.646 96.9225 291.854 98.4323 291.854C99.9421 291.854 101.161 293.646 101.161 295.853Z" fill="#020202" stroke="white" stroke-width="0.829535" stroke-miterlimit="10"/>
<path vector-effect="non-scaling-stroke" d="M104.579 291.854V299.851Z" fill="#020202"/>
<path vector-effect="non-scaling-stroke" d="M104.579 291.854V299.851" stroke="white" stroke-width="0.829535" stroke-miterlimit="10"/>
<path vector-effect="non-scaling-stroke" d="M113.456 295.853C113.456 298.059 112.237 299.851 110.727 299.851C109.217 299.851 107.998 298.059 107.998 295.853C107.998 293.646 109.217 291.854 110.727 291.854C112.237 291.854 113.456 293.646 113.456 295.853Z" fill="#020202" stroke="white" stroke-width="0.829535" stroke-miterlimit="10"/>
<path vector-effect="non-scaling-stroke" d="M116.865 291.854V299.851Z" fill="#020202"/>
<path vector-effect="non-scaling-stroke" d="M116.865 291.854V299.851" stroke="white" stroke-width="0.829535" stroke-miterlimit="10"/>
<path vector-effect="non-scaling-stroke" d="M120.965 291.854V299.851Z" fill="#020202"/>
<path vector-effect="non-scaling-stroke" d="M120.965 291.854V299.851" stroke="white" stroke-width="0.829535" stroke-miterlimit="10"/>
<path vector-effect="non-scaling-stroke" d="M97.0648 306.521C97.0648 308.727 95.8454 310.519 94.3356 310.519C92.8259 310.519 91.6064 308.727 91.6064 306.521C91.6064 304.314 92.8259 302.522 94.3356 302.522C95.8454 302.522 97.0648 304.314 97.0648 306.521Z" fill="#020202" stroke="white" stroke-width="0.829535" stroke-miterlimit="10"/>
<path vector-effect="non-scaling-stroke" d="M100.482 302.522V310.519Z" fill="#020202"/>
<path vector-effect="non-scaling-stroke" d="M100.482 302.522V310.519" stroke="white" stroke-width="0.829535" stroke-miterlimit="10"/>
<path vector-effect="non-scaling-stroke" d="M112.768 302.522V310.519Z" fill="#020202"/>
<path vector-effect="non-scaling-stroke" d="M112.768 302.522V310.519" stroke="white" stroke-width="0.829535" stroke-miterlimit="10"/>
<path vector-effect="non-scaling-stroke" d="M121.644 306.521C121.644 308.727 120.424 310.519 118.915 310.519C117.405 310.519 116.186 308.727 116.186 306.521C116.186 304.314 117.405 302.522 118.915 302.522C120.424 302.522 121.644 304.314 121.644 306.521Z" fill="#020202" stroke="white" stroke-width="0.829535" stroke-miterlimit="10"/>
<path vector-effect="non-scaling-stroke" d="M108.67 302.522V310.519Z" fill="#020202"/>
<path vector-effect="non-scaling-stroke" d="M108.67 302.522V310.519" stroke="white" stroke-width="0.829535" stroke-miterlimit="10"/>
<path vector-effect="non-scaling-stroke" d="M104.579 302.522V310.519Z" fill="#020202"/>
<path vector-effect="non-scaling-stroke" d="M104.579 302.522V310.519" stroke="white" stroke-width="0.829535" stroke-miterlimit="10"/>
<path vector-effect="non-scaling-stroke" d="M130.083 273.19C130.083 275.397 128.864 277.189 127.354 277.189C125.844 277.189 124.625 275.397 124.625 273.19C124.625 270.984 125.844 269.192 127.354 269.192C128.864 269.192 130.083 270.984 130.083 273.19Z" fill="#020202" stroke="white" stroke-width="0.829535" stroke-miterlimit="10"/>
<path vector-effect="non-scaling-stroke" d="M133.492 269.192V277.189Z" fill="#020202"/>
<path vector-effect="non-scaling-stroke" d="M133.492 269.192V277.189" stroke="white" stroke-width="0.829535" stroke-miterlimit="10"/>
<path vector-effect="non-scaling-stroke" d="M130.083 283.858C130.083 286.064 128.864 287.856 127.354 287.856C125.844 287.856 124.625 286.064 124.625 283.858C124.625 281.651 125.844 279.859 127.354 279.859C128.864 279.859 130.083 281.651 130.083 283.858Z" fill="#020202" stroke="white" stroke-width="0.829535" stroke-miterlimit="10"/>
<path vector-effect="non-scaling-stroke" d="M133.492 279.859V287.856Z" fill="#020202"/>
<path vector-effect="non-scaling-stroke" d="M133.492 279.859V287.856" stroke="white" stroke-width="0.829535" stroke-miterlimit="10"/>
<path vector-effect="non-scaling-stroke" d="M130.083 295.853C130.083 298.059 128.864 299.851 127.354 299.851C125.844 299.851 124.625 298.059 124.625 295.853C124.625 293.646 125.844 291.854 127.354 291.854C128.864 291.854 130.083 293.646 130.083 295.853Z" fill="#020202" stroke="white" stroke-width="0.829535" stroke-miterlimit="10"/>
<path vector-effect="non-scaling-stroke" d="M133.492 291.854V299.851Z" fill="#020202"/>
<path vector-effect="non-scaling-stroke" d="M133.492 291.854V299.851" stroke="white" stroke-width="0.829535" stroke-miterlimit="10"/>
<path vector-effect="non-scaling-stroke" d="M130.083 306.521C130.083 308.727 128.864 310.519 127.354 310.519C125.844 310.519 124.625 308.727 124.625 306.521C124.625 304.314 125.844 302.522 127.354 302.522C128.864 302.522 130.083 304.314 130.083 306.521Z" fill="#020202" stroke="white" stroke-width="0.829535" stroke-miterlimit="10"/>
<path vector-effect="non-scaling-stroke" d="M133.492 302.522V310.519Z" fill="#020202"/>
<path vector-effect="non-scaling-stroke" d="M133.492 302.522V310.519" stroke="white" stroke-width="0.829535" stroke-miterlimit="10"/>
<path vector-effect="non-scaling-stroke" d="M137.594 269.192V277.189Z" fill="#020202"/>
<path vector-effect="non-scaling-stroke" d="M137.594 269.192V277.189" stroke="white" stroke-width="0.829535" stroke-miterlimit="10"/>
<path vector-effect="non-scaling-stroke" d="M146.466 273.19C146.466 275.397 145.247 277.189 143.737 277.189C142.227 277.189 141.008 275.397 141.008 273.19C141.008 270.984 142.227 269.192 143.737 269.192C145.247 269.192 146.466 270.984 146.466 273.19Z" fill="#020202" stroke="white" stroke-width="0.829535" stroke-miterlimit="10"/>
<path vector-effect="non-scaling-stroke" d="M149.883 269.192V277.189Z" fill="#020202"/>
<path vector-effect="non-scaling-stroke" d="M149.883 269.192V277.189" stroke="white" stroke-width="0.829535" stroke-miterlimit="10"/>
<path vector-effect="non-scaling-stroke" d="M158.761 273.19C158.761 275.397 157.542 277.189 156.032 277.189C154.522 277.189 153.303 275.397 153.303 273.19C153.303 270.984 154.522 269.192 156.032 269.192C157.542 269.192 158.761 270.984 158.761 273.19Z" fill="#020202" stroke="white" stroke-width="0.829535" stroke-miterlimit="10"/>
<path vector-effect="non-scaling-stroke" d="M162.178 269.192V277.189Z" fill="#020202"/>
<path vector-effect="non-scaling-stroke" d="M162.178 269.192V277.189" stroke="white" stroke-width="0.829535" stroke-miterlimit="10"/>
<path vector-effect="non-scaling-stroke" d="M166.277 269.192V277.189Z" fill="#020202"/>
<path vector-effect="non-scaling-stroke" d="M166.277 269.192V277.189" stroke="white" stroke-width="0.829535" stroke-miterlimit="10"/>
<path vector-effect="non-scaling-stroke" d="M142.38 283.858C142.38 286.064 141.161 287.856 139.651 287.856C138.141 287.856 136.922 286.064 136.922 283.858C136.922 281.651 138.141 279.859 139.651 279.859C141.161 279.859 142.38 281.651 142.38 283.858Z" fill="#020202" stroke="white" stroke-width="0.829535" stroke-miterlimit="10"/>
<path vector-effect="non-scaling-stroke" d="M145.787 279.859V287.856Z" fill="#020202"/>
<path vector-effect="non-scaling-stroke" d="M145.787 279.859V287.856" stroke="white" stroke-width="0.829535" stroke-miterlimit="10"/>
<path vector-effect="non-scaling-stroke" d="M154.663 283.858C154.663 286.064 153.444 287.856 151.934 287.856C150.424 287.856 149.205 286.064 149.205 283.858C149.205 281.651 150.424 279.859 151.934 279.859C153.444 279.859 154.663 281.651 154.663 283.858Z" fill="#020202" stroke="white" stroke-width="0.829535" stroke-miterlimit="10"/>
<path vector-effect="non-scaling-stroke" d="M158.08 279.859V287.856Z" fill="#020202"/>
<path vector-effect="non-scaling-stroke" d="M158.08 279.859V287.856" stroke="white" stroke-width="0.829535" stroke-miterlimit="10"/>
<path vector-effect="non-scaling-stroke" d="M166.954 283.858C166.954 286.064 165.735 287.856 164.225 287.856C162.716 287.856 161.496 286.064 161.496 283.858C161.496 281.651 162.716 279.859 164.225 279.859C165.735 279.859 166.954 281.651 166.954 283.858Z" fill="#020202" stroke="white" stroke-width="0.829535" stroke-miterlimit="10"/>
<path vector-effect="non-scaling-stroke" d="M137.594 291.854V299.851Z" fill="#020202"/>
<path vector-effect="non-scaling-stroke" d="M137.594 291.854V299.851" stroke="white" stroke-width="0.829535" stroke-miterlimit="10"/>
<path vector-effect="non-scaling-stroke" d="M146.466 295.853C146.466 298.059 145.247 299.851 143.737 299.851C142.227 299.851 141.008 298.059 141.008 295.853C141.008 293.646 142.227 291.854 143.737 291.854C145.247 291.854 146.466 293.646 146.466 295.853Z" fill="#020202" stroke="white" stroke-width="0.829535" stroke-miterlimit="10"/>
<path vector-effect="non-scaling-stroke" d="M149.883 291.854V299.851Z" fill="#020202"/>
<path vector-effect="non-scaling-stroke" d="M149.883 291.854V299.851" stroke="white" stroke-width="0.829535" stroke-miterlimit="10"/>
<path vector-effect="non-scaling-stroke" d="M158.761 295.853C158.761 298.059 157.542 299.851 156.032 299.851C154.522 299.851 153.303 298.059 153.303 295.853C153.303 293.646 154.522 291.854 156.032 291.854C157.542 291.854 158.761 293.646 158.761 295.853Z" fill="#020202" stroke="white" stroke-width="0.829535" stroke-miterlimit="10"/>
<path vector-effect="non-scaling-stroke" d="M162.178 291.854V299.851Z" fill="#020202"/>
<path vector-effect="non-scaling-stroke" d="M162.178 291.854V299.851" stroke="white" stroke-width="0.829535" stroke-miterlimit="10"/>
<path vector-effect="non-scaling-stroke" d="M166.277 291.854V299.851Z" fill="#020202"/>
<path vector-effect="non-scaling-stroke" d="M166.277 291.854V299.851" stroke="white" stroke-width="0.829535" stroke-miterlimit="10"/>
<path vector-effect="non-scaling-stroke" d="M142.38 306.521C142.38 308.727 141.161 310.519 139.651 310.519C138.141 310.519 136.922 308.727 136.922 306.521C136.922 304.314 138.141 302.522 139.651 302.522C141.161 302.522 142.38 304.314 142.38 306.521Z" fill="#020202" stroke="white" stroke-width="0.829535" stroke-miterlimit="10"/>
<path vector-effect="non-scaling-stroke" d="M145.787 302.522V310.519Z" fill="#020202"/>
<path vector-effect="non-scaling-stroke" d="M145.787 302.522V310.519" stroke="white" stroke-width="0.829535" stroke-miterlimit="10"/>
<path vector-effect="non-scaling-stroke" d="M158.08 302.522V310.519Z" fill="#020202"/>
<path vector-effect="non-scaling-stroke" d="M158.08 302.522V310.519" stroke="white" stroke-width="0.829535" stroke-miterlimit="10"/>
<path vector-effect="non-scaling-stroke" d="M166.954 306.521C166.954 308.727 165.735 310.519 164.225 310.519C162.716 310.519 161.496 308.727 161.496 306.521C161.496 304.314 162.716 302.522 164.225 302.522C165.735 302.522 166.954 304.314 166.954 306.521Z" fill="#020202" stroke="white" stroke-width="0.829535" stroke-miterlimit="10"/>
<path vector-effect="non-scaling-stroke" d="M153.98 302.522V310.519Z" fill="#020202"/>
<path vector-effect="non-scaling-stroke" d="M153.98 302.522V310.519" stroke="white" stroke-width="0.829535" stroke-miterlimit="10"/>
<path vector-effect="non-scaling-stroke" d="M149.883 302.522V310.519Z" fill="#020202"/>
<path vector-effect="non-scaling-stroke" d="M149.883 302.522V310.519" stroke="white" stroke-width="0.829535" stroke-miterlimit="10"/>
<path vector-effect="non-scaling-stroke" d="M47.0957 269.192V277.189Z" fill="#020202"/>
<path vector-effect="non-scaling-stroke" d="M47.0957 269.192V277.189" stroke="white" stroke-width="0.829535" stroke-miterlimit="10"/>
<path vector-effect="non-scaling-stroke" d="M55.9701 273.191C55.9701 275.397 54.7506 277.189 53.2409 277.189C51.7311 277.189 50.5117 275.397 50.5117 273.191C50.5117 270.984 51.7311 269.192 53.2409 269.192C54.7506 269.192 55.9701 270.984 55.9701 273.191Z" fill="#020202" stroke="white" stroke-width="0.829535" stroke-miterlimit="10"/>
<path vector-effect="non-scaling-stroke" d="M59.3906 269.192V277.189Z" fill="#020202"/>
<path vector-effect="non-scaling-stroke" d="M59.3906 269.192V277.189" stroke="white" stroke-width="0.829535" stroke-miterlimit="10"/>
<path vector-effect="non-scaling-stroke" d="M68.264 273.191C68.264 275.397 67.0446 277.189 65.5348 277.189C64.0251 277.189 62.8057 275.397 62.8057 273.191C62.8057 270.984 64.0251 269.192 65.5348 269.192C67.0446 269.192 68.264 270.984 68.264 273.191Z" fill="#020202" stroke="white" stroke-width="0.829535" stroke-miterlimit="10"/>
<path vector-effect="non-scaling-stroke" d="M71.6826 269.192V277.189Z" fill="#020202"/>
<path vector-effect="non-scaling-stroke" d="M71.6826 269.192V277.189" stroke="white" stroke-width="0.829535" stroke-miterlimit="10"/>
<path vector-effect="non-scaling-stroke" d="M75.7725 269.192V277.189Z" fill="#020202"/>
<path vector-effect="non-scaling-stroke" d="M75.7725 269.192V277.189" stroke="white" stroke-width="0.829535" stroke-miterlimit="10"/>
<path vector-effect="non-scaling-stroke" d="M51.8812 283.858C51.8812 286.065 50.6618 287.857 49.152 287.857C47.6423 287.857 46.4229 286.065 46.4229 283.858C46.4229 281.652 47.6423 279.86 49.152 279.86C50.6618 279.86 51.8812 281.652 51.8812 283.858Z" fill="#020202" stroke="white" stroke-width="0.829535" stroke-miterlimit="10"/>
<path vector-effect="non-scaling-stroke" d="M55.291 279.86V287.857Z" fill="#020202"/>
<path vector-effect="non-scaling-stroke" d="M55.291 279.86V287.857" stroke="white" stroke-width="0.829535" stroke-miterlimit="10"/>
<path vector-effect="non-scaling-stroke" d="M64.1673 283.858C64.1673 286.065 62.9479 287.857 61.4382 287.857C59.9284 287.857 58.709 286.065 58.709 283.858C58.709 281.652 59.9284 279.86 61.4382 279.86C62.9479 279.86 64.1673 281.652 64.1673 283.858Z" fill="#020202" stroke="white" stroke-width="0.829535" stroke-miterlimit="10"/>
<path vector-effect="non-scaling-stroke" d="M67.583 279.86V287.857Z" fill="#020202"/>
<path vector-effect="non-scaling-stroke" d="M67.583 279.86V287.857" stroke="white" stroke-width="0.829535" stroke-miterlimit="10"/>
<path vector-effect="non-scaling-stroke" d="M76.4613 283.858C76.4613 286.065 75.2419 287.857 73.7321 287.857C72.2223 287.857 71.0029 286.065 71.0029 283.858C71.0029 281.652 72.2223 279.86 73.7321 279.86C75.2419 279.86 76.4613 281.652 76.4613 283.858Z" fill="#020202" stroke="white" stroke-width="0.829535" stroke-miterlimit="10"/>
<path vector-effect="non-scaling-stroke" d="M47.0957 291.854V299.851Z" fill="#020202"/>
<path vector-effect="non-scaling-stroke" d="M47.0957 291.854V299.851" stroke="white" stroke-width="0.829535" stroke-miterlimit="10"/>
<path vector-effect="non-scaling-stroke" d="M55.9701 295.853C55.9701 298.059 54.7506 299.851 53.2409 299.851C51.7311 299.851 50.5117 298.059 50.5117 295.853C50.5117 293.646 51.7311 291.854 53.2409 291.854C54.7506 291.854 55.9701 293.646 55.9701 295.853Z" fill="#020202" stroke="white" stroke-width="0.829535" stroke-miterlimit="10"/>
<path vector-effect="non-scaling-stroke" d="M59.3906 291.854V299.851Z" fill="#020202"/>
<path vector-effect="non-scaling-stroke" d="M59.3906 291.854V299.851" stroke="white" stroke-width="0.829535" stroke-miterlimit="10"/>
<path vector-effect="non-scaling-stroke" d="M68.264 295.853C68.264 298.059 67.0446 299.851 65.5348 299.851C64.0251 299.851 62.8057 298.059 62.8057 295.853C62.8057 293.646 64.0251 291.854 65.5348 291.854C67.0446 291.854 68.264 293.646 68.264 295.853Z" fill="#020202" stroke="white" stroke-width="0.829535" stroke-miterlimit="10"/>
<path vector-effect="non-scaling-stroke" d="M71.6826 291.854V299.851Z" fill="#020202"/>
<path vector-effect="non-scaling-stroke" d="M71.6826 291.854V299.851" stroke="white" stroke-width="0.829535" stroke-miterlimit="10"/>
<path vector-effect="non-scaling-stroke" d="M75.7725 291.854V299.851Z" fill="#020202"/>
<path vector-effect="non-scaling-stroke" d="M75.7725 291.854V299.851" stroke="white" stroke-width="0.829535" stroke-miterlimit="10"/>
<path vector-effect="non-scaling-stroke" d="M51.8812 306.521C51.8812 308.728 50.6618 310.52 49.152 310.52C47.6423 310.52 46.4229 308.728 46.4229 306.521C46.4229 304.315 47.6423 302.523 49.152 302.523C50.6618 302.523 51.8812 304.315 51.8812 306.521Z" fill="#020202" stroke="white" stroke-width="0.829535" stroke-miterlimit="10"/>
<path vector-effect="non-scaling-stroke" d="M55.291 302.523V310.52Z" fill="#020202"/>
<path vector-effect="non-scaling-stroke" d="M55.291 302.523V310.52" stroke="white" stroke-width="0.829535" stroke-miterlimit="10"/>
<path vector-effect="non-scaling-stroke" d="M67.583 302.523V310.52Z" fill="#020202"/>
<path vector-effect="non-scaling-stroke" d="M67.583 302.523V310.52" stroke="white" stroke-width="0.829535" stroke-miterlimit="10"/>
<path vector-effect="non-scaling-stroke" d="M76.4613 306.521C76.4613 308.728 75.2419 310.52 73.7321 310.52C72.2223 310.52 71.0029 308.728 71.0029 306.521C71.0029 304.315 72.2223 302.523 73.7321 302.523C75.2419 302.523 76.4613 304.315 76.4613 306.521Z" fill="#020202" stroke="white" stroke-width="0.829535" stroke-miterlimit="10"/>
<path vector-effect="non-scaling-stroke" d="M63.4873 302.523V310.52Z" fill="#020202"/>
<path vector-effect="non-scaling-stroke" d="M63.4873 302.523V310.52" stroke="white" stroke-width="0.829535" stroke-miterlimit="10"/>
<path vector-effect="non-scaling-stroke" d="M59.3906 302.523V310.52Z" fill="#020202"/>
<path vector-effect="non-scaling-stroke" d="M59.3906 302.523V310.52" stroke="white" stroke-width="0.829535" stroke-miterlimit="10"/>
<path vector-effect="non-scaling-stroke" d="M386.448 0.414062H517.448C522.823 0.414062 527.154 4.6364 527.154 9.88736V99.892C527.154 105.143 522.823 109.365 517.448 109.365H386.448C381.072 109.365 376.742 105.143 376.742 99.892V9.88736C376.742 4.6364 381.072 0.414062 386.448 0.414062Z" fill="#020202" stroke="white" stroke-width="0.829535" stroke-miterlimit="10"/>
<path vector-effect="non-scaling-stroke" d="M517.442 9.88818H515.02Z" fill="#020202"/>
<path vector-effect="non-scaling-stroke" d="M517.442 9.88818H515.02" stroke="white" stroke-width="0.829535" stroke-miterlimit="10"/>
<path vector-effect="non-scaling-stroke" d="M505.321 9.88818H502.898Z" fill="#020202"/>
<path vector-effect="non-scaling-stroke" d="M505.321 9.88818H502.898" stroke="white" stroke-width="0.829535" stroke-miterlimit="10"/>
<path vector-effect="non-scaling-stroke" d="M493.184 9.88818H490.762Z" fill="#020202"/>
<path vector-effect="non-scaling-stroke" d="M493.184 9.88818H490.762" stroke="white" stroke-width="0.829535" stroke-miterlimit="10"/>
<path vector-effect="non-scaling-stroke" d="M527.154 19.3618H376.742Z" fill="#020202"/>
<path vector-effect="non-scaling-stroke" d="M527.154 19.3618H376.742" stroke="white" stroke-width="0.829535" stroke-miterlimit="10"/>
<path vector-effect="non-scaling-stroke" d="M459.219 28.834V35.9431L474.88 38.1248C475.967 42.9361 477.9 47.5234 480.588 51.6794L471.123 64.0063L481.417 74.052L494.076 64.7944C498.331 67.4323 503.018 69.3319 507.929 70.4103L510.169 85.6821H517.444" fill="#020202"/>
<path vector-effect="non-scaling-stroke" d="M459.219 28.834V35.9431L474.88 38.1248C475.967 42.9361 477.9 47.5234 480.588 51.6794L471.123 64.0063L481.417 74.052L494.076 64.7944C498.331 67.4323 503.018 69.3319 507.929 70.4103L510.169 85.6821H517.444" stroke="white" stroke-width="0.829535" stroke-miterlimit="10"/>
<path vector-effect="non-scaling-stroke" d="M517.444 54.8897C502.703 54.8897 490.758 43.2264 490.758 28.834Z" fill="#020202"/>
<path vector-effect="non-scaling-stroke" d="M517.444 54.8897C502.703 54.8897 490.758 43.2264 490.758 28.834" stroke="white" stroke-width="0.829535" stroke-miterlimit="10"/>
<path vector-effect="non-scaling-stroke" d="M507.521 124.231H445.156V247.633H507.521V124.231Z" fill="#020202" stroke="white" stroke-width="0.829535" stroke-miterlimit="10"/>
<path vector-effect="non-scaling-stroke" d="M130.488 9.00928H68.123V132.411H130.488V9.00928Z" fill="#020202" stroke="white" stroke-width="0.829535" stroke-miterlimit="10"/>
<path vector-effect="non-scaling-stroke" d="M271.846 273.523C343.858 273.523 402.24 216.542 402.24 146.255C402.24 75.9686 343.866 18.9961 271.846 18.9961C199.826 18.9961 141.451 75.9769 141.451 146.263C141.451 216.55 199.834 273.531 271.846 273.531V273.523Z" fill="#020202" stroke="white" stroke-width="0.829535"/>
<path vector-effect="non-scaling-stroke" d="M268.479 252.287C331.017 252.287 381.718 202.773 381.718 141.702C381.718 80.6317 331.017 31.1167 268.479 31.1167" stroke="white" stroke-width="0.829535"/>
<path vector-effect="non-scaling-stroke" d="M369.501 141.005C369.501 86.0568 323.86 41.519 267.568 41.519C211.276 41.519 165.635 86.0568 165.635 141.005" stroke="white" stroke-width="0.829535"/>
<path vector-effect="non-scaling-stroke" d="M104.151 66.1309C104.151 66.1309 137.432 173.489 226.806 196.467" stroke="white" stroke-width="0.829535" stroke-miterlimit="10"/>
<path vector-effect="non-scaling-stroke" d="M268.678 118.765L265.062 117.678C264.481 117.504 264.157 116.907 264.34 116.343L269.823 98.9806C270.006 98.4165 270.611 98.1013 271.192 98.2755L274.809 99.3622C275.389 99.5364 275.713 100.134 275.53 100.698L270.047 118.06C269.865 118.624 269.259 118.939 268.678 118.765Z" fill="#A100FF" stroke="white" stroke-width="0.829535" stroke-miterlimit="10"/>
<path vector-effect="non-scaling-stroke" d="M263.311 119.652C263.311 119.652 260.308 112.817 263.311 108.694C263.311 108.694 266.09 106.894 267.094 115.422C267.094 115.422 274.651 109.457 274.983 104.787C274.983 104.787 280.408 107.715 278.525 113.033C278.525 113.033 277.604 116.119 271.117 124.256" fill="#404040"/>
<path vector-effect="non-scaling-stroke" d="M263.311 119.652C263.311 119.652 260.308 112.817 263.311 108.694C263.311 108.694 266.09 106.894 267.094 115.422C267.094 115.422 274.651 109.457 274.983 104.787C274.983 104.787 280.408 107.715 278.525 113.033C278.525 113.033 277.604 116.119 271.117 124.256" stroke="white" stroke-width="0.829535" stroke-miterlimit="10"/>
<path vector-effect="non-scaling-stroke" d="M274.309 113.281C274.309 113.281 277.975 109.175 277.419 106.877Z" fill="white"/>
<path vector-effect="non-scaling-stroke" d="M274.309 113.281C274.309 113.281 277.975 109.175 277.419 106.877" stroke="white" stroke-width="0.829535" stroke-miterlimit="10"/>
<path vector-effect="non-scaling-stroke" d="M178.259 299.13L167.832 314.858C167.832 314.858 174.676 323.577 185.285 323.577H201.354C201.354 323.577 201.652 318.741 197.09 315.539C192.527 312.337 192.925 309.334 193.224 306.522C193.523 303.709 178.259 299.13 178.259 299.13Z" fill="#404040" stroke="white" stroke-width="0.829535" stroke-miterlimit="10"/>
<path vector-effect="non-scaling-stroke" d="M206.344 303.576V323.585H236.573C236.573 323.585 237.352 318.939 231.197 314.609C225.996 310.951 223.358 307.873 222.462 303.576C221.566 299.279 206.336 303.576 206.336 303.576H206.344Z" fill="#404040" stroke="white" stroke-width="0.829535" stroke-miterlimit="10"/>
<path vector-effect="non-scaling-stroke" d="M230.22 229.076H197.951V303.577H230.22V229.076Z" fill="#202020" stroke="white" stroke-width="0.829535" stroke-miterlimit="10"/>
<path vector-effect="non-scaling-stroke" d="M229.634 181.502L238.851 243.029C240.244 250.976 238.245 259.139 233.309 265.592L197.963 311.864L170.92 294.361L209.676 238.682L195.524 193.025L229.643 181.494L229.634 181.502Z" fill="#202020" stroke="white" stroke-width="0.829535" stroke-miterlimit="10"/>
<path vector-effect="non-scaling-stroke" d="M206.344 323.585H236.573C236.573 323.585 237.203 319.836 232.864 315.937H206.336V323.585H206.344Z" fill="#020202" stroke="white" stroke-width="0.829535" stroke-miterlimit="10"/>
<path vector-effect="non-scaling-stroke" d="M197.853 316.128C181.694 319.081 171.723 309.002 171.723 308.994L167.832 314.859C167.832 314.859 174.676 323.577 185.285 323.577H201.354C201.354 323.577 201.619 319.297 197.845 316.12L197.853 316.128Z" fill="#020202" stroke="white" stroke-width="0.829535" stroke-miterlimit="10"/>
<path vector-effect="non-scaling-stroke" d="M230.421 228.687H245.61L228.621 144.481L219.936 163.121L230.413 228.687H230.421Z" fill="#202020" stroke="white" stroke-width="0.829535" stroke-miterlimit="10"/>
<path vector-effect="non-scaling-stroke" d="M228.347 118.357L229.915 110.178C229.915 110.178 236.111 112.302 239.28 111.364C242.109 109.506 243.677 108.295 243.444 103.816L243.801 103.973C244.739 104.371 245.709 103.484 245.361 102.546C244.805 101.037 244.042 99.477 243.461 98.3655C243.478 98.1581 243.503 97.9507 243.527 97.735C244.382 90.6757 237.953 86.6109 234.502 85.292C231.051 83.9813 226.232 81.8909 221.802 85.1344C217.289 88.4359 221.08 95.8603 218.741 105.856C218.26 107.922 217.024 110.825 213.83 114.533L228.355 118.349L228.347 118.357Z" fill="#404040" stroke="white" stroke-width="0.829535" stroke-miterlimit="10"/>
<path vector-effect="non-scaling-stroke" d="M241.931 90.6766C239.526 87.2091 235.693 85.55 234.573 85.1187L234.084 84.9362C230.675 83.6255 226.004 81.8337 221.682 84.9859C219.044 86.9188 219.161 90.2452 219.31 94.4592C219.393 96.7571 219.484 99.3535 219.169 102.215L219.152 102.398L219.343 102.414C219.766 102.456 220.181 102.481 220.579 102.481C229.074 102.481 232.342 92.9661 233.57 91.6803C238.447 92.5264 241.832 90.9586 241.865 90.942L242.056 90.8508L241.931 90.6766Z" fill="#A2A2A0" stroke="white" stroke-width="0.829535" stroke-miterlimit="10"/>
<path vector-effect="non-scaling-stroke" d="M218.275 113.257H231.954L231.075 121.328L218.275 113.257Z" fill="#202020" stroke="white" stroke-width="0.829535" stroke-miterlimit="10"/>
<path vector-effect="non-scaling-stroke" d="M231.962 95.6871C231.962 95.6871 229.532 92.9911 227.433 94.6585C224.77 96.7738 227.433 100.034 228.802 100.407" fill="white"/>
<path vector-effect="non-scaling-stroke" d="M231.962 95.6871C231.962 95.6871 229.532 92.9911 227.433 94.6585C224.77 96.7738 227.433 100.034 228.802 100.407" stroke="white" stroke-width="0.829535" stroke-miterlimit="10"/>
<path vector-effect="non-scaling-stroke" d="M231.962 95.6871C231.962 95.6871 229.532 92.9911 227.433 94.6585C224.77 96.7738 227.433 100.034 228.802 100.407" stroke="white" stroke-width="0.829535" stroke-miterlimit="10"/>
<path vector-effect="non-scaling-stroke" d="M243.527 106.247C240.001 106.247 239.279 103.343 239.279 103.318" stroke="white" stroke-width="0.829535" stroke-miterlimit="10"/>
<path vector-effect="non-scaling-stroke" d="M232.087 154.426L230.419 228.686H177.08L203.841 124.032C206.321 114.351 218.557 109.988 226.761 116.077C229.498 118.109 230.983 121.104 233.157 123.576C234.791 125.442 236.525 127.242 238.2 129.067L246.197 137.769C246.197 137.769 246.222 137.794 246.222 137.802L259.586 117.487L276.458 127.914L259.536 157.454C254.783 166.122 242.506 167.201 236.234 159.511L232.087 154.418V154.426Z" fill="#020202" stroke="white" stroke-width="0.829535" stroke-miterlimit="10"/>
<path vector-effect="non-scaling-stroke" d="M232.087 154.427L225.119 146.978" stroke="white" stroke-width="0.829535" stroke-miterlimit="10"/>
<path vector-effect="non-scaling-stroke" d="M233.404 93.3636L245.598 94.1102C245.598 94.1102 241.998 76.6817 221.11 82.1151C221.11 82.1151 207.539 87.6896 206.9 104.786L231.961 108.519L233.412 93.3636H233.404Z" fill="#020202" stroke="white" stroke-width="0.829535"/>
<path vector-effect="non-scaling-stroke" d="M528.719 288.289C528.719 271.508 514.244 257.903 496.392 257.903H330.718C312.858 257.903 298.391 271.508 298.391 288.289C298.391 305.071 312.866 318.675 330.718 318.675H496.392C514.252 318.675 528.719 305.071 528.719 288.289Z" fill="#020202" stroke="white" stroke-width="0.829535"/>
<path vector-effect="non-scaling-stroke" d="M150.555 162.507L139.605 167.899C135.242 163.818 130.107 160.607 124.482 158.45L124.897 146.497L110.214 143.95L106.382 155.307C100.335 155.431 94.3704 156.708 88.8208 159.056L80.4756 150.338L68.2483 158.666L73.773 169.359C69.6004 173.623 66.3072 178.633 64.0923 184.125L51.8484 183.718L49.2354 198.053L60.8737 201.794C60.9982 207.7 62.3088 213.523 64.7145 218.94L55.7804 227.086L64.3163 239.023L75.2662 233.631C79.6295 237.713 84.7643 240.923 90.3886 243.08L89.9738 255.033L104.657 257.58L108.489 246.224C114.536 246.099 120.501 244.822 126.05 242.474L134.395 251.193L146.623 242.864L141.098 232.171C145.271 227.907 148.564 222.897 150.779 217.406L163.023 217.812L165.636 203.478L153.997 199.736C153.873 193.83 152.562 188.007 150.157 182.59L159.091 174.444L150.555 162.507Z" fill="#020202" stroke="white" stroke-width="0.829535" stroke-miterlimit="10"/>
<path vector-effect="non-scaling-stroke" d="M107.436 225.816C121.613 225.816 133.11 214.593 133.11 200.756C133.11 186.919 121.613 175.696 107.436 175.696C93.2591 175.696 81.7617 186.919 81.7617 200.756C81.7617 214.593 93.2591 225.816 107.436 225.816Z" fill="#404040" stroke="white" stroke-width="0.829535" stroke-miterlimit="10"/>
<path vector-effect="non-scaling-stroke" d="M107.435 185.791C104.673 188.139 100.451 189.665 95.6973 189.764V201.959C95.6973 204.837 96.8835 207.583 98.9988 209.59L107.427 215.729L115.872 209.59C117.987 207.583 119.181 204.829 119.181 201.95V189.764C114.428 189.665 110.206 188.13 107.443 185.791H107.435ZM108.679 200.009V205.418H106.183V200.009C105.768 199.661 105.502 199.147 105.502 198.574C105.502 197.537 106.365 196.691 107.435 196.691C108.505 196.691 109.368 197.537 109.368 198.574C109.368 199.147 109.103 199.661 108.688 200.009H108.679Z" fill="#020202" stroke="white" stroke-width="0.829535" stroke-miterlimit="10"/>
<path vector-effect="non-scaling-stroke" d="M366.233 53.4297C366.267 54.9643 366.159 56.4824 365.893 57.9507C365.877 58.0419 365.852 58.1332 365.835 58.2244L309.883 58.6226L297.282 58.7055L245.677 59.0705C245.461 58.7138 245.262 58.3571 245.071 57.9921C243.188 54.4749 242.093 50.5346 241.994 46.3455C241.629 31.165 254.495 18.556 270.737 18.1827C273.375 18.1247 275.93 18.3901 278.377 18.9376C282.542 9.24034 292.247 2.32201 303.711 2.05656C319.273 1.69986 332.189 13.7281 332.554 28.9169C332.554 29.0331 332.554 29.1492 332.554 29.257C334.072 28.9999 335.632 28.8423 337.225 28.8091C352.903 28.4441 365.885 39.4686 366.225 53.4297H366.233Z" fill="#020202" stroke="white" stroke-width="0.829535" stroke-miterlimit="10"/>
<path vector-effect="non-scaling-stroke" d="M213.83 80.091V71.4058H222.291" stroke="white" stroke-width="0.829535" stroke-miterlimit="10"/>
<path vector-effect="non-scaling-stroke" d="M222.723 134.21H213.822V125.948" stroke="white" stroke-width="0.829535" stroke-miterlimit="10"/>
<path vector-effect="non-scaling-stroke" d="M294.991 125.524V134.21H286.529" stroke="white" stroke-width="0.829535" stroke-miterlimit="10"/>
<path vector-effect="non-scaling-stroke" d="M286.084 71.4058H294.985V79.6679" stroke="white" stroke-width="0.829535" stroke-miterlimit="10"/>
<path vector-effect="non-scaling-stroke" d="M345.475 300.757C345.358 300.757 345.242 300.724 345.134 300.658C343.002 299.331 341.086 297.821 339.436 296.178C339.187 295.938 339.195 295.54 339.436 295.299C339.684 295.059 340.091 295.059 340.331 295.299C341.916 296.875 343.766 298.327 345.815 299.604C346.113 299.787 346.196 300.177 346.005 300.459C345.881 300.641 345.682 300.749 345.466 300.749L345.475 300.757Z" fill="white"/>
<path vector-effect="non-scaling-stroke" d="M337.503 293.672C337.313 293.672 337.113 293.581 336.989 293.423C334.824 290.57 333.688 287.725 333.688 285.194C333.688 284.854 333.97 284.572 334.326 284.572C334.683 284.572 334.965 284.854 334.965 285.194C334.965 287.418 336.052 290.08 338.018 292.685C338.225 292.959 338.167 293.349 337.885 293.556C337.769 293.639 337.636 293.681 337.503 293.681V293.672Z" fill="white"/>
<path vector-effect="non-scaling-stroke" d="M325.24 277.115C325.083 277.115 324.917 277.057 324.792 276.941C324.544 276.7 324.535 276.31 324.784 276.061C327.322 273.54 330.707 272.146 334.315 272.146C336.174 272.146 337.974 272.511 339.658 273.233C339.981 273.374 340.122 273.739 339.981 274.054C339.84 274.369 339.467 274.51 339.143 274.377C337.617 273.722 335.991 273.39 334.307 273.39C331.039 273.39 327.978 274.651 325.68 276.932C325.556 277.057 325.39 277.115 325.224 277.115H325.24Z" fill="white"/>
<path vector-effect="non-scaling-stroke" d="M322.062 290.156C321.764 290.156 321.506 289.957 321.44 289.658C321.125 288.157 320.959 286.655 320.959 285.187C320.959 283.378 321.332 281.62 322.071 279.969C322.212 279.654 322.585 279.513 322.908 279.645C323.232 279.787 323.373 280.152 323.232 280.467C322.56 281.96 322.22 283.544 322.22 285.187C322.22 286.572 322.369 287.991 322.676 289.409C322.751 289.741 322.527 290.073 322.187 290.147C322.145 290.156 322.095 290.164 322.054 290.164L322.062 290.156Z" fill="white"/>
<path vector-effect="non-scaling-stroke" d="M329.234 303.453C329.059 303.453 328.885 303.379 328.752 303.246C325.816 299.978 323.659 296.485 322.348 292.86C322.232 292.537 322.407 292.18 322.738 292.064C323.07 291.948 323.435 292.122 323.551 292.445C324.804 295.921 326.878 299.281 329.706 302.425C329.939 302.682 329.914 303.072 329.648 303.304C329.524 303.404 329.375 303.462 329.225 303.462L329.234 303.453Z" fill="white"/>
<path vector-effect="non-scaling-stroke" d="M351.436 289.65C351.312 289.65 351.179 289.609 351.071 289.534C350.374 289.053 349.711 288.522 349.03 287.925C347.57 286.614 346.558 284.847 346.185 282.948C345.721 280.6 344.534 278.46 342.776 276.768C342.527 276.527 342.519 276.137 342.776 275.888C343.025 275.639 343.423 275.639 343.672 275.888C345.621 277.755 346.923 280.119 347.438 282.715C347.761 284.35 348.632 285.876 349.893 287.012C350.532 287.576 351.154 288.074 351.809 288.53C352.091 288.73 352.166 289.119 351.959 289.393C351.834 289.567 351.635 289.65 351.436 289.65Z" fill="white"/>
<path vector-effect="non-scaling-stroke" d="M342.384 280.84C342.177 280.84 341.97 280.741 341.845 280.55C340.194 278.011 337.382 276.493 334.313 276.493C333.508 276.493 332.712 276.601 331.941 276.809C331.6 276.9 331.252 276.709 331.161 276.377C331.07 276.045 331.269 275.705 331.6 275.614C332.48 275.373 333.392 275.257 334.313 275.257C337.822 275.257 341.041 276.991 342.924 279.894C343.114 280.185 343.023 280.566 342.725 280.749C342.617 280.815 342.501 280.848 342.384 280.848V280.84Z" fill="white"/>
<path vector-effect="non-scaling-stroke" d="M325.305 290.156C325.015 290.156 324.757 289.965 324.683 289.675C324.318 288.165 324.127 286.656 324.127 285.187C324.127 282.035 325.612 279.14 328.2 277.24C328.482 277.033 328.88 277.091 329.088 277.365C329.295 277.639 329.245 278.028 328.963 278.236C326.699 279.895 325.396 282.433 325.396 285.187C325.396 286.564 325.57 287.983 325.91 289.393C325.993 289.725 325.778 290.065 325.438 290.14C325.388 290.148 325.338 290.156 325.288 290.156H325.305Z" fill="white"/>
<path vector-effect="non-scaling-stroke" d="M334.646 304.44C334.496 304.44 334.339 304.39 334.223 304.283C330.614 301.122 327.81 297.472 326.101 293.723C325.96 293.407 326.101 293.042 326.425 292.901C326.748 292.76 327.122 292.901 327.263 293.217C328.897 296.8 331.593 300.309 335.069 303.354C335.334 303.586 335.351 303.976 335.118 304.233C334.994 304.366 334.82 304.44 334.646 304.44Z" fill="white"/>
<path vector-effect="non-scaling-stroke" d="M350.777 292.976C350.661 292.976 350.545 292.943 350.437 292.876C348.371 291.599 346.472 290.006 345.078 288.397C344.025 287.186 343.353 285.701 343.145 284.1C343.104 283.76 343.344 283.453 343.693 283.403C344.041 283.362 344.356 283.602 344.406 283.942C344.58 285.303 345.153 286.564 346.049 287.592C347.359 289.11 349.159 290.612 351.117 291.823C351.416 292.005 351.499 292.387 351.316 292.677C351.192 292.86 350.993 292.968 350.777 292.968V292.976Z" fill="white"/>
<path vector-effect="non-scaling-stroke" d="M328.485 283.329C328.402 283.329 328.311 283.313 328.228 283.279C327.904 283.138 327.763 282.773 327.904 282.458C329.024 279.97 331.538 278.36 334.316 278.36H334.358C336.216 278.36 337.966 279.065 339.285 280.351C339.717 280.774 340.09 281.255 340.397 281.778C340.571 282.077 340.463 282.458 340.165 282.624C339.858 282.798 339.468 282.691 339.294 282.392C339.045 281.969 338.738 281.579 338.381 281.231C337.311 280.177 335.876 279.605 334.358 279.605H334.316C332.044 279.605 329.986 280.924 329.066 282.956C328.958 283.188 328.725 283.329 328.485 283.329Z" fill="white"/>
<path vector-effect="non-scaling-stroke" d="M339.058 303.942C338.926 303.942 338.785 303.901 338.669 303.81C337.059 302.598 335.566 301.28 334.239 299.902C333.998 299.654 334.015 299.255 334.272 299.023C334.529 298.791 334.927 298.799 335.168 299.048C336.445 300.384 337.889 301.653 339.44 302.822C339.722 303.03 339.772 303.42 339.556 303.693C339.432 303.851 339.241 303.934 339.05 303.934L339.058 303.942Z" fill="white"/>
<path vector-effect="non-scaling-stroke" d="M332.091 296.99C331.892 296.99 331.693 296.899 331.577 296.733C329.287 293.606 327.86 290.288 327.454 287.136C327.412 286.795 327.653 286.48 328.001 286.439C328.35 286.397 328.665 286.638 328.715 286.978C329.096 289.931 330.448 293.05 332.614 296.012C332.821 296.294 332.755 296.675 332.464 296.874C332.348 296.949 332.224 296.99 332.091 296.99Z" fill="white"/>
<path vector-effect="non-scaling-stroke" d="M349.544 295.888C349.427 295.888 349.32 295.854 349.212 295.796C346.615 294.253 344.251 292.296 342.559 290.297C340.933 288.372 340.037 286.555 340.037 285.187C340.037 284.846 340.319 284.564 340.676 284.564C341.033 284.564 341.315 284.846 341.315 285.187C341.315 287.335 344.591 291.599 349.875 294.735C350.174 294.909 350.274 295.299 350.091 295.589C349.975 295.78 349.759 295.888 349.544 295.888Z" fill="white"/>
<path vector-effect="non-scaling-stroke" d="M342.611 302.606C342.486 302.606 342.362 302.573 342.254 302.498C338.77 300.151 335.833 297.339 333.776 294.369C331.636 291.283 330.508 288.114 330.508 285.194C330.508 283.137 332.217 281.47 334.324 281.47C336.431 281.47 338.14 283.145 338.14 285.194C338.14 288.786 342.337 293.888 348.119 297.33C348.417 297.513 348.517 297.895 348.335 298.185C348.152 298.475 347.762 298.566 347.464 298.392C341.225 294.676 336.87 289.251 336.87 285.194C336.87 283.826 335.726 282.714 334.324 282.714C332.922 282.714 331.777 283.826 331.777 285.194C331.777 290.586 336.066 296.824 342.976 301.478C343.266 301.669 343.341 302.059 343.142 302.341C343.017 302.515 342.818 302.606 342.619 302.606H342.611Z" fill="white"/>
<path vector-effect="non-scaling-stroke" d="M448.828 282.581C445.9 282.581 443.519 284.904 443.519 287.757C443.519 284.896 441.147 282.581 438.21 282.581C435.282 282.581 432.901 284.904 432.901 287.757C432.901 284.896 430.529 282.581 427.592 282.581C424.656 282.581 422.283 284.904 422.283 287.757C422.283 279.172 429.409 272.22 438.202 272.22C446.995 272.22 454.121 279.18 454.121 287.757C454.121 284.896 451.748 282.581 448.812 282.581H448.828Z" fill="#404040" stroke="white" stroke-width="0.829535" stroke-miterlimit="10"/>
<path vector-effect="non-scaling-stroke" d="M438.219 286.031V301.568C438.219 302.995 437.033 304.157 435.565 304.157C434.096 304.157 432.91 302.995 432.91 301.568" stroke="white" stroke-width="0.829535" stroke-miterlimit="10"/>
<path vector-effect="non-scaling-stroke" d="M68.1219 9.00854L49.1338 0.414551V142.39L68.1219 132.41" stroke="white" stroke-width="0.829535" stroke-linecap="round" stroke-linejoin="round"/>
<path vector-effect="non-scaling-stroke" d="M507.52 248.272L526.508 256.874V114.891L507.52 124.878" stroke="white" stroke-width="0.829535" stroke-linecap="round" stroke-linejoin="round"/>
<path vector-effect="non-scaling-stroke" d="M97.3332 38.9805H119.731C121.008 38.9805 122.045 39.9925 122.045 41.2451V63.8582C122.045 65.1025 121.008 66.1229 119.731 66.1229H84.2099C82.9324 66.1229 81.8955 65.1108 81.8955 63.8582V41.2451C81.8955 40.0008 82.9324 38.9805 84.2099 38.9805H90.3899" stroke="white" stroke-width="0.829535" stroke-miterlimit="10"/>
<path vector-effect="non-scaling-stroke" d="M117.946 44.0576L103.562 57.3966C103.114 57.8113 102.541 58.0187 101.969 58.0187C101.397 58.0187 100.824 57.8113 100.376 57.3966L85.9922 44.0576" stroke="white" stroke-width="0.829535" stroke-miterlimit="10"/>
<path vector-effect="non-scaling-stroke" d="M116.967 62.2163L109.244 56.9404" stroke="white" stroke-width="0.829535" stroke-miterlimit="10"/>
<path vector-effect="non-scaling-stroke" d="M94.6859 56.9404L86.9629 62.2163" stroke="white" stroke-width="0.829535" stroke-miterlimit="10"/>
<path vector-effect="non-scaling-stroke" d="M96.7852 33.4896L94.2469 31.001L91.7002 33.4896" stroke="white" stroke-width="0.829535" stroke-miterlimit="10"/>
<path vector-effect="non-scaling-stroke" d="M488.832 297.081H501.491V278.292H497.442L495.924 280.764H472.125V297.081H484.784" stroke="white" stroke-width="0.829535" stroke-miterlimit="10"/>
<path vector-effect="non-scaling-stroke" d="M478.196 304.001C478.196 304.822 477.516 305.486 476.678 305.486C475.84 305.486 475.16 304.822 475.16 304.001C475.16 303.18 475.84 302.516 476.678 302.516C477.516 302.516 478.196 303.18 478.196 304.001Z" stroke="white" stroke-width="0.829535" stroke-miterlimit="10"/>
<path vector-effect="non-scaling-stroke" d="M488.323 304.001C488.323 304.822 487.643 305.486 486.805 305.486C485.967 305.486 485.287 304.822 485.287 304.001C485.287 303.18 485.967 302.516 486.805 302.516C487.643 302.516 488.323 303.18 488.323 304.001Z" stroke="white" stroke-width="0.829535" stroke-miterlimit="10"/>
<path vector-effect="non-scaling-stroke" d="M498.452 304.001C498.452 304.822 497.772 305.486 496.934 305.486C496.096 305.486 495.416 304.822 495.416 304.001C495.416 303.18 496.096 302.516 496.934 302.516C497.772 302.516 498.452 303.18 498.452 304.001Z" stroke="white" stroke-width="0.829535" stroke-miterlimit="10"/>
<path vector-effect="non-scaling-stroke" d="M486.803 302.515V294.601" stroke="white" stroke-width="0.829535" stroke-miterlimit="10"/>
<path vector-effect="non-scaling-stroke" d="M476.68 302.515V300.043H496.937V302.515" stroke="white" stroke-width="0.829535" stroke-miterlimit="10"/>
<path vector-effect="non-scaling-stroke" d="M475.666 278.79V274.833H497.947V276.318" stroke="white" stroke-width="0.829535" stroke-miterlimit="10"/>
<path vector-effect="non-scaling-stroke" d="M484.775 294.61H488.824" stroke="white" stroke-width="0.829535" stroke-miterlimit="10"/>
<path vector-effect="non-scaling-stroke" d="M363.992 289.002C363.992 289.002 385.261 261.859 408.032 289.002C408.032 289.002 387.85 316.642 363.992 289.002Z" stroke="white" stroke-width="0.829535" stroke-miterlimit="10"/>
<path vector-effect="non-scaling-stroke" d="M386.006 296.891C390.514 296.891 394.169 293.411 394.169 289.118C394.169 284.825 390.514 281.345 386.006 281.345C381.498 281.345 377.844 284.825 377.844 289.118C377.844 293.411 381.498 296.891 386.006 296.891Z" stroke="white" stroke-width="0.829535" stroke-miterlimit="10"/>
<path vector-effect="non-scaling-stroke" d="M334.707 194.808C334.707 204.663 316.424 226.936 316.424 226.936C316.424 226.936 298.141 204.663 298.141 194.808C298.141 184.953 306.328 176.957 316.424 176.957C326.519 176.957 334.707 184.945 334.707 194.808Z" stroke="white" stroke-width="0.829535" stroke-linecap="round" stroke-linejoin="round"/>
<path vector-effect="non-scaling-stroke" d="M325.564 194.808C325.564 199.736 321.475 203.734 316.423 203.734C311.371 203.734 307.281 199.736 307.281 194.808C307.281 189.881 311.371 185.882 316.423 185.882C321.475 185.882 325.564 189.881 325.564 194.808Z" stroke="white" stroke-width="0.829535" stroke-linecap="round" stroke-linejoin="round"/>
<path vector-effect="non-scaling-stroke" d="M308.117 197.81C347.976 189.332 418.13 174.55 444.584 185.467C470.192 196.035 457.085 183.741 470.374 201.941" stroke="white" stroke-width="0.829535" stroke-miterlimit="10"/>
<path vector-effect="non-scaling-stroke" d="M239.59 198.864C259.474 203.974 275.957 203.518 299.2 199.818" stroke="white" stroke-width="0.829535" stroke-miterlimit="10"/>
<path vector-effect="non-scaling-stroke" d="M459.879 162.157C458.834 162.215 457.888 162.779 457.366 163.659L433.251 204.43C432.397 205.874 432.903 207.724 434.388 208.553C434.86 208.819 435.391 208.96 435.93 208.96H484.16C485.869 208.96 487.254 207.608 487.254 205.94C487.254 205.409 487.113 204.895 486.839 204.43L462.724 163.659C462.144 162.68 461.049 162.099 459.887 162.157H459.879Z" fill="#A100FF" stroke="white" stroke-width="0.829535" stroke-miterlimit="10"/>
<path vector-effect="non-scaling-stroke" d="M462.675 200.971C462.675 202.39 461.497 203.543 460.046 203.543C458.594 203.543 457.416 202.39 457.416 200.971C457.416 199.553 458.594 198.4 460.046 198.4C461.497 198.4 462.675 199.553 462.675 200.971Z" fill="#404040" stroke="white" stroke-width="0.829535" stroke-miterlimit="10"/>
<path vector-effect="non-scaling-stroke" d="M456.53 179.56C456.53 177.669 458.098 176.134 460.039 176.134C461.98 176.134 463.548 177.669 463.548 179.56L461.79 193.264C461.79 194.21 461.001 194.981 460.031 194.981C459.06 194.981 458.272 194.218 458.272 193.264L456.514 179.56H456.53Z" fill="#404040" stroke="white" stroke-width="0.829535" stroke-miterlimit="10"/>
<path vector-effect="non-scaling-stroke" d="M94.2461 31V41.7508C94.2461 43.5592 95.7144 45.0192 97.5145 45.0192" stroke="white" stroke-width="0.829535" stroke-miterlimit="10"/>
<path vector-effect="non-scaling-stroke" d="M326.777 122.754V118.1C326.777 115.106 324.28 112.667 321.211 112.667C318.141 112.667 315.645 115.106 315.645 118.1V122.754" stroke="white" stroke-width="0.829535" stroke-miterlimit="10"/>
<path vector-effect="non-scaling-stroke" d="M327.898 120.987H314.534C312.49 120.987 310.834 122.644 310.834 124.687V136.898C310.834 138.941 312.49 140.598 314.534 140.598H327.898C329.941 140.598 331.597 138.941 331.597 136.898V124.687C331.597 122.644 329.941 120.987 327.898 120.987Z" fill="#020202" stroke="white" stroke-width="0.829535" stroke-miterlimit="10"/>
<path vector-effect="non-scaling-stroke" d="M321.207 132.691C322.88 132.691 324.235 131.336 324.235 129.664C324.235 127.991 322.88 126.636 321.207 126.636C319.535 126.636 318.18 127.991 318.18 129.664C318.18 131.336 319.535 132.691 321.207 132.691Z" stroke="white" stroke-width="0.829535" stroke-miterlimit="10"/>
<path vector-effect="non-scaling-stroke" d="M321.207 129.663V136.233" stroke="white" stroke-width="0.829535" stroke-miterlimit="10" stroke-linecap="round"/>
<path vector-effect="non-scaling-stroke" d="M334.308 112.866H337.834C340.115 112.866 341.99 111 341.99 108.71V102.854C341.99 100.572 340.123 98.6978 337.834 98.6978H304.578C302.297 98.6978 300.422 100.564 300.422 102.854V108.71C300.422 110.991 302.288 112.866 304.578 112.866H308.103" stroke="white" stroke-width="0.829535" stroke-miterlimit="10"/>
<path vector-effect="non-scaling-stroke" d="M306.084 103.217L313.301 108.344" stroke="white" stroke-width="0.829535" stroke-miterlimit="10"/>
<path vector-effect="non-scaling-stroke" d="M309.693 102.156V109.406" stroke="white" stroke-width="0.829535" stroke-miterlimit="10"/>
<path vector-effect="non-scaling-stroke" d="M313.301 103.217L306.084 108.344" stroke="white" stroke-width="0.829535" stroke-miterlimit="10"/>
<path vector-effect="non-scaling-stroke" d="M317.596 103.218L324.813 108.344" stroke="white" stroke-width="0.829535" stroke-miterlimit="10"/>
<path vector-effect="non-scaling-stroke" d="M321.207 102.156V109.406" stroke="white" stroke-width="0.829535" stroke-miterlimit="10"/>
<path vector-effect="non-scaling-stroke" d="M324.813 103.218L317.596 108.344" stroke="white" stroke-width="0.829535" stroke-miterlimit="10"/>
<path vector-effect="non-scaling-stroke" d="M329.109 103.217L336.326 108.344" stroke="white" stroke-width="0.829535" stroke-miterlimit="10"/>
<path vector-effect="non-scaling-stroke" d="M332.717 102.156V109.406" stroke="white" stroke-width="0.829535" stroke-miterlimit="10"/>
<path vector-effect="non-scaling-stroke" d="M336.326 103.217L329.109 108.344" stroke="white" stroke-width="0.829535" stroke-miterlimit="10"/>
</g>
<defs>
<clipPath id="clip0_77_6936">
<rect width="483.13" height="324" fill="white" transform="translate(46)"/>
</clipPath>
</defs>
</svg>
