<svg width="576" height="324" viewBox="0 0 576 324" fill="none" xmlns="http://www.w3.org/2000/svg">
<g clip-path="url(#clip0_77_7285)">
<path vector-effect="non-scaling-stroke" d="M542.92 157.009C542.92 70.923 473.135 1.12939 387.049 1.12939C313.257 1.12939 251.451 52.4067 235.291 121.265C214.86 100.489 186.432 87.6035 154.986 87.6035C92.7738 87.6035 42.3438 138.034 42.3438 200.246C42.3438 262.458 92.7738 312.888 154.986 312.888H387.685C473.479 312.535 542.92 242.883 542.92 157.009Z" fill="#020202" stroke="white" stroke-width="0.883649"/>
<path vector-effect="non-scaling-stroke" d="M208.727 75.0097C208.727 32.8582 237.904 0.441406 280.056 0.441406C319.454 0.441406 351.385 32.3728 351.385 71.7706C351.385 107.435 338.42 117.161 338.42 143.1C338.42 149.587 346.258 286.95 355.983 312.889H307.795L257.374 169.039H224.092C220.862 169.039 218.126 166.664 217.676 163.47L211.983 123.648H195.771V120.409L208.735 75.0185L208.727 75.0097Z" fill="#202020" stroke="white" stroke-width="0.883649" stroke-linecap="round" stroke-linejoin="round"/>
<path vector-effect="non-scaling-stroke" d="M269.403 243.951H213.527V323.559H269.403V243.951Z" fill="#020202" stroke="white" stroke-width="0.883649" stroke-miterlimit="10"/>
<path vector-effect="non-scaling-stroke" d="M331.748 164.157H275.872V323.558H331.748V164.157Z" fill="#020202" stroke="white" stroke-width="0.883649" stroke-miterlimit="10"/>
<path vector-effect="non-scaling-stroke" d="M366.149 27.0151L316.02 86.8533H338.207V323.558H394.083V86.8533H416.279L366.149 27.0151Z" fill="#020202" stroke="white" stroke-width="0.883649" stroke-miterlimit="10"/>
<path vector-effect="non-scaling-stroke" d="M301.591 159.383L301.873 161.493C301.873 161.493 297.981 161.431 297.981 163.955H306.383L305.81 159.383H301.6H301.591Z" fill="#020202" stroke="white" stroke-width="0.883649" stroke-miterlimit="10"/>
<path vector-effect="non-scaling-stroke" d="M284.205 159.383L284.178 161.493C284.178 161.493 279.845 161.431 279.845 163.955H288.3V159.383H284.213H284.205Z" fill="#020202" stroke="white" stroke-width="0.883649" stroke-miterlimit="10"/>
<path vector-effect="non-scaling-stroke" d="M294.117 90.2868C293.41 89.1219 292.731 87.9216 291.672 87.0391C291.345 86.7655 291.001 86.4654 290.613 86.2095V87.3215C290.878 87.7098 290.992 88.1334 291.081 88.6188C290.957 88.4776 290.816 88.3364 290.648 88.2217C290.445 88.0805 290.074 87.8245 289.827 88.0275C289.563 88.2305 289.739 88.6541 289.827 88.8924C289.924 89.166 290.039 89.4131 290.083 89.7044C290.119 89.925 290.136 90.1368 290.216 90.3486C290.383 90.8076 290.763 91.2312 291.081 91.593C291.434 91.999 291.866 92.2373 292.29 92.5638C292.793 92.9521 293.013 93.5435 293.26 94.1171C293.446 94.5407 293.622 94.9644 293.808 95.3968L295.537 92.7227C295.079 91.9107 294.611 91.1076 294.125 90.3045L294.117 90.2868Z" fill="#020202" stroke="white" stroke-width="0.883649" stroke-miterlimit="10"/>
<path vector-effect="non-scaling-stroke" d="M306.932 37.9331C301.469 10.4941 261.267 10.0263 255.584 37.4213C255.204 39.2305 254.992 41.0927 254.957 42.9991C254.825 50.4038 257.358 57.2349 261.665 62.5656C264.983 66.6784 267.172 71.5502 268.09 76.6956C268.328 78.0547 269.246 79.158 270.473 79.6345L291.257 79.8287C292.484 79.3874 293.446 78.3372 293.711 76.9957C293.984 75.5924 294.39 74.092 294.893 72.6446C294.893 72.6181 294.911 72.5916 294.92 72.5652C296.155 69.0702 298 65.7958 300.418 62.9187C304.769 57.7292 307.417 51.0569 307.488 43.7581C307.505 41.7723 307.311 39.8218 306.94 37.9243L306.932 37.9331Z" fill="#A100FF" stroke="white" stroke-width="0.883649" stroke-miterlimit="10"/>
<path vector-effect="non-scaling-stroke" d="M270.605 79.6431L270.543 86.7917L270.508 90.0837V90.1984C270.49 92.2547 272.105 93.9404 274.153 94.0286H274.1V94.3287C274.065 98.0442 277.048 101.089 280.772 101.124C284.496 101.16 287.532 98.1678 287.568 94.4523V94.1434H287.347C289.386 94.0904 291.045 92.4401 291.063 90.3837V90.269L291.098 86.9771L291.16 79.8284L270.605 79.6343V79.6431Z" fill="#020202" stroke="white" stroke-width="0.883649" stroke-miterlimit="10"/>
<path vector-effect="non-scaling-stroke" d="M270.128 88.981C270.154 88.8044 270.304 88.319 270.595 88.4955C270.887 88.6632 270.807 89.4311 270.842 89.7135C270.931 90.4372 271.354 90.949 271.866 91.4256C271.813 91.2403 271.769 91.0461 271.76 90.852C271.751 90.6048 271.734 90.1547 272.034 90.0488C272.352 89.9341 272.616 90.3048 272.766 90.5166C272.943 90.746 273.093 90.9755 273.314 91.1697C273.481 91.3197 273.658 91.4433 273.79 91.6198C274.081 92.0081 274.24 92.5553 274.373 93.0142C274.523 93.5349 274.496 94.0203 274.54 94.5587C274.593 95.1941 274.982 95.6971 275.326 96.209C275.591 96.5885 275.846 96.968 276.111 97.3475L272.925 97.374C272.484 96.5532 272.06 95.7236 271.645 94.8852C271.037 93.6673 270.392 92.4405 270.216 91.0814C270.128 90.4283 270.013 89.6429 270.119 88.9898L270.128 88.981Z" fill="#020202" stroke="white" stroke-width="0.883649" stroke-miterlimit="10"/>
<path vector-effect="non-scaling-stroke" d="M292.563 82.3619C292.669 82.2295 293.207 81.7706 293.357 81.4441C293.754 80.5615 293.604 79.7407 294.151 79.0259L300.515 79.6084C300.515 79.6084 300.568 79.6701 300.594 79.6966C301.141 80.4291 301.441 81.347 301.627 82.2295C301.847 83.2886 301.891 84.4006 301.715 85.4685C301.662 85.7597 301.424 86.8541 301 87.1365C300.991 87.4807 300.974 87.8337 300.956 88.1779C300.938 88.5662 300.974 89.0163 300.903 89.3958L294.46 88.8133C294.487 88.3632 294.522 87.9131 294.584 87.463C294.107 87.0747 293.666 86.6246 293.463 86.0421C293.339 85.6715 293.348 85.292 293.357 84.9037C293.366 84.2417 293.287 83.7475 292.775 83.2886C292.58 83.1209 292.413 82.9885 292.439 82.7061C292.448 82.5737 292.492 82.459 292.572 82.3619H292.563Z" fill="#020202" stroke="white" stroke-width="0.883649" stroke-miterlimit="10"/>
<path vector-effect="non-scaling-stroke" d="M301.149 159.525C301.202 157.054 301.22 154.582 300.946 152.12C300.628 149.296 299.684 146.604 299.534 143.753C299.455 142.235 296.392 129.588 295.554 126.843C294.653 130.109 293.797 133.383 292.677 136.569C292.076 138.273 291.953 139.949 291.829 141.759C291.715 143.4 291.556 145.033 291.335 146.657C290.876 150.099 288.511 159.507 288.475 159.622L283.798 159.657C283.895 156.453 285.016 146.833 284.866 145.121C284.716 143.418 284.345 126.614 285.969 120.039L304.176 119.906C304.6 122.863 305.059 125.837 305.262 128.811C305.509 132.395 305.121 135.969 305.147 139.552C305.174 143.135 306.021 146.569 306.259 150.125C306.471 153.241 306.356 156.374 306.206 159.489L301.149 159.525Z" fill="#020202" stroke="white" stroke-width="0.883649" stroke-miterlimit="10"/>
<path vector-effect="non-scaling-stroke" d="M306.612 92.7411C305.271 91.3996 303.4 91.0907 301.882 90.0846C301.794 89.8551 301.441 89.0167 301.317 88.9019C301.061 88.6637 294.415 88.6548 294.292 88.7872C293.912 89.1932 293.568 89.6874 293.339 90.2346C292.862 90.4817 292.35 90.6671 291.794 90.7553C291.132 90.8524 290.488 91.0554 289.852 91.2849C288.979 91.6026 288.105 91.9821 287.258 92.4499V101.867C287.725 108.477 285.184 114.902 284.478 121.433C286.004 121.469 302.385 122.713 305.139 123.419C305.765 120.516 305.889 117.532 305.898 114.567C305.898 111.928 305.827 109.289 305.959 106.659C306.021 105.38 306.145 104.109 306.348 102.847C306.568 101.452 306.948 100.128 307.327 98.7779C307.91 96.695 308.175 94.3297 306.604 92.7676L306.612 92.7411Z" fill="#020202" stroke="white" stroke-width="0.883649" stroke-miterlimit="10"/>
<path vector-effect="non-scaling-stroke" d="M287.744 100.552L288.582 91.8677C288.256 91.9824 287.929 92.0971 287.611 92.2384C286.323 92.8032 285.149 93.6592 284.002 94.5153C282.819 95.4067 281.636 96.2981 280.348 96.9865C279.359 97.516 278.336 97.9308 277.285 98.2485C276.915 97.4101 275.132 95.3273 275.132 95.3273C273.941 96.8717 272.237 96.9776 272.237 96.9776C272.273 97.9573 272.308 98.9369 272.352 99.9254C272.423 101.452 272.74 102.864 274.832 103.747C274.991 103.817 275.159 103.862 275.326 103.888C276.65 104.1 278.044 103.667 279.333 103.217C280.666 102.75 281.963 102.167 283.304 101.717C283.984 101.487 284.664 101.302 285.352 101.17C285.749 101.099 287.329 100.605 287.726 100.552H287.744Z" fill="#020202" stroke="white" stroke-width="0.883649" stroke-miterlimit="10"/>
<path vector-effect="non-scaling-stroke" d="M303.143 79.8636C303.205 78.4427 302.525 77.0924 301.334 76.3157C300.734 75.9274 300.036 75.7068 299.33 75.645C298.457 75.5744 297.592 75.8127 296.709 75.7686C295.306 75.698 293.726 75.3891 292.923 76.8629C292.588 77.4719 292.394 78.2927 292.394 78.9899C292.394 79.3782 292.605 79.7224 292.87 80.0313C293.25 80.7903 294 81.5316 294.291 82.2553C294.538 82.8907 294.909 83.5173 295.05 84.1969C295.174 84.7794 295.076 85.3883 295.191 85.9797C295.385 87.0475 296.444 87.48 297.301 87.9919C297.777 88.2743 298.068 88.2566 298.58 88.0801C299.145 87.886 299.763 87.886 300.319 87.6653C302.146 86.9328 302.684 84.6029 302.711 82.7495C302.728 82.6701 302.746 82.5907 302.755 82.5112C302.905 81.6463 303.099 80.755 303.143 79.8724V79.8636Z" fill="#020202" stroke="white" stroke-width="0.883649" stroke-miterlimit="10"/>
<path vector-effect="non-scaling-stroke" d="M427.743 299.631L424.839 323.557H464.722C464.722 323.557 466.381 317.565 455.146 313.258C445.818 311.343 446.541 305.218 445.42 300.505C444.3 295.783 427.743 299.631 427.743 299.631Z" fill="#202020" stroke="white" stroke-width="0.883649" stroke-miterlimit="10"/>
<path vector-effect="non-scaling-stroke" d="M449.726 310.857H442.472" stroke="white" stroke-width="0.883649" stroke-miterlimit="10"/>
<path vector-effect="non-scaling-stroke" d="M447.369 308.086H441.139" stroke="white" stroke-width="0.883649" stroke-miterlimit="10"/>
<path vector-effect="non-scaling-stroke" d="M395.201 300.725L390.232 323.557H352.423C352.423 323.557 350.764 317.564 361.999 313.257C371.328 311.342 373.843 306.135 374.964 301.413C376.085 296.691 395.201 300.733 395.201 300.733V300.725Z" fill="#202020" stroke="white" stroke-width="0.883649" stroke-miterlimit="10"/>
<path vector-effect="non-scaling-stroke" d="M377.39 309.842H370.136" stroke="white" stroke-width="0.883649" stroke-miterlimit="10"/>
<path vector-effect="non-scaling-stroke" d="M379.201 306.391H372.961" stroke="white" stroke-width="0.883649" stroke-miterlimit="10"/>
<path vector-effect="non-scaling-stroke" d="M391.434 318.005H354.489" stroke="white" stroke-width="0.883649" stroke-miterlimit="10"/>
<path vector-effect="non-scaling-stroke" d="M436.188 130.381L435.314 122.5C435.314 122.5 443.619 126.286 446.478 122.773C448.482 120.311 447.034 117.054 445.587 113.03L445.949 113.074C446.893 113.189 447.511 112.112 446.946 111.353C446.037 110.117 444.925 108.908 444.095 108.052C444.06 107.858 444.016 107.655 443.981 107.461C442.78 100.789 435.932 98.8204 432.498 98.5556C429.065 98.2909 424.193 97.6907 421.149 101.848C418.042 106.084 423.479 111.829 424.176 121.582C424.317 123.585 424.026 126.577 422.208 130.822L436.196 130.372L436.188 130.381Z" fill="#202020" stroke="white" stroke-width="0.883649" stroke-miterlimit="10"/>
<path vector-effect="non-scaling-stroke" d="M458.253 184.967L454.016 149.091L454.864 156.284L462.701 160.105L471.262 142.418C471.262 142.418 457.538 133.372 452.816 131.36C448.712 129.612 436.956 127.229 436.956 127.229H419.808C419.808 127.229 407.214 127.953 402.633 130.777C391.16 137.847 383.967 148.702 383.967 148.702L403.207 158.137L410.373 148.711L405.757 154.783L407.734 166.53L409.605 177.659L410.832 184.967" fill="#202020"/>
<path vector-effect="non-scaling-stroke" d="M458.253 184.967L454.016 149.091L454.864 156.284L462.701 160.105L471.262 142.418C471.262 142.418 457.538 133.372 452.816 131.36C448.712 129.612 436.956 127.229 436.956 127.229H419.808C419.808 127.229 407.214 127.953 402.633 130.777C391.16 137.847 383.967 148.702 383.967 148.702L403.207 158.137L410.373 148.711L405.757 154.783L407.734 166.53L409.605 177.659L410.832 184.967" stroke="white" stroke-width="0.883649" stroke-miterlimit="10"/>
<path vector-effect="non-scaling-stroke" d="M457.723 184.967L455.772 306.171L418.519 305.941L429.216 215.407C411.82 245.918 402.474 270.118 396.914 305.941L361.99 306.4C372.087 262.845 388.282 222.238 411.361 184.967H457.723Z" fill="#020202" stroke="white" stroke-width="0.883649"/>
<path vector-effect="non-scaling-stroke" d="M526.323 117.398C526.323 117.398 526.314 117.398 526.305 117.407C523.34 119.234 512.864 119.207 509.616 120.461C507.63 121.229 505.503 123.709 504.665 125.668C497.031 141.431 489.741 163.257 478.205 163.257C477.261 163.257 476.264 163.151 475.258 162.912C472.019 162.162 467.923 160.229 463.784 157.89L470.324 144.378C473.289 146.117 475.955 147.476 477.835 148.094C481.7 145.49 495.91 126.436 499.228 119.596C500.852 116.436 500.87 114.468 501.037 113.18C501.214 111.891 500.932 110.497 500.04 109.543C499.634 109.12 499.122 108.802 498.716 108.378C498.31 107.955 497.984 107.372 498.125 106.799C498.231 106.34 498.61 105.978 499.052 105.81C499.493 105.651 499.978 105.651 500.437 105.739C501.911 106.031 503.147 107.09 503.959 108.343C504.78 109.605 505.247 111.053 505.706 112.465C508.142 111.353 515.044 109.932 517.674 109.455C518.477 109.314 519.289 109.199 520.057 109.437C520.825 109.676 521.513 110.355 521.495 111.167L521.645 111.291H521.813C522.396 111.3 522.996 111.344 523.49 111.635C523.975 111.926 524.258 112.703 524.09 113.241H524.081C524.434 113.303 524.77 113.4 525.07 113.577C525.591 113.894 525.961 114.548 525.758 115.121L516.871 116.171C519.898 115.801 522.104 115.607 525.123 115.236C525.282 115.218 525.449 115.192 525.608 115.192C526.835 115.121 527.356 116.736 526.314 117.389L526.323 117.398Z" fill="#202020" stroke="white" stroke-width="0.883649" stroke-miterlimit="10"/>
<path vector-effect="non-scaling-stroke" d="M521.771 111.3H521.647L521.496 111.176L521.771 111.3Z" fill="#202020" stroke="white" stroke-width="0.883649" stroke-miterlimit="10"/>
<path vector-effect="non-scaling-stroke" d="M525.344 115.669C525.908 115.669 525.908 114.786 525.344 114.786C524.779 114.786 524.779 115.669 525.344 115.669Z" fill="white"/>
<path vector-effect="non-scaling-stroke" d="M523.86 113.418C520.374 113.418 518.141 113.542 514.743 114.327L523.86 113.418Z" fill="#202020"/>
<path vector-effect="non-scaling-stroke" d="M523.858 112.976C520.734 112.976 517.681 113.206 514.618 113.903C514.062 114.026 514.3 114.882 514.856 114.75C517.839 114.07 520.805 113.859 523.858 113.859C524.423 113.859 524.423 112.976 523.858 112.976Z" fill="white"/>
<path vector-effect="non-scaling-stroke" d="M521.529 111.458C519.119 111.643 516.719 111.979 514.354 112.464L521.529 111.458Z" fill="#202020"/>
<path vector-effect="non-scaling-stroke" d="M521.527 111.018C519.074 111.212 516.638 111.547 514.229 112.041C513.673 112.156 513.911 113.003 514.467 112.889C516.797 112.412 519.153 112.086 521.527 111.9C522.092 111.856 522.092 110.974 521.527 111.018Z" fill="white"/>
<path vector-effect="non-scaling-stroke" d="M477.482 148.023C477.296 148.385 477.084 148.729 476.846 149.056C476.828 149.074 476.82 149.091 476.802 149.109C476.802 149.109 476.749 149.18 476.784 149.135C476.82 149.082 476.767 149.162 476.758 149.171C476.74 149.188 476.731 149.206 476.714 149.224C476.652 149.303 476.581 149.383 476.511 149.462C476.378 149.612 476.228 149.762 476.087 149.903C475.919 150.062 475.911 150.371 476.087 150.53C476.264 150.689 476.537 150.698 476.714 150.53C477.332 149.939 477.861 149.232 478.241 148.465C478.346 148.262 478.302 147.979 478.082 147.865C477.879 147.759 477.587 147.803 477.482 148.023Z" fill="white"/>
<path vector-effect="non-scaling-stroke" d="M477.615 148.703C477.668 148.756 477.721 148.809 477.765 148.871C477.774 148.888 477.782 148.897 477.8 148.915C477.835 148.959 477.747 148.844 477.782 148.888C477.8 148.915 477.827 148.941 477.844 148.977C477.932 149.1 478.012 149.224 478.074 149.365C478.091 149.4 478.109 149.427 478.118 149.462C478.118 149.48 478.135 149.497 478.135 149.506C478.162 149.559 478.1 149.418 478.118 149.471C478.144 149.541 478.171 149.612 478.197 149.683C478.241 149.824 478.277 149.974 478.303 150.115C478.321 150.221 478.418 150.327 478.506 150.38C478.603 150.433 478.744 150.459 478.85 150.424C479.097 150.345 479.203 150.124 479.159 149.877C479.044 149.206 478.709 148.571 478.232 148.076C478.074 147.909 477.765 147.9 477.606 148.076C477.447 148.253 477.438 148.526 477.606 148.703H477.615Z" fill="white"/>
<path vector-effect="non-scaling-stroke" d="M396.482 164.218C396.429 164.218 396.367 164.218 396.314 164.209C396.288 164.209 396.261 164.209 396.235 164.209C396.182 164.209 396.199 164.209 396.235 164.209C396.129 164.192 396.014 164.174 395.908 164.147C395.802 164.121 395.696 164.094 395.59 164.059C395.537 164.042 395.484 164.024 395.432 164.006C395.405 163.997 395.379 163.989 395.352 163.98C395.343 163.98 395.246 163.936 395.29 163.953C395.334 163.971 395.255 163.936 395.246 163.936C395.22 163.927 395.193 163.909 395.167 163.9C395.114 163.874 395.07 163.847 395.017 163.83C394.92 163.777 394.823 163.724 394.734 163.662C394.69 163.636 394.646 163.6 394.593 163.574C394.567 163.556 394.549 163.538 394.522 163.53C394.522 163.53 394.452 163.477 394.487 163.503C394.522 163.53 394.461 163.477 394.452 163.477C394.434 163.459 394.408 163.441 394.39 163.424C394.346 163.38 394.293 163.344 394.249 163.3C394.081 163.141 393.79 163.124 393.622 163.3C393.455 163.477 393.446 163.759 393.622 163.927C394.399 164.659 395.414 165.083 396.473 165.127C396.702 165.136 396.923 164.915 396.914 164.686C396.905 164.439 396.72 164.253 396.473 164.245L396.482 164.218Z" fill="white"/>
<path vector-effect="non-scaling-stroke" d="M396.251 164.474C396.137 164.597 396.022 164.721 395.898 164.836C395.837 164.889 395.775 164.95 395.713 165.003C395.678 165.03 395.651 165.056 395.616 165.083C395.598 165.1 395.581 165.109 395.563 165.127C395.519 165.162 395.651 165.056 395.572 165.118C395.298 165.321 395.007 165.498 394.698 165.648C394.486 165.745 394.416 166.062 394.539 166.248C394.681 166.46 394.919 166.512 395.139 166.407C395.793 166.089 396.393 165.639 396.869 165.092C397.019 164.915 397.055 164.633 396.869 164.465C396.702 164.315 396.41 164.28 396.243 164.465L396.251 164.474Z" fill="white"/>
<path vector-effect="non-scaling-stroke" d="M423.497 118.969C424.388 119.199 425.545 109.623 427.318 109.958C429.375 110.347 428.457 103.754 432.12 103.207C433.867 102.942 435.641 103.489 437.38 103.798C439.118 104.107 440.945 104.319 442.64 103.798C444.334 103.277 446.002 102.712 446.47 96.0931C434 95.0252 425.827 91.336 419.72 95.4047C419.155 95.7842 418.572 96.2255 418.334 96.8609C417.919 97.9465 417.072 102.686 417.672 103.683" fill="#A2A2A0"/>
<path vector-effect="non-scaling-stroke" d="M423.497 118.969C424.388 119.199 425.545 109.623 427.318 109.958C429.375 110.347 428.457 103.754 432.12 103.207C433.867 102.942 435.641 103.489 437.38 103.798C439.118 104.107 440.945 104.319 442.64 103.798C444.334 103.277 446.002 102.712 446.47 96.0931C434 95.0252 425.827 91.336 419.72 95.4047C419.155 95.7842 418.572 96.2255 418.334 96.8609C417.919 97.9465 417.072 102.686 417.672 103.683" stroke="white" stroke-width="0.883649" stroke-miterlimit="10"/>
<path vector-effect="non-scaling-stroke" d="M468.818 179.204L468.667 179.707C468.297 180.907 468.968 182.178 470.168 182.549C471.368 182.92 472.639 182.249 473.01 181.049L473.645 178.983L476.858 168.551L480.697 156.072C480.882 155.472 480.803 154.854 480.538 154.342C480.264 153.83 479.797 153.415 479.197 153.23C477.996 152.859 476.725 153.53 476.355 154.73L468.818 179.213V179.204Z" fill="#202020" stroke="white" stroke-width="0.883649" stroke-miterlimit="10"/>
<path vector-effect="non-scaling-stroke" d="M462.728 156.724C467.749 157.492 471.677 156.636 476.266 155.03" stroke="white" stroke-width="0.883649"/>
<path vector-effect="non-scaling-stroke" d="M448.639 156.312L450.992 157.037L448.984 163.557L446.631 162.832C446.133 162.679 445.853 162.149 446.006 161.652L447.458 156.937C447.612 156.439 448.141 156.159 448.639 156.312Z" fill="#202020" stroke="white" stroke-width="0.883649" stroke-miterlimit="10"/>
<path vector-effect="non-scaling-stroke" d="M462.753 156.637L458.499 170.457C458.402 170.775 458.049 170.943 457.741 170.81C456.787 170.422 454.731 169.734 453.725 169.425L450.865 168.542C449.144 168.013 448.174 166.186 448.703 164.456L451.289 156.063C451.819 154.333 453.645 153.371 455.375 153.901L458.235 154.783C459.232 155.092 461.324 155.683 462.33 155.904C462.656 155.975 462.85 156.301 462.753 156.628V156.637Z" fill="#202020" stroke="white" stroke-width="0.883649" stroke-miterlimit="10"/>
<path vector-effect="non-scaling-stroke" d="M478.358 163.67C480.9 164.597 482.294 167.368 481.491 169.981C480.688 172.593 477.979 174.102 475.349 173.431" fill="#202020"/>
<path vector-effect="non-scaling-stroke" d="M478.358 163.67C480.9 164.597 482.294 167.368 481.491 169.981C480.688 172.593 477.979 174.102 475.349 173.431" stroke="white" stroke-width="0.883649" stroke-miterlimit="10"/>
<path vector-effect="non-scaling-stroke" d="M453.964 158.976L458.077 160.246" stroke="white" stroke-width="0.883649" stroke-miterlimit="10"/>
<path vector-effect="non-scaling-stroke" d="M452.543 163.591L456.656 164.853" stroke="white" stroke-width="0.883649" stroke-miterlimit="10"/>
<path vector-effect="non-scaling-stroke" d="M455.482 170.016L450.857 178.983H446.471C443.655 178.118 445.738 177.985 445.791 175.038L450.725 168.418" fill="#020202"/>
<path vector-effect="non-scaling-stroke" d="M455.482 170.016L450.857 178.983H446.471C443.655 178.118 445.738 177.985 445.791 175.038L450.725 168.418" stroke="white" stroke-width="0.883649"/>
<path vector-effect="non-scaling-stroke" d="M476.355 154.722L468.756 179.398C465.861 175.489 463.108 172.576 458.519 170.387L462.755 156.646C462.755 156.646 469.347 158.049 476.355 154.731V154.722Z" fill="#202020" stroke="white" stroke-width="0.883649" stroke-miterlimit="10"/>
<path vector-effect="non-scaling-stroke" d="M401.538 157.316L396.543 164.721C413.065 167.916 434.317 168.472 434.317 168.472C439.86 168.719 444.917 168.657 450.292 170.007C455.022 171.199 455.516 172.496 459.638 175.091C459.982 175.303 460.326 175.523 460.573 175.841C460.812 176.15 460.935 176.6 460.776 176.962C460.609 177.35 460.159 177.544 459.735 177.562C459.311 177.562 458.905 177.412 458.508 177.271C455.658 176.221 455.225 175.294 452.366 174.235L449.409 172.593C450.68 173.793 451.642 175.338 452.145 177.024C452.286 177.474 452.383 177.942 452.26 178.392C452.101 178.957 451.615 179.363 451.077 179.583C450.539 179.795 450.018 179.724 449.462 179.636L449.418 179.618C449.418 179.671 449.382 179.707 449.365 179.751C448.968 180.563 448.323 180.889 447.353 181.057L447.282 181.11C447.061 181.56 446.691 181.843 446.32 181.922C446.32 181.922 446.285 181.931 446.267 181.94C445.835 182.063 445.084 182.019 444.652 181.94C443.416 181.728 442.198 181.454 440.989 181.11C440.46 180.96 439.886 180.766 439.577 180.325C439.198 179.786 439.312 179.018 439.674 178.471C440.036 177.924 441.016 177.756 441.572 177.394C441.148 177.165 440.698 176.997 440.266 176.935C439.392 176.9 436.753 176.9 433.002 176.865C425.986 177.121 422.95 177.121 409.64 177.659C397.849 178.136 386.014 176.018 379.05 173.899C372.308 171.843 387.894 150.608 387.894 150.608" fill="#202020"/>
<path vector-effect="non-scaling-stroke" d="M401.538 157.316L396.543 164.721C413.065 167.916 434.317 168.472 434.317 168.472C439.86 168.719 444.917 168.657 450.292 170.007C455.022 171.199 455.516 172.496 459.638 175.091C459.982 175.303 460.326 175.523 460.573 175.841C460.812 176.15 460.935 176.6 460.776 176.962C460.609 177.35 460.159 177.544 459.735 177.562C459.311 177.562 458.905 177.412 458.508 177.271C455.658 176.221 455.225 175.294 452.366 174.235L449.409 172.593C450.68 173.793 451.642 175.338 452.145 177.024C452.286 177.474 452.383 177.942 452.26 178.392C452.101 178.957 451.615 179.363 451.077 179.583C450.539 179.795 450.018 179.724 449.462 179.636L449.418 179.618C449.418 179.671 449.382 179.707 449.365 179.751C448.968 180.563 448.323 180.889 447.353 181.057L447.282 181.11C447.061 181.56 446.691 181.843 446.32 181.922C446.32 181.922 446.285 181.931 446.267 181.94C445.835 182.063 445.084 182.019 444.652 181.94C443.416 181.728 442.198 181.454 440.989 181.11C440.46 180.96 439.886 180.766 439.577 180.325C439.198 179.786 439.312 179.018 439.674 178.471C440.036 177.924 441.016 177.756 441.572 177.394C441.148 177.165 440.698 176.997 440.266 176.935C439.392 176.9 436.753 176.9 433.002 176.865C425.986 177.121 422.95 177.121 409.64 177.659C397.849 178.136 386.014 176.018 379.05 173.899C372.308 171.843 387.894 150.608 387.894 150.608" stroke="white" stroke-width="0.883649" stroke-miterlimit="10"/>
<path vector-effect="non-scaling-stroke" d="M447.341 181.066C448.321 180.898 448.957 180.572 449.354 179.76C449.645 179.159 449.671 178.453 449.539 177.792C449.363 176.874 448.912 176.018 448.356 175.259C447.8 174.5 447.139 173.838 446.468 173.167C446.494 173.185 446.53 173.202 446.556 173.22" fill="#202020"/>
<path vector-effect="non-scaling-stroke" d="M447.455 181.489C448.188 181.357 448.911 181.092 449.397 180.501C449.997 179.759 450.138 178.797 449.997 177.871C449.688 175.823 448.179 174.261 446.776 172.858L446.237 173.555L446.326 173.608C446.829 173.882 447.27 173.114 446.767 172.849L446.679 172.796C446.246 172.558 445.787 173.123 446.14 173.493C447.314 174.676 448.576 175.929 449.017 177.597C449.22 178.347 449.238 179.203 448.77 179.865C448.4 180.386 447.799 180.545 447.199 180.66C446.643 180.766 446.882 181.613 447.438 181.507L447.455 181.489Z" fill="white"/>
<path vector-effect="non-scaling-stroke" d="M449.451 179.645C450.007 179.734 450.537 179.795 451.075 179.583C451.614 179.372 452.108 178.957 452.258 178.401C452.381 177.951 452.276 177.483 452.143 177.033C451.631 175.347 450.678 173.803 449.398 172.603" fill="#202020"/>
<path vector-effect="non-scaling-stroke" d="M449.327 180.069C450.298 180.219 451.216 180.193 452.001 179.539C452.787 178.886 452.857 177.916 452.584 176.98C452.063 175.197 451.048 173.573 449.706 172.294C449.292 171.905 448.674 172.523 449.08 172.92C450.148 173.935 450.995 175.18 451.507 176.556C451.745 177.201 452.107 178.057 451.622 178.666C451.11 179.31 450.307 179.328 449.556 179.222C449 179.133 448.762 179.99 449.318 180.069H449.327Z" fill="white"/>
<path vector-effect="non-scaling-stroke" d="M440.229 176.936C441.288 177.112 442.435 177.836 443.167 178.621C443.918 179.424 444.588 180.307 445.197 181.401C445.718 182.337 446.83 182.046 447.307 181.084C447.624 180.43 447.404 179.645 447.13 178.974C446.371 177.094 445.277 175.347 443.926 173.847" fill="#202020"/>
<path vector-effect="non-scaling-stroke" d="M440.229 176.936C441.288 177.112 442.435 177.836 443.167 178.621C443.918 179.424 444.588 180.307 445.197 181.401C445.718 182.337 446.83 182.046 447.307 181.084C447.624 180.43 447.404 179.645 447.13 178.974C446.371 177.094 445.277 175.347 443.926 173.847" stroke="white" stroke-width="0.883649" stroke-miterlimit="10"/>
<path vector-effect="non-scaling-stroke" d="M462.772 318.006H425.51" stroke="white" stroke-width="0.883649" stroke-miterlimit="10"/>
<path vector-effect="non-scaling-stroke" d="M429.729 108.476C429.729 108.476 427.107 106.243 425.43 108.105C423.304 110.462 426.207 113.206 427.513 113.374" fill="#202020"/>
<path vector-effect="non-scaling-stroke" d="M429.729 108.476C429.729 108.476 427.107 106.243 425.43 108.105C423.304 110.462 426.207 113.206 427.513 113.374" stroke="white" stroke-width="0.883649" stroke-miterlimit="10"/>
<path vector-effect="non-scaling-stroke" d="M446.471 115.174C446.471 115.174 444.229 116.436 441.908 113.18L446.471 115.174Z" fill="#202020"/>
<path vector-effect="non-scaling-stroke" d="M446.471 115.174C446.471 115.174 444.229 116.436 441.908 113.18" stroke="white" stroke-width="0.883649" stroke-miterlimit="10"/>
<path vector-effect="non-scaling-stroke" d="M515.507 37.0049C515.605 38.0816 515.56 39.1671 515.357 40.2262L515.507 37.0049Z" fill="#404040"/>
<path vector-effect="non-scaling-stroke" d="M515.066 37.0048C515.163 38.0373 515.119 39.0876 514.934 40.1113C514.889 40.3496 514.995 40.5879 515.242 40.6585C515.454 40.7203 515.746 40.5879 515.79 40.3496C515.993 39.2464 516.054 38.1256 515.949 37.0048C515.931 36.7665 515.763 36.5635 515.507 36.5635C515.287 36.5635 515.048 36.7665 515.066 37.0048Z" fill="white"/>
<path vector-effect="non-scaling-stroke" d="M491.838 69.1398C491.838 56.4396 502.605 46.2548 515.508 47.2168C526.064 48.0023 534.669 56.3867 535.71 66.9157C536.39 73.8263 533.866 80.1631 529.444 84.6201C525.226 88.8741 522.719 92.9604 522.719 98.953V101.133H504.944V98.9971C504.944 93.1192 502.693 88.9888 498.484 84.8848C494.388 80.8956 491.838 75.3178 491.838 69.1398Z" fill="#202020" stroke="white" stroke-width="0.883649" stroke-miterlimit="10"/>
<path vector-effect="non-scaling-stroke" d="M522.665 103.445H504.97" stroke="white" stroke-width="0.883649" stroke-miterlimit="10"/>
<path vector-effect="non-scaling-stroke" d="M511.2 85.1845L511.156 81.5838L510.944 65.4419L513.848 62.2383L516.725 65.4066L516.522 85.1581" fill="#404040"/>
<path vector-effect="non-scaling-stroke" d="M511.2 85.1845L511.156 81.5838L510.944 65.4419L513.848 62.2383L516.725 65.4066L516.522 85.1581" stroke="white" stroke-width="0.883649" stroke-miterlimit="10"/>
<path vector-effect="non-scaling-stroke" d="M519.311 95.7046H508.403V85.8112C508.403 85.2552 508.853 84.7963 509.418 84.7963H518.305C518.861 84.7963 519.32 85.2464 519.32 85.8112V95.7046H519.311Z" fill="#202020" stroke="white" stroke-width="0.883649" stroke-miterlimit="10"/>
<path vector-effect="non-scaling-stroke" d="M539.01 53.1748C538.507 53.5543 538.004 53.925 537.501 54.3045L539.01 53.1748Z" fill="#404040"/>
<path vector-effect="non-scaling-stroke" d="M538.79 52.7948C538.287 53.1743 537.784 53.545 537.281 53.9245C537.183 53.9951 537.113 54.0657 537.078 54.1892C537.051 54.2951 537.06 54.4363 537.122 54.5334C537.183 54.6305 537.272 54.7099 537.386 54.7364C537.501 54.7629 537.634 54.7629 537.731 54.6923C538.234 54.3128 538.737 53.9421 539.24 53.5626C539.337 53.492 539.407 53.4214 539.443 53.2978C539.469 53.1919 539.46 53.0507 539.399 52.9537C539.337 52.8566 539.249 52.7771 539.134 52.7507C539.019 52.7242 538.887 52.7242 538.79 52.7948Z" fill="white"/>
<path vector-effect="non-scaling-stroke" d="M488.546 70.2252C487.628 70.1811 486.701 70.1281 485.783 70.084L488.546 70.2252Z" fill="#404040"/>
<path vector-effect="non-scaling-stroke" d="M488.545 69.7845C487.627 69.7404 486.7 69.6875 485.782 69.6433C485.553 69.6345 485.332 69.8551 485.341 70.0846C485.35 70.3317 485.535 70.517 485.782 70.5259C486.7 70.57 487.627 70.6229 488.545 70.6671C488.774 70.6759 488.995 70.4553 488.986 70.2258C488.977 69.9787 488.792 69.7934 488.545 69.7845Z" fill="white"/>
<path vector-effect="non-scaling-stroke" d="M494.291 89.2632C493.823 89.6427 493.364 90.0222 492.896 90.4017L494.291 89.2632Z" fill="#404040"/>
<path vector-effect="non-scaling-stroke" d="M493.981 88.9454C493.513 89.3249 493.054 89.7044 492.587 90.0839C492.507 90.1545 492.454 90.2957 492.454 90.3928C492.454 90.4987 492.498 90.631 492.587 90.7016C492.675 90.7722 492.781 90.834 492.895 90.834C493.019 90.834 493.116 90.7811 493.204 90.7016C493.672 90.3221 494.131 89.9427 494.599 89.5632C494.678 89.4926 494.731 89.3513 494.731 89.2543C494.731 89.1484 494.687 89.016 494.599 88.9454C494.51 88.8748 494.405 88.813 494.29 88.813C494.166 88.813 494.069 88.8659 493.981 88.9454Z" fill="white"/>
<path vector-effect="non-scaling-stroke" d="M493.848 42.6362C494.439 43.307 495.03 43.9865 495.622 44.6573L493.848 42.6362Z" fill="#404040"/>
<path vector-effect="non-scaling-stroke" d="M493.53 42.9447C494.121 43.6154 494.712 44.295 495.304 44.9657C495.454 45.1422 495.771 45.1334 495.93 44.9657C496.098 44.7804 496.089 44.5244 495.93 44.3391C495.339 43.6684 494.748 42.9888 494.156 42.3181C494.006 42.1415 493.689 42.1504 493.53 42.3181C493.362 42.5034 493.371 42.7593 493.53 42.9447Z" fill="white"/>
<path vector-effect="non-scaling-stroke" d="M543.697 72.3702C542.682 72.2819 541.676 72.2025 540.661 72.1143L543.697 72.3702Z" fill="#404040"/>
<path vector-effect="non-scaling-stroke" d="M543.697 71.9287C542.682 71.8405 541.676 71.7611 540.661 71.6728C540.423 71.6551 540.22 71.8934 540.22 72.1141C540.22 72.37 540.423 72.5377 540.661 72.5553C541.676 72.6436 542.682 72.723 543.697 72.8113C543.935 72.8289 544.138 72.5907 544.138 72.37C544.138 72.1141 543.935 71.9464 543.697 71.9287Z" fill="white"/>
<path vector-effect="non-scaling-stroke" d="M533.573 88.8213C534.12 89.4126 534.668 90.0039 535.215 90.5952L533.573 88.8213Z" fill="#404040"/>
<path vector-effect="non-scaling-stroke" d="M533.264 89.1303C533.812 89.7216 534.359 90.3129 534.906 90.9042C535.065 91.0719 535.374 91.0719 535.533 90.9042C535.7 90.7189 535.7 90.463 535.533 90.2776C534.985 89.6863 534.438 89.095 533.891 88.5037C533.732 88.336 533.423 88.336 533.264 88.5037C533.097 88.689 533.097 88.945 533.264 89.1303Z" fill="white"/>
<path vector-effect="non-scaling-stroke" d="M504.959 95.7051V110.285C504.959 110.708 505.303 111.044 505.718 111.044H521.975C522.389 111.044 522.734 110.708 522.734 110.285V95.7051H504.959Z" fill="#404040" stroke="white" stroke-width="0.883649" stroke-miterlimit="10"/>
<path vector-effect="non-scaling-stroke" d="M509.099 111.044C509.513 113.295 511.481 114.989 513.856 114.989C516.23 114.989 518.189 113.286 518.604 111.044H509.099Z" fill="#404040" stroke="white" stroke-width="0.883649" stroke-miterlimit="10"/>
<path vector-effect="non-scaling-stroke" d="M516.724 65.4067L515.224 67.4101L513.829 65.7686L512.523 67.4896L510.943 65.442" fill="#404040"/>
<path vector-effect="non-scaling-stroke" d="M516.724 65.4067L515.224 67.4101L513.829 65.7686L512.523 67.4896L510.943 65.442" stroke="white" stroke-width="0.883649" stroke-miterlimit="10"/>
<path vector-effect="non-scaling-stroke" d="M515.338 63.73H512.496" stroke="white" stroke-width="0.883649" stroke-miterlimit="10"/>
<path vector-effect="non-scaling-stroke" d="M515.224 67.4102L514.906 81.3986" stroke="white" stroke-width="0.883649" stroke-miterlimit="10"/>
<path vector-effect="non-scaling-stroke" d="M512.523 67.4902L512.947 81.3992" stroke="white" stroke-width="0.883649" stroke-miterlimit="10"/>
<path vector-effect="non-scaling-stroke" d="M516.556 81.3989L511.154 81.5843" stroke="white" stroke-width="0.883649" stroke-miterlimit="10"/>
<path vector-effect="non-scaling-stroke" d="M105.139 186.116H32.8393C32.654 186.116 32.4951 185.939 32.4951 185.727V126.719C32.4951 126.507 32.6452 126.331 32.8393 126.331H105.139C105.325 126.331 105.484 126.507 105.484 126.719V185.727C105.484 185.939 105.334 186.116 105.139 186.116Z" fill="#020202" stroke="white" stroke-width="0.883649" stroke-miterlimit="10"/>
<path vector-effect="non-scaling-stroke" d="M66.1052 166.594H58.5947V176.69H66.1052V166.594Z" fill="#A2A2A0" stroke="white" stroke-width="0.883649" stroke-miterlimit="10"/>
<path vector-effect="non-scaling-stroke" d="M79.3806 159.118H71.8701V176.689H79.3806V159.118Z" fill="#020202" stroke="white" stroke-width="0.883649" stroke-linejoin="round"/>
<path vector-effect="non-scaling-stroke" d="M92.6609 150.76H85.1504V176.69H92.6609V150.76Z" fill="#404040" stroke="white" stroke-width="0.883649" stroke-miterlimit="10"/>
<path vector-effect="non-scaling-stroke" d="M44.7547 167.335C44.7553 167.335 44.7558 167.335 44.7563 167.335H44.7563H44.7562H44.7562H44.7562H44.7562H44.7562H44.7561H44.7561H44.7561H44.7561H44.756H44.756H44.756H44.756H44.756H44.7559H44.7559H44.7559H44.7559H44.7559H44.7558H44.7558H44.7558H44.7558H44.7558H44.7557H44.7557H44.7557H44.7557H44.7557H44.7557H44.7556H44.7556H44.7556H44.7556H44.7556H44.7555H44.7555H44.7555H44.7555H44.7555H44.7555H44.7554H44.7554H44.7554H44.7554H44.7554H44.7554H44.7554H44.7553H44.7553H44.7553H44.7553H44.7553H44.7553H44.7553H44.7552H44.7552H44.7552H44.7552H44.7552H44.7552H44.7552H44.7551H44.7551H44.7551H44.7551H44.7551H44.7551H44.7551H44.7551H44.7551H44.755H44.755H44.755H44.755H44.755H44.755H44.755H44.755H44.755H44.755H44.7549H44.7549H44.7549H44.7549H44.7549H44.7549H44.7549H44.7549H44.7549H44.7549H44.7548H44.7548H44.7548H44.7548H44.7548H44.7548H44.7548H44.7548H44.7548H44.7548H44.7547H44.7547H44.7547Z" stroke="white" stroke-width="0.883649" stroke-miterlimit="10"/>
<path vector-effect="non-scaling-stroke" d="M105.95 245.434H32.4404V268.672H105.95V245.434Z" fill="#202020" stroke="white" stroke-width="0.883649" stroke-miterlimit="10"/>
<path vector-effect="non-scaling-stroke" d="M105.95 222.194H32.4404V245.432H105.95V222.194Z" fill="#020202" stroke="white" stroke-width="0.883649" stroke-miterlimit="10"/>
<path vector-effect="non-scaling-stroke" d="M105.95 202.028H32.4404V225.266H105.95V202.028Z" fill="#202020" stroke="white" stroke-width="0.883649" stroke-miterlimit="10"/>
<path vector-effect="non-scaling-stroke" d="M93.7255 216.247C94.8905 216.247 95.8437 215.082 95.8437 213.643C95.8437 212.205 94.8993 211.04 93.7255 211.04C92.5518 211.04 91.6074 212.205 91.6074 213.643C91.6074 215.082 92.5518 216.247 93.7255 216.247Z" fill="#020202" stroke="white" stroke-width="0.883649" stroke-miterlimit="10"/>
<path vector-effect="non-scaling-stroke" d="M93.7255 237.948C94.8905 237.948 95.8437 236.783 95.8437 235.345C95.8437 233.906 94.8993 232.741 93.7255 232.741C92.5518 232.741 91.6074 233.906 91.6074 235.345C91.6074 236.783 92.5518 237.948 93.7255 237.948Z" fill="#020202" stroke="white" stroke-width="0.883649" stroke-miterlimit="10"/>
<path vector-effect="non-scaling-stroke" d="M93.7255 259.651C94.8905 259.651 95.8437 258.486 95.8437 257.047C95.8437 255.609 94.8993 254.444 93.7255 254.444C92.5518 254.444 91.6074 255.609 91.6074 257.047C91.6074 258.486 92.5518 259.651 93.7255 259.651Z" fill="#020202" stroke="white" stroke-width="0.883649" stroke-miterlimit="10"/>
<path vector-effect="non-scaling-stroke" d="M42.3965 213.643H81.5561" stroke="white" stroke-width="0.883649" stroke-miterlimit="10"/>
<path vector-effect="non-scaling-stroke" d="M42.3965 235.345H81.5561" stroke="white" stroke-width="0.883649" stroke-miterlimit="10"/>
<path vector-effect="non-scaling-stroke" d="M42.3965 257.065H81.5561" stroke="white" stroke-width="0.883649" stroke-miterlimit="10"/>
<path vector-effect="non-scaling-stroke" d="M229.527 250.826H154.288V291.257H205.38L219.422 305.29V291.257H229.527V250.826Z" fill="#020202" stroke="white" stroke-width="0.883649" stroke-miterlimit="10"/>
<path vector-effect="non-scaling-stroke" d="M178.669 213.682H260.695V266.45H204.987L189.683 281.745V266.45H178.669V213.682Z" fill="#020202" stroke="white" stroke-width="0.883649" stroke-miterlimit="10"/>
<path vector-effect="non-scaling-stroke" d="M219.635 186.116H131.713V233.36H191.419L207.826 249.758V233.36H219.635V186.116Z" fill="black" stroke="white" stroke-width="0.883649" stroke-miterlimit="10"/>
<path vector-effect="non-scaling-stroke" d="M95.8457 90.3841L102.73 73.8536L145.323 64.666L158.411 76.8808L134.696 118.697L95.8457 90.3841Z" fill="#020202" stroke="white" stroke-width="0.883649"/>
<path vector-effect="non-scaling-stroke" d="M127.937 68.4165L139.551 80.949L134.697 118.696" fill="#020202"/>
<path vector-effect="non-scaling-stroke" d="M127.937 68.4165L139.551 80.949L134.697 118.696" stroke="white" stroke-width="0.883649"/>
<path vector-effect="non-scaling-stroke" d="M134.697 118.696L115.033 86.2442L120.117 70.1021" fill="#020202"/>
<path vector-effect="non-scaling-stroke" d="M134.697 118.696L115.033 86.2442L120.117 70.1021" stroke="white" stroke-width="0.883649"/>
<path vector-effect="non-scaling-stroke" d="M95.8457 90.3837L158.411 76.8804" stroke="white" stroke-width="0.883649"/>
<path vector-effect="non-scaling-stroke" d="M115.033 86.2445L102.73 73.8535" stroke="white" stroke-width="0.883649"/>
<path vector-effect="non-scaling-stroke" d="M139.552 80.949L145.324 64.666" stroke="white" stroke-width="0.883649"/>
<path vector-effect="non-scaling-stroke" d="M122.58 62.5656L120.85 54.5432L120.559 53.1841" fill="#020202"/>
<path vector-effect="non-scaling-stroke" d="M122.58 62.5656L120.85 54.5432L120.559 53.1841" stroke="white" stroke-width="0.883649"/>
<path vector-effect="non-scaling-stroke" d="M112.111 64.8244L106.189 59.0967" stroke="white" stroke-width="0.883649"/>
<path vector-effect="non-scaling-stroke" d="M136.082 52.6455L133.046 60.306" stroke="white" stroke-width="0.883649"/>
<path vector-effect="non-scaling-stroke" d="M190.694 140.24C192.229 146.992 190.879 153.726 187.455 159.162L166.238 145.791L190.694 140.24Z" fill="black" stroke="white" stroke-width="0.883649" stroke-miterlimit="10"/>
<path vector-effect="non-scaling-stroke" d="M190.695 140.24L166.239 145.792L160.688 121.336C174.191 118.273 187.632 126.728 190.704 140.24H190.695Z" fill="black" stroke="white" stroke-width="0.883649" stroke-miterlimit="10"/>
<path vector-effect="non-scaling-stroke" d="M187.447 159.154C184.023 164.582 178.533 168.703 171.781 170.239C158.269 173.31 144.837 164.847 141.774 151.343C138.703 137.831 147.167 124.398 160.679 121.327L166.23 145.783L187.447 159.154Z" fill="black" stroke="white" stroke-width="0.883649" stroke-miterlimit="10"/>
</g>
<defs>
<clipPath id="clip0_77_7285">
<rect width="512.138" height="324" fill="white" transform="translate(32)"/>
</clipPath>
</defs>
</svg>
