<svg width="576" height="324" viewBox="0 0 576 324" fill="none" xmlns="http://www.w3.org/2000/svg">
<g clip-path="url(#clip0_77_615)">
<path vector-effect="non-scaling-stroke" d="M525.34 159.798C525.34 78.6775 459.585 12.9229 378.464 12.9229C308.938 12.9229 250.7 61.2367 235.474 126.121C216.222 106.544 189.437 94.4042 159.803 94.4042C101.187 94.4042 53.6641 141.927 53.6641 200.543C53.6641 259.16 101.187 306.683 159.803 306.683H379.062C459.901 306.349 525.331 240.726 525.331 159.807L525.34 159.798Z" fill="#020202" stroke="white" stroke-width="0.879073"/>
<path vector-effect="non-scaling-stroke" d="M546.306 181.793C546.306 260.092 482.837 323.561 404.538 323.561C326.239 323.561 262.77 260.092 262.77 181.793C262.77 137.487 283.094 97.9202 314.934 71.926C333.649 56.6389 356.347 46.0461 381.225 41.932C386.358 41.0793 391.58 40.5079 396.881 40.2266C399.369 40.0947 401.874 40.0244 404.397 40.0244H404.529C431.833 40.0244 457.326 47.7427 478.96 61.1134C515.512 83.7056 541.031 122.438 545.567 167.358C546.051 172.105 546.297 176.922 546.297 181.793H546.306Z" fill="#020202" stroke="white" stroke-width="0.879073" stroke-linecap="round" stroke-linejoin="round"/>
<path vector-effect="non-scaling-stroke" d="M418.261 50.829C415.878 43.392 412.063 40.746 404.705 40.0867C404.318 40.0515 403.923 40.0252 403.51 39.9988C401.374 39.8757 399.273 40.0252 397.189 40.2889C392.723 40.8603 388.311 41.9503 383.722 41.9943C382.957 41.9943 382.227 41.9943 381.533 41.9943C356.655 46.1084 333.957 56.7012 315.242 71.9883C313.721 73.9134 312.279 76.0056 310.847 78.3C308.728 81.6932 307.357 84.8667 304.535 87.7764C301.898 90.5016 298.979 93.0684 296.869 96.2683C291.147 104.954 287.393 114.562 283.376 123.959C280.791 130.007 280.8 139.062 281.635 145.532C282.013 148.45 284.044 150.138 285.169 152.793C286.751 156.538 284.791 158.779 285.433 162.454C285.942 165.381 288.483 167.069 290.153 169.328C291.164 170.699 291.859 172.888 293.204 174.119C295.067 175.833 298.68 176.677 301.115 177.741C303.023 178.576 306.293 179.042 307.682 180.466C309.255 182.083 308.535 183.481 308.781 185.67C309.308 190.399 312.121 193.678 316.815 192.272C319.224 191.551 317.668 191.208 320.569 192.325C321.536 192.703 321.044 193.204 321.817 193.925C321.817 193.925 322.442 194.197 322.442 194.206C322.099 195.375 323.268 195.656 323.681 197.142C324.727 200.878 325.589 202.038 323.488 205.933C322.758 207.286 321.325 208.693 320.806 210.143C319.98 212.438 320.464 211.893 320.921 214.047C321.65 217.475 320.78 221.097 322.899 223.883C325.668 227.54 327.619 228.481 329.307 233.061C331.004 237.667 332.085 239.698 336.867 241.658C342.845 244.111 343.909 248.735 345.069 254.915C345.649 258.027 345.684 261.244 346.502 264.277C347.469 267.863 349.702 270.861 350.721 274.43C351.741 277.999 351.785 281.594 353.279 285.023C354.633 288.135 356.752 289.471 358.914 291.871C361.631 294.886 362.765 298.983 365.138 302.226C367.371 305.285 370.263 306.894 373.296 308.978C373.604 306.077 370.246 301.541 369.164 298.754C367.978 295.704 365.815 292.97 365.718 289.708C365.516 283.265 374.166 284.75 370.333 277.357C372.364 276.171 374.746 276.065 376.496 274.351C378.078 272.795 377.419 271.89 378.324 270.58C378.386 270.492 380.258 268.197 380.241 268.224C382.746 263.31 379.898 258.361 386.974 255.97C389.902 254.985 394.868 255.407 396.635 252.084C397.11 251.196 397.558 246.88 397.725 245.983C398.2 243.469 397.303 240.674 397.936 238.335C398.965 234.564 403.167 232.542 405.233 229.773C409.558 223.989 402.209 219.286 396.934 217.457C394.086 216.473 391.282 216.086 388.539 214.723C385.656 213.291 383.555 210.715 380.205 210.908C377.296 211.075 376.628 213.475 373.823 211.357C370.659 208.974 373.832 207.445 373.006 204.28C371.494 198.522 363.45 199.682 359.556 198.056C355.925 196.535 351.548 191.692 348.392 189.116C344.955 186.303 346.361 186.848 342.388 187.015C338.485 187.182 336.463 185.573 332.498 184.888C329.281 184.325 326.846 185.02 326.336 188.351C325.483 189.661 324.701 188.782 324.156 189.898C323.532 189.204 322.837 188.527 322.213 188.096C320.121 186.663 317.958 189.415 316.016 188.07C312.253 185.468 315.69 179.974 313.264 176.967C311.893 175.262 309.774 175.947 308.359 174.699C306.944 173.433 307.339 171.895 305.704 170.77C302.733 168.73 298.962 169.794 296.869 166.023C294.566 161.882 297.283 154.648 297.3 150.129C296.931 149.988 300.025 146.244 301.01 145.092C303.076 142.683 305.625 140.688 309.088 141.69C312.288 142.622 313.211 149.347 315.892 148.696C318.574 148.037 318.934 141.716 320.059 139.791C322.371 135.827 327.769 137.339 330.344 133.286C331.786 131.018 331.531 127.845 333.122 125.585C334.01 124.32 335.628 123.564 336.683 122.456C340.172 118.773 342.59 113.815 347.407 111.617C352.673 109.217 358.941 113.357 362.738 107.327C359.609 106.597 354.668 105.077 351.996 103.046C354.44 98.4572 358.615 100.769 362.571 99.4329C364.479 98.7912 370.87 95.231 371.67 93.6398C373.252 90.4576 369.938 88.5588 368.584 85.9216C367.582 83.9788 367.547 81.8427 366.545 79.8999C361.912 80.9724 363.45 80.1812 361.886 76.999C360.286 73.7464 357.859 71.4257 353.912 73.6849C350.616 75.5749 350.431 79.6626 349.28 82.9151C348.023 86.4402 347.187 86.1238 344.225 88.2511C341.324 90.3345 338.379 98.2462 335.505 93.1739C334.538 91.4773 335.733 88.6555 334.335 86.7479C332.973 84.8755 327.276 83.7063 327.848 80.7087C328.191 78.9329 333.166 77.4649 334.749 76.3485C337.553 74.3618 340.445 71.0477 343.909 70.195C345.922 69.6939 350.37 70.9158 351.882 68.7533C352.901 67.2852 351.31 64.5337 352.374 62.8811C353.693 60.8152 364.074 55.321 366.096 57.3165C366.984 58.1868 366.773 62.2833 366.307 63.2327C365.481 64.9293 361.516 65.7732 361.464 67.5665C361.332 72.4278 372.988 66.8193 374.228 64.9029C376.672 61.1317 372.391 56.121 374.659 52.508C376.549 49.5016 386.596 44.9216 388.987 48.1654C389.55 48.9214 389.673 53.6508 389.963 54.7936C390.798 58.0286 391.132 57.5627 389.445 59.9625C387.818 62.2745 384.056 62.8107 385.146 66.0633C385.752 67.883 388.987 68.9906 390.236 70.362C392.855 73.2541 393.383 76.6649 396.864 72.9377C398.499 71.1883 398.543 68.094 400.705 66.6435C402.428 65.4831 405.083 65.6414 407.008 64.5689C409.101 63.4085 410.437 61.9668 412.854 61.0965C419.201 58.811 420.353 57.255 418.287 50.8202L418.261 50.829Z" fill="#202020" stroke="white" stroke-width="0.879073" stroke-linecap="round" stroke-linejoin="round"/>
<path vector-effect="non-scaling-stroke" d="M545.876 167.42C544.583 168.739 543.186 170.136 542.175 170.611C539.573 171.824 538.808 171.877 536.856 169.354C534.351 166.137 535.335 160.625 533.885 156.774C532.848 154.014 531.854 151.096 530.615 148.432C529.621 146.305 528.048 144.089 527.257 141.786C524.576 142.015 523.96 138.78 523.494 136.767C522.422 132.196 522.765 129.216 517.438 127.572C514.238 126.578 509.007 124.609 510.124 120.126C511.644 114.016 517.534 119.15 521.147 118.746C521.569 116.548 520.875 114.641 519.486 112.909C518.765 112.003 517.649 112.126 516.989 111.326C516.356 110.562 516.945 109.586 516.356 108.856C515.257 107.485 513.508 105.525 511.592 105.419C503.487 104.997 507.97 118.526 501.333 118.438C495.012 118.359 492.226 107.889 485.844 107.687C484.305 107.634 481.404 109.243 479.198 109.252C477.018 109.252 473.097 107.687 471.488 110.017C470.099 112.03 472.64 114.227 472.666 116.179C472.702 118.526 470.565 123.493 469.326 125.242C467.102 128.372 463.673 127.563 460.236 129.418C456.236 131.58 456.193 132.196 453.986 128.732C451.867 125.409 451.463 120.856 454.557 117.955C457.854 114.878 463.568 114.992 462.074 109.551C461.159 106.219 459.243 106.896 461.467 103.81C462.46 102.439 464.482 102.175 465.519 100.865C466.522 99.6084 466.46 98.0964 467.137 96.6635C469.897 90.8528 474.257 91.0198 479.365 89.0067C483.646 87.3277 484.639 79.9259 481.061 76.3657C478.864 74.1768 477.624 76.6558 475.242 74.4845C474.003 73.3505 474.486 71.311 473.053 70.1155C469.818 67.4079 468.412 70.7836 466.636 73.3241C464.948 75.7415 463.287 77.1656 460.816 79.1523C457.872 81.5258 452.931 82.6071 454.751 77.3942C455.7 74.6866 457.916 72.7087 458.575 69.7199C459.507 65.474 455.779 63.6103 456.236 59.9622C456.72 56.1294 461.001 58.2304 463.726 59.1622C468.93 60.9467 473.915 64.9377 479.259 61.1753C515.811 83.7675 541.331 122.499 545.867 167.42H545.876Z" fill="#202020" stroke="white" stroke-width="0.879073" stroke-linecap="round" stroke-linejoin="round"/>
<path vector-effect="non-scaling-stroke" d="M506.3 137.145C507.777 143.466 501.755 140.582 499.118 138.965C496.797 137.541 491.927 136.6 490.53 134.112C489.422 132.134 491.242 130.367 488.877 129.163C487.18 128.302 484.534 129.954 482.987 130.271C479.066 131.079 475.682 128.372 472.368 129.198C471.049 129.523 469.01 131.282 467.515 131.835C465.828 132.451 464.166 132.424 462.83 133.787C461.283 135.378 460.588 138.332 459.287 140.213C458.065 141.98 456.219 143.316 455.085 144.986C453.925 146.701 453.494 148.459 452.228 150.147C451.015 151.773 449.266 152.485 448.299 154.348C445.644 159.473 447.393 165.319 448.167 170.55C448.659 173.908 447.543 175.631 447.068 178.813C446.479 182.751 448.378 184.448 450.892 187.287C454.171 190.988 457.371 198.926 461.951 200.975C468.087 203.708 476.28 197.836 481.888 195.929C486.996 194.188 486.266 196.456 490.231 198.97C493.369 200.957 494.819 200.262 495.189 204.781C495.488 208.482 492.718 209.95 493.264 213.246C493.554 215.013 495.329 216.842 495.619 218.916C495.953 221.316 495.655 224.05 494.934 226.283C493.853 229.632 492.929 233.219 491.593 236.507C490.486 239.241 488.182 241.676 488.314 244.849C488.464 248.506 490.67 251.75 490.275 255.89C489.949 259.292 488.727 262.589 488.323 265.982C487.91 269.41 486.451 275.045 491.795 273.507C497 272.012 501.043 263.178 505.236 259.776C507.329 258.079 510.036 257.437 512.049 255.794C514.238 254 513.807 252.145 514.941 249.974C516.304 247.381 518.994 245.517 520.787 243.17C523.161 240.076 525.253 237.447 526.255 233.641C528.391 225.518 527.925 218.257 532.971 211.084C537.287 204.939 540.813 199.234 541.832 191.674C542.817 184.413 538.694 184.949 535.371 179.736C534.044 177.653 534.694 175.35 533.806 173.161C532.778 170.611 530.527 168.616 529.262 165.961C524.532 156.071 526.756 141.233 513.544 137.523C511.847 137.048 506.124 135.993 506.274 137.145H506.3Z" fill="#202020" stroke="white" stroke-width="0.879073" stroke-linecap="round" stroke-linejoin="round"/>
<path vector-effect="non-scaling-stroke" d="M432.325 45.4218L352.91 98.8079C352.259 99.2474 351.328 99.0365 350.844 98.342L314.196 45.7558C313.87 45.2811 314.108 44.7097 314.723 44.4724L394.912 13.6696C395.229 13.5466 395.756 13.6872 396.099 13.9773L432.035 44.3845C432.484 44.7625 432.616 45.2284 432.325 45.4218Z" fill="#020202" stroke="white" stroke-width="0.879073" stroke-linecap="round" stroke-linejoin="round"/>
<path vector-effect="non-scaling-stroke" d="M338.897 45.2882L352.347 39.6533L356.602 44.5673L342.95 50.7296L338.897 45.2882Z" fill="#404040"/>
<path vector-effect="non-scaling-stroke" d="M352.224 40.1809L355.89 44.4092L343.1 50.1847L339.601 45.4817L352.233 40.1897M352.479 39.1348L338.229 45.1125L342.818 51.2836L357.332 44.7345L352.479 39.1348Z" fill="white"/>
<path vector-effect="non-scaling-stroke" d="M368.399 32.9207L378.307 28.7715L382.509 32.8768L372.575 37.36L368.399 32.9207Z" fill="#404040"/>
<path vector-effect="non-scaling-stroke" d="M378.21 29.2814L381.735 32.7362L372.681 36.8239L369.156 33.079L378.21 29.2814ZM378.412 28.2441L367.652 32.7538L372.478 37.8788L383.273 33.0087L378.412 28.2441Z" fill="white"/>
<path vector-effect="non-scaling-stroke" d="M344.963 53.4368L358.764 47.0635L363.089 52.0566L349.165 59.0892L344.963 53.4368Z" fill="#404040"/>
<path vector-effect="non-scaling-stroke" d="M358.65 47.6008L362.395 51.917L349.306 58.5277L345.649 53.6049L358.659 47.592M358.888 46.5195L344.295 53.262L349.042 59.6441L363.802 52.1896L358.888 46.5195Z" fill="white"/>
<path vector-effect="non-scaling-stroke" d="M355.135 38.4853L366.888 33.5537L371.09 38.0282L359.372 43.3202L355.135 38.4853Z" fill="#404040"/>
<path vector-effect="non-scaling-stroke" d="M366.774 34.0813L370.352 37.8788L359.486 42.7841L355.865 38.6524L366.774 34.0813ZM366.994 33.0352L354.396 38.3184L359.249 43.8565L371.829 38.1777L366.994 33.0352Z" fill="white"/>
<path vector-effect="non-scaling-stroke" d="M387.089 52.7794L397.11 47.1973L401.857 51.8564L391.959 57.9571L387.089 52.7794Z" fill="#404040"/>
<path vector-effect="non-scaling-stroke" d="M397.04 47.7424L401.154 51.7686L392.029 57.3946L387.792 52.885L397.04 47.7336M397.19 46.6436L386.386 52.6564L391.889 58.5023L402.578 51.9092L397.198 46.6348L397.19 46.6436Z" fill="white"/>
<path vector-effect="non-scaling-stroke" d="M374.043 60.0403L385.699 53.5527L390.614 58.7832L379.142 65.8598L374.043 60.0403Z" fill="#404040"/>
<path vector-effect="non-scaling-stroke" d="M385.612 54.1067L389.928 58.6954L379.23 65.2885L374.729 60.1635L385.612 54.1067ZM385.779 53.0078L373.349 59.9261L379.054 66.4313L391.299 58.88L385.779 53.0078Z" fill="white"/>
<path vector-effect="non-scaling-stroke" d="M350.105 60.349L364.127 53.2637L368.979 58.8634L354.747 66.5904L350.105 60.349Z" fill="#404040"/>
<path vector-effect="non-scaling-stroke" d="M364.021 53.8088L368.294 58.7404L354.87 66.0279L350.765 60.5073L364.021 53.8088ZM364.241 52.7188L349.438 60.1997L354.624 67.1707L369.674 58.9953L364.241 52.7188Z" fill="white"/>
<path vector-effect="non-scaling-stroke" d="M356.955 69.5601L371.319 61.5605L376.471 67.5031L362.045 76.3993L356.955 69.5601Z" fill="#404040"/>
<path vector-effect="non-scaling-stroke" d="M371.222 62.1145L375.802 67.3977L362.158 75.8104L357.605 69.6921L371.222 62.1145ZM371.415 60.9981L356.295 69.4108L361.921 76.9796L377.138 67.5999L371.415 60.9893V60.9981Z" fill="white"/>
<path vector-effect="non-scaling-stroke" d="M379.993 45.2451L389.979 40.208L394.744 44.8759L384.749 50.2998L379.993 45.2451Z" fill="#404040"/>
<path vector-effect="non-scaling-stroke" d="M389.893 40.7356L394.007 44.7705L384.838 49.7461L380.715 45.3683L389.893 40.7356ZM390.06 39.6631L379.273 45.1133L384.662 50.8449L395.475 44.9727L390.06 39.6631Z" fill="white"/>
<path vector-effect="non-scaling-stroke" d="M374.754 39.6718L384.731 35.0566L388.81 39.0652L378.894 44.0759L374.754 39.6718Z" fill="#404040"/>
<path vector-effect="non-scaling-stroke" d="M384.635 35.5842L388.063 38.9422L378.982 43.531L375.484 39.8125L384.626 35.5842M384.811 34.5293L374.007 39.5224L378.789 44.6123L389.549 39.1796L384.811 34.5293Z" fill="white"/>
<path vector-effect="non-scaling-stroke" d="M410.55 39.7069L418.189 35.4434L422.514 39.1179L414.884 43.8209L410.55 39.7069Z" fill="#404040"/>
<path vector-effect="non-scaling-stroke" d="M418.136 35.9797L421.767 39.0652L414.945 43.276L411.288 39.8037L418.145 35.9797M418.251 34.916L409.82 39.6191L414.84 44.3836L423.27 39.1883L418.251 34.9248V34.916Z" fill="white"/>
<path vector-effect="non-scaling-stroke" d="M361.534 45.7823L373.279 40.3584L377.463 44.7977L365.824 50.6787L361.534 45.7823Z" fill="#404040"/>
<path vector-effect="non-scaling-stroke" d="M373.173 40.8859L376.733 44.6747L365.93 50.1338L362.246 45.9406L373.173 40.8947M373.375 39.8311L360.805 45.6417L365.71 51.2326L378.175 44.9385L373.375 39.8311Z" fill="white"/>
<path vector-effect="non-scaling-stroke" d="M416.044 44.9198L423.753 40.1729L428.966 44.6034L421.125 49.746L416.044 44.9198Z" fill="#404040"/>
<path vector-effect="non-scaling-stroke" d="M423.711 40.7102L428.238 44.5517L421.188 49.1844L416.766 44.9913L423.711 40.7102ZM423.79 39.6289L415.324 44.8506L421.073 50.3096L429.688 44.6484L423.781 39.6289H423.79Z" fill="white"/>
<path vector-effect="non-scaling-stroke" d="M380.778 27.7352L391.134 23.3926L395.09 27.155L384.98 31.7526L380.778 27.7352Z" fill="#404040"/>
<path vector-effect="non-scaling-stroke" d="M391.036 23.9113L394.315 27.0232L385.067 31.2252L381.56 27.8759L391.027 23.9025M391.221 22.874L379.986 27.5859L384.892 32.2713L395.862 27.2782L391.221 22.874Z" fill="white"/>
<path vector-effect="non-scaling-stroke" d="M366.877 51.8742L378.56 45.9668L383.351 51.0566L371.703 57.386L366.877 51.8742Z" fill="#404040"/>
<path vector-effect="non-scaling-stroke" d="M378.464 46.5119L382.64 50.9512L371.81 56.8322L367.581 52.0149L378.464 46.5119ZM378.658 45.4307L366.175 51.7336L371.616 57.9311L384.073 51.171L378.666 45.4307H378.658Z" fill="white"/>
<path vector-effect="non-scaling-stroke" d="M392.496 38.9336L402.289 33.9844L406.825 38.2918L397.269 43.4959L392.496 38.9336Z" fill="#404040"/>
<path vector-effect="non-scaling-stroke" d="M402.21 34.5207L406.087 38.204L397.34 42.9598L393.243 39.0479L402.201 34.5207M402.359 33.457L391.74 38.8194L397.199 44.0323L407.564 38.3886L402.359 33.4482V33.457Z" fill="white"/>
<path vector-effect="non-scaling-stroke" d="M387.222 33.8964L397.27 29.2197L401.102 32.8591L391.318 37.7995L387.222 33.8964Z" fill="#404040"/>
<path vector-effect="non-scaling-stroke" d="M397.182 29.7385L400.346 32.7449L391.397 37.2633L387.995 34.0108L397.182 29.7297M397.349 28.6836L386.448 33.7558L391.23 38.327L401.85 32.9647L397.34 28.6836H397.349Z" fill="white"/>
<path vector-effect="non-scaling-stroke" d="M399.659 45.7744L409.136 40.4912L413.531 44.658L404.389 50.2929L399.659 45.7744Z" fill="#404040"/>
<path vector-effect="non-scaling-stroke" d="M409.074 41.0363L412.819 44.5878L404.45 49.748L400.398 45.8712L409.074 41.0363ZM409.215 39.9551L398.93 45.6866L404.336 50.8556L414.252 44.746L409.215 39.9639V39.9551Z" fill="white"/>
<path vector-effect="non-scaling-stroke" d="M363.646 27.8572L373.5 24.0508L377.113 27.5934L367.276 31.7251L363.646 27.8572Z" fill="#404040"/>
<path vector-effect="non-scaling-stroke" d="M373.394 24.5695L376.33 27.4529L367.381 31.2065L364.401 28.0419L373.385 24.5695M373.596 23.5498L362.862 27.6902L367.152 32.2526L377.886 27.7518L373.596 23.5498Z" fill="white"/>
<path vector-effect="non-scaling-stroke" d="M346.977 87.5027L361.648 78.457L366.87 85.472L352.286 95.0803L346.977 87.5027Z" fill="#404040"/>
<path vector-effect="non-scaling-stroke" d="M361.534 79.0373L366.237 85.3579L352.409 94.4739L347.61 87.6259L361.543 79.0373M361.771 77.8682L346.361 87.3709L352.181 95.6782L367.503 85.5776L361.771 77.8682Z" fill="white"/>
<path vector-effect="non-scaling-stroke" d="M340.735 78.5885L355.592 70.3164L360.725 77.2083L346.089 86.2364L340.735 78.5885Z" fill="#404040"/>
<path vector-effect="non-scaling-stroke" d="M355.469 70.8879L360.084 77.0942L346.212 85.6476L341.368 78.738L355.469 70.8879ZM355.715 69.7451L340.094 78.4392L345.966 86.8255L361.359 77.3315L355.715 69.7363V69.7451Z" fill="white"/>
<path vector-effect="non-scaling-stroke" d="M362.967 77.6394L377.498 68.6816L382.887 74.9055L368.153 84.6192L362.967 77.6394Z" fill="#404040"/>
<path vector-effect="non-scaling-stroke" d="M377.41 69.2531L382.227 74.8177L368.259 84.0216L363.6 77.7626L377.401 69.2531M377.577 68.1104L362.325 77.5164L368.048 85.2083L383.546 74.9935L377.586 68.1104H377.577Z" fill="white"/>
<path vector-effect="non-scaling-stroke" d="M333.748 68.6118L348.71 61.0518L353.378 67.3371L338.513 75.407L333.748 68.6118Z" fill="#404040"/>
<path vector-effect="non-scaling-stroke" d="M348.577 61.6145L352.726 67.1966L338.644 74.8445L334.398 68.7789L348.577 61.6145ZM348.841 60.498L333.097 68.4537L338.38 75.9873L354.036 67.4867L348.841 60.498Z" fill="white"/>
<path vector-effect="non-scaling-stroke" d="M328.465 61.0687L343.541 54.0977L347.769 59.794L332.851 67.3365L328.465 61.0687Z" fill="#404040"/>
<path vector-effect="non-scaling-stroke" d="M343.399 54.6516L347.109 59.6447L333 66.774L329.132 61.2534L343.399 54.6604M343.681 53.5615L327.805 60.9018L332.71 67.908L348.437 59.9612L343.672 53.5615H343.681Z" fill="white"/>
<path vector-effect="non-scaling-stroke" d="M380.18 67.0287L391.696 59.9346L397.023 65.587L385.551 73.1558L380.18 67.0287Z" fill="#404040"/>
<path vector-effect="non-scaling-stroke" d="M391.624 60.4973L396.345 65.5168L385.629 72.5845L380.856 67.1431L391.624 60.5061M391.774 59.3809L379.502 66.9409L385.471 73.7449L397.699 65.6838L391.774 59.3809Z" fill="white"/>
<path vector-effect="non-scaling-stroke" d="M405.54 51.3995L414.682 45.7559L419.807 50.6171L410.867 56.4893L405.54 51.3995Z" fill="#404040"/>
<path vector-effect="non-scaling-stroke" d="M414.63 46.3098L419.104 50.5557L410.92 55.9268L406.252 51.4699L414.63 46.3098ZM414.744 45.2021L404.828 51.3205L410.823 57.0433L420.52 50.6788L414.753 45.2021H414.744Z" fill="white"/>
<path vector-effect="non-scaling-stroke" d="M393.031 59.1096L403 52.9648L408.292 58.1602L398.323 64.7268L393.031 59.1096Z" fill="#404040"/>
<path vector-effect="non-scaling-stroke" d="M402.93 53.5188L407.589 58.0899L398.385 64.1556L393.717 59.1976L402.93 53.5188ZM403.053 52.4111L392.337 59.013L398.209 65.2544L397.972 65.483L408.987 58.2218L403.053 52.4111Z" fill="white"/>
<path vector-effect="non-scaling-stroke" d="M375.934 23.1111L386.482 18.9795L389.911 22.2321L379.564 26.5747L375.934 23.1111Z" fill="#404040"/>
<path vector-effect="non-scaling-stroke" d="M386.385 19.4895L389.119 22.0827L379.66 26.0473L376.742 23.2607L386.385 19.4807M386.587 18.4609L375.142 22.9442L379.467 27.0846L390.701 22.3728L386.587 18.4697V18.4609Z" fill="white"/>
<path vector-effect="non-scaling-stroke" d="M388.074 18.3628L394.931 15.6729L398.438 18.6529L391.459 21.5802L388.074 18.3628Z" fill="#404040"/>
<path vector-effect="non-scaling-stroke" d="M394.843 16.1828L397.604 18.5299L391.556 21.0705L388.874 18.5211L394.843 16.1828ZM395.01 15.1719L387.266 18.2047L391.371 22.099L399.274 18.7849L395.019 15.1719H395.01Z" fill="white"/>
<path vector-effect="non-scaling-stroke" d="M322.293 52.261L337.439 45.9053L341.509 51.3819L326.442 58.1771L322.293 52.261Z" fill="#404040"/>
<path vector-effect="non-scaling-stroke" d="M337.289 46.4416L340.832 51.1974L326.591 57.6234L322.969 52.4457L337.298 46.4416M337.588 45.3691L321.624 52.0677L326.292 58.731L342.194 51.5578L337.588 45.3691Z" fill="white"/>
<path vector-effect="non-scaling-stroke" d="M398.771 28.5172L406.05 25.124L409.909 28.4118L402.56 32.1214L398.771 28.5172Z" fill="#404040"/>
<path vector-effect="non-scaling-stroke" d="M405.98 25.6428L409.127 28.3152L402.648 31.5853L399.545 28.6404L405.989 25.6428M406.129 24.6055L398.007 28.3855L402.499 32.649L410.718 28.4998L406.138 24.6055H406.129Z" fill="white"/>
<path vector-effect="non-scaling-stroke" d="M403.746 33.2458L411.183 29.4922L415.798 33.4129L408.247 37.5181L403.746 33.2458Z" fill="#404040"/>
<path vector-effect="non-scaling-stroke" d="M411.122 30.0109L415.025 33.325L408.317 36.9732L404.502 33.3514L411.122 30.0109ZM411.245 28.9648L402.99 33.1317L408.177 38.0545L416.572 33.4833L411.245 28.9561V28.9648Z" fill="white"/>
<path vector-effect="non-scaling-stroke" d="M392.68 22.7398L399.756 19.7773L403.782 23.1969L396.6 26.4583L392.68 22.7398Z" fill="#404040"/>
<path vector-effect="non-scaling-stroke" d="M399.677 20.2873L402.974 23.0828L396.697 25.9397L393.48 22.8894L399.677 20.2873ZM399.835 19.2676L391.897 22.5993L396.521 26.9858L404.6 23.3113L399.844 19.2676H399.835Z" fill="white"/>
<path vector-effect="non-scaling-stroke" d="M317.643 45.6232L332.859 39.7422L336.49 44.6298L321.387 50.968L317.643 45.6232Z" fill="#404040"/>
<path vector-effect="non-scaling-stroke" d="M332.7 40.2785L335.803 44.4453L321.545 50.423L318.327 45.8255L332.709 40.2697M333.017 39.2061L316.965 45.4035L321.237 51.5043L337.184 44.8145L333.017 39.2061Z" fill="white"/>
<path vector-effect="non-scaling-stroke" d="M350.315 32.9999L362.086 28.4639L365.752 32.3582L354.06 37.2634L350.315 32.9999Z" fill="#404040"/>
<path vector-effect="non-scaling-stroke" d="M361.973 28.9748L365.006 32.201L354.184 36.737L351.073 33.1856L361.982 28.9748M362.219 27.9375L349.587 32.8164L353.947 37.7919L366.527 32.5175L362.219 27.9375Z" fill="white"/>
<path vector-effect="non-scaling-stroke" d="M334.345 39.1699L347.522 34.0801L351.284 38.4315L337.958 44.0136L334.345 39.1699Z" fill="#404040"/>
<path vector-effect="non-scaling-stroke" d="M347.389 34.6076L350.554 38.2558L338.106 43.4775L335.047 39.3722L347.389 34.6076ZM347.653 33.5615L333.658 38.9678L337.816 44.5587L352.022 38.5986L347.662 33.5615H347.653Z" fill="white"/>
<path vector-effect="non-scaling-stroke" d="M454.654 103.001L462.178 122.007L486.335 226.159H439.744L438.294 106.051L454.654 103.001Z" fill="#020202"/>
<path vector-effect="non-scaling-stroke" d="M450.917 81.6221L512.188 301.285" stroke="white" stroke-width="0.879073" stroke-linecap="round" stroke-linejoin="round"/>
<path vector-effect="non-scaling-stroke" d="M478.686 301.285L427.647 81.1211" stroke="white" stroke-width="0.879073" stroke-linecap="round" stroke-linejoin="round"/>
<path vector-effect="non-scaling-stroke" d="M459.355 111.897H434.926" stroke="white" stroke-width="0.879073" stroke-linecap="round" stroke-linejoin="round"/>
<path vector-effect="non-scaling-stroke" d="M463.54 126.877H438.293" stroke="white" stroke-width="0.879073" stroke-linecap="round" stroke-linejoin="round"/>
<path vector-effect="non-scaling-stroke" d="M468.394 144.274H442.276" stroke="white" stroke-width="0.879073" stroke-linecap="round" stroke-linejoin="round"/>
<path vector-effect="non-scaling-stroke" d="M473.061 161.021H446.144" stroke="white" stroke-width="0.879073" stroke-linecap="round" stroke-linejoin="round"/>
<path vector-effect="non-scaling-stroke" d="M450.257 178.646H477.71" stroke="white" stroke-width="0.879073" stroke-linecap="round" stroke-linejoin="round"/>
<path vector-effect="non-scaling-stroke" d="M454.038 194.987H482.538" stroke="white" stroke-width="0.879073" stroke-linecap="round" stroke-linejoin="round"/>
<path vector-effect="non-scaling-stroke" d="M458.406 213.835H487.591" stroke="white" stroke-width="0.879073" stroke-linecap="round" stroke-linejoin="round"/>
<path vector-effect="non-scaling-stroke" d="M462.538 231.636H492.479" stroke="white" stroke-width="0.879073" stroke-linecap="round" stroke-linejoin="round"/>
<path vector-effect="non-scaling-stroke" d="M466.758 249.851H498.044" stroke="white" stroke-width="0.879073" stroke-linecap="round" stroke-linejoin="round"/>
<path vector-effect="non-scaling-stroke" d="M503.353 268.918H471.53" stroke="white" stroke-width="0.879073" stroke-linecap="round" stroke-linejoin="round"/>
<path vector-effect="non-scaling-stroke" d="M409.979 26.7668C409.627 26.6613 409.346 26.4503 409.328 26.1602C409.328 26.1602 409.328 26.1602 409.328 26.1514C409.328 26.1514 409.328 26.1426 409.328 26.1339C409.337 26.1075 409.354 26.0899 409.363 26.0635C409.372 26.0372 409.39 26.0108 409.398 25.9844C409.407 25.9756 409.416 25.9668 409.425 25.9492C409.434 25.9492 409.451 25.9317 409.46 25.9229C409.495 25.9053 409.53 25.8789 409.565 25.8613C409.574 25.8613 409.592 25.8613 409.601 25.8525C409.662 25.835 409.724 25.8262 409.785 25.8174C409.812 25.8174 409.838 25.8086 409.864 25.7998C412.264 26.4943 412.414 25.9317 413.53 26.0108C413.662 26.0196 412.844 28.0063 412.792 28.0414C412.792 28.103 412.036 27.1887 409.943 26.7756L409.979 26.7668Z" fill="#020202" stroke="white" stroke-width="0.879073" stroke-linecap="round" stroke-linejoin="round"/>
<path vector-effect="non-scaling-stroke" d="M462.731 123.511C462.635 123.256 462.503 123.009 462.336 122.79C462.239 122.667 462.178 122.535 462.011 122.491C462.011 122.491 461.975 122.5 461.923 122.517C461.817 121.858 461.844 121.383 461.817 120.803C461.782 120.451 461.747 120.1 461.712 119.748C461.694 119.572 461.685 119.3 461.457 119.291C460.305 119.564 459.127 119.766 457.949 119.968C457.932 119.95 457.905 119.942 457.879 119.942C457.861 119.942 457.844 119.942 457.826 119.959C457.729 119.977 457.703 120.135 457.809 120.179C457.967 121.102 458.064 122.051 458.072 122.992C458.055 122.992 458.037 122.983 458.02 122.983C457.94 122.983 457.817 123.071 457.729 123.133C457.07 123.739 456.288 124.135 455.497 124.548C454.952 124.82 454.38 125.031 453.826 125.286C453.246 125.524 452.569 125.691 452.191 126.227C451.857 126.957 452.288 127.546 453.07 127.572C454.108 127.572 455.136 127.291 456.156 127.097C457.255 126.763 458.336 126.429 459.488 126.341C460.279 126.28 461.079 126.227 461.87 126.095C462.151 126.051 462.424 126.007 462.635 125.796C462.784 125.647 462.793 125.401 462.828 125.207C462.881 124.899 462.907 124.592 462.898 124.284C462.89 124.029 462.846 123.765 462.749 123.519L462.731 123.511Z" fill="#020202" stroke="white" stroke-width="0.879073" stroke-linecap="round" stroke-linejoin="round"/>
<path vector-effect="non-scaling-stroke" d="M464.2 120.918C464.218 121.049 464.165 121.199 464.007 121.208C463.075 121.278 462.117 121.656 461.185 121.744C459.339 121.823 457.326 121.814 455.471 121.832C455.366 121.832 455.26 121.761 455.234 121.656C455.12 121.287 455.164 120.619 455.111 120.302C455.041 119.388 454.953 118.474 454.909 117.568C454.724 115.221 454.328 112.9 453.986 110.571C453.476 106.923 452.808 103.301 452.518 99.6264C452.518 97.8331 452.641 96.0397 452.658 94.2464C452.693 92.3301 453.027 90.4488 453.344 88.5676C453.81 85.526 453.731 82.4493 454.038 79.4077C454.197 77.3331 456.755 77.5792 458.205 78.0539C458.952 78.2385 460.992 79.0385 460.851 79.0297C460.798 79.8912 460.878 81.913 460.878 83.1877C460.878 84.7349 461.458 90.906 461.625 92.4531C461.994 96.7078 462.873 112.892 464.165 120.469C464.174 120.619 464.192 120.768 464.192 120.926L464.2 120.918Z" fill="#020202" stroke="white" stroke-width="0.879073" stroke-linecap="round" stroke-linejoin="round"/>
<path vector-effect="non-scaling-stroke" d="M448.885 23.5763C448.885 23.5763 448.885 23.5586 448.885 23.5498C448.885 23.5498 448.885 23.5675 448.885 23.5763Z" fill="#020202" stroke="white" stroke-width="0.879073" stroke-linecap="round" stroke-linejoin="round"/>
<path vector-effect="non-scaling-stroke" d="M456.076 18.7763C455.083 17.5808 453.096 16.8775 451.76 17.8973C451.733 17.8973 451.698 17.8973 451.672 17.9061C450.723 18.5126 450.125 19.8136 449.887 20.9476C449.861 20.9916 449.835 21.0356 449.808 21.0795C449.808 21.0795 449.791 21.0971 449.782 21.1059C449.782 21.1059 449.782 21.1147 449.782 21.1235C449.589 21.4048 449.342 21.6597 449.087 21.8795C448.973 21.9674 448.841 22.0289 448.736 22.1256C448.665 22.1696 448.595 22.2223 448.542 22.275C448.384 22.363 448.419 22.6091 448.542 22.741C448.604 22.8113 448.665 22.8904 448.727 22.9607C448.815 23.0486 448.912 23.0574 449.008 23.1102C448.973 23.2596 448.929 23.4091 448.894 23.5497C448.894 23.5673 448.894 23.5849 448.885 23.6024C448.868 23.7958 448.841 23.9892 448.815 24.1826C448.762 24.6222 448.534 25.387 448.762 25.7913C449.087 26.2485 449.685 26.3979 450.274 26.4682C450.969 26.5737 451.663 26.644 452.358 26.7144C452.155 27.3649 451.936 28.4901 451.47 28.6044C450.898 28.9121 450.371 29.0967 449.887 29.5274C448.762 30.512 450.107 30.6702 450.749 30.7229C450.846 30.7317 450.951 30.7405 451.048 30.7405C451.602 30.7405 452.147 30.5911 452.665 30.4153C453.07 30.2922 453.465 30.1428 453.843 29.9494C454.256 30.0461 454.67 30.134 455.083 30.2395C455.355 30.3362 455.531 30.0636 455.549 29.8263C455.663 29.0879 455.716 28.3407 455.742 27.5934C455.795 26.7759 455.839 25.9408 455.979 25.1232C456.305 24.4112 456.612 23.6904 456.779 22.9168C457.236 21.229 457.184 20.1916 456.085 18.7763H456.076Z" fill="#020202" stroke="white" stroke-width="0.879073" stroke-linecap="round" stroke-linejoin="round"/>
<path vector-effect="non-scaling-stroke" d="M450.354 124.213C450.354 124.213 450.275 124.196 450.24 124.196C450.117 123.404 450.117 122.657 450.24 122.103C450.258 121.514 450.319 121.488 450.319 120.899C450.319 120.723 450.205 120.6 450.029 120.627C448.904 120.715 447.779 120.758 446.645 120.75C446.53 120.732 446.337 120.741 446.381 120.899C446.372 121.005 446.328 121.154 446.399 121.242C446.407 122.139 446.443 123.044 446.311 123.941C446.311 124.037 446.284 124.169 446.258 124.301C446.179 124.301 446.126 124.319 446.065 124.398C445.414 124.978 444.649 125.312 443.884 125.734C443.128 126.138 442.293 126.376 441.493 126.675C441.01 126.859 439.718 127.211 440.025 127.967C440.166 128.257 440.412 128.327 440.711 128.38C440.72 128.38 440.729 128.38 440.737 128.38C441.739 128.565 442.75 128.442 443.761 128.345C444.772 128.239 445.792 128.151 446.794 128.116C447.981 128.081 450.39 128.38 450.864 127.527C451.242 126.481 451.181 125.004 450.337 124.196L450.354 124.213Z" fill="#020202" stroke="white" stroke-width="0.879073" stroke-linecap="round" stroke-linejoin="round"/>
<path vector-effect="non-scaling-stroke" d="M407.72 51.1538C407.588 51.0742 407.72 50.8709 407.844 50.9593C407.977 51.0389 407.844 51.2422 407.72 51.1538Z" fill="#020202" stroke="white" stroke-width="0.879073" stroke-linecap="round" stroke-linejoin="round"/>
<path vector-effect="non-scaling-stroke" d="M415.385 49.9134C415.359 49.4827 415.394 49.0607 415.447 48.6388C415.438 48.586 415.403 48.5509 415.368 48.5333C415.359 48.5069 415.341 48.4893 415.315 48.4717C414.99 48.2344 414.629 48.0234 414.278 47.8476C414.067 47.7421 413.856 47.6542 413.636 47.5663C413.179 47.3993 412.695 47.2762 412.221 47.1619C411.983 47.1004 411.746 47.0476 411.509 46.9861C411.289 46.9334 411.078 46.8279 410.858 46.7663C410.726 46.7312 410.454 46.5641 410.34 46.4938C410.208 46.4147 410.102 46.2828 409.935 46.3004C409.777 46.3092 409.627 46.4235 409.583 46.5729C409.548 46.6872 409.627 46.8191 409.689 46.907C409.882 47.1971 410.181 47.4256 410.463 47.619C410.507 47.6542 410.559 47.6894 410.603 47.7157C410.63 47.7333 410.709 47.8036 410.735 47.7948C410.559 47.7948 410.375 47.8652 410.19 47.8915C409.487 47.997 408.775 47.9882 408.08 47.8036C407.861 47.7421 407.641 47.6894 407.421 47.6454C407.21 47.6015 406.973 47.5575 406.762 47.5927C406.612 47.619 406.516 47.7509 406.533 47.8915C406.551 48.1201 406.85 48.2344 407.034 48.3135C407.315 48.4366 407.781 48.6124 408.071 48.7179C407.869 48.6915 407.403 48.6827 406.858 48.586C406.744 48.5684 406.498 48.5421 406.384 48.5421C406.173 48.5421 406.058 48.6739 406.085 48.8585C406.12 49.0871 406.384 49.1398 406.559 49.2189C406.858 49.342 407.491 49.5706 407.799 49.6585C407.606 49.6585 407.078 49.553 406.894 49.5618C406.7 49.5794 406.463 49.5882 406.349 49.7728C406.261 50.0013 406.428 50.1683 406.735 50.2914C407.034 50.3969 407.623 50.5288 407.667 50.5376C407.658 50.5288 407.359 50.5463 407.289 50.643C407.228 50.7222 407.21 50.8364 407.272 50.9244C407.43 51.1705 407.764 51.2057 408.028 51.2584C409.003 51.4518 409.935 51.5924 410.928 51.5749C411.676 51.5573 412.449 51.5397 413.188 51.4254C413.865 51.3199 414.594 51.3111 415.262 51.1529C415.324 51.1353 415.377 51.0826 415.385 51.021C415.464 50.9244 415.412 50.7222 415.403 50.5991C415.403 50.3705 415.412 50.1508 415.403 49.9222L415.385 49.9134Z" fill="#020202" stroke="white" stroke-width="0.879073" stroke-linecap="round" stroke-linejoin="round"/>
<path vector-effect="non-scaling-stroke" d="M457.898 78.4309C457.96 78.4221 458.021 78.4661 458.03 78.5276C458.021 78.7386 457.696 78.6595 457.555 78.7034C457.318 78.7298 457.081 78.7474 456.843 78.7562C456.738 78.7562 456.632 78.7562 456.527 78.7562C456.527 78.932 456.518 79.099 456.518 79.2748C456.492 82.211 456.254 85.1471 455.876 88.0568C455.481 90.9665 455.164 93.885 454.892 96.8124C454.707 98.4211 454.435 100.03 454.303 101.638C454.162 104.768 454.215 107.906 453.846 111.018C453.732 113.858 453.661 116.697 453.397 119.528C453.327 120.328 453.283 121.145 453.125 121.936C453.072 122.42 452.492 122.385 452.123 122.385C450.514 122.332 448.905 122.095 447.323 121.813C446.532 121.62 445.723 121.523 444.914 121.611C444.827 121.629 444.721 121.637 444.66 121.567C444.598 121.497 444.598 121.391 444.589 121.303C444.563 120.908 444.572 120.512 444.554 120.108C444.396 114.341 444.088 108.566 444.15 102.799C444.202 96.9794 444.378 91.1511 444.58 85.3317C444.607 84.0922 444.721 82.8527 444.818 81.6132C444.87 80.7253 444.906 79.8287 444.976 78.932C444.958 78.932 444.941 78.932 444.923 78.932C444.827 78.8793 444.668 78.8441 444.695 78.7122C444.712 78.6243 444.809 78.598 444.888 78.598C444.932 78.598 444.976 78.598 445.02 78.598C445.046 78.3518 445.073 78.1145 445.108 77.8683C445.134 77.7365 445.169 77.5607 445.328 77.5431C445.468 77.5431 445.512 77.7189 445.372 77.7628C445.319 78.0354 445.275 78.3167 445.248 78.5892C445.855 78.5804 446.47 78.5628 447.077 78.5188C449.178 78.3606 451.305 78.2815 453.415 78.3518C454.382 78.387 455.358 78.5013 456.325 78.5188C456.325 78.4661 456.325 78.4134 456.325 78.3518C456.342 77.9387 456.36 77.5343 456.369 77.1211C456.369 77.0596 456.421 77.0068 456.483 77.0068C456.545 77.0068 456.597 77.0596 456.597 77.1211C456.589 77.587 456.562 78.0529 456.553 78.5188C457.01 78.5188 457.468 78.4925 457.916 78.4309H457.898Z" fill="#020202" stroke="white" stroke-width="0.879073" stroke-linecap="round" stroke-linejoin="round"/>
<path vector-effect="non-scaling-stroke" d="M457.739 78.5888C457.739 78.536 457.739 78.4833 457.739 78.4218C457.739 78.2459 457.748 78.0789 457.757 77.9031C456.605 77.613 455.075 77.5427 454.39 78.4042C454.539 78.4042 454.68 78.4042 454.829 78.413C455.796 78.4481 456.772 78.5624 457.739 78.58V78.5888Z" fill="#020202" stroke="white" stroke-width="0.879073" stroke-linecap="round" stroke-linejoin="round"/>
<path vector-effect="non-scaling-stroke" d="M458.013 77.1914C458.013 77.1299 457.96 77.0771 457.898 77.0771C457.837 77.0771 457.784 77.1299 457.784 77.1914C457.784 77.4288 457.775 77.6661 457.767 77.9035C457.846 77.9211 457.916 77.9474 457.995 77.965C458.004 77.7101 458.013 77.4464 458.022 77.1914H458.013Z" fill="#020202" stroke="white" stroke-width="0.879073" stroke-linecap="round" stroke-linejoin="round"/>
<path vector-effect="non-scaling-stroke" d="M465.941 71.9523C465.607 68.3569 464.903 64.8054 464.499 61.2188C464.095 57.5531 463.822 53.8785 463.488 50.2128C463.304 48.2613 463.286 46.2658 462.961 44.323C462.926 44.0417 462.882 43.7692 462.838 43.4879C462.829 43.3912 462.82 43.3033 462.82 43.2154C462.82 43.189 462.802 43.1626 462.785 43.1451C462.671 42.4506 462.548 41.7649 462.407 41.0792C462.187 39.8925 461.985 38.7057 461.598 37.5541C461.238 36.4289 460.666 35.3828 460.113 34.3455C459.664 33.317 459.058 32.3764 458.328 31.5237C457.616 30.4688 455.761 28.3151 455.7 28.3766C455.603 28.5085 455.357 28.6667 455.234 28.781C454.636 29.2909 453.924 29.6513 453.185 29.9238C452.667 30.1172 452.122 30.2666 451.568 30.3194C451.295 30.3457 451.032 30.3457 450.759 30.337C450.539 30.337 450.293 30.3282 450.126 30.1523C449.739 29.7392 450.689 29.159 451.023 29.0096C451.164 28.9216 451.55 28.7458 451.753 28.4118C451.638 28.4294 448.526 29.0008 446.97 29.2996C446.267 29.5018 445.581 29.6337 444.843 29.6513C441.67 30.0644 438.461 30.1875 435.261 30.2139C433.204 30.2315 431.156 30.1084 429.116 29.871C427.13 29.6425 425.099 29.3876 423.183 28.7898C421.653 28.3063 420.106 27.8404 418.62 27.2338C417.873 26.9349 417.143 26.6009 416.44 26.2141C415.772 25.8449 415.157 25.4317 414.445 25.1328C414.304 25.0713 414.155 25.0098 414.005 24.9922C413.829 24.9922 413.662 25.0977 413.557 25.2383C413.249 25.7394 413.152 26.3284 412.862 26.8382C412.326 27.814 411.86 28.8249 411.35 29.8007C411.236 30.0557 411.509 30.1787 411.702 30.2666C412.581 30.6622 413.407 31.2336 414.251 31.7083C414.972 32.1127 415.702 32.5083 416.431 32.9038C416.757 33.0797 417.082 33.2555 417.416 33.4313C417.741 33.5983 418.163 33.7126 418.462 33.9148C420.985 34.8818 423.464 35.9982 426.11 36.5784C428.044 37.0882 430.022 37.3168 432 37.6157C434.584 38.0201 437.177 38.3893 439.797 38.4508C438.241 39.3035 436.747 40.2793 435.103 40.9825C432.624 42.055 429.995 43.0747 427.393 43.8923C425.064 44.7274 422.646 45.2812 420.264 45.9581C418.33 46.3361 416.431 47.0218 414.436 47.0042C413.961 46.969 413.847 47.1976 413.979 47.6195C414.137 48.1294 414.269 48.6217 414.348 49.1579C414.471 49.9579 414.541 50.7666 414.638 51.5754C414.673 51.8303 414.717 53.1929 415.104 53.2192C416.335 52.9467 417.592 53.0874 418.84 52.9203C420.458 52.7094 422.093 52.7357 423.701 52.4808C425.301 52.2259 426.892 51.9622 428.492 51.7512C430.479 51.4875 432.457 51.1007 434.4 50.5996C437.134 49.8963 439.824 48.9118 442.487 47.9712C442.812 47.8481 443.146 47.7162 443.472 47.5844C443.445 47.9887 443.401 48.4371 443.349 48.8502C443.182 50.5381 442.918 52.2083 442.865 53.9049C442.821 55.5136 442.689 57.1223 442.584 58.731C442.399 62.6341 442.399 66.5372 442.276 70.4403C442.241 72.9281 441.96 75.4158 442.056 77.9036C442.083 78.4311 442.1 78.9409 442.153 79.4772C442.153 79.6706 442.197 79.8991 442.399 79.9782C442.575 80.0222 443.463 80.0485 443.753 80.0573C445.537 80.1101 447.313 79.8376 449.089 79.653C450.829 79.4772 452.588 79.4508 454.337 79.5563C457.176 79.7145 460.042 80.3123 462.882 79.8112C463.849 79.653 466.011 79.4684 466.037 79.231C466.257 76.8223 466.178 74.3961 465.958 71.9787L465.941 71.9523Z" fill="#404040" stroke="white" stroke-width="0.879073" stroke-miterlimit="10"/>
<path vector-effect="non-scaling-stroke" d="M458.46 21.8975C458.46 21.8975 458.478 21.9329 458.495 21.9417C458.495 21.9506 458.495 21.9594 458.495 21.9683C458.495 21.9683 458.495 21.9683 458.486 21.9683C458.486 21.9417 458.469 21.9152 458.46 21.8887V21.8975Z" fill="#020202" stroke="white" stroke-width="0.879073" stroke-linecap="round" stroke-linejoin="round"/>
<path vector-effect="non-scaling-stroke" d="M477.282 43.3997C478.785 37.0704 476.235 33.2113 472.64 28.4203C471.568 26.9874 471.348 25.2293 470.416 23.7876C469.124 21.7921 466.873 20.4471 465.265 18.7066C464.878 18.2846 464.579 17.7748 464.095 17.4495C463.7 17.177 463.225 17.0363 462.768 16.9133C462.003 16.7023 461.212 16.7199 460.43 16.7199C459.261 16.6847 458.047 17.0891 457.353 18.0824C456.527 17.4231 456.237 16.755 454.118 16.8254C453.837 16.6935 452.835 16.799 452.483 16.8429C451.305 16.9924 450.32 18.0121 449.978 18.7681C449.978 18.7857 449.978 18.8033 449.978 18.8209C450.567 19.8406 451.885 20.1571 452.421 20.4559C452.931 20.6581 453.459 20.7988 453.995 20.9131C454.012 21.3702 454.092 21.9064 454.452 22.2405C454.742 22.1174 454.997 22.091 455.217 22.2756C455.34 22.3811 455.357 22.6272 455.357 22.7767C455.357 23.1195 455.208 23.5679 454.795 23.5591C454.707 23.5591 454.61 23.4975 454.522 23.5239C454.478 23.5415 454.443 23.5679 454.417 23.5942C454.355 23.6558 454.329 23.7437 454.32 23.8228C454.294 24.0162 454.355 24.2272 454.426 24.4118C454.461 24.4997 454.522 24.6315 454.575 24.7019C454.707 24.904 454.874 25.0974 455.032 25.2733C455.199 25.4579 455.639 25.7392 455.859 25.8447C458.997 24.4821 458.654 21.4493 458.522 20.9306C458.601 20.9746 458.672 21.0273 458.733 21.0977C458.839 21.2207 458.909 21.3702 458.979 21.5108C459.41 22.4251 459.586 23.4975 459.779 24.4821C460.017 25.704 460.113 26.9523 460.359 28.1654C461.027 32.3234 461.432 35.4353 463.902 39.0132C464.922 40.5779 466.346 42.9778 468.051 43.6635C469.502 44.2524 471.058 44.4722 472.535 44.9557C473.994 45.4392 476.464 46.3271 477.044 44.2612C477.123 43.9711 477.202 43.681 477.273 43.3822L477.282 43.3997Z" fill="#404040" stroke="white" stroke-width="0.879073" stroke-miterlimit="10"/>
<path vector-effect="non-scaling-stroke" d="M443.605 47.6374C443.552 47.6374 443.508 47.6022 443.491 47.5494C443.473 47.4879 443.508 47.4264 443.57 47.4088C443.605 47.4 447.499 46.3275 450.989 43.031C451.033 42.9871 451.104 42.9871 451.148 43.031C451.192 43.075 451.192 43.1453 451.148 43.1892C447.614 46.5209 443.675 47.611 443.632 47.6198C443.623 47.6198 443.614 47.6198 443.605 47.6198V47.6374Z" fill="#020202" stroke="white" stroke-width="0.879073" stroke-linecap="round" stroke-linejoin="round"/>
<path vector-effect="non-scaling-stroke" d="M439.779 38.5474C439.779 38.5474 439.7 38.521 439.674 38.4858C439.647 38.4331 439.674 38.3628 439.718 38.3276C439.762 38.3012 444.35 35.8926 446.504 34.741C446.557 34.7146 446.627 34.741 446.662 34.7849C446.689 34.8377 446.662 34.908 446.618 34.9432C444.456 36.0948 439.876 38.5122 439.832 38.5386C439.814 38.5474 439.797 38.5474 439.779 38.5474Z" fill="#020202" stroke="white" stroke-width="0.879073" stroke-linecap="round" stroke-linejoin="round"/>
<path vector-effect="non-scaling-stroke" d="M157.068 306.541V323.56H180.654C180.654 323.56 181.26 319.604 176.461 315.921C172.408 312.809 170.342 310.189 169.648 306.541C168.945 302.884 157.068 306.541 157.068 306.541Z" fill="#404040" stroke="white" stroke-width="0.879073" stroke-miterlimit="10"/>
<path vector-effect="non-scaling-stroke" d="M157.068 323.56H180.654C180.654 323.56 181.146 320.369 177.762 317.046H157.068V323.56Z" fill="#020202" stroke="white" stroke-width="0.879073" stroke-miterlimit="10"/>
<path vector-effect="non-scaling-stroke" d="M193.736 306.541V323.56H217.322C217.322 323.56 217.928 319.604 213.129 315.921C209.076 312.809 207.01 310.189 206.316 306.541C205.613 302.884 193.736 306.541 193.736 306.541Z" fill="#404040" stroke="white" stroke-width="0.879073" stroke-miterlimit="10"/>
<path vector-effect="non-scaling-stroke" d="M193.736 323.56H217.322C217.322 323.56 217.814 320.369 214.43 317.046H193.736V323.56Z" fill="#020202" stroke="white" stroke-width="0.879073" stroke-miterlimit="10"/>
<path vector-effect="non-scaling-stroke" d="M310.301 2.91062L240.441 0.466797L252.757 23.5425L187.213 63.2063L168.797 28.7026L57.3389 94.5804L68.7844 116.012L160.103 62.3272L178.528 96.8308L264.202 44.9831L276.527 68.0675L310.301 2.91062Z" fill="#A100FF" stroke="white" stroke-width="0.879073" stroke-miterlimit="10"/>
<path vector-effect="non-scaling-stroke" d="M207.371 94.6249C207.371 94.6249 210.975 81.9838 195.609 86.0188C195.609 86.0188 178.177 76.0501 174.757 91.1877C173.614 96.26 170.757 100.699 166.705 103.627C152.921 113.595 127.147 136.689 152.086 155.914C161.861 163.448 174.986 163.711 185.113 156.714C193.701 150.78 202.51 142.218 201.666 132.416L207.371 94.6249Z" fill="#404040" stroke="white" stroke-width="0.879073" stroke-miterlimit="10"/>
<path vector-effect="non-scaling-stroke" d="M156.472 310.173L173.077 309.953C174.247 309.936 175.469 309.057 175.706 307.844L189.885 212.095L191.09 248.172C191.433 253.042 191.274 257.64 191.213 262.519L190.008 306.173C189.964 306.894 190.501 307.518 191.178 307.518L208.979 307.633C209.884 307.677 210.649 306.929 210.675 305.962L212.249 244.911L213.691 184.712L164.841 184.554L153.922 307.246C153.782 308.837 154.969 310.2 156.463 310.173H156.472Z" fill="#020202" stroke="white" stroke-width="0.879073" stroke-miterlimit="10"/>
<path vector-effect="non-scaling-stroke" d="M163.583 186.646L165.605 147.43L149.553 114.843C146.626 108.9 144.701 102.307 144.05 95.5911L142.195 75.2142C142.23 74.4757 147.171 73.7989 147.865 73.7989L153.808 73.6406C154.406 73.6406 154.907 75.2669 155.065 75.8823L158.511 95.3186C159.601 99.7403 161.438 103.916 163.935 107.634L172.093 119.766C172.374 120.188 172.857 120.381 173.332 120.275L181.323 118.438C182.747 118.113 184.189 117.946 185.639 117.946H190.615C191.828 117.946 193.041 118.06 194.236 118.289L199.942 119.379C200.443 119.476 200.953 119.221 201.207 118.746L210.939 100.567C211.721 99.1074 212.363 97.5602 212.864 95.9603L218.877 76.5591C219.053 75.9878 219.554 75.601 220.125 75.601H227.439C228.195 75.601 229.136 76.2779 229.092 77.0866L227.061 98.0525C226.437 100.734 225.136 103.265 224.239 105.718L211.695 140.037L214.605 186.25C214.666 187.191 214.262 188.087 213.532 188.632C209.981 191.278 197.463 197.616 165.517 189.406C164.339 189.098 163.522 187.938 163.592 186.646H163.583Z" fill="#202020" stroke="white" stroke-width="0.879073" stroke-miterlimit="10"/>
<path vector-effect="non-scaling-stroke" d="M199.767 101.27C199.714 102.14 199.626 103.098 199.486 104.092C199.002 107.344 197.886 110.922 195.363 112.601C194.826 112.962 194.22 113.234 193.543 113.401C193.367 113.445 193.191 113.471 193.007 113.507L193.218 118.095C189.587 124.732 187.196 124.829 183.522 118.095L184.295 111.59C184.409 111.168 184.304 110.711 184.014 110.403C183.187 109.524 182.44 108.408 181.843 106.993C180.981 104.962 180.418 102.316 180.392 98.87C180.392 98.5008 180.392 98.1316 180.392 97.7448C180.392 97.7448 180.058 96.3295 181.526 97.1294C184.181 98.5799 184.647 93.8505 193.095 96.1361C195.319 96.7339 199.899 98.8788 199.758 101.27H199.767Z" fill="#020202" stroke="white" stroke-width="0.879073" stroke-miterlimit="10"/>
<path vector-effect="non-scaling-stroke" d="M222.815 69.8874C222.472 70.7929 222.208 71.3731 222.208 71.3731C218.586 65.1756 217.241 67.5491 217.241 67.5491C216.538 71.7862 220.995 75.9706 220.995 75.9706L228.071 76.7354C229.39 70.4237 229.513 67.2942 229.496 66.0898L222.823 69.8874H222.815Z" fill="#020202" stroke="white" stroke-width="0.879073" stroke-miterlimit="10"/>
<path vector-effect="non-scaling-stroke" d="M151.277 67.514C151.083 67.8216 150.881 68.1469 150.679 68.4985C150.679 68.4985 146.846 60.0243 148.437 55.6904C148.437 55.6904 142.802 56.0684 142.24 61.6154C142.24 61.6154 141.765 64.7625 143.849 74.7487L152.094 73.8609C152.094 73.8609 157.017 69.237 156.516 64.4372L151.277 67.5228V67.514Z" fill="#020202" stroke="white" stroke-width="0.879073" stroke-miterlimit="10"/>
<path vector-effect="non-scaling-stroke" d="M145.598 63.5843C145.598 63.5843 144.226 58.3802 145.598 56.5518Z" fill="#020202"/>
<path vector-effect="non-scaling-stroke" d="M145.598 63.5843C145.598 63.5843 144.226 58.3802 145.598 56.5518" stroke="white" stroke-width="0.879073" stroke-miterlimit="10"/>
<path vector-effect="non-scaling-stroke" d="M178.027 95.019L179.284 103.089L181.623 100.759L185.007 98.0254L187.978 95.0717L191.363 96.8475L195.398 100.082L201.244 101.682L200.584 92.6719" fill="#404040"/>
<path vector-effect="non-scaling-stroke" d="M178.027 95.019L179.284 103.089L181.623 100.759L185.007 98.0254L187.978 95.0717L191.363 96.8475L195.398 100.082L201.244 101.682L200.584 92.6719" stroke="white" stroke-width="0.879073" stroke-miterlimit="10"/>
<path vector-effect="non-scaling-stroke" fill-rule="evenodd" clip-rule="evenodd" d="M337.578 190.206C337.684 191.419 338.299 193.67 341.156 195.929L343.424 197.722L343.811 197.485L345.006 199.181C346.879 201.827 348.98 203.26 351.274 203.462C353.911 203.691 356.962 201.994 359.238 199.032L359.265 198.997C361.023 196.817 361.964 194.522 362.966 192.087C363.212 191.49 363.458 190.901 363.713 190.294C364.741 186.83 366.183 183.077 369.638 179.059C369.585 178.98 369.532 178.91 369.497 178.892C361.999 174.69 347.925 176.246 342.853 180.475C339.723 183.094 337.939 186.013 337.675 188.949L337.561 190.215L337.578 190.206Z" fill="#A100FF" stroke="white" stroke-width="0.879073" stroke-miterlimit="10"/>
<path vector-effect="non-scaling-stroke" d="M333.588 202.96C341.842 199.339 350.888 194.011 355.046 185.66" stroke="white" stroke-width="0.879073" stroke-miterlimit="10"/>
<path vector-effect="non-scaling-stroke" d="M344.55 219.328C331.417 206.195 299.225 195.936 299.33 206.881C299.392 213.729 327.636 214.168 327.636 214.168L344.55 219.319V219.328Z" fill="#404040" stroke="white" stroke-width="0.879073" stroke-miterlimit="10"/>
<path vector-effect="non-scaling-stroke" d="M286.531 229.473C275.894 224.62 258.928 223.759 253.205 223.601C251.966 223.566 250.972 222.475 251.139 221.245C251.685 217.219 256.493 209.922 286.276 215.962L286.531 229.473Z" fill="#404040" stroke="white" stroke-width="0.879073" stroke-miterlimit="10"/>
<path vector-effect="non-scaling-stroke" d="M283.27 226.59L259.834 211.848C258.243 210.846 257.979 208.674 259.254 207.294C261.434 204.938 266.515 203.391 273.328 206.345C284.448 211.162 283.27 226.59 283.27 226.59Z" fill="#404040" stroke="white" stroke-width="0.879073" stroke-miterlimit="10"/>
<path vector-effect="non-scaling-stroke" d="M314.819 249.024C314.819 249.024 314.793 249.051 314.784 249.059C308.516 242.018 300.745 236.366 292.28 232.225C289.335 230.783 286.249 229.491 283.77 227.337C280.324 224.34 278.399 220.006 276.58 215.813C274.408 210.811 272.237 205.809 270.066 200.807C269.749 200.086 269.406 199.19 269.855 198.442C270.637 197.141 272.931 197.546 274.162 197.774C275.709 198.056 277.177 198.706 278.478 199.585C280.659 201.071 282.355 203.154 283.841 205.334C285.748 208.13 287.348 211.127 288.904 214.134C289.66 215.602 290.451 217.131 291.761 218.151C293.994 219.892 297.22 219.725 299.84 218.661C302.46 217.597 304.684 215.769 307.101 214.292C312.85 210.785 319.804 209.29 326.485 210.125C332.568 210.89 338.598 213.598 343.073 217.817C343.556 218.274 344.075 218.846 343.917 219.566C343.75 220.34 342.906 220.938 342.378 221.465C341.068 222.784 339.75 224.111 338.44 225.43C335.812 228.067 333.183 230.704 330.546 233.342C325.315 238.572 320.085 243.794 314.837 249.007L314.819 249.024Z" fill="#404040" stroke="white" stroke-width="0.879073" stroke-miterlimit="10"/>
<path vector-effect="non-scaling-stroke" d="M338.423 225.448C338.423 225.448 333.86 207.691 303.427 216.71Z" fill="#404040"/>
<path vector-effect="non-scaling-stroke" d="M338.423 225.448C338.423 225.448 333.86 207.691 303.427 216.71" stroke="white" stroke-width="0.879073" stroke-miterlimit="10"/>
<path vector-effect="non-scaling-stroke" d="M358.215 232.989L344.553 219.326L314.84 249.039L328.503 262.701L358.215 232.989Z" fill="#020202" stroke="white" stroke-width="0.879073" stroke-miterlimit="10"/>
<path vector-effect="non-scaling-stroke" d="M385.945 322.198C386.973 323.077 388.283 323.561 389.628 323.561H483.478V310.269C483.478 285.101 463.075 264.698 437.907 264.698H405.399C404.186 264.698 402.999 264.311 402.023 263.582L362.605 234.379C360.346 232.709 357.208 232.937 355.221 234.924L332.154 257.991C325.544 264.601 326.827 270.711 332.102 276.108C332.242 276.249 385.962 322.189 385.962 322.189L385.945 322.198Z" fill="#202020" stroke="white" stroke-width="0.879073" stroke-miterlimit="10"/>
<path vector-effect="non-scaling-stroke" fill-rule="evenodd" clip-rule="evenodd" d="M279.693 194.796C280.888 194.585 283.077 193.776 285.082 190.726L286.664 188.308L286.391 187.948L287.974 186.612C290.444 184.52 291.692 182.295 291.692 179.992C291.692 177.346 289.741 174.454 286.585 172.441L286.541 172.415C284.22 170.859 281.847 170.112 279.332 169.329C278.708 169.136 278.102 168.942 277.486 168.74C273.944 168.019 270.076 166.912 265.777 163.817C265.707 163.879 265.637 163.932 265.619 163.976C262.085 171.817 264.863 185.698 269.513 190.383C272.397 193.275 275.465 194.796 278.401 194.796H279.675H279.693Z" fill="#A100FF" stroke="white" stroke-width="0.879073" stroke-miterlimit="10"/>
<path vector-effect="non-scaling-stroke" fill-rule="evenodd" clip-rule="evenodd" d="M316.157 186.787C319.699 186.787 323.813 184.255 327.743 179.657C333.562 172.502 336.296 153.153 331.224 142.824C331.154 142.754 331.066 142.684 330.995 142.631C330.881 142.631 330.741 142.648 330.617 142.684C326.011 146.78 320.772 148.283 315.708 149.734C309.634 151.633 305.072 153.294 301.678 157.32C297.793 161.865 296.255 165.918 297.098 169.372C297.916 172.344 300.219 174.998 303.762 177.047L305.529 178.066L305.731 177.706L307.682 180.985C309.608 184.211 312.104 186.215 314.935 186.796H316.166L316.157 186.787Z" fill="#A100FF" stroke="white" stroke-width="0.879073" stroke-miterlimit="10"/>
<path vector-effect="non-scaling-stroke" d="M323.611 156.556C323.611 156.556 300.193 176.59 295.164 202.54C295.164 202.54 286.901 182.963 273.636 177.776" stroke="white" stroke-width="0.879073" stroke-miterlimit="10"/>
<path vector-effect="non-scaling-stroke" fill-rule="evenodd" clip-rule="evenodd" d="M235.704 188.773C236.477 187.833 237.602 185.793 237.128 182.171L236.75 179.306L236.301 179.209L236.627 177.161C237.128 173.961 236.627 171.464 235.123 169.715C233.4 167.711 230.025 166.796 226.324 167.333H226.271C223.493 167.676 221.208 168.669 218.799 169.715C218.201 169.97 217.612 170.225 217.015 170.471C213.859 172.238 210.211 173.926 204.936 174.392C204.918 174.488 204.91 174.567 204.918 174.611C207.362 182.857 218.527 191.56 225.111 192.061C229.181 192.369 232.495 191.525 234.728 189.6L235.695 188.773H235.704Z" fill="#A100FF" stroke="white" stroke-width="0.879073" stroke-miterlimit="10"/>
<path vector-effect="non-scaling-stroke" d="M247.457 182.417C239.018 179.252 228.821 176.755 220.013 179.841" stroke="white" stroke-width="0.879073" stroke-miterlimit="10"/>
<path vector-effect="non-scaling-stroke" fill-rule="evenodd" clip-rule="evenodd" d="M277.125 255.284C276.36 254.651 274.69 253.737 271.745 254.115L269.407 254.423L269.328 254.783L267.658 254.519C265.047 254.106 263.007 254.519 261.592 255.741C259.957 257.148 259.21 259.899 259.64 262.915V262.95C259.922 265.218 260.722 267.073 261.574 269.05C261.785 269.534 261.988 270.017 262.19 270.51C263.631 273.085 265.003 276.065 265.381 280.364C265.46 280.382 265.521 280.391 265.557 280.382C272.282 278.395 279.384 269.288 279.798 263.925C280.053 260.611 279.358 257.904 277.793 256.084L277.116 255.302L277.125 255.284Z" fill="#A100FF" stroke="white" stroke-width="0.879073" stroke-miterlimit="10"/>
<path vector-effect="non-scaling-stroke" d="M271.939 245.703C269.355 252.586 267.316 260.894 269.83 268.084" stroke="white" stroke-width="0.879073" stroke-miterlimit="10"/>
<path vector-effect="non-scaling-stroke" d="M112.836 215.46C114.867 209.324 120.633 204.903 127.446 204.903C128.404 204.903 129.345 204.999 130.259 205.166C131.71 203.426 133.644 202.098 135.859 201.386C137.204 193.861 143.762 188.156 151.665 188.156C159.374 188.156 165.818 193.598 167.365 200.85C167.69 200.824 168.024 200.806 168.358 200.806C172.481 200.806 176.12 202.872 178.309 206.028C180.27 204.305 182.828 203.259 185.641 203.259C191.777 203.259 196.752 208.243 196.752 214.379C196.752 214.739 196.735 215.1 196.7 215.46H112.854H112.836Z" fill="#404040" stroke="white" stroke-width="0.879073" stroke-miterlimit="10"/>
<path vector-effect="non-scaling-stroke" d="M132.271 221.297C129.81 213.852 122.804 208.48 114.54 208.48C113.371 208.48 112.237 208.595 111.13 208.797C109.363 206.678 107.016 205.07 104.334 204.208C102.708 195.083 94.7437 188.147 85.153 188.147C75.5623 188.147 67.9759 194.749 66.0947 203.558C65.6991 203.522 65.2947 203.505 64.8903 203.505C59.8884 203.505 55.4667 206.01 52.8119 209.834C50.4384 207.742 47.3265 206.476 43.9156 206.476C36.4699 206.476 30.4307 212.524 30.4307 219.979C30.4307 220.418 30.457 220.858 30.4922 221.289H132.254L132.271 221.297Z" fill="#020202" stroke="white" stroke-width="0.879073" stroke-miterlimit="10"/>
<path vector-effect="non-scaling-stroke" d="M437.838 316.069C440.44 308.201 447.842 302.523 456.571 302.523C457.802 302.523 459.006 302.646 460.175 302.857C462.039 300.624 464.518 298.918 467.357 298.013C469.08 288.37 477.493 281.038 487.629 281.038C497.518 281.038 505.781 288.018 507.768 297.327C508.19 297.292 508.612 297.275 509.034 297.275C514.326 297.275 518.994 299.921 521.798 303.964C524.312 301.758 527.6 300.413 531.204 300.413C539.081 300.413 545.454 306.804 545.454 314.68C545.454 315.146 545.428 315.612 545.384 316.069H437.829H437.838Z" fill="#404040" stroke="white" stroke-width="0.879073" stroke-miterlimit="10"/>
<path vector-effect="non-scaling-stroke" d="M462.768 323.559C459.612 314.012 450.628 307.12 440.026 307.12C438.532 307.12 437.073 307.261 435.649 307.525C433.389 304.808 430.374 302.751 426.937 301.644C424.845 289.934 414.63 281.047 402.332 281.047C390.033 281.047 380.302 289.521 377.885 300.817C377.375 300.773 376.865 300.747 376.346 300.747C369.929 300.747 364.259 303.964 360.857 308.87C357.807 306.188 353.816 304.562 349.438 304.562C339.882 304.562 332.138 312.316 332.138 321.88C332.138 322.451 332.164 323.005 332.217 323.559H462.759H462.768Z" fill="#020202" stroke="white" stroke-width="0.879073" stroke-miterlimit="10"/>
<path vector-effect="non-scaling-stroke" d="M128.8 289.241L129.283 296.678L136.43 294.577" fill="black"/>
<path vector-effect="non-scaling-stroke" d="M128.8 289.241L129.283 296.678L136.43 294.577" stroke="white" stroke-width="0.879073" stroke-linecap="round" stroke-linejoin="round"/>
<path vector-effect="non-scaling-stroke" d="M65.6992 253.63L72.8461 251.529L73.3296 258.966" fill="black"/>
<path vector-effect="non-scaling-stroke" d="M65.6992 253.63L72.8461 251.529L73.3296 258.966" stroke="white" stroke-width="0.879073" stroke-linecap="round" stroke-linejoin="round"/>
<path vector-effect="non-scaling-stroke" d="M124.281 301.715C112.088 311.983 94.0761 313.222 80.3977 303.658C64.0733 292.248 60.0999 269.761 71.5103 253.437" fill="black"/>
<path vector-effect="non-scaling-stroke" d="M124.281 301.715C112.088 311.983 94.0761 313.222 80.3977 303.658C64.0733 292.248 60.0999 269.761 71.5103 253.437" stroke="white" stroke-width="0.879073" stroke-linecap="round" stroke-linejoin="round"/>
<path vector-effect="non-scaling-stroke" d="M77.8574 246.483C90.0502 236.225 108.054 234.985 121.732 244.549C138.056 255.96 142.03 278.446 130.619 294.771" fill="black"/>
<path vector-effect="non-scaling-stroke" d="M77.8574 246.483C90.0502 236.225 108.054 234.985 121.732 244.549C138.056 255.96 142.03 278.446 130.619 294.771" stroke="white" stroke-width="0.879073" stroke-linecap="round" stroke-linejoin="round"/>
</g>
<defs>
<clipPath id="clip0_77_615">
<rect width="516.746" height="324" fill="white" transform="translate(30)"/>
</clipPath>
</defs>
</svg>
