<svg width="576" height="324" viewBox="0 0 576 324" fill="none" xmlns="http://www.w3.org/2000/svg">
<g clip-path="url(#clip0_77_5088)">
<path vector-effect="non-scaling-stroke" d="M375.863 107.223C386.6 96.4857 404.017 96.4857 414.763 107.223C425.5 117.959 425.5 135.377 414.763 146.122L375.863 185.022L336.964 146.122C326.227 135.385 326.227 117.968 336.964 107.223C347.701 96.4857 365.118 96.4857 375.863 107.223Z" fill="#020202" stroke="white" stroke-width="0.857574" stroke-miterlimit="10"/>
<path vector-effect="non-scaling-stroke" d="M333.345 9.23633H300.911V41.6698H333.345V9.23633Z" stroke="white" stroke-width="0.857574" stroke-miterlimit="10"/>
<path vector-effect="non-scaling-stroke" d="M365.778 9.23633H333.345V41.6698H365.778V9.23633Z" fill="#404040"/>
<path vector-effect="non-scaling-stroke" d="M333.345 41.6699H300.911V74.1034H333.345V41.6699Z" fill="#202020"/>
<path vector-effect="non-scaling-stroke" d="M365.778 9.23633H333.345V41.6698H365.778V9.23633Z" stroke="white" stroke-width="0.857574" stroke-miterlimit="10"/>
<path vector-effect="non-scaling-stroke" d="M333.345 41.6699H300.911V74.1034H333.345V41.6699Z" stroke="white" stroke-width="0.857574" stroke-miterlimit="10"/>
<path vector-effect="non-scaling-stroke" d="M300.911 41.6699H268.478V74.1034H300.911V41.6699Z" stroke="white" stroke-width="0.857574" stroke-miterlimit="10"/>
<path vector-effect="non-scaling-stroke" d="M365.778 41.6699H333.345V74.1034H365.778V41.6699Z" stroke="white" stroke-width="0.857574" stroke-miterlimit="10"/>
<path vector-effect="non-scaling-stroke" d="M365.581 41.6797L398.015 41.6797V9.24624L365.581 9.24624V41.6797Z" fill="#202020" stroke="white" stroke-width="0.857574" stroke-miterlimit="10"/>
<path vector-effect="non-scaling-stroke" d="M462.881 74.1123H495.314V41.6789L462.881 41.6789V74.1123Z" fill="#202020" stroke="white" stroke-width="0.857574" stroke-miterlimit="10"/>
<path vector-effect="non-scaling-stroke" d="M268.478 48.5903C272.305 48.5903 275.407 45.4918 275.407 41.6696C275.407 37.8475 272.305 34.749 268.478 34.749C264.651 34.749 261.549 37.8475 261.549 41.6696C261.549 45.4918 264.651 48.5903 268.478 48.5903Z" fill="#020202" stroke="white" stroke-width="0.857574" stroke-miterlimit="10"/>
<path vector-effect="non-scaling-stroke" d="M333.353 16.1576C337.18 16.1576 340.282 13.0592 340.282 9.23703C340.282 5.41487 337.18 2.31641 333.353 2.31641C329.526 2.31641 326.424 5.41487 326.424 9.23703C326.424 13.0592 329.526 16.1576 333.353 16.1576Z" fill="#020202" stroke="white" stroke-width="0.857574" stroke-miterlimit="10"/>
<path vector-effect="non-scaling-stroke" d="M397.834 20.8823C401.661 20.8823 404.764 17.7838 404.764 13.9616C404.764 10.1395 401.661 7.04102 397.834 7.04102C394.008 7.04102 390.905 10.1395 390.905 13.9616C390.905 17.7838 394.008 20.8823 397.834 20.8823Z" fill="#020202" stroke="white" stroke-width="0.857574" stroke-miterlimit="10"/>
<path vector-effect="non-scaling-stroke" d="M525.545 141.59C527.757 135.518 529.378 128.581 529.867 120.794C531.642 92.3825 494.827 63.4565 494.827 63.4565L484.793 62.9248L494.827 128.967L493.249 134.369C499.295 137.654 512.87 143.88 525.545 141.59Z" fill="#202020" stroke="white" stroke-width="0.857574" stroke-miterlimit="10"/>
<path vector-effect="non-scaling-stroke" d="M493.249 134.369L484.793 163.252C484.793 163.252 499.286 175.893 505.28 171.125C509.637 167.66 519.688 157.669 525.545 141.59C512.87 143.88 499.295 137.654 493.249 134.369Z" fill="#020202" stroke="white" stroke-width="0.857574" stroke-miterlimit="10"/>
<path vector-effect="non-scaling-stroke" d="M447.651 163.262H508.994L521.008 109.123H459.666L447.651 163.262Z" fill="#000002" stroke="white" stroke-width="0.857574" stroke-miterlimit="10"/>
<path vector-effect="non-scaling-stroke" d="M408.863 183.125C422.481 143.822 434.47 103.482 448.054 64.5654C448.406 63.5535 448.406 63.2448 450.713 62.9532C472.169 62.25 494.818 63.4591 494.818 63.4591L497.519 183.125H408.854H408.863Z" fill="#202020" stroke="white" stroke-width="0.857574" stroke-miterlimit="10"/>
<path vector-effect="non-scaling-stroke" d="M450.713 62.9528L400.064 69.2731C400.064 69.2731 400.742 66.9491 401.642 63.3644C388.967 70.0278 379.534 65.4826 375.195 61.6836C370.109 69.1102 365.453 78.4749 367.468 85.9615C371.447 100.72 403.237 109.836 449.255 96.5354" fill="#202020"/>
<path vector-effect="non-scaling-stroke" d="M450.713 62.9528L400.064 69.2731C400.064 69.2731 400.742 66.9491 401.642 63.3644C388.967 70.0278 379.534 65.4826 375.195 61.6836C370.109 69.1102 365.453 78.4749 367.468 85.9615C371.447 100.72 403.237 109.836 449.255 96.5354" stroke="white" stroke-width="0.857574" stroke-miterlimit="10"/>
<path vector-effect="non-scaling-stroke" d="M401.651 63.373C403.349 56.6153 405.819 45.3897 405.956 36.7625C406.171 23.573 399.919 17.8358 397.647 18.7106C395.374 19.5853 396.703 22.2352 397.647 24.5421C398.59 26.849 399.07 28.8642 399.07 28.8642C399.07 28.8642 395.657 25.0995 393.093 29.3531C393.093 29.3531 389.131 25.3396 387.261 29.7904C387.261 29.7904 382.999 26.5574 381.207 31.6942C379.415 36.8225 383.814 36.7625 383.814 36.7625C383.814 36.7625 383.891 45.0981 385.486 49.0944C385.486 49.0944 380.144 54.4714 375.195 61.6836C379.535 65.4827 388.968 70.0278 401.643 63.3644L401.651 63.373Z" fill="#020202" stroke="white" stroke-width="0.857574" stroke-miterlimit="10"/>
<path vector-effect="non-scaling-stroke" d="M460.343 46.745L462.745 61.8468L456.793 63.0303C456.793 63.0303 457.779 65.3715 479.467 64.2823C495.281 63.4848 470.814 38.2979 470.814 38.2979C470.814 38.2979 465.78 41.6938 460.343 46.7535V46.745Z" fill="#020202" stroke="white" stroke-width="0.857574" stroke-miterlimit="10"/>
<path vector-effect="non-scaling-stroke" d="M453.508 15.0649C459.914 13.3069 463.876 12.0291 473.653 17.509C482.546 22.4915 507.544 56.9917 511.017 64.7613C514.499 72.5309 513.813 82.1529 508.736 88.962C503.651 95.7798 494.166 99.2101 486.027 96.6288C478.85 94.3562 473.533 87.9844 470.934 80.9437C468.336 73.9116 468.113 66.2449 468.43 58.7583C468.584 55.1308 468.842 44.7112 466.852 41.6583C465.609 39.7459 463.585 44.9342 461.681 43.6736C458.353 41.4696 455.18 33.7257 450.773 30.8185C443.011 25.7074 446.45 16.9945 453.517 15.0563L453.508 15.0649Z" fill="#020202" stroke="white" stroke-width="0.857574" stroke-miterlimit="10"/>
<path vector-effect="non-scaling-stroke" d="M451.545 27.3706C450.696 37.2585 451.665 44.0847 454.341 47.1377C455.387 48.3297 456.716 48.9643 458.285 49.0329C465.009 49.3245 466.904 44.2563 466.981 44.0419C467.033 43.8961 467.161 43.8017 467.316 43.7932C469.623 43.6474 471.844 42.301 472.736 40.5344C473.404 39.1966 473.276 37.7473 472.367 36.3494C471.818 35.509 471.123 35.0373 470.249 34.9173C467.813 34.5828 464.897 37.0955 464.872 37.1212C464.769 37.207 464.631 37.2413 464.503 37.1984C461.973 36.358 461.115 34.4285 460.155 30.4236C459.409 27.302 453.063 27.3278 451.536 27.3792L451.545 27.3706Z" fill="#020202" stroke="white" stroke-width="0.857574" stroke-miterlimit="10"/>
<path vector-effect="non-scaling-stroke" d="M517.235 64.1816H536.462L536.847 64.5676V182.75L536.462 183.127H395.699L395.313 182.75V165.564" stroke="white" stroke-width="0.857574" stroke-miterlimit="10"/>
<path vector-effect="non-scaling-stroke" d="M245.641 74.1035H39.4287V323.572H245.641V74.1035Z" fill="#020202" stroke="white" stroke-width="0.857574" stroke-miterlimit="10"/>
<path vector-effect="non-scaling-stroke" d="M180.894 279.287L150.553 322.594H228.318C230.487 318.298 233.429 312.458 236.576 306.112C248.599 281.851 244.629 252.719 226.534 232.575C200.429 203.511 160.02 167.673 142.758 151.062C139.464 147.889 136.883 145.591 135.219 144.407C119.337 133.07 80.1289 172.073 80.1289 172.073L128.453 227.009L180.902 279.287H180.894Z" fill="#020202" stroke="white" stroke-width="0.857574" stroke-miterlimit="10"/>
<path vector-effect="non-scaling-stroke" d="M180.894 279.286L193.354 290.529Z" fill="#020202"/>
<path vector-effect="non-scaling-stroke" d="M180.894 279.286L193.354 290.529" stroke="white" stroke-width="0.857574" stroke-miterlimit="10"/>
<path vector-effect="non-scaling-stroke" d="M97.0749 322.594H191.314L104.724 165.444L60.7995 140.66C60.3793 141.801 43.0134 158.575 55.9285 204.181C65.8592 239.23 87.5472 297.493 97.0577 322.594H97.0749Z" fill="#020202" stroke="white" stroke-width="0.857574" stroke-miterlimit="10"/>
<path vector-effect="non-scaling-stroke" d="M97.0746 322.971C96.9202 322.971 96.7744 322.877 96.7144 322.723C87.6756 298.865 65.5759 239.581 55.568 204.275C47.9356 177.338 49.5135 154.896 60.0274 141.097C60.216 140.849 60.4133 140.583 60.4476 140.514C60.5333 140.325 60.7563 140.231 60.9536 140.308C61.1422 140.385 61.2451 140.591 61.168 140.788C61.1079 140.943 60.9621 141.14 60.6363 141.56C50.2768 155.17 48.7417 177.364 56.3055 204.06C66.2962 239.332 88.3959 298.599 97.4262 322.44C97.5033 322.637 97.4004 322.86 97.2032 322.937C97.1603 322.954 97.1089 322.963 97.066 322.963L97.0746 322.971Z" fill="#020202" stroke="white" stroke-width="0.857574" stroke-miterlimit="10"/>
<path vector-effect="non-scaling-stroke" d="M131.542 187.304C131.542 187.304 85.67 203.237 47.2335 152.983C43.0829 147.555 43.4774 139.923 48.194 134.983C69.2046 112.995 126.799 54.5596 146.017 53.8736C169.695 53.0332 215.438 103.93 215.438 103.93L198.501 133.011L185.114 121.287L131.55 187.304H131.542Z" fill="#202020" stroke="white" stroke-width="0.857574" stroke-miterlimit="10"/>
<path vector-effect="non-scaling-stroke" d="M191.863 112.48L185.105 121.288Z" fill="#020202"/>
<path vector-effect="non-scaling-stroke" d="M191.863 112.48L185.105 121.288" stroke="white" stroke-width="0.857574" stroke-miterlimit="10"/>
<path vector-effect="non-scaling-stroke" d="M303.15 87.6611H193.801V197.01H303.15V87.6611Z" fill="#020202" stroke="white" stroke-width="0.857574" stroke-miterlimit="10"/>
<path vector-effect="non-scaling-stroke" d="M113.927 163.042C113.927 163.042 117.563 201.59 140.691 204.36C163.829 207.13 205.241 162.604 207.951 159.783C210.669 156.953 210.532 153.145 201.656 158.582C201.656 158.582 210.138 153.197 211.004 149.681C211.87 146.173 205.481 146.714 198.055 151.55C198.055 151.55 211.733 144.132 211.004 139.364C210.627 136.911 204.332 136.183 190.516 145.187C190.516 145.187 198.175 140.428 201.691 136.903C205.31 133.275 201.656 128.576 188.904 136.105C176.358 143.515 156.531 161.901 156.531 161.901L152.063 145.196C152.063 145.196 126.284 150.315 113.918 163.033L113.927 163.042Z" fill="#020202" stroke="white" stroke-width="0.857574" stroke-miterlimit="10"/>
<path vector-effect="non-scaling-stroke" d="M156.634 161.823L147.132 170.639Z" fill="#020202"/>
<path vector-effect="non-scaling-stroke" d="M156.634 161.823L147.132 170.639" stroke="white" stroke-width="0.857574" stroke-miterlimit="10"/>
<path vector-effect="non-scaling-stroke" d="M158.349 36.7207L140.932 56.968C137.699 60.7328 137.681 66.2899 140.897 70.0632C146.154 76.2463 154.481 84.7277 162.165 87.0517C174.651 90.8165 169.317 76.2291 164.018 66.307C164.018 66.307 162.68 37.0037 158.358 36.7207H158.349Z" fill="#020202" stroke="white" stroke-width="0.857574" stroke-miterlimit="10"/>
<path vector-effect="non-scaling-stroke" d="M161.04 73.4395L162.02 60.6907C162.037 60.4752 162.07 60.4136 162.095 60.5573C162.121 60.701 162.128 60.9782 162.111 61.1937" fill="#020202"/>
<path vector-effect="non-scaling-stroke" d="M161.04 73.4395L162.02 60.6907C162.037 60.4752 162.07 60.4136 162.095 60.5573C162.121 60.701 162.128 60.9782 162.111 61.1937" stroke="white" stroke-width="0.857574" stroke-miterlimit="10"/>
<path vector-effect="non-scaling-stroke" d="M147.826 40.1676C147.826 40.1676 138.633 24.817 140.683 21.5583C142.732 18.2995 146.531 19.946 146.531 19.946C146.531 19.946 163.409 -6.14994 170.252 5.0757C170.252 5.0757 175.38 -2.7711 181.761 1.91983C188.141 6.61076 185.937 11.7648 181.435 14.9978C181.435 14.9978 185.208 23.2563 181.22 27.0467C177.233 30.8372 180.852 40.7336 183.639 42.0629C183.639 42.0629 190.971 61.4183 182.284 66.195C173.596 70.9717 157.157 70.8002 154.078 49.7124L147.818 40.159L147.826 40.1676Z" fill="#202020" stroke="white" stroke-width="0.857574" stroke-miterlimit="10"/>
<path vector-effect="non-scaling-stroke" d="M152.972 41.7364L154.087 49.7204C154.087 49.7204 145.803 51.5556 143.024 44.9437C140.477 38.8807 146.077 33.7867 151.342 38.6149C152.234 39.4295 152.809 40.5444 152.972 41.745V41.7364Z" fill="#020202" stroke="white" stroke-width="0.857574" stroke-miterlimit="10"/>
<path vector-effect="non-scaling-stroke" d="M180.972 21.4209C180.972 21.4209 180.097 22.9474 177.173 24.1566C174.849 25.1171 172.276 25.3486 169.789 24.9541C166.333 24.4053 160.099 23.7449 157.44 25.5458C155.245 27.038 155.871 31.3516 156.025 36.6943C156.111 39.6101 157.354 50.9815 159.97 52.4051C165.15 55.2179 169.395 56.6844 169.36 55.0464C169.137 45.3043 185.217 43.7007 185.663 49.2235L180.972 21.4209Z" fill="#020202"/>
<path vector-effect="non-scaling-stroke" d="M180.972 21.4209L181.395 21.3496C181.365 21.171 181.226 21.0306 181.047 20.9988C180.869 20.967 180.69 21.0506 180.6 21.2077L180.972 21.4209ZM177.173 24.1566L177.337 24.5528L177.337 24.5528L177.173 24.1566ZM169.789 24.9541L169.722 25.3776L169.722 25.3776L169.789 24.9541ZM157.44 25.5458L157.2 25.1908L157.199 25.1912L157.44 25.5458ZM156.025 36.6943L155.597 36.7067L155.597 36.7069L156.025 36.6943ZM159.97 52.4051L159.765 52.7817L159.765 52.7819L159.97 52.4051ZM169.36 55.0464L169.789 55.0374L169.789 55.0366L169.36 55.0464ZM185.663 49.2235L185.24 49.2948L186.09 49.1889L185.663 49.2235ZM180.972 21.4209C180.6 21.2077 180.6 21.2075 180.6 21.2073C180.6 21.2073 180.6 21.2071 180.6 21.207C180.6 21.2068 180.601 21.2066 180.601 21.2064C180.601 21.2061 180.601 21.2058 180.601 21.2056C180.601 21.2053 180.601 21.2053 180.601 21.2057C180.601 21.2065 180.599 21.2087 180.597 21.2123C180.593 21.2194 180.585 21.2321 180.573 21.2497C180.549 21.2851 180.51 21.3407 180.453 21.4129C180.339 21.5573 180.154 21.7685 179.88 22.0185C179.333 22.5177 178.425 23.1747 177.009 23.7603L177.337 24.5528C178.845 23.9292 179.837 23.2184 180.458 22.6521C180.768 22.3693 180.985 22.1234 181.126 21.9438C181.197 21.854 181.249 21.7808 181.285 21.728C181.302 21.7016 181.316 21.6802 181.326 21.6644C181.331 21.6565 181.335 21.65 181.338 21.6449C181.339 21.6424 181.34 21.6402 181.341 21.6384C181.342 21.6375 181.342 21.6367 181.343 21.636C181.343 21.6356 181.343 21.6353 181.343 21.635C181.344 21.6348 181.344 21.6346 181.344 21.6345C181.344 21.6343 181.344 21.6341 180.972 21.4209ZM177.009 23.7603C174.766 24.6874 172.274 24.9141 169.856 24.5306L169.722 25.3776C172.278 25.7831 174.932 25.5467 177.337 24.5528L177.009 23.7603ZM169.856 24.5306C168.119 24.2547 165.672 23.9487 163.317 23.94C162.14 23.9357 160.975 24.0056 159.929 24.1945C158.887 24.3826 157.934 24.6937 157.2 25.1908L157.681 25.9008C158.276 25.4976 159.099 25.2158 160.081 25.0384C161.06 24.8618 162.168 24.7934 163.314 24.7976C165.605 24.8061 168.004 25.1047 169.722 25.3776L169.856 24.5306ZM157.199 25.1912C155.916 26.0634 155.522 27.7149 155.423 29.6543C155.323 31.6091 155.52 34.0706 155.597 36.7067L156.454 36.6819C156.376 33.9754 156.182 31.6087 156.28 29.698C156.378 27.7718 156.769 26.5204 157.681 25.9005L157.199 25.1912ZM155.597 36.7069C155.64 38.1895 155.975 41.7841 156.628 45.1899C156.954 46.8927 157.363 48.5649 157.86 49.9086C158.109 50.5803 158.384 51.1822 158.69 51.6689C158.992 52.15 159.345 52.5534 159.765 52.7817L160.175 52.0284C159.941 51.9009 159.683 51.6375 159.416 51.2128C159.153 50.7937 158.901 50.251 158.664 49.6108C158.19 48.3309 157.792 46.711 157.47 45.0286C156.825 41.6639 156.496 38.1149 156.454 36.6817L155.597 36.7069ZM159.765 52.7819C162.365 54.1934 164.751 55.2794 166.497 55.8053C167.359 56.0652 168.117 56.2049 168.68 56.1468C168.964 56.1174 169.25 56.0327 169.467 55.8365C169.699 55.6269 169.795 55.3421 169.789 55.0374L168.932 55.0554C168.934 55.1602 168.906 55.1878 168.892 55.2005C168.863 55.2267 168.782 55.2742 168.592 55.2937C168.207 55.3335 167.586 55.2378 166.744 54.9842C165.081 54.4833 162.755 53.4295 160.175 52.0282L159.765 52.7819ZM169.789 55.0366C169.684 50.4637 173.398 47.7365 177.357 46.8286C179.326 46.377 181.292 46.3961 182.772 46.8438C184.259 47.2938 185.144 48.1304 185.235 49.258L186.09 49.1889C185.958 47.5551 184.667 46.5211 183.02 46.023C181.366 45.5225 179.244 45.516 177.165 45.9927C173.029 46.9413 168.813 49.887 168.932 55.0562L169.789 55.0366ZM186.086 49.1521L181.395 21.3496L180.549 21.4922L185.24 49.2948L186.086 49.1521Z" fill="white"/>
<path vector-effect="non-scaling-stroke" d="M365.23 143.635H310.8V198.065H365.23V143.635Z" fill="#020202" stroke="white" stroke-width="0.857574" stroke-miterlimit="10"/>
<path vector-effect="non-scaling-stroke" d="M365.23 203.271H310.8V257.702H365.23V203.271Z" fill="#020202" stroke="white" stroke-width="0.857574" stroke-miterlimit="10"/>
<path vector-effect="non-scaling-stroke" d="M304.694 203.271H250.264V257.702H304.694V203.271Z" fill="#020202" stroke="white" stroke-width="0.857574" stroke-miterlimit="10"/>
<path vector-effect="non-scaling-stroke" d="M258.796 156.996H236.036L229.03 171.755H218.361L247.708 112.153H262.209L272.466 171.755H261.214L258.796 156.996ZM239.869 148.909H257.544L253.127 121.235L239.869 148.909Z" fill="#A100FF" stroke="white" stroke-width="0.857574" stroke-miterlimit="10"/>
<path vector-effect="non-scaling-stroke" d="M336.304 157.442H326.167V156.121H348.069V157.442H337.89V187.637H336.304V157.442Z" fill="white"/>
<path vector-effect="non-scaling-stroke" d="M278.658 247.641C276.454 247.641 274.413 247.229 272.534 246.406C270.656 245.583 269.027 244.451 267.663 243.01C266.3 241.569 265.228 239.889 264.448 237.968C263.667 236.047 263.281 233.98 263.281 231.776V231.424C263.281 229.195 263.667 227.102 264.448 225.164C265.228 223.226 266.308 221.545 267.689 220.113C269.07 218.689 270.682 217.566 272.534 216.743C274.387 215.919 276.402 215.508 278.572 215.508C280.741 215.508 282.757 215.911 284.609 216.717C286.461 217.523 288.065 218.638 289.437 220.07C290.809 221.502 291.873 223.175 292.653 225.095C293.434 227.016 293.819 229.083 293.819 231.287V231.639C293.819 233.868 293.434 235.961 292.653 237.899C291.873 239.837 290.809 241.527 289.454 242.967C288.099 244.408 286.504 245.549 284.652 246.38C282.8 247.212 280.801 247.633 278.658 247.633V247.641ZM278.658 246.32C280.621 246.32 282.431 245.943 284.077 245.197C285.724 244.442 287.148 243.413 288.357 242.11C289.557 240.798 290.501 239.254 291.178 237.47C291.856 235.687 292.19 233.757 292.19 231.665V231.313C292.19 229.28 291.856 227.394 291.178 225.644C290.501 223.895 289.566 222.36 288.357 221.056C287.148 219.744 285.715 218.715 284.06 217.969C282.397 217.214 280.57 216.846 278.572 216.846C276.574 216.846 274.738 217.223 273.066 217.969C271.394 218.724 269.953 219.744 268.744 221.039C267.535 222.334 266.6 223.878 265.923 225.67C265.245 227.462 264.911 229.392 264.911 231.45V231.802C264.911 233.86 265.254 235.772 265.948 237.539C266.634 239.305 267.603 240.841 268.838 242.153C270.073 243.465 271.531 244.485 273.203 245.223C274.876 245.96 276.702 246.329 278.666 246.329L278.658 246.32Z" fill="white"/>
<path vector-effect="non-scaling-stroke" d="M323.311 246.45L342.178 221.366H328.911L329.795 215.809H353.335L353.206 216.649L334.563 241.767H348.575L347.692 247.324H323.183L323.311 246.441V246.45Z" fill="#A100FF" stroke="white" stroke-width="0.857574" stroke-miterlimit="10"/>
<path vector-effect="non-scaling-stroke" d="M508.522 308.383L536.848 210.757H390.074L362.777 308.383H508.522Z" fill="#202020" stroke="white" stroke-width="0.857574" stroke-miterlimit="10"/>
<path vector-effect="non-scaling-stroke" d="M503.573 308.383L529.944 219.238H392.475L367.785 308.383H503.573Z" fill="#020202" stroke="white" stroke-width="0.857574" stroke-miterlimit="10"/>
<path vector-effect="non-scaling-stroke" d="M443.251 194.051H434.598V176.067V183.794C434.598 183.794 430.645 184.6 429.35 180.827C428.055 177.054 425.765 166.891 431.451 162.912C437.137 158.925 444.237 165.356 444.237 165.356L443.251 194.059V194.051Z" fill="#020202" stroke="white" stroke-width="0.857574" stroke-miterlimit="10"/>
<path vector-effect="non-scaling-stroke" d="M480.659 308.392H401.685V285.743C401.685 266.696 417.147 251.234 436.194 251.234H446.15C465.197 251.234 480.659 266.696 480.659 285.743V308.392Z" fill="#404040" stroke="white" stroke-width="0.857574" stroke-miterlimit="10"/>
<path vector-effect="non-scaling-stroke" d="M502.065 226.7L513.136 238.937C519.936 246.45 514.602 258.456 504.474 258.456H475.729V225.816L502.065 226.7Z" fill="#020202" stroke="white" stroke-width="0.857574" stroke-miterlimit="10"/>
<path vector-effect="non-scaling-stroke" d="M396.462 239.159L383.316 251.208C377.725 256.336 368.806 254.801 365.238 248.112L344.013 208.303C342.753 205.928 339.794 205.044 337.427 206.322L327.857 211.511C327.325 211.802 326.742 211.974 326.133 212.034L315.696 213.003C314.05 213.157 312.626 211.854 312.626 210.199C312.626 208.715 313.784 207.489 315.259 207.394L329.76 206.485L318.775 207.171L312.077 204.907C310.559 204.393 309.676 202.806 310.053 201.245C310.465 199.505 312.257 198.475 313.972 198.99L320.807 201.057L310.817 198.047L309.667 197.772C308.201 197.421 307.258 195.997 307.506 194.513C307.798 192.773 309.565 191.709 311.237 192.258L319.898 195.122L308.055 191.203C306.889 190.792 306.357 189.454 306.915 188.348C307.987 186.238 310.456 185.26 312.678 186.075L322.48 189.651L337.221 187.284C338.087 187.147 338.147 185.929 337.298 185.706L329.435 183.631C327.05 183.005 325.833 180.364 326.896 178.142C327.762 176.341 329.846 175.475 331.733 176.136L344.519 180.621C347.083 181.521 349.365 183.091 351.105 185.174L378.428 217.702L385.374 220.532L396.454 239.176L396.462 239.159Z" fill="#020202"/>
<path vector-effect="non-scaling-stroke" d="M320.807 201.057L313.972 198.99C312.257 198.475 310.465 199.505 310.053 201.245C309.676 202.806 310.559 204.393 312.077 204.907L318.775 207.171L329.76 206.485L315.259 207.394C313.784 207.489 312.626 208.715 312.626 210.199C312.626 211.854 314.05 213.157 315.696 213.003L326.133 212.034C326.742 211.974 327.325 211.802 327.857 211.511L337.427 206.322C339.794 205.044 342.753 205.928 344.013 208.303L365.238 248.112C368.806 254.801 377.725 256.336 383.316 251.208L396.462 239.159L396.454 239.176L385.374 220.532L378.428 217.702L351.105 185.174C349.365 183.091 347.083 181.521 344.519 180.621L331.733 176.136C329.846 175.475 327.762 176.341 326.896 178.142C325.833 180.364 327.05 183.005 329.435 183.631L337.298 185.706C338.147 185.929 338.087 187.147 337.221 187.284L322.48 189.651L312.678 186.075C310.456 185.26 307.987 186.238 306.915 188.348C306.357 189.454 306.889 190.792 308.055 191.203L319.898 195.122M320.807 201.057L330.755 200.414M320.807 201.057L310.817 198.047L309.667 197.772C308.201 197.421 307.258 195.997 307.506 194.513C307.798 192.773 309.565 191.709 311.237 192.258L319.898 195.122M319.898 195.122L331.784 194.565" stroke="white" stroke-width="0.857574" stroke-miterlimit="10"/>
<path vector-effect="non-scaling-stroke" d="M503.574 225.344C503.574 225.344 488.043 204.247 474.133 195.457C460.215 186.667 419.351 188.571 407.774 196.486C396.205 204.393 378.437 217.685 378.437 217.685L391.72 245.934L425.209 215.782L407.302 231.904L404.987 260.067H478.961L474.716 216.562L476.792 237.804L482.778 243.961L503.582 225.361L503.574 225.344Z" fill="#020202" stroke="white" stroke-width="0.857574" stroke-miterlimit="10"/>
<path vector-effect="non-scaling-stroke" d="M491.157 322.594H308.734C301.881 322.594 296.316 317.028 296.316 310.176V308.384H503.574V310.176C503.574 317.028 498.009 322.594 491.157 322.594Z" fill="#202020" stroke="white" stroke-width="0.857574" stroke-miterlimit="10"/>
<path vector-effect="non-scaling-stroke" d="M328.397 308.383H339.957V306.256H328.397V308.383Z" fill="#020202" stroke="white" stroke-width="0.857574" stroke-miterlimit="10"/>
<path vector-effect="non-scaling-stroke" d="M341.527 308.383H353.087V306.256H341.527V308.383Z" fill="#020202" stroke="white" stroke-width="0.857574" stroke-miterlimit="10"/>
<path vector-effect="non-scaling-stroke" d="M354.656 308.383H366.216V306.256H354.656V308.383Z" fill="#020202" stroke="white" stroke-width="0.857574" stroke-miterlimit="10"/>
<path vector-effect="non-scaling-stroke" d="M367.786 308.383H379.346V306.256H367.786V308.383Z" fill="#020202" stroke="white" stroke-width="0.857574" stroke-miterlimit="10"/>
<path vector-effect="non-scaling-stroke" d="M380.923 308.383H392.483V306.256H380.923V308.383Z" fill="#020202" stroke="white" stroke-width="0.857574" stroke-miterlimit="10"/>
<path vector-effect="non-scaling-stroke" d="M394.044 308.383H405.604V306.256H394.044V308.383Z" fill="#020202" stroke="white" stroke-width="0.857574" stroke-miterlimit="10"/>
<path vector-effect="non-scaling-stroke" d="M407.173 308.383H418.733V306.256H407.173V308.383Z" fill="#020202" stroke="white" stroke-width="0.857574" stroke-miterlimit="10"/>
<path vector-effect="non-scaling-stroke" d="M420.303 308.383H431.863V306.256H420.303V308.383Z" fill="#020202" stroke="white" stroke-width="0.857574" stroke-miterlimit="10"/>
<path vector-effect="non-scaling-stroke" d="M433.433 308.383H444.993V306.256H433.433V308.383Z" fill="#020202" stroke="white" stroke-width="0.857574" stroke-miterlimit="10"/>
<path vector-effect="non-scaling-stroke" d="M446.571 308.383H458.131V306.256H446.571V308.383Z" fill="#020202" stroke="white" stroke-width="0.857574" stroke-miterlimit="10"/>
<path vector-effect="non-scaling-stroke" d="M459.7 308.383H471.26V306.256H459.7V308.383Z" fill="#020202" stroke="white" stroke-width="0.857574" stroke-miterlimit="10"/>
<path vector-effect="non-scaling-stroke" d="M472.83 308.383H484.39V306.256H472.83V308.383Z" fill="#020202" stroke="white" stroke-width="0.857574" stroke-miterlimit="10"/>
<path vector-effect="non-scaling-stroke" d="M430.456 293.204H427.781C422.661 293.204 418.51 289.045 418.51 283.934V271.988H439.735V283.934C439.735 289.053 435.576 293.204 430.465 293.204H430.456Z" fill="#404040" stroke="white" stroke-width="0.857574" stroke-miterlimit="10"/>
<path vector-effect="non-scaling-stroke" d="M438.373 156.464C445.37 155.941 448.595 159.963 451.236 164.585C453.509 168.564 457.239 175.554 459.906 182.877C463.997 194.12 471.586 210.757 471.586 210.757H442.103L437.721 169.885C437.721 169.885 433.827 169.302 431.049 166.961C428.279 164.628 428.373 161.995 432.172 158.934C433.69 157.707 435.928 156.644 438.373 156.455V156.464Z" fill="#404040" stroke="white" stroke-width="0.857574" stroke-miterlimit="10"/>
<path vector-effect="non-scaling-stroke" d="M245.641 263.832H378.856C386.343 263.832 392.423 269.912 392.423 277.399C392.423 284.885 386.343 290.966 378.856 290.966H245.641V263.841V263.832Z" fill="#020202" stroke="white" stroke-width="0.857574" stroke-miterlimit="10"/>
<path vector-effect="non-scaling-stroke" d="M307.283 271.996L309.272 276.01L313.697 276.661L310.49 279.783L311.253 284.199L307.283 282.115L303.321 284.199L304.076 279.783L300.868 276.661L305.302 276.01L307.283 271.996Z" fill="#A100FF" stroke="white" stroke-width="0.857574" stroke-miterlimit="10"/>
<path vector-effect="non-scaling-stroke" d="M288.896 271.996L290.877 276.01L295.311 276.661L292.103 279.783L292.867 284.199L288.896 282.115L284.934 284.199L285.689 279.783L282.481 276.661L286.915 276.01L288.896 271.996Z" fill="#A100FF" stroke="white" stroke-width="0.857574" stroke-miterlimit="10"/>
<path vector-effect="non-scaling-stroke" d="M325.677 271.996L327.658 276.01L332.092 276.661L328.885 279.783L329.639 284.199L325.677 282.115L321.707 284.199L322.47 279.783L319.263 276.661L323.696 276.01L325.677 271.996Z" fill="#A100FF" stroke="white" stroke-width="0.857574" stroke-miterlimit="10"/>
<path vector-effect="non-scaling-stroke" d="M344.064 271.996L346.045 276.01L350.479 276.661L347.271 279.783L348.026 284.199L344.064 282.115L340.102 284.199L340.857 279.783L337.649 276.661L342.083 276.01L344.064 271.996Z" fill="#A100FF" stroke="white" stroke-width="0.857574" stroke-miterlimit="10"/>
<path vector-effect="non-scaling-stroke" d="M362.45 271.996L364.431 276.01L368.864 276.661L365.657 279.783L366.412 284.199L362.45 282.115L358.488 284.199L359.242 279.783L356.035 276.661L360.469 276.01L362.45 271.996Z" fill="#A100FF" stroke="white" stroke-width="0.857574" stroke-miterlimit="10"/>
<path vector-effect="non-scaling-stroke" d="M113.926 163.042L100.008 126.115" stroke="white" stroke-width="0.857574" stroke-miterlimit="10"/>
<path vector-effect="non-scaling-stroke" d="M152.071 145.196L151.882 102.995" stroke="white" stroke-width="0.857574" stroke-miterlimit="10"/>
<path vector-effect="non-scaling-stroke" d="M375.863 117.429C382.912 110.379 394.335 110.379 401.376 117.429C408.425 124.478 408.425 135.901 401.376 142.941L375.863 168.454L350.35 142.941C343.301 135.892 343.301 124.469 350.35 117.429C357.4 110.379 368.823 110.379 375.863 117.429Z" fill="#A100FF" stroke="white" stroke-width="0.857574" stroke-miterlimit="10"/>
<path vector-effect="non-scaling-stroke" d="M184.428 50.9219C180.474 52.0367 179.746 51.9424 174.54 52.2254" stroke="white" stroke-width="0.857574" stroke-miterlimit="10"/>
<path vector-effect="non-scaling-stroke" d="M178.708 33.5479C181.941 42.3037 184.531 43.6072 182.918 45.2709C181.306 46.9346 177.559 46.2571 177.559 46.2571" fill="#020202"/>
<path vector-effect="non-scaling-stroke" d="M178.708 33.5479C181.941 42.3037 184.531 43.6072 182.918 45.2709C181.306 46.9346 177.559 46.2571 177.559 46.2571" stroke="white" stroke-width="0.857574" stroke-miterlimit="10" stroke-linecap="round"/>
</g>
<defs>
<clipPath id="clip0_77_5088">
<rect width="498.413" height="324" fill="white" transform="translate(39)"/>
</clipPath>
</defs>
</svg>
